<?xml version="1.0" ?>
<svg xmlns="http://www.w3.org/2000/svg" xmlns:ev="http://www.w3.org/2001/xml-events" xmlns:xlink="http://www.w3.org/1999/xlink" baseProfile="full" height="86" version="1.1" viewBox="0 0 86 86" width="86">
	<defs/>
	<path d="M 13.0,82.19995 L 13.012999999999998,44.551950000000005 C 13.012999999999998,44.49195 13.009999999999998,44.430949999999996 13.003,44.37094999999999 C 12.988,44.24594999999999 12.954999999999998,44.15195 12.904999999999994,44.08994999999999 C 12.869999999999997,44.043949999999995 12.818999999999996,44.01294999999999 12.762999999999998,44.001949999999994 C 12.747999999999998,43.99894999999998 12.732999999999997,43.99795 12.717999999999996,43.99795 C 12.598999999999997,43.99795 12.488999999999997,44.09494999999998 12.387999999999998,44.287949999999995 C 12.36,44.34094999999999 12.334999999999994,44.39595 12.312999999999995,44.45194999999998 C 11.491999999999997,47.53094999999999 11.040999999999997,48.184949999999986 9.663999999999994,51.18594999999999 C 8.897999999999996,52.85495 8.655999999999999,53.56895 7.674999999999997,55.10395 C 7.110999999999997,55.98595 6.924999999999997,56.52695 6.131999999999998,57.32995 C 5.795999999999999,57.80894999999998 4.982999999999997,58.30894999999998 4.407999999999994,58.41995 C 4.150999999999996,58.47494999999998 3.888999999999996,58.50094999999999 3.6269999999999953,58.49894999999998 C 2.6939999999999955,58.49894999999998 2.1779999999999973,58.45794999999998 1.5109999999999957,57.79094999999998 C 1.2639999999999958,57.49894999999998 1.0239999999999938,57.17994999999999 0.8529999999999944,56.83794999999998 C 0.6109999999999971,56.35794999999999 0.48399999999999466,55.82794999999999 0.4819999999999993,55.29094999999998 C 0.4859999999999971,54.61994999999999 0.5959999999999965,54.019949999999994 0.9169999999999945,53.430949999999996 C 1.0629999999999953,53.156949999999995 1.3549999999999969,52.54495 1.4839999999999947,52.261949999999985 C 3.189,48.513949999999994 4.119,47.823949999999996 5.857999999999997,44.05294999999998 C 6.651999999999994,42.32995 7.640999999999998,40.28895 8.305,38.269949999999994 C 8.968999999999994,36.25094999999999 9.335999999999999,35.40994999999998 9.848999999999997,33.523949999999985 C 10.638999999999996,30.61994999999999 11.158999999999999,27.89194999999998 11.699999999999996,25.59994999999998 C 11.754999999999995,25.210949999999997 11.648999999999994,24.983949999999993 11.379999999999995,24.918949999999995 C 11.320999999999998,24.90594999999999 11.260999999999996,24.898949999999985 11.199999999999996,24.89994999999999 L 3.799999999999997,24.89994999999999 C 2.933,24.89994999999999 2.1999999999999957,24.59994999999998 1.5999999999999943,23.999949999999984 C 1.0189999999999984,23.432950000000005 0.6939999999999955,22.652950000000004 0.6999999999999957,21.840949999999992 C 0.6999999999999957,21.826949999999982 0.6999999999999957,21.813949999999977 0.6999999999999957,21.799949999999995 C 0.6999999999999957,20.932950000000005 1.0,20.19995 1.5999999999999943,19.59994999999998 C 2.1679999999999993,19.01894999999999 2.9479999999999933,18.69395 3.759999999999998,18.69995 C 3.772999999999996,18.69995 3.786999999999999,18.69995 3.799999999999997,18.69995 L 12.399999999999999,18.69995 C 12.479999999999997,18.700949999999978 12.559999999999995,18.690949999999987 12.636999999999993,18.66995 C 12.878999999999998,18.600949999999983 13.0,18.410949999999985 13.0,18.09994999999998 L 13.0,3.699950000000001 C 12.995999999999995,3.344949999999983 13.049,2.990949999999998 13.156999999999996,2.652950000000004 C 13.308999999999997,2.1879500000000007 13.582999999999998,1.7729499999999803 13.949999999999996,1.4499500000000012 C 14.582999999999998,0.8829499999999939 15.332999999999998,0.5999499999999784 16.199999999999996,0.5999499999999784 C 16.541999999999994,0.5969499999999925 16.881999999999998,0.6429499999999848 17.21,0.7379499999999837 C 17.68399999999999,0.8759499999999889 18.112000000000002,1.1389499999999941 18.449999999999996,1.4999499999999841 C 19.008999999999993,2.0869500000000016 19.314,2.8699499999999887 19.29999999999999,3.679949999999991 C 19.29999999999999,3.686949999999996 19.29999999999999,3.692949999999996 19.29999999999999,3.699950000000001 L 19.29999999999999,18.09994999999998 C 19.299,18.17994999999999 19.30899999999999,18.259950000000003 19.32999999999999,18.337949999999978 C 19.398999999999994,18.578949999999992 19.58899999999999,18.69995 19.9,18.69995 L 24.9,18.69995 C 25.321999999999996,18.694949999999977 25.740999999999993,18.771950000000004 26.133999999999993,18.92595 C 26.493000000000002,19.070949999999982 26.82,19.28295 27.1,19.549949999999995 C 27.59499999999999,20.01694999999998 27.904000000000003,20.64794999999998 27.972,21.32495 C 27.990999999999993,21.482949999999988 27.999999999999993,21.640950000000004 27.999999999999993,21.799949999999995 C 27.999999999999993,22.666949999999986 27.699999999999996,23.39994999999999 27.1,23.999949999999984 C 26.532999999999994,24.58095 25.752999999999993,24.90594999999999 24.940999999999995,24.89994999999999 C 24.927,24.89994999999999 24.913999999999994,24.89994999999999 24.9,24.89994999999999 L 19.9,24.89994999999999 C 19.82,24.898949999999985 19.740000000000002,24.908950000000004 19.663000000000004,24.92994999999999 C 19.421,24.99894999999998 19.29999999999999,25.188949999999977 19.29999999999999,25.499949999999984 L 19.29999999999999,27.39994999999999 C 19.29999999999999,27.54694999999998 19.33599999999999,27.710949999999997 19.407999999999994,27.89394999999999 C 19.436,27.963949999999983 19.466,28.03295 19.499999999999993,28.09994999999998 C 21.232999999999997,30.632949999999994 22.753999999999998,33.82995 24.125999999999998,37.88594999999998 C 25.497999999999998,41.94194999999999 26.472999999999992,44.09994999999998 27.672999999999995,47.69995 C 27.759999999999998,47.96095 27.81799999999999,48.192949999999996 27.848999999999997,48.396950000000004 C 27.863999999999997,48.49695 27.871999999999993,48.59895 27.872999999999998,48.69995 C 27.880000000000003,49.13794999999999 27.79699999999999,49.57194999999999 27.630000000000003,49.97694999999999 C 27.401999999999994,50.507949999999994 27.012999999999998,50.93795 26.463,51.26894999999999 C 26.243000000000002,51.39994999999999 26.011999999999993,51.50995 25.773000000000003,51.59994999999998 C 25.705999999999996,51.62195 25.636999999999993,51.638949999999994 25.56799999999999,51.650949999999995 C 25.427,51.67595 25.255000000000003,51.69194999999999 25.053999999999995,51.69794999999999 C 24.993999999999993,51.69995 24.933,51.69995 24.872999999999998,51.69995 C 24.511999999999993,51.69794999999999 24.154999999999994,51.624949999999984 23.823,51.48495 C 23.631999999999998,51.40594999999999 23.448,51.309949999999986 23.273000000000003,51.19995 C 22.740000000000002,50.86695 22.372999999999998,50.39994999999999 22.172999999999995,49.799949999999995 C 21.484,47.626949999999994 21.08899999999999,45.88395 20.496000000000002,43.40594999999999 C 20.297999999999995,42.57894999999999 20.214999999999996,41.94194999999999 19.999999999999993,41.09994999999998 C 19.988999999999997,41.05294999999998 19.972999999999992,41.00694999999999 19.954,40.96195 C 19.880999999999993,40.79894999999999 19.767999999999994,40.72794999999999 19.615000000000002,40.74795 C 19.609999999999992,40.74894999999998 19.604999999999997,40.74894999999998 19.6,40.749949999999984 C 19.4,40.78295 19.29999999999999,40.96695 19.29999999999999,41.299949999999995 L 19.29999999999999,82.19995 C 19.29999999999999,83.06694999999999 19.017000000000003,83.81694999999999 18.449999999999996,84.44995 C 17.883000000000003,85.08294999999998 17.133000000000003,85.39994999999999 16.199999999999996,85.39994999999999 C 15.366,85.40795 14.564,85.07594999999998 13.979999999999997,84.47995 C 13.969999999999999,84.46994999999998 13.959999999999994,84.45994999999999 13.949999999999996,84.44995 C 13.628999999999998,84.13594999999998 13.375999999999998,83.75895 13.208999999999996,83.34295 C 13.067999999999998,82.97895 12.997,82.59094999999999 13.0,82.19995" style="fill:#000"/>
	<path d="M 81.5999,16.300099999999986 L 34.3999,16.300099999999986 C 34.03189999999999,16.304099999999977 33.66589999999999,16.24509999999998 33.316900000000004,16.12609999999998 C 32.9149,15.985099999999989 32.549899999999994,15.75309999999999 32.2499,15.450099999999992 C 31.729899999999997,14.933099999999996 31.427899999999998,14.236099999999993 31.404899999999994,13.50309999999999 C 31.401899999999994,13.435099999999977 31.3999,13.368099999999998 31.3999,13.300099999999986 C 31.3999,12.500099999999975 31.6829,11.800099999999986 32.2499,11.200099999999992 C 32.77889999999999,10.630099999999999 33.5209,10.305099999999982 34.2989,10.302099999999996 C 34.332899999999995,10.301099999999991 34.365899999999996,10.300099999999986 34.3999,10.300099999999986 L 53.9999,10.300099999999986 C 54.079899999999995,10.301099999999991 54.15990000000001,10.2911 54.237899999999996,10.270099999999985 C 54.478899999999996,10.201099999999997 54.599900000000005,10.011099999999999 54.599900000000005,9.700099999999992 L 54.599900000000005,3.200099999999992 C 54.599900000000005,2.2670999999999992 54.8999,1.500099999999975 55.4999,0.9000999999999806 C 56.067899999999995,0.3190999999999917 56.847899999999996,-0.005900000000025329 57.65990000000001,9.999999997489795e-05 C 57.6729,9.999999997489795e-05 57.686899999999994,9.999999997489795e-05 57.6999,9.999999997489795e-05 C 58.63290000000001,9.999999997489795e-05 59.3999,0.30009999999998627 59.9999,0.9000999999999806 C 60.5239,1.4230999999999767 60.838899999999995,2.1190999999999747 60.88590000000001,2.858099999999979 C 60.89490000000001,2.9720999999999833 60.8999,3.0860999999999876 60.8999,3.200099999999992 L 60.8999,9.700099999999992 C 60.8989,9.780099999999976 60.9089,9.860099999999989 60.9299,9.938099999999991 C 60.998900000000006,10.179099999999977 61.188900000000004,10.300099999999986 61.4999,10.300099999999986 L 81.5999,10.300099999999986 C 82.3999,10.300099999999986 83.0999,10.583100000000002 83.6999,11.15009999999998 C 84.2699,11.679099999999977 84.5959,12.421099999999996 84.5989,13.199099999999987 C 84.5999,13.233099999999979 84.5999,13.266099999999994 84.5999,13.300099999999986 C 84.6039,13.682099999999991 84.5369,14.062099999999987 84.4019,14.42009999999999 C 84.2479,14.812099999999987 84.0089,15.16409999999999 83.6999,15.450099999999992 C 83.0999,16.0171 82.3999,16.300099999999986 81.5999,16.300099999999986" style="fill:#000"/>
	<path d="M 74.14974999999998,50.95600000000002 L 41.84974999999997,50.95600000000002 C 40.44175000000001,50.97000000000003 39.08774999999997,50.411 38.100750000000005,49.406000000000006 C 38.08375000000001,49.38900000000001 38.06675000000001,49.37299999999999 38.04975000000002,49.355999999999995 C 37.49675000000002,48.815 37.06574999999998,48.16300000000001 36.784749999999974,47.44200000000001 C 36.558749999999975,46.839 36.445749999999975,46.19999999999999 36.449749999999995,45.55599999999998 L 36.449749999999995,28.444000000000017 C 36.44175000000001,27.69799999999998 36.586749999999995,26.959000000000003 36.87574999999998,26.27199999999999 C 37.15174999999999,25.639999999999986 37.550749999999994,25.069999999999993 38.04975000000002,24.593999999999994 C 39.11674999999997,23.56099999999998 40.38375000000002,23.043999999999983 41.84974999999997,23.043999999999983 L 74.14974999999998,23.043999999999983 C 74.86775,23.036 75.57974999999999,23.165999999999997 76.24775,23.425999999999988 C 76.90575000000001,23.690999999999974 77.50274999999999,24.089 77.99975,24.593999999999994 C 79.00875000000002,25.589999999999975 79.56874999999997,26.954000000000008 79.54975000000002,28.372000000000014 C 79.55075,28.396000000000015 79.55075,28.420000000000016 79.54975000000002,28.444000000000017 L 79.54975000000002,45.55599999999998 C 79.54975000000002,47.023000000000025 79.03375,48.28899999999999 77.99975,49.355999999999995 C 77.03575000000001,50.374000000000024 75.69574999999998,50.952 74.29275000000001,50.954999999999984 C 74.24574999999999,50.95600000000002 74.19774999999998,50.95600000000002 74.14974999999998,50.95600000000002 M 43.249750000000006,44.95600000000002 L 72.74975,44.95600000000002 C 72.83074999999997,44.956999999999994 72.91075000000001,44.947 72.98775,44.92599999999999 C 73.22974999999997,44.85700000000003 73.34974999999997,44.66699999999997 73.34974999999997,44.355999999999995 L 73.34974999999997,29.644000000000005 C 73.35174999999998,29.56400000000002 73.34174999999999,29.48399999999998 73.32074999999998,29.406999999999982 C 73.25175000000002,29.16500000000002 73.06175000000002,29.043999999999983 72.74975,29.043999999999983 L 43.249750000000006,29.043999999999983 C 43.16975000000002,29.043000000000006 43.090750000000014,29.052999999999997 43.01274999999998,29.074000000000012 C 42.77075000000002,29.14300000000003 42.64974999999998,29.333000000000027 42.64974999999998,29.644000000000005 L 42.64974999999998,44.355999999999995 C 42.64875000000001,44.43599999999998 42.65875,44.51600000000002 42.67975000000001,44.593999999999994 C 42.749750000000006,44.83499999999998 42.939750000000004,44.95600000000002 43.249750000000006,44.95600000000002" style="fill:#000"/>
	<path d="M 35.0275,85.42190000000002 C 34.7635,85.53790000000001 34.4785,85.59889999999999 34.1905,85.59990000000002 C 33.4695,85.60389999999998 32.783500000000004,85.2929 32.310500000000005,84.74789999999999 C 32.1545,84.57790000000003 32.0145,84.39489999999998 31.890500000000003,84.19989999999999 C 31.6715,83.92690000000002 31.5425,83.56390000000002 31.503500000000003,83.11089999999999 C 31.494500000000002,83.00790000000003 31.4905,82.9039 31.4905,82.79990000000001 C 31.4905,81.73390000000003 31.957500000000003,80.8339 32.8905,80.09990000000002 C 35.3595,78.2039 37.822500000000005,69.8269 39.0855,66.85990000000001 C 39.914500000000004,64.91190000000003 41.4575,59.16589999999999 42.3775,57.25890000000001 C 42.8715,56.1489 43.679500000000004,55.552899999999994 44.8005,55.46889999999999 C 44.8925,55.46290000000002 44.9855,55.4589 45.0775,55.4589 C 45.877500000000005,55.4589 46.560500000000005,55.725899999999996 47.127500000000005,56.25890000000001 C 47.3275,56.44390000000001 47.5015,56.6559 47.6455,56.8869 C 47.8635,57.23890000000003 47.978500000000004,57.64489999999998 47.9775,58.05890000000002 C 47.9765,58.29389999999998 47.9285,58.52689999999998 47.8375,58.74289999999999 C 47.792500000000004,58.852900000000005 47.7385,58.95790000000002 47.6775,59.05890000000002 C 45.560500000000005,66.6369 40.590500000000006,81.69989999999999 35.590500000000006,85.09990000000002 C 35.4155,85.2279 35.2265,85.33590000000001 35.0275,85.42190000000002 M 59.6835,85.4829 C 59.5995,85.42589999999998 59.5185,85.3649 59.4405,85.29990000000001 C 59.0675,84.99789999999999 58.7595,84.62390000000002 58.5345,84.19890000000001 C 58.4345,84.00790000000003 58.3525,83.80690000000001 58.2905,83.59990000000002 C 57.8095,81.71290000000002 57.0675,77.20489999999998 56.603500000000004,75.3169 C 55.542500000000004,71.00289999999998 55.0555,70.03990000000002 53.3055,62.70689999999999 C 53.057500000000005,61.66589999999999 52.5005,60.81590000000003 52.0505,59.96889999999999 C 52.0205,59.91290000000001 51.990500000000004,59.856900000000024 51.9595,59.79990000000001 C 51.7595,59.39990000000003 51.6595,58.96689999999998 51.6595,58.4999 C 51.6545,58.14990000000003 51.7185,57.80190000000002 51.8495,57.475899999999996 C 52.0785,56.925899999999984 52.5155,56.50090000000003 53.1595,56.199899999999985 C 53.359500000000004,56.13390000000001 53.5595,56.0839 53.7595,56.04990000000001 C 53.853500000000004,56.03490000000002 53.947500000000005,56.0239 54.0415,56.015900000000016 C 54.1385,56.007900000000035 54.240500000000004,56.00289999999998 54.3495,56.00090000000003 C 54.386500000000005,56.00090000000003 54.4225,55.9999 54.4595,55.9999 C 54.9245,55.993900000000025 55.386500000000005,56.0719 55.8235,56.23089999999999 C 56.4735,56.47690000000003 57.0035,56.91889999999998 57.414500000000004,57.55589999999998 C 57.4655,57.63590000000002 57.5135,57.717900000000014 57.5595,57.79990000000001 C 58.4925,59.733900000000034 61.0065,68.18590000000003 62.1375,74.15490000000003 C 62.9435,78.4109 63.0035,79.12590000000003 63.5715,81.3289 C 63.6805,81.7519 63.7875,82.17589999999998 63.8905,82.59990000000002 C 63.947500000000005,82.84790000000001 63.9765,83.0889 63.9765,83.32290000000003 C 63.9765,83.90889999999999 63.7885,84.47889999999998 63.4405,84.94989999999999 C 63.0355,85.5359 62.3915,85.91190000000003 61.682500000000005,85.9779 C 61.5525,85.99289999999999 61.4215,86.00090000000003 61.2905,85.9999 C 60.7145,85.99890000000002 60.1525,85.81789999999998 59.6835,85.4829" style="fill:#000"/>
	<path d="M 70.1785,84.9469 C 70.09450000000001,84.88989999999998 70.0135,84.8289 69.9355,84.7639 C 69.5625,84.46189999999999 69.25450000000001,84.08790000000002 69.0295,83.66290000000001 C 68.9295,83.47190000000003 68.8475,83.27090000000001 68.7855,83.06390000000002 C 68.3045,81.17690000000002 67.5625,76.66889999999998 67.0985,74.7809 C 66.0375,70.46689999999998 65.5505,69.50390000000002 63.8005,62.17089999999999 C 63.5525,61.12989999999999 62.9955,60.279900000000026 62.545500000000004,59.43289999999999 C 62.5155,59.376900000000006 62.4855,59.32090000000002 62.4545,59.26390000000001 C 62.2545,58.86390000000003 62.1545,58.43089999999998 62.1545,57.963899999999995 C 62.1495,57.61390000000003 62.2135,57.265900000000016 62.344500000000004,56.939899999999994 C 62.5735,56.38989999999998 63.0105,55.96490000000003 63.6545,55.663899999999984 C 63.8545,55.59790000000001 64.0545,55.5479 64.25450000000001,55.51390000000001 C 64.3485,55.49890000000002 64.4425,55.487899999999996 64.5365,55.479900000000015 C 64.6335,55.47190000000003 64.7355,55.46689999999998 64.84450000000001,55.46490000000003 C 64.8815,55.46490000000003 64.9175,55.463899999999995 64.9545,55.463899999999995 C 65.4195,55.45790000000002 65.8815,55.5359 66.3185,55.69489999999999 C 66.9685,55.94090000000003 67.4985,56.382900000000035 67.90950000000001,57.01989999999998 C 67.9605,57.09990000000002 68.0085,57.18190000000001 68.0545,57.26390000000001 C 68.98750000000001,59.19790000000003 71.5015,67.64990000000003 72.6325,73.61890000000002 C 73.4385,77.8749 73.4985,78.58990000000003 74.0665,80.7929 C 74.1755,81.2159 74.2825,81.63989999999998 74.38550000000001,82.06390000000002 C 74.4425,82.31190000000001 74.47149999999999,82.5529 74.47149999999999,82.78690000000003 C 74.47149999999999,83.37289999999999 74.2835,83.94289999999998 73.9355,84.41389999999998 C 73.5305,84.9999 72.88650000000001,85.37590000000003 72.17750000000001,85.4419 C 72.0475,85.45689999999999 71.9165,85.46490000000003 71.7855,85.4639 C 71.20949999999999,85.46290000000002 70.64750000000001,85.28189999999998 70.1785,84.9469" style="fill:#000"/>
	<path d="M 80.2165,84.9469 C 80.1325,84.88989999999998 80.0515,84.8289 79.9735,84.7639 C 79.60050000000001,84.46189999999999 79.29249999999999,84.08790000000002 79.0675,83.66290000000001 C 78.9675,83.47190000000003 78.88550000000001,83.27090000000001 78.8235,83.06390000000002 C 78.3425,81.17690000000002 77.60050000000001,76.66889999999998 77.13650000000001,74.7809 C 76.0755,70.46689999999998 75.58850000000001,69.50390000000002 73.83850000000001,62.17089999999999 C 73.59049999999999,61.12989999999999 73.0335,60.279900000000026 72.5835,59.43289999999999 C 72.5535,59.376900000000006 72.5235,59.32090000000002 72.4925,59.26390000000001 C 72.2925,58.86390000000003 72.1925,58.43089999999998 72.1925,57.963899999999995 C 72.1875,57.61390000000003 72.2515,57.265900000000016 72.3825,56.939899999999994 C 72.6115,56.38989999999998 73.0485,55.96490000000003 73.6925,55.663899999999984 C 73.8925,55.59790000000001 74.0925,55.5479 74.2925,55.51390000000001 C 74.38650000000001,55.49890000000002 74.4805,55.487899999999996 74.5745,55.479900000000015 C 74.67150000000001,55.47190000000003 74.7735,55.46689999999998 74.8825,55.46490000000003 C 74.9195,55.46490000000003 74.9555,55.463899999999995 74.9925,55.463899999999995 C 75.45750000000001,55.45790000000002 75.9195,55.5359 76.35650000000001,55.69489999999999 C 77.0065,55.94090000000003 77.5365,56.382900000000035 77.94749999999999,57.01989999999998 C 77.9985,57.09990000000002 78.04650000000001,57.18190000000001 78.0925,57.26390000000001 C 79.0255,59.19790000000003 81.5395,67.64990000000003 82.6705,73.61890000000002 C 83.47650000000002,77.8749 83.53649999999999,78.58990000000003 84.1045,80.7929 C 84.21350000000001,81.2159 84.32050000000001,81.63989999999998 84.42349999999999,82.06390000000002 C 84.4805,82.31190000000001 84.5095,82.5529 84.5095,82.78690000000003 C 84.5095,83.37289999999999 84.32150000000001,83.94289999999998 83.9735,84.41389999999998 C 83.5685,84.9999 82.9245,85.37590000000003 82.21549999999999,85.4419 C 82.0855,85.45689999999999 81.9545,85.46490000000003 81.8235,85.4639 C 81.2475,85.46290000000002 80.68549999999999,85.28189999999998 80.2165,84.9469" style="fill:#000"/>
</svg>
