<?xml version="1.0" encoding="utf-8"?>
<svg xmlns="http://www.w3.org/2000/svg" viewBox="13.271 242.836 44.1602 24.863" width="44.1602px" height="24.863px">
  <path d="M 26.26 242.836 C 26.673 242.864 27.085 242.897 27.496 242.934 C 31.379 243.291 34.119 244.035 35.717 245.166 C 36.719 245.782 37.348 246.857 37.392 248.031 C 36.527 251.99 35.909 255.948 35.537 259.906 C 38.616 259.106 41.708 258.364 44.814 257.68 C 45.025 257.427 45.241 257.178 45.462 256.933 C 46.102 256.229 46.617 255.776 47.005 255.574 C 47.13 255.503 47.269 255.461 47.412 255.453 C 52.116 256.019 55.163 256.861 56.554 257.979 C 57.075 258.332 57.4 258.908 57.431 259.535 C 57.436 259.866 57.337 260.189 57.149 260.46 C 56.851 260.892 56.316 261.236 55.546 261.49 C 55.192 261.605 54.83 261.696 54.463 261.762 C 48.645 262.066 42.843 262.636 37.076 263.468 C 30.412 264.421 23.822 265.834 17.353 267.699 C 16.179 267.425 15.203 267.077 14.425 266.654 C 14.008 266.434 13.621 266.162 13.271 265.844 L 13.642 265.102 C 19.642 263.618 25.208 262.257 30.342 261.02 C 30.156 257.124 29.785 253.289 29.228 249.516 C 29.051 248.924 28.787 248.361 28.443 247.846 C 28.132 247.378 27.773 246.943 27.373 246.547 C 27.369 246.543 27.364 246.538 27.359 246.533 C 26.131 245.303 25.517 244.318 25.517 243.578 L 26.26 242.836 Z" id="path-40" vector-effect="non-scaling-stroke" transform="matrix(1, 0, 0, 1.0000000000000002, 2.220446049250313e-16, -2.842170943040401e-14)"/>
</svg>