<?xml version="1.0" encoding="utf-8"?>
<svg xmlns="http://www.w3.org/2000/svg" viewBox="99.605 235.321 46.0165 23.379" width="46.0165px" height="23.379px">
  <path d="M 108.14 241.259 C 108.46 241.259 108.781 241.262 109.101 241.27 C 112.06 241.342 114.157 241.76 115.392 242.522 C 116.049 242.875 116.518 243.499 116.676 244.228 C 116.701 244.441 116.726 244.655 116.75 244.869 C 116.895 246.153 116.994 247.3 117.047 248.31 L 119.273 248.31 L 119.644 249.052 C 118.964 249.422 118.098 249.793 117.047 250.165 C 117.474 251.614 117.723 253.109 117.789 254.618 C 117.789 256.329 117.593 257.502 117.202 258.138 C 117.03 258.476 116.685 258.692 116.305 258.7 C 114.635 258.7 113.398 257.215 112.594 254.247 L 111.851 252.763 C 111.072 253.312 110.267 253.822 109.439 254.293 C 108.531 254.809 107.603 255.289 106.656 255.731 C 105.815 255.613 104.984 255.431 104.171 255.186 C 103.332 254.926 102.607 254.607 101.994 254.227 C 100.751 253.522 99.878 252.309 99.605 250.907 L 100.348 250.536 C 101.432 250.9 102.551 251.149 103.687 251.278 L 111.109 249.423 L 110.367 246.083 C 109.671 244.778 109.036 243.718 108.463 242.903 C 108.246 242.591 108.014 242.29 107.769 242.001 L 108.14 241.259 Z M 126.695 256.845 C 126.325 257.459 126.035 258.163 125.261 258.354 C 124.726 258.486 123.433 258.223 123.355 257.479 C 123.652 255.296 123.937 253.22 124.211 251.035 C 124.472 248.947 124.708 246.956 124.921 245.062 C 125.162 242.93 125.382 240.796 125.582 238.661 C 125.562 238.639 125.541 238.616 125.521 238.594 C 124.872 237.874 124.397 237.154 124.098 236.435 L 124.469 235.321 C 127.714 235.497 130.074 236.056 131.549 236.997 C 132.573 237.571 133.253 238.606 133.375 239.774 L 131.148 245.712 C 131.896 245.589 132.641 245.443 133.381 245.276 C 134.98 244.91 136.266 244.482 137.239 243.992 C 137.719 243.759 138.167 243.464 138.57 243.114 C 139.172 243.24 139.771 243.38 140.366 243.534 C 143.869 244.446 145.621 245.543 145.621 246.825 C 145.631 247.199 145.493 247.561 145.237 247.834 C 144.915 248.177 144.39 248.419 143.661 248.559 C 143.328 248.621 142.991 248.662 142.652 248.681 C 138.91 248.851 135.694 249.079 133.005 249.366 C 131.888 249.483 130.774 249.626 129.664 249.794 L 126.695 256.845 Z" id="path-38" vector-effect="non-scaling-stroke" transform="matrix(1, 0, 0, 1, 1.4210854715202004e-14, 0)"/>
</svg>