<?xml version="1.0" encoding="utf-8"?>
<svg xmlns="http://www.w3.org/2000/svg" viewBox="1.3165 337.673 48.3095 19.688" width="48.3095px" height="19.688px">
  <path d="M 6.313 340.291 C 7.55 341.775 8.292 343.26 8.539 344.744 C 9.094 344.743 9.648 344.729 10.201 344.704 C 11.431000000000001 344.649 12.857 344.539 14.477 344.373 C 31.161 341.659 32.249 340.239 37.99 338.669 C 39.042 338.395 40.077 338.063 41.091 337.673 C 41.258 337.756 41.424 337.84 41.59 337.926 C 46.948 340.679 49.626 343.316 49.626 345.837 C 44.151 347.832 40.831 350.447 35.949 353.63 L 39.556 344.242 C 38.313 343.578 26.011 345.444 25.681 345.466 C 25.016 345.496 19.827 346.673 19.162 346.727 C 18.008 346.821 16.779 346.952 15.474 347.121 C 14.149000000000001 347.294 12.827 347.491 11.508 347.713 L 8.539 347.342 C 8.299 351.673 7.642 354.6 6.569 356.123 C 6.124 356.87 5.327 357.337 4.457 357.361 C 4.192 357.36 3.931 357.297 3.695 357.177 C 2.807 356.733 2.018 355.488 1.329 353.442 C 1.108 352.777 3.875 345.942 4.457 344.744 C 4.652 344.292 4.829 343.833 4.987 343.367 C 5.377 342.212 5.571 341.187 5.571 340.291 L 6.313 340.291 Z" id="path-44" vector-effect="non-scaling-stroke"/>
</svg>