<?xml version="1.0" encoding="utf-8"?>
<svg xmlns="http://www.w3.org/2000/svg" viewBox="52.314 54.532 44.1602 12.246" width="44.1602px" height="12.246px">
  <path d="M 52.685 64.181 C 58.685 62.697 80.751 57.443 83.857 56.759 C 84.068 56.506 84.284 56.257 84.505 56.012 C 85.145 55.308 85.66 54.855 86.048 54.653 C 86.173 54.582 86.312 54.54 86.455 54.532 C 91.159 55.098 94.206 55.94 95.597 57.058 C 96.118 57.411 96.443 57.987 96.474 58.614 C 96.479 58.945 96.38 59.268 96.192 59.539 C 95.894 59.971 95.359 60.315 94.589 60.569 C 94.235 60.684 93.873 60.775 93.506 60.841 C 87.688 61.145 81.886 61.715 76.119 62.547 C 69.455 63.5 62.865 64.913 56.396 66.778 C 55.222 66.504 54.246 66.156 53.468 65.733 C 53.051 65.513 52.664 65.241 52.314 64.923 L 52.685 64.181 Z" id="path-40" vector-effect="non-scaling-stroke"/>
</svg>