<?xml version="1.0" encoding="utf-8"?>
<svg xmlns="http://www.w3.org/2000/svg" viewBox="95.917 324.674 41.191 23.75" width="41.191px" height="23.75px">
  <path d="M 106.307 324.674 C 106.385 324.683 106.463 324.692 106.54 324.702 C 107.698 324.849 108.738 325.096 109.659 325.444 C 111.924 326.203 113.704 327.977 114.471 330.24 C 114.18 330.702 113.877 331.157 113.56 331.603 C 112.668 332.868 111.488 334.385 110.018 336.155 C 109.286 337.036 108.544 337.91 107.792 338.776 C 113.873 337.241 119.934 335.632 125.975 333.951 C 126.212 333.869 126.439 333.76 126.651 333.626 C 127.43 333.146 128.318 332.265 129.315 330.983 C 130.14 331.079 130.963 331.197 131.781 331.337 C 134.125 331.745 135.695 332.263 136.492 332.892 C 136.854 333.127 137.082 333.52 137.108 333.951 C 137.108 334.941 136.242 335.683 134.51 336.178 C 126.686 337.765 118.892 339.497 111.132 341.373 L 105.565 341.002 C 104.537 342.033 103.481 343.036 102.397 344.01 C 100.317 345.872 98.405 347.343 96.659 348.424 L 95.917 348.053 C 97.325 345.955 98.703 343.837 100.051 341.701 C 101.321 339.685 102.483 337.77 103.537 335.958 C 104.635 334.08 105.682 332.173 106.678 330.24 C 106.709 330.163 106.738 330.086 106.765 330.008 C 106.952 329.487 107.048 328.938 107.05 328.385 C 106.868 328.124 106.693 327.857 106.526 327.586 C 106.116 326.915 105.837 326.326 105.689 325.82 C 105.612 325.569 105.57 325.308 105.565 325.045 L 106.307 324.674 Z" id="path-42" vector-effect="non-scaling-stroke" transform="matrix(1, 0, 0, 1.0000000000000002, 2.220446049250313e-16, 0)"/>
</svg>