<?xml version="1.0" encoding="utf-8"?>
<svg xmlns="http://www.w3.org/2000/svg" viewBox="59.755 661.734 11.277 77.93" width="11.277px" height="77.93px">
  <path d="M 67.919 733.355 C 67.888 733.781 67.849 734.206 67.801 734.63 C 67.563 736.724 67.151 738.165 66.566 738.952 C 66.295 739.382 65.829 739.649 65.321 739.664 C 63.59 739.664 61.858 736.696 60.126 730.758 C 60.481 729.339 60.821 727.917 61.146 726.49 C 61.441 725.195 61.72 723.897 61.981 722.594 C 61.981 722.594 62.655 676.173 62.515 671.789 C 62.472 670.417 62.418 669.044 62.352 667.672 C 62.182 666.779 61.954 666.091 61.667 665.607 C 61.554 665.408 61.409 665.228 61.239 665.074 C 61.036 664.855 60.847 664.624 60.672 664.381 C 60.253 663.808 59.942 663.162 59.755 662.476 L 60.497 661.734 C 64.456 661.734 67.301 663.342 69.032 666.558 C 68.604 668.134 68.355 669.752 68.29 671.383 L 67.919 733.355 Z" id="path-48" vector-effect="non-scaling-stroke" transform="matrix(1, 0, 0, 1, 0, -5.684341886080802e-14)"/>
</svg>