<?xml version="1.0" encoding="utf-8"?>
<svg xmlns="http://www.w3.org/2000/svg" viewBox="57.613 749.064 35.996 82.754" width="35.996px" height="82.754px">
  <path d="M 93.609 781.35 C 92.768 782.473 91.89 783.568 90.976 784.634 C 88.961 786.999 86.499 789.615 83.59 792.482 C 83.59 802.131 83.714 811.903 83.961 821.799 C 83.818 822.42 83.668 823.04 83.513 823.659 C 82.151 829.098 80.939 831.818 79.879 831.818 C 79.075 831.818 78.086 830.705 76.91 828.478 C 76.891 828.442 76.872 828.406 76.852 828.37 C 75.696 826.231 73.829 824.063 71.251 821.866 C 69.974 820.786 68.643 819.773 67.261 818.83 L 67.633 818.088 C 68.209 818.223 68.786 818.357 69.362 818.489 C 71.83 819.052 73.527 819.396 74.454 819.52 C 74.653 819.55 74.854 819.567 75.054 819.572 C 75.518 819.582 75.964 819.393 76.279 819.053 C 76.666 818.647 76.946 818.003 77.118 817.122 C 77.198 816.705 77.252 816.284 77.281 815.861 C 77.409 813.079 77.502 810.296 77.559 807.512 C 77.623 804.482 77.654 801.451 77.652 798.42 C 77.458 798.615 77.262 798.809 77.066 799.002 C 75.834 800.217 74.371 801.611 72.677 803.186 C 71.988 803.827 71.296 804.465 70.601 805.1 C 70.233 805.422 69.872 805.754 69.519 806.094 C 68.99 806.604 68.484 807.139 68.004 807.697 C 66.897 807.704 65.792 807.602 64.704 807.392 C 61.73 806.899 59.131 805.107 57.613 802.502 L 58.355 802.131 C 58.655 802.188 58.955 802.24 59.256 802.287 C 59.723 802.36 60.162 802.414 60.573 802.45 C 60.947 802.483 61.321 802.501 61.695 802.502 C 64.133 801.377 67.778 799.116 72.63 795.717 C 74.318 794.533 75.992 793.331 77.652 792.111 L 77.652 755.373 C 77.652 754.805 77.51 754.246 77.239 753.746 C 77.049 753.393 76.814 753.067 76.539 752.775 C 76.426 752.648 76.317 752.518 76.211 752.384 C 75.905 751.993 75.659 751.601 75.473 751.21 C 75.203 750.657 75.06 750.05 75.054 749.435 L 75.797 749.064 C 79.065 749.505 81.483 750.294 83.05 751.433 C 84.044 752.1 84.763 753.104 85.074 754.26 C 84.75 754.77 84.529 755.593 84.413 756.73 C 84.373 757.143 84.346 757.556 84.332 757.971 C 84.149 762.051 83.59 787.658 83.59 787.658 L 92.867 780.978 L 93.609 781.35 Z" id="path-50" vector-effect="non-scaling-stroke" transform="matrix(1, 0, 0, 1, 0, -5.684341886080802e-14)"/>
</svg>