<?xml version="1.0" encoding="utf-8"?>
<svg xmlns="http://www.w3.org/2000/svg" viewBox="66.11 383.957 28.5768 82.011" width="28.5768px" height="82.011px">
  <path d="M 86.149 383.957 C 91.839 385.441 94.684 388.039 94.684 391.75 C 91.536 394.442 88.224 396.937 84.769 399.221 C 80.867 401.811 76.732 404.031 72.418 405.851 L 72.047 405.109 C 72.394 404.793 72.739 404.475 73.082 404.154 C 78.081 399.508 82.584 394.357 86.52 388.781 C 86.52 388.67 86.519 388.559 86.516 388.448 C 86.494 387.465 86.372 386.834 86.149 386.554 C 86.122 386.521 86.096 386.488 86.07 386.454 C 85.895 386.222 85.754 385.989 85.648 385.757 C 85.492 385.426 85.409 385.065 85.406 384.699 L 86.149 383.957 Z M 93.199 413.644 C 91.838 416.613 90.23 419.458 88.375 422.179 C 88.938 423.398 89.287 424.333 89.423 424.983 C 89.463 425.159 89.485 425.339 89.488 425.519 C 89.487 431.364 89.457 437.209 89.396 443.053 C 89.331 449.331 89.238 455.609 89.117 461.886 C 88.87 464.608 88.004 465.968 86.52 465.968 C 84.961 465.968 83.525 464.088 82.211 460.327 C 81.882 459.373 81.586 458.408 81.324 457.433 C 81.324 456.753 81.819 454.774 82.809 451.496 C 83.105 448.963 83.339 446.422 83.509 443.876 C 83.79 439.619 83.928 435.353 83.922 431.086 L 83.922 428.117 C 78.975 434.312 73.09 439.696 66.481 444.074 L 66.11 443.332 C 68.246 440.764 70.308 438.134 72.292 435.446 C 75.466 431.136 78.206 426.946 80.511 422.875 C 82.885 418.743 84.895 414.413 86.52 409.933 C 86.52 409.842 86.519 409.75 86.518 409.658 C 86.506 408.82 86.437 408.181 86.311 407.741 C 86.273 407.6 86.219 407.465 86.149 407.336 C 85.836 406.788 85.622 406.29 85.507 405.84 C 85.443 405.602 85.409 405.356 85.406 405.109 L 86.149 404.367 C 87.038 404.488 87.918 404.668 88.783 404.905 C 89.875 405.211 90.816 405.6 91.605 406.07 C 93.561 407.127 94.753 409.197 94.684 411.418 L 93.199 413.644 Z" id="path-54" vector-effect="non-scaling-stroke"/>
</svg>