<?xml version="1.0" encoding="utf-8"?>
<svg xmlns="http://www.w3.org/2000/svg" viewBox="41.166 938.676 30.4301 61.604" width="30.4301px" height="61.604px">
  <path d="M 41.909 964.653 C 46.022 963.655 50.105 962.542 54.155 961.313 L 54.155 945.356 C 54.156 945.04 54.144 944.723 54.12 944.407 C 54.057 943.595 53.907 942.942 53.67 942.448 C 53.528 942.134 53.312 941.858 53.041 941.645 C 53.005 941.619 52.97 941.592 52.935 941.564 C 52.016 940.849 51.557 940.134 51.557 939.418 L 51.928 938.676 C 52.17 938.676 52.412 938.681 52.654 938.689 C 56.847 938.84 59.821 940.32 61.577 943.129 C 61.576 943.176 61.574 943.222 61.569 943.267 C 61.534 943.655 61.373 944.483 61.087 945.749 C 61.004 946.113 60.92 946.477 60.834 946.84 C 60.339 950.675 59.968 954.757 59.721 959.086 L 63.061 957.973 C 63.159 957.902 63.256 957.83 63.352 957.757 C 63.951 957.302 64.597 956.756 65.288 956.118 C 65.836 956.238 66.382 956.371 66.924 956.516 C 68.979 957.072 70.356 957.688 71.055 958.364 C 71.38 958.638 71.576 959.034 71.596 959.458 C 71.6 959.788 71.501 960.111 71.313 960.382 C 71.015 960.814 70.481 961.158 69.711 961.412 C 69.356 961.527 68.994 961.618 68.627 961.684 C 67.185 961.942 65.747 962.22 64.313 962.519 C 62.778 962.84 61.247 963.18 59.721 963.54 C 59.464 967.032 59.248 970.527 59.072 974.023 C 58.88 977.825 58.725 981.629 58.608 985.434 C 62.124 983.213 65.714 981.109 69.37 979.125 L 69.741 979.868 C 63.927 985.187 56.876 991.99 48.588 1000.28 C 45.434 999.722 42.96 997.248 41.166 992.856 L 41.538 992.114 C 41.819 992.287 42.107 992.446 42.402 992.592 C 42.761 992.769 43.105 992.909 43.435 993.013 C 43.782 993.126 44.142 993.198 44.506 993.227 C 45.926 992.388 47.349 991.553 48.774 990.722 C 50.318 989.822 51.864 988.925 53.413 988.032 C 53.598 980.486 53.722 972.817 53.784 965.024 C 53.457 965.12 53.131 965.216 52.804 965.311 C 50.847 965.884 49.121 966.38 47.626 966.798 C 47.081 966.951 46.536 967.102 45.991 967.25 C 45.311 967.064 44.638 966.852 43.974 966.614 C 43.011 966.272 42.073 965.865 41.166 965.395 L 41.909 964.653 Z" id="path-55" vector-effect="non-scaling-stroke"/>
</svg>