<?xml version="1.0" encoding="utf-8"?>
<svg xmlns="http://www.w3.org/2000/svg" viewBox="214.914 193.5032 24.694 81.9058" width="24.694px" height="81.9058px">
  <path d="M 215.656 210.574 C 219.491 210.814 221.203 212.169 222.069 215.139 L 222.069 239.259 C 222.069 239.349 222.068 239.439 222.065 239.529 C 222.042 240.299 221.917 240.899 221.688 241.339 C 221.422 241.909 220.839 242.259 220.213 242.229 C 219.108 242.229 218.395 241.014 216.8 238.074 C 216.398 237.324 216.016 236.574 215.656 235.804 C 215.69 235.564 215.723 235.334 215.755 235.094 C 216.21 231.704 216.512 227.614 216.661 222.844 C 216.736 220.364 216.772 217.884 216.769 215.394 C 216.576 215.094 216.389 214.794 216.209 214.484 C 215.447 213.184 215.015 212.124 214.914 211.314 L 215.656 210.574 Z M 230.129 193.504 C 231.31 193.494 232.49 193.574 233.657 193.754 C 237.231 194.324 238.607 194.629 239.608 197.109 C 239.591 197.619 239.559 198.139 239.512 198.649 C 239.401 199.879 239.185 201.109 238.866 202.309 L 238.866 250.919 C 238.866 254.749 239.113 259.699 239.608 265.759 C 239.483 266.589 239.338 267.409 239.173 268.229 C 238.544 271.329 237.76 273.429 236.822 274.519 C 236.429 275.049 235.817 275.379 235.155 275.409 C 235.122 275.409 235.089 275.409 235.056 275.399 C 234.315 275.279 234.146 275.014 232.726 272.174 C 231.079 270.314 229.296 268.574 227.392 266.974 C 225.314 265.234 223.13 263.624 220.851 262.154 L 221.594 261.414 C 222.222 261.574 222.852 261.724 223.484 261.864 C 225.456 262.324 227.147 262.624 228.558 262.774 C 229.203 262.854 229.851 262.894 230.5 262.894 C 231.114 262.914 231.701 262.644 232.086 262.164 C 232.723 261.394 233.06 260.034 233.097 258.074 C 233.096 248.884 233.065 239.704 233.005 230.514 C 232.939 220.524 232.846 210.534 232.726 200.554 C 232.703 200.334 232.664 200.124 232.609 199.914 C 232.36 198.974 231.781 198.074 230.871 197.214 C 230.708 197.044 230.552 196.874 230.405 196.704 C 229.726 195.884 229.387 195.064 229.387 194.244 L 230.129 193.504 Z" id="path-58" vector-effect="non-scaling-stroke"/>
</svg>