<?xml version="1.0" encoding="utf-8"?>
<svg xmlns="http://www.w3.org/2000/svg" viewBox="37.97 1025.8491 25.605 83.1208" width="25.605px" height="83.1208px">
  <path d="M 38.712 1042.92 C 42.547 1043.16 44.897 1044.77 45.763 1047.74 L 45.763 1071.86 C 45.763 1071.95 45.762 1072.04 45.759 1072.13 C 45.736 1072.9 45.611 1073.5 45.382 1073.94 C 45.116 1074.51 44.533 1074.86 43.907 1074.83 C 42.802 1074.83 41.451 1073.36 39.856 1070.42 C 39.454 1069.67 39.072 1068.92 38.712 1068.15 C 38.746 1067.91 38.779 1067.68 38.811 1067.44 C 39.266 1064.05 39.568 1059.96 39.717 1055.19 C 39.792 1052.71 39.828 1050.23 39.825 1047.74 C 39.632 1047.44 39.445 1047.14 39.265 1046.83 C 38.503 1045.53 38.071 1044.47 37.97 1043.66 L 38.712 1042.92 Z M 53.185 1025.85 C 54.366 1025.84 55.546 1025.92 56.713 1026.1 C 60.287 1026.67 62.574 1028.19 63.575 1030.67 C 63.558 1031.18 63.526 1031.7 63.479 1032.21 C 63.368 1033.44 63.152 1034.67 62.833 1035.87 L 62.833 1084.48 C 62.833 1088.31 63.08 1093.26 63.575 1099.32 C 63.45 1100.15 63.305 1100.97 63.14 1101.79 C 62.511 1104.89 61.727 1106.99 60.789 1108.08 C 60.396 1108.61 59.784 1108.94 59.122 1108.97 C 59.089 1108.97 59.056 1108.97 59.023 1108.96 C 58.282 1108.84 57.202 1107.36 55.782 1104.52 C 54.135 1102.66 52.352 1100.92 50.448 1099.32 C 48.37 1097.58 46.186 1095.97 43.907 1094.5 L 44.65 1093.76 C 45.278 1093.92 45.908 1094.07 46.54 1094.21 C 48.512 1094.67 50.203 1094.97 51.614 1095.12 C 52.259 1095.2 52.907 1095.24 53.556 1095.24 C 54.17 1095.26 54.757 1094.99 55.142 1094.51 C 55.779 1093.74 56.116 1092.38 56.153 1090.42 C 56.152 1081.23 56.121 1072.05 56.061 1062.86 C 55.995 1052.87 55.902 1042.88 55.782 1032.9 C 55.759 1032.68 55.72 1032.47 55.665 1032.26 C 55.416 1031.32 54.837 1030.42 53.927 1029.56 C 53.764 1029.39 53.608 1029.22 53.461 1029.05 C 52.782 1028.23 52.443 1027.41 52.443 1026.59 L 53.185 1025.85 Z" id="path-58" vector-effect="non-scaling-stroke"/>
</svg>