<?xml version="1.0" encoding="utf-8"?>
<svg xmlns="http://www.w3.org/2000/svg" viewBox="27.604 1140.41 31.914 70.87" width="31.914px" height="70.87px">
  <path d="M 30.944 1174.17 C 32.457 1171.16 33.836 1168.07 35.075 1164.93 C 37.655 1158.47 39.505 1151.73 40.592 1144.86 C 40.465 1144.64 40.34 1144.42 40.215 1144.21 C 39.392 1142.76 38.899 1141.74 38.737 1141.15 L 39.108 1140.41 C 43.19 1140.41 46.159 1142.38 48.014 1146.34 L 46.529 1149.31 C 45.042 1152.6 43.68 1155.94 42.447 1159.33 C 43.226 1159.18 44.002 1159.03 44.775 1158.85 C 46.111 1158.55 47.438 1158.21 48.756 1157.85 C 49.411 1157.63 50.041 1157.34 50.633 1156.98 C 51.438 1156.5 52.178 1155.92 52.838 1155.25 C 53.078 1155.34 53.316 1155.43 53.554 1155.52 C 57.53 1157.07 59.518 1158.34 59.518 1159.33 C 59.518 1159.63 59.11 1160.18 58.293 1160.97 C 58.087 1161.17 57.876 1161.37 57.662 1161.56 C 55.863 1168.79 53.78 1175.22 51.414 1180.84 C 49.923 1184.43 48.166 1187.91 46.158 1191.24 C 45.082 1192.99 43.933 1194.69 42.716 1196.34 C 38.578 1201.91 33.749 1206.93 28.346 1211.28 L 27.604 1210.54 C 30.017 1207.81 32.26 1204.94 34.322 1201.94 C 37.536 1197.24 40.377 1192.3 42.819 1187.16 C 44.504 1183.58 45.975 1179.9 47.227 1176.15 C 48.935 1171.01 50.314 1165.76 51.354 1160.44 C 51.197 1160.47 51.04 1160.49 50.882 1160.52 C 49.775 1160.71 48.614 1160.95 47.399 1161.24 C 46.11 1161.56 44.83 1161.91 43.561 1162.3 L 40.963 1162.3 C 40.206 1163.71 39.409 1165.1 38.573 1166.47 C 37.583 1168.09 36.523 1169.67 35.397 1171.21 C 38.057 1171.21 40.407 1171.58 42.447 1172.32 C 42.641 1172.56 42.826 1172.81 43 1173.07 C 43.367 1173.61 43.656 1174.14 43.868 1174.66 C 44.149 1175.33 44.296 1176.05 44.303 1176.77 C 44.304 1176.88 44.301 1176.98 44.294 1177.09 C 44.245 1177.87 44.001 1178.26 43.561 1178.26 C 42.796 1178.26 41.972 1178.02 41.089 1177.56 C 40.659 1177.32 40.244 1177.06 39.85 1176.77 C 39.711 1176.66 39.575 1176.55 39.442 1176.43 C 38.754 1175.83 37.76 1174.85 36.461 1173.48 C 35.98 1172.97 35.501 1172.46 35.026 1171.95 C 34.71 1172.4 34.385 1172.85 34.051 1173.29 C 33.534 1173.97 32.993 1174.64 32.428 1175.29 C 32.387 1175.29 31.485 1174.73 30.944 1174.17 Z" id="path-59" vector-effect="non-scaling-stroke"/>
</svg>