<?xml version="1.0" encoding="utf-8"?>
<svg xmlns="http://www.w3.org/2000/svg" viewBox="302.895 1209.4999 30.43 76.8201" width="30.43px" height="76.8201px">
  <path d="M 312.544 1209.5 C 314.388 1209.49 316.209 1209.92 317.85 1210.76 C 319.209 1211.48 320.428 1212.44 321.45 1213.59 C 321.134 1215.83 320.88 1218.09 320.689 1220.35 C 320.46 1223.04 320.342 1225.73 320.337 1228.43 C 321.131 1228.25 321.915 1228.03 322.685 1227.77 C 324.184 1227.26 325.633 1226.61 327.016 1225.83 C 327.52 1225.96 328.022 1226.11 328.52 1226.26 C 330.641 1226.92 332.059 1227.63 332.776 1228.37 C 333.107 1228.67 333.304 1229.1 333.325 1229.54 C 333.321 1229.65 333.304 1229.75 333.274 1229.85 C 333.179 1230.2 332.951 1230.72 332.59 1231.43 C 332.467 1231.67 332.341 1231.9 332.212 1232.14 C 332.03 1234.16 331.862 1236.18 331.707 1238.2 C 331.464 1241.38 328.006 1256.63 327.016 1256.63 C 326.994 1256.63 326.972 1256.63 326.95 1256.63 C 326.551 1256.56 326.005 1255.9 325.31 1254.65 C 325.129 1254.33 324.956 1254 324.79 1253.66 C 324.025 1252.83 323.142 1251.99 322.141 1251.16 C 321.319 1250.48 320.469 1249.83 319.594 1249.21 C 319.105 1260.46 318.857 1271.72 318.852 1282.98 C 318.763 1283.31 318.659 1283.63 318.543 1283.94 C 318.243 1284.75 317.897 1285.36 317.505 1285.75 C 317.185 1286.11 316.732 1286.31 316.255 1286.32 C 316.033 1286.32 315.812 1286.28 315.601 1286.21 C 314.177 1285.74 313.034 1283.67 312.173 1280.01 C 312.791 1276.92 313.286 1274.07 313.657 1271.48 C 314.399 1258.63 314.77 1245.76 314.77 1232.88 L 310.317 1234.37 L 308.833 1234.37 C 308.892 1237.98 308.954 1241.6 309.018 1245.22 C 309.077 1248.53 309.139 1251.84 309.204 1255.15 C 309.186 1255.53 309.152 1255.91 309.1 1256.29 C 308.859 1258 308.275 1258.86 307.348 1258.86 C 307.124 1258.86 306.902 1258.82 306.691 1258.74 C 305.366 1258.27 304.225 1256.33 303.266 1252.92 C 303.316 1252.58 303.363 1252.23 303.409 1251.89 C 303.731 1249.46 303.973 1246.89 304.135 1244.16 C 304.302 1241.27 304.384 1238.38 304.38 1235.48 C 304.299 1234.75 304.058 1233.97 303.657 1233.13 C 303.43 1232.66 303.176 1232.21 302.895 1231.77 L 303.637 1231.03 C 304.307 1231.03 304.972 1231.13 305.609 1231.34 C 306.218 1231.54 306.801 1231.81 307.348 1232.14 C 309.327 1231.89 311.801 1231.27 314.77 1230.29 L 314.77 1215.81 C 314.77 1215.77 314.77 1215.73 314.769 1215.69 C 314.752 1215.07 314.608 1214.52 314.339 1214.03 C 314.077 1213.56 313.718 1213.16 313.286 1212.84 C 312.997 1212.63 312.734 1212.39 312.503 1212.11 C 312.052 1211.59 311.803 1210.93 311.801 1210.25 L 312.544 1209.5 Z M 319.966 1231.4 C 319.78 1236.71 319.656 1242.04 319.594 1247.36 C 319.6 1247.36 319.606 1247.36 319.612 1247.36 C 321.041 1247.84 322.539 1248.09 324.048 1248.1 C 324.486 1248.11 324.894 1247.88 325.116 1247.5 C 325.221 1247.34 325.309 1247.15 325.381 1246.92 C 325.449 1246.7 325.499 1246.47 325.532 1246.24 C 325.612 1245.63 325.687 1245.02 325.756 1244.4 C 325.969 1242.52 326.148 1240.52 326.295 1238.39 C 326.454 1236.07 326.57 1233.73 326.645 1231.4 C 326.647 1231.21 326.626 1231.03 326.582 1230.85 C 326.465 1230.4 326.187 1230.11 325.748 1229.99 C 325.557 1229.93 325.359 1229.91 325.161 1229.91 L 319.966 1231.4 Z" id="path-97" vector-effect="non-scaling-stroke" transform="matrix(1, 0, 0, 1, -2.842170943040401e-14, 2.2737367544323206e-13)"/>
</svg>