<?xml version="1.0" encoding="utf-8"?>
<svg xmlns="http://www.w3.org/2000/svg" viewBox="206.575 683.32 30.43 77.93" width="30.43px" height="77.93px">
  <path d="M 228.098 707.07 C 228.59 706.871 229.055 706.612 229.484 706.299 C 229.922 705.978 230.328 705.615 230.696 705.215 C 232.939 705.215 234.583 705.496 235.63 706.059 C 236.469 706.431 237.009 707.265 237.005 708.183 C 237.005 709.013 236.543 709.573 235.618 709.864 C 235.344 709.947 235.063 710.006 234.778 710.039 C 234.393 710.085 234.008 710.134 233.624 710.184 C 231.022 710.522 228.436 710.969 225.872 711.523 L 225.872 754.941 C 225.841 755.367 225.802 755.792 225.754 756.216 C 225.515 758.31 225.104 759.751 224.519 760.538 C 224.248 760.967 223.781 761.234 223.274 761.25 C 221.543 761.25 219.811 758.281 218.079 752.344 C 218.434 750.925 218.774 749.502 219.099 748.076 C 219.394 746.781 219.672 745.482 219.934 744.18 L 220.677 712.637 C 217.46 713.502 214.12 714.492 210.657 715.605 C 209.111 715.172 207.75 714.554 206.575 713.75 L 206.946 713.008 C 207.215 712.921 207.484 712.834 207.754 712.748 C 209.657 712.141 211.681 711.52 213.825 710.885 C 216.103 710.212 218.387 709.559 220.677 708.926 C 220.677 702.942 220.607 697.758 220.468 693.375 C 220.425 692.002 220.37 690.63 220.305 689.258 C 220.135 688.365 219.907 687.676 219.62 687.193 C 219.506 686.994 219.362 686.814 219.192 686.66 C 218.989 686.441 218.8 686.209 218.625 685.967 C 218.205 685.393 217.895 684.748 217.708 684.062 L 218.45 683.32 C 222.409 683.32 225.254 684.928 226.985 688.144 C 226.557 689.719 226.308 691.338 226.243 692.969 L 225.872 707.812 L 228.098 707.07 Z" id="path-63" vector-effect="non-scaling-stroke" transform="matrix(1, 0, 0, 1.0000000000000002, 7.105427357601002e-15, 0)"/>
</svg>