<?xml version="1.0" encoding="utf-8"?>
<svg xmlns="http://www.w3.org/2000/svg" viewBox="274.737 268.3 30.43 26.7191" width="30.43px" height="26.7191px">
  <path d="M 295.889 274.237 C 295.438 276.266 294.974 278.291 294.498 280.314 C 293.984 282.497 293.458 284.677 292.921 286.855 C 292.115 287.178 291.307 287.495 290.497 287.806 C 288.739 288.481 287.205 289.033 285.896 289.463 C 285.518 289.587 285.138 289.707 284.757 289.823 C 283.705 284.875 282.963 280.546 282.53 276.835 C 283.282 276.591 284.036 276.351 284.791 276.116 C 287.319 275.327 290.647 274.33 294.776 273.124 C 295.365 273.124 295.72 273.358 295.842 273.825 C 295.875 273.96 295.891 274.098 295.889 274.237 Z M 275.479 272.011 L 274.737 272.753 C 275.194 273.483 275.593 274.248 275.928 275.042 C 276.177 275.629 276.399 276.227 276.592 276.835 L 279.932 291.679 C 280.226 292.144 280.546 292.592 280.89 293.021 C 281.595 293.892 282.285 294.479 282.959 294.78 C 283.29 294.934 283.649 295.015 284.014 295.019 C 284.377 295.023 284.706 294.806 284.845 294.471 C 284.992 294.182 285.081 293.78 285.114 293.264 C 285.124 293.107 285.128 292.949 285.128 292.792 L 292.55 290.937 C 292.75 291.088 292.954 291.232 293.163 291.37 C 293.852 291.823 294.389 292.05 294.776 292.05 C 296.319 292.05 297.501 291.41 298.322 290.129 C 298.533 289.797 298.712 289.446 298.858 289.081 C 299.637 286.867 300.38 284.64 301.085 282.401 C 301.861 279.938 302.603 277.464 303.311 274.98 C 303.56 274.895 303.801 274.791 304.034 274.669 C 304.789 274.267 305.167 273.752 305.167 273.124 C 305.137 272.743 304.966 272.387 304.688 272.126 C 303.689 271.028 301.127 269.753 297.003 268.3 C 295.484 269.211 294.379 269.791 293.689 270.039 C 293.56 270.087 293.427 270.126 293.292 270.155 C 288.881 271.538 284.425 272.776 279.932 273.866 C 279.491 273.56 279.036 273.275 278.568 273.012 C 277.372 272.345 276.342 272.011 275.479 272.011 Z" id="path-91" vector-effect="non-scaling-stroke" transform="matrix(1, 0, 0, 1, -2.842170943040401e-14, 0)"/>
</svg>