<?xml version="1.0" encoding="utf-8"?>
<svg xmlns="http://www.w3.org/2000/svg" viewBox="286.8393 1060.5087 30.43 26.7191" width="30.43px" height="26.7191px">
  <path d="M 0.742 27.09 L 0 27.832 C 0.457 28.562 0.856 29.327 1.191 30.121 C 1.44 30.708 1.662 31.306 1.855 31.914 L 5.195 46.758 C 5.489 47.223 5.809 47.671 6.153 48.1 C 6.858 48.971 7.548 49.558 8.222 49.859 C 8.553 50.013 8.912 50.094 9.277 50.098 C 9.64 50.102 9.969 49.885 10.108 49.55 C 10.255 49.261 10.344 48.859 10.377 48.343 C 10.387 48.186 10.391 48.028 10.391 47.871 L 17.813 46.016 C 18.013 46.167 18.217 46.311 18.426 46.449 C 19.115 46.902 19.652 47.129 20.039 47.129 C 21.582 47.129 22.764 46.489 23.585 45.208 C 23.796 44.876 23.975 44.525 24.121 44.16 C 24.9 41.946 25.643 39.719 26.348 37.48 C 27.124 35.017 27.866 32.543 28.574 30.059 C 28.823 29.974 29.064 29.87 29.297 29.748 C 30.052 29.346 30.43 28.831 30.43 28.203 C 30.4 27.822 30.229 27.466 29.951 27.205 C 28.952 26.107 26.39 24.832 22.266 23.379 C 20.747 24.29 19.642 24.87 18.952 25.118 C 18.823 25.166 18.69 25.205 18.555 25.234 C 14.144 26.617 9.688 27.855 5.195 28.945 C 4.754 28.639 4.299 28.354 3.831 28.091 C 2.635 27.424 1.605 27.09 0.742 27.09 Z M 21.152 29.316 C 21.154 29.177 21.138 29.039 21.105 28.904 C 20.983 28.437 20.628 28.203 20.039 28.203 C 15.91 29.409 12.582 30.406 10.054 31.195 C 9.299 31.43 8.545 31.67 7.793 31.914 C 8.226 35.625 8.968 39.954 10.02 44.902 C 10.401 44.786 10.781 44.666 11.159 44.542 C 12.468 44.112 14.002 43.56 15.76 42.885 C 16.57 42.574 17.378 42.257 18.184 41.934 C 18.721 39.756 19.247 37.576 19.761 35.393 C 20.237 33.37 20.701 31.345 21.152 29.316 Z" id="path-91" vector-effect="non-scaling-stroke" transform="matrix(1, 0, 0, 1.0000000000000002, 286.83925987491756, 1037.1297461307186)"/>
</svg>