<?xml version="1.0" encoding="utf-8"?>
<svg xmlns="http://www.w3.org/2000/svg" viewBox="199.637 794.769 34.8837 82.011" width="34.8837px" height="82.011px">
  <path d="M 214.481 794.769 C 218.095 795.517 221.684 796.383 225.242 797.366 C 225.802 797.918 226.298 798.532 226.721 799.196 C 227.443 800.309 227.831 801.606 227.84 802.933 C 227.84 803.048 227.835 803.163 227.826 803.278 C 227.762 804.006 227.489 804.47 227.005 804.672 C 226.798 804.753 226.578 804.792 226.356 804.788 C 226.289 804.788 226.222 804.786 226.156 804.784 C 222.853 804.664 218.837 801.573 214.109 795.511 L 214.481 794.769 Z M 223.387 834.476 C 225.057 834.545 226.609 834.654 228.044 834.802 C 229.093 834.908 230.139 835.047 231.18 835.218 C 231.623 835.745 232.048 836.288 232.454 836.845 C 233.831 838.749 234.52 840.31 234.52 841.526 C 234.529 841.76 234.449 841.988 234.296 842.166 C 234.096 842.39 233.762 842.535 233.295 842.601 C 233.086 842.628 232.875 842.641 232.664 842.64 C 231.558 842.64 229.391 841.333 226.163 838.72 C 225.35 838.06 224.548 837.387 223.758 836.702 C 223.756 842.748 223.787 848.793 223.851 854.839 C 223.907 860.298 224 865.756 224.129 871.214 C 223.817 873.548 223.31 875.148 222.608 876.014 C 222.273 876.483 221.736 876.767 221.16 876.78 C 220.807 876.775 220.463 876.672 220.166 876.484 C 219.158 875.878 218.174 874.343 217.212 871.881 C 216.891 871.05 216.599 870.209 216.336 869.358 C 217.264 866.513 217.758 864.534 217.82 863.421 C 218.06 858.722 218.246 854.021 218.377 849.319 C 218.498 844.991 218.56 840.661 218.563 836.331 C 218.494 836.411 218.425 836.49 218.357 836.57 C 214.049 841.571 209.947 845.54 206.051 848.477 C 204.156 849.928 202.133 851.203 200.008 852.288 L 199.637 851.546 C 199.8 851.395 199.962 851.243 200.124 851.091 C 204.861 846.625 209.735 840.574 214.745 832.938 C 217.263 829.079 219.65 825.136 221.902 821.116 L 221.531 820.374 C 219.053 821.417 216.579 822.469 214.109 823.528 C 211.384 824.696 208.663 825.871 205.945 827.054 C 204.708 826.93 203.224 826.435 201.492 825.569 L 201.492 824.827 C 204.514 823.757 207.508 822.61 210.472 821.388 C 214.483 819.738 218.421 817.914 222.274 815.921 C 222.322 815.887 222.37 815.854 222.419 815.821 C 223.771 814.895 224.719 814.335 225.265 814.142 C 225.376 814.097 225.493 814.071 225.613 814.065 C 226.103 814.271 226.59 814.486 227.072 814.711 C 230.8 816.449 232.664 818.09 232.664 819.632 C 231.922 820.374 231.056 820.868 230.066 821.116 C 227.374 824.848 224.653 828.559 221.902 832.249 L 223.387 834.476 Z" id="path-65" vector-effect="non-scaling-stroke" transform="matrix(0.9999999999999999, 0, 0, 1, 0, 0)"/>
</svg>