<?xml version="1.0" encoding="utf-8"?>
<svg xmlns="http://www.w3.org/2000/svg" viewBox="203.778 915.86 34.1403 79.787" width="34.1403px" height="79.787px">
  <path d="M 225.672 953.711 C 228.765 954.515 231.734 955.504 234.579 956.68 C 235.554 957.814 236.081 959.266 236.063 960.762 C 236.063 962.246 235.568 962.989 234.579 962.989 C 233.651 962.989 232.414 962.246 230.868 960.762 C 230.336 960.248 229.794 959.745 229.244 959.251 C 228.097 958.218 226.905 957.237 225.672 956.309 C 225.545 962.06 225.453 967.812 225.394 973.565 C 225.331 979.687 225.3 985.811 225.301 991.934 C 225.299 991.975 225.297 992.017 225.294 992.059 C 225.232 993.072 225.041 993.87 224.722 994.454 C 224.344 995.214 223.553 995.681 222.704 995.645 C 222.318 995.64 221.942 995.528 221.615 995.324 C 220.505 994.661 219.442 992.971 218.426 990.255 C 218.088 989.341 217.781 988.416 217.508 987.481 C 217.755 985.439 218.126 983.46 218.621 981.543 C 218.652 981.311 218.683 981.079 218.713 980.847 C 219.654 973.447 220.119 965.995 220.106 958.536 C 219.563 959.373 219.009 960.202 218.442 961.023 C 214.338 966.935 209.676 972.44 204.52 977.461 L 203.778 976.719 C 210.705 966.575 216.147 955.69 220.106 944.063 C 216.321 944.914 212.601 946.03 208.973 947.403 C 208.797 947.342 208.621 947.279 208.446 947.214 C 206.887 946.635 205.578 945.956 204.52 945.176 L 204.891 944.434 C 205.551 944.247 206.211 944.062 206.871 943.877 C 211.644 942.542 216.427 941.243 221.219 939.981 C 221.099 936.889 221.006 933.797 220.941 930.704 C 220.88 927.859 220.849 925.013 220.848 922.168 C 220.725 920.746 220.354 919.756 219.735 919.2 C 219.559 919.024 219.387 918.846 219.217 918.665 C 218.572 917.973 218.16 917.422 217.981 917.011 C 217.92 916.883 217.885 916.743 217.879 916.602 L 218.25 915.86 C 223.941 915.86 227.157 917.591 227.899 921.055 C 227.899 921.673 227.652 923.281 227.157 925.879 C 226.975 927.511 226.824 929.147 226.704 930.785 C 226.514 933.351 226.418 935.923 226.414 938.497 C 226.503 938.474 226.591 938.452 226.68 938.429 C 228.995 937.824 230.391 937.104 230.868 936.27 C 235.568 936.888 237.918 937.878 237.918 939.239 C 237.928 939.676 237.7 940.086 237.323 940.308 C 237.162 940.412 236.967 940.5 236.74 940.572 C 236.519 940.64 236.292 940.69 236.063 940.723 C 232.847 941.094 229.507 941.836 226.043 942.95 L 225.672 953.711 Z" id="path-67" vector-effect="non-scaling-stroke" transform="matrix(1, 0, 0, 0.9999999999999999, 0, 0)"/>
</svg>