<?xml version="1.0" encoding="utf-8"?>
<svg xmlns="http://www.w3.org/2000/svg" viewBox="204.952 1235.47 27.832 75.3301" width="27.832px" height="75.3301px">
  <path d="M 224.249 1235.47 C 227.005 1236.36 229.093 1237.47 230.515 1238.77 C 231.945 1239.98 232.774 1241.76 232.784 1243.63 C 232.591 1244 232.397 1244.37 232.202 1244.74 C 229.362 1250.11 226.211 1255.32 222.765 1260.33 C 224.536 1261.85 225.933 1263.75 226.847 1265.89 C 226.848 1272.3 226.817 1278.7 226.754 1285.1 C 226.695 1291.07 226.603 1297.04 226.476 1303.01 C 226.476 1303.27 226.474 1303.53 226.471 1303.8 C 226.427 1307.09 226.108 1309.22 225.512 1310.19 C 225.347 1310.54 225.006 1310.77 224.62 1310.8 C 224.213 1310.79 223.817 1310.66 223.479 1310.44 C 222.042 1309.53 220.567 1306.93 219.054 1302.63 C 219.054 1302.48 219.058 1302.34 219.067 1302.19 C 219.125 1301.13 219.368 1299.42 219.796 1297.07 C 220.785 1286.49 221.28 1275.73 221.28 1264.78 L 220.538 1263.67 C 219.97 1264.35 219.399 1265.04 218.824 1265.71 C 215.385 1269.77 212.27 1273.16 209.48 1275.88 C 208.147 1277.18 206.76 1278.43 205.323 1279.63 L 204.952 1278.88 C 212.868 1268 219.424 1255.5 224.62 1241.4 C 224.62 1240.91 224.589 1240.44 224.527 1240.01 C 224.47 1239.6 224.377 1239.2 224.249 1238.81 C 223.876 1237.87 223.644 1237.15 223.552 1236.64 C 223.524 1236.5 223.509 1236.35 223.507 1236.21 L 224.249 1235.47 Z" id="path-72" vector-effect="non-scaling-stroke" transform="matrix(1, 0, 0, 1, 0, 2.2737367544323206e-13)"/>
</svg>