<?xml version="1.0" encoding="utf-8"?>
<svg xmlns="http://www.w3.org/2000/svg" viewBox="206.048 1024.8101 35.254 82.3799" width="35.254px" height="82.3799px">
  <path d="M 230.911 1046.33 C 231.227 1046.19 231.538 1046.05 231.846 1045.9 C 232.613 1045.52 233.216 1045.14 233.657 1044.76 C 233.883 1044.57 234.083 1044.35 234.251 1044.1 C 234.408 1044.12 234.566 1044.14 234.723 1044.16 C 239.109 1044.74 241.302 1045.96 241.302 1047.81 C 241.301 1047.93 241.268 1048.05 241.206 1048.16 C 241 1048.51 240.459 1048.82 239.583 1049.08 C 239.293 1049.16 239 1049.24 238.704 1049.3 C 235.488 1049.92 232.148 1050.78 228.685 1051.9 L 228.685 1063.03 C 229.389 1062.56 230.096 1062.1 230.807 1061.64 C 233.039 1060.2 235.301 1058.81 237.591 1057.46 L 238.333 1058.2 C 235.305 1061.6 232.084 1064.83 228.685 1067.85 C 228.692 1068.33 228.699 1068.8 228.706 1069.27 C 228.848 1078.22 229.084 1085.43 229.415 1090.92 C 229.515 1092.63 229.643 1094.35 229.798 1096.06 C 228.363 1101.8 227.076 1105.32 225.937 1106.62 C 225.713 1106.94 225.362 1107.14 224.974 1107.19 C 224.775 1107.18 224.58 1107.12 224.411 1107.02 C 223.852 1106.7 223.182 1105.94 222.401 1104.74 C 222.134 1104.33 221.878 1103.9 221.634 1103.48 C 221.323 1102.93 220.979 1102.4 220.603 1101.89 C 219.43 1100.28 217.756 1098.51 215.58 1096.56 C 214.531 1095.62 213.456 1094.71 212.357 1093.83 L 212.357 1093.09 C 217.181 1094.08 220.15 1094.57 221.263 1094.57 C 221.291 1094.57 221.319 1094.57 221.347 1094.57 C 222.178 1094.54 222.72 1094.08 222.974 1093.18 C 223.049 1092.91 223.097 1092.63 223.118 1092.35 L 223.118 1074.16 C 223.101 1074.18 223.083 1074.19 223.066 1074.21 C 216.977 1079.37 213.778 1082.33 213.47 1083.07 C 212.576 1082.74 211.705 1082.35 210.866 1081.89 C 209.869 1081.35 209.023 1080.75 208.329 1080.1 C 207.127 1079.04 206.323 1077.6 206.048 1076.02 L 206.79 1075.28 C 206.836 1075.28 206.883 1075.29 206.929 1075.3 C 208.112 1075.48 208.955 1075.6 209.457 1075.63 C 209.557 1075.64 209.658 1075.64 209.759 1075.65 C 209.787 1075.64 209.814 1075.63 209.84 1075.62 C 210.589 1075.36 214.039 1073.17 220.19 1069.07 C 221.167 1068.42 222.143 1067.77 223.118 1067.11 L 223.118 1053.38 C 222.383 1053.6 221.649 1053.81 220.915 1054.03 C 218.798 1054.66 216.688 1055.31 214.583 1055.98 C 212.496 1055.41 210.775 1054.88 209.422 1054.37 C 208.908 1054.18 208.402 1053.98 207.903 1053.75 L 208.275 1053.01 C 213.284 1051.96 218.232 1050.6 223.118 1048.93 L 223.118 1030.37 C 222.995 1029.57 222.624 1028.95 222.005 1028.52 C 221.502 1028.16 221.102 1027.79 220.804 1027.4 C 220.385 1026.87 220.154 1026.22 220.15 1025.55 L 220.521 1024.81 C 220.791 1024.81 221.062 1024.81 221.332 1024.82 C 223.404 1024.86 224.989 1025.11 226.087 1025.55 C 226.41 1025.67 226.724 1025.82 227.027 1025.99 C 227.705 1026.36 228.36 1026.86 228.991 1027.46 C 229.557 1028.02 230.075 1028.62 230.54 1029.26 C 230.045 1031.67 229.674 1034.14 229.427 1036.68 C 229.368 1037.72 229.316 1038.77 229.271 1039.81 C 229.168 1042.23 229.096 1044.65 229.056 1047.07 L 230.911 1046.33 Z" id="path-69" vector-effect="non-scaling-stroke" transform="matrix(1, 0, 0, 0.9999999999999999, 0, 0)"/>
</svg>