<?xml version="1.0" encoding="utf-8"?>
<svg xmlns="http://www.w3.org/2000/svg" viewBox="547.377 17.571 31.438 83.09" width="31.438px" height="83.09px">
  <path d="M 561.24 21.128 L 559.013 21.128 C 558.16 20.698 557.38 20.388 556.673 20.178 C 556.465 20.108 556.256 20.058 556.044 20.018 L 555.302 20.758 C 555.383 21.028 555.481 21.298 555.594 21.568 C 555.838 22.138 556.19 22.828 556.65 23.618 C 556.816 23.908 556.985 24.188 557.158 24.468 L 557.158 37.325 C 557.158 52.445 555.813 72.638 552.644 83.588 C 551.317 88.268 549.554 92.818 547.377 97.168 L 548.119 97.908 C 555.51 90.856 559.614 75.817 561.863 62.089 C 562.605 62.279 563.347 62.399 564.089 62.459 C 566.767 60.779 567.396 59.692 570.16 58.162 C 570.16 66.942 570.394 80.381 570.147 89.161 C 569.858 89.861 569.245 90.371 568.505 90.531 C 568.192 90.611 567.872 90.641 567.55 90.641 C 566.591 90.641 565.26 90.491 563.557 90.201 C 563.031 90.101 562.506 90.001 561.983 89.901 L 561.241 90.641 C 563.321 91.891 565.298 93.311 567.155 94.871 C 568.202 95.761 569.2 96.701 570.147 97.691 C 571.315 99.321 572.108 100.281 572.525 100.571 C 572.588 100.621 572.664 100.651 572.745 100.661 C 573.797 100.661 575.07 98.451 576.563 94.031 C 576.653 93.771 576.741 93.511 576.827 93.241 C 576.825 83.371 576.529 68.862 576.655 58.992 C 576.773 49.682 577.077 34.301 577.33 24.991 C 577.577 23.881 578.072 22.891 578.815 22.021 C 578.791 21.601 578.614 21.211 578.317 20.911 C 577.619 20.111 576.185 19.281 574.016 18.401 C 573.273 18.101 572.522 17.831 571.764 17.571 C 567.001 19.611 564.889 20.448 561.24 21.128 Z M 569.908 22.021 L 570.65 22.761 L 570.65 38.958 C 569.413 38.768 568.177 38.648 566.94 38.588 C 566.56 39.048 566.233 39.331 565.834 39.778 C 565.513 40.138 565.476 40.338 564.197 40.825 C 563.961 40.915 563.711 40.965 563.466 41.035 C 563.557 39.315 563.634 37.605 563.698 35.885 C 563.758 34.265 563.805 29.058 563.837 27.438 C 563.741 27.078 563.636 26.728 563.524 26.378 C 563.257 25.548 562.991 24.908 562.724 24.468 C 564.209 24.218 565.208 23.751 569.908 22.021 Z M 570.65 42.298 C 567.519 43.298 566.518 43.895 563.466 45.115 C 563.418 46.325 563.355 47.535 563.275 48.745 C 563.133 50.875 562.83 55.509 562.605 57.639 C 563.432 57.349 564.259 57.059 565.087 56.769 C 567.472 55.939 567.768 55.632 570.16 54.822 C 570.16 52.962 570.349 48.118 570.488 45.288 C 570.537 44.288 570.591 43.298 570.65 42.298 Z" id="path-70" vector-effect="non-scaling-stroke" transform="matrix(1, 0, 0, 1, -1.1368683772161603e-13, 0)"/>
</svg>