<?xml version="1.0" encoding="utf-8"?>
<svg xmlns="http://www.w3.org/2000/svg" viewBox="205.109 252.043 31.438 83.09" width="31.438px" height="83.09px">
  <path d="M 227.64 256.493 C 222.94 258.223 221.941 258.69 220.456 258.94 C 220.723 259.38 220.989 260.02 221.256 260.85 C 221.368 261.2 221.473 261.55 221.569 261.91 C 221.537 263.53 221.49 268.737 221.43 270.357 C 221.366 272.077 221.289 273.787 221.198 275.507 C 221.443 275.437 221.693 275.387 221.929 275.297 C 223.208 274.81 223.245 274.61 223.566 274.25 C 223.965 273.803 224.292 273.52 224.672 273.06 C 225.909 273.12 227.145 273.24 228.382 273.43 L 228.382 257.233 L 227.64 256.493 Z M 228.382 276.77 C 225.251 277.77 224.25 278.367 221.198 279.587 C 221.15 280.797 221.087 282.007 221.007 283.217 C 220.865 285.347 220.562 289.981 220.337 292.111 C 221.164 291.821 221.991 291.531 222.819 291.241 C 225.204 290.411 225.5 290.104 227.892 289.294 C 227.892 287.434 228.081 282.59 228.22 279.76 C 228.269 278.76 228.323 277.77 228.382 276.77 Z M 218.972 255.6 C 222.621 254.92 224.733 254.083 229.496 252.043 C 230.254 252.303 231.005 252.573 231.748 252.873 C 233.917 253.753 235.351 254.583 236.049 255.383 C 236.346 255.683 236.523 256.073 236.547 256.493 C 235.804 257.363 235.309 258.353 235.062 259.463 C 234.809 268.773 234.505 284.154 234.387 293.464 C 234.261 303.334 234.557 317.843 234.559 327.713 C 234.473 327.983 234.385 328.243 234.295 328.503 C 232.802 332.923 231.529 335.133 230.477 335.133 C 230.396 335.123 230.32 335.093 230.257 335.043 C 229.84 334.753 229.047 333.793 227.879 332.163 C 226.932 331.173 225.934 330.233 224.887 329.343 C 223.03 327.783 221.053 326.363 218.973 325.113 L 219.715 324.373 C 220.238 324.473 220.763 324.573 221.289 324.673 C 222.992 324.963 224.323 325.113 225.282 325.113 C 225.604 325.113 225.924 325.083 226.237 325.003 C 226.977 324.843 227.59 324.333 227.879 323.633 C 228.126 314.853 227.892 301.414 227.892 292.634 C 225.128 294.164 224.499 295.251 221.821 296.931 C 221.079 296.871 220.337 296.751 219.595 296.561 C 217.346 310.289 213.242 325.328 205.851 332.38 L 205.109 331.64 C 207.286 327.29 209.049 322.74 210.376 318.06 C 213.545 307.11 214.89 286.917 214.89 271.797 L 214.89 258.94 C 214.717 258.66 214.548 258.38 214.382 258.09 C 213.922 257.3 213.57 256.61 213.326 256.04 C 213.213 255.77 213.115 255.5 213.034 255.23 L 213.776 254.49 C 213.988 254.53 214.197 254.58 214.405 254.65 C 215.112 254.86 215.892 255.17 216.745 255.6 L 218.972 255.6 Z" id="path-70" vector-effect="non-scaling-stroke" transform="matrix(0.9999999999999999, 0, 0, 0.9999999999999999, 2.842170943040401e-14, 0)"/>
</svg>