<?xml version="1.0" encoding="utf-8"?>
<svg xmlns="http://www.w3.org/2000/svg" viewBox="198.476 1301.09 35.694 82.38" width="35.694px" height="82.38px">
  <path d="M 218.212 1342.65 C 219.046 1342.5 219.881 1342.36 220.717 1342.23 C 221.489 1342.12 222.262 1342.01 223.037 1341.91 C 223.311 1341.81 223.575 1341.68 223.828 1341.53 C 224.214 1341.31 224.599 1341.03 224.985 1340.7 C 225.347 1340.38 225.688 1340.04 226.005 1339.68 C 229.683 1340.39 232.119 1341.3 233.311 1342.41 C 233.833 1342.83 234.145 1343.46 234.169 1344.14 C 234.185 1344.56 234.015 1344.97 233.704 1345.26 C 233.339 1345.6 232.759 1345.83 231.965 1345.93 C 231.589 1345.97 231.21 1345.99 230.83 1345.99 L 224.521 1345.99 C 221.985 1345.99 219.882 1346.12 218.212 1346.36 C 218.21 1346.72 218.208 1347.07 218.206 1347.42 C 218.142 1358.08 217.896 1368.74 217.47 1379.39 C 217.286 1381.02 216.946 1382.16 216.452 1382.81 C 216.183 1383.22 215.731 1383.46 215.244 1383.47 C 214.007 1383.47 213.141 1381.86 212.646 1378.65 C 212.631 1378.01 212.616 1377.37 212.601 1376.73 C 212.381 1366.86 212.272 1356.98 212.275 1347.11 C 209.665 1347.46 209.986 1347.39 207.402 1347.9 C 205.032 1348.38 205.258 1348.24 202.929 1348.89 C 202.383 1348.7 201.841 1348.49 201.303 1348.28 C 200.347 1347.89 199.404 1347.48 198.476 1347.03 L 198.847 1346.29 L 204.042 1345.18 C 204.939 1344.97 203.897 1345.2 205.918 1344.75 C 209.072 1344.19 209.245 1344.2 212.275 1343.77 L 212.275 1327.07 C 211.439 1327.2 210.607 1327.36 209.779 1327.54 C 208.492 1327.81 207.22 1328.15 205.966 1328.55 C 205.561 1328.39 205.159 1328.22 204.76 1328.04 C 204.274 1327.82 203.826 1327.6 203.416 1327.38 C 203.018 1327.17 202.631 1326.94 202.255 1326.69 L 202.626 1325.95 C 204.293 1325.54 205.963 1325.13 207.636 1324.75 C 209.179 1324.39 210.725 1324.05 212.275 1323.73 L 211.904 1307.03 C 211.895 1306.99 211.886 1306.96 211.876 1306.93 C 211.566 1305.86 211.08 1305.03 210.419 1304.43 C 210.304 1304.31 210.191 1304.2 210.081 1304.07 C 209.616 1303.56 209.292 1303.08 209.11 1302.64 C 209 1302.39 208.94 1302.11 208.935 1301.83 L 209.306 1301.09 C 209.586 1301.09 209.866 1301.1 210.145 1301.11 C 212.068 1301.22 213.783 1301.68 215.291 1302.51 C 216.918 1303.43 218.302 1304.72 219.326 1306.29 C 219.123 1306.97 218.947 1307.8 218.797 1308.75 C 218.714 1309.29 218.643 1309.83 218.583 1310.37 C 218.334 1314.32 218.21 1318.28 218.212 1322.24 L 219.697 1321.87 C 220.763 1321.6 221.688 1320.93 222.294 1320.02 C 226.995 1321.01 229.345 1322.12 229.345 1323.36 C 229.352 1323.62 229.269 1323.87 229.11 1324.08 C 228.785 1324.5 228.121 1324.76 227.119 1324.84 C 225.534 1324.95 223.78 1325.14 221.857 1325.4 C 220.64 1325.57 219.425 1325.75 218.212 1325.95 L 218.212 1342.65 Z" id="path-74" vector-effect="non-scaling-stroke"/>
</svg>