<?xml version="1.0" encoding="utf-8"?>
<svg xmlns="http://www.w3.org/2000/svg" viewBox="203.37 1393.03 30.43 76.4399" width="30.43px" height="76.4399px">
  <path d="M 208.936 1407.87 C 210.361 1408.84 211.849 1409.71 213.39 1410.47 C 215.079 1411.31 216.813 1412.05 218.585 1412.7 C 218.591 1412.71 218.597 1412.72 218.603 1412.73 C 219.386 1414.3 219.919 1415.72 220.201 1416.99 C 220.354 1417.65 220.434 1418.33 220.44 1419.01 C 220.44 1420 220.315 1420.75 220.063 1421.24 C 219.878 1421.69 219.44 1421.98 218.956 1421.97 C 218.271 1421.95 217.608 1421.72 217.047 1421.33 C 215.243 1420.16 213.178 1417.44 210.853 1413.15 C 210.049 1411.66 209.286 1410.15 208.565 1408.62 L 208.936 1407.87 Z M 224.522 1393.03 C 225.291 1393.03 226.059 1393.09 226.817 1393.22 C 228.725 1393.55 230.304 1394.32 231.553 1395.53 C 232.535 1396.5 233.301 1397.67 233.8 1398.97 C 233.487 1399.83 233.223 1400.84 233.009 1402 C 232.878 1402.71 232.77 1403.44 232.686 1404.16 C 232.441 1424.2 232.317 1444.24 232.315 1464.28 C 232.189 1466.65 231.86 1468.2 231.328 1468.95 C 231.146 1469.26 230.819 1469.46 230.46 1469.47 C 230.025 1469.47 229.597 1469.36 229.221 1469.13 C 227.927 1468.4 226.776 1466.47 225.768 1463.35 C 225.437 1462.31 225.145 1461.26 224.893 1460.2 C 225.389 1457.85 225.76 1455.37 226.007 1452.78 C 226.02 1452.47 226.032 1452.16 226.043 1451.86 C 226.208 1447.5 226.312 1442.36 226.355 1436.42 C 226.371 1434.2 226.379 1431.99 226.378 1429.77 C 221.781 1436.73 217.327 1443.78 213.018 1450.92 C 211.926 1450.91 210.838 1450.79 209.771 1450.56 C 206.999 1450.04 204.632 1448.25 203.37 1445.72 L 204.112 1445.35 C 205.35 1445.35 206.463 1445.23 207.452 1444.98 C 214.38 1438.55 220.688 1432.24 226.378 1426.06 L 226.378 1399.71 C 226.345 1398.98 226.223 1398.36 226.013 1397.84 C 225.85 1397.42 225.595 1397.05 225.265 1396.74 C 224.647 1396.12 224.275 1395.26 224.151 1394.14 L 224.522 1393.03 Z" id="path-76" vector-effect="non-scaling-stroke" transform="matrix(1, 0, 0, 1, 0, 2.2737367544323206e-13)"/>
</svg>