<?xml version="1.0" encoding="utf-8"?>
<svg xmlns="http://www.w3.org/2000/svg" viewBox="296.416 1149.77 26.348 53.8099" width="26.348px" height="53.8099px">
  <path d="M 297.158 1153.85 C 297.579 1153.85 298 1153.87 298.419 1153.89 C 299.118 1153.96 299.812 1154.07 300.498 1154.21 C 301.677 1153.94 302.851 1153.66 304.021 1153.37 C 306.459 1152.74 308.873 1152.04 311.26 1151.24 C 311.627 1151.08 311.995 1150.9 312.365 1150.74 C 313.449 1150.27 314.27 1149.96 314.829 1149.84 C 314.997 1149.8 315.169 1149.77 315.342 1149.77 C 320.29 1151.81 322.764 1153.41 322.764 1154.59 C 321.774 1156.38 321.279 1157.62 321.279 1158.3 C 321.277 1164.58 321.215 1170.86 321.094 1177.13 C 320.963 1183.96 320.777 1190.81 320.537 1197.63 C 320.17 1200.24 319.614 1201.99 318.869 1202.88 C 318.565 1203.31 318.085 1203.56 317.568 1203.58 C 316.713 1203.58 315.981 1202.59 315.371 1200.63 C 315.219 1200.13 315.086 1199.63 314.971 1199.12 L 314.971 1195.04 C 313.813 1195.55 312.662 1196.08 311.517 1196.63 C 309.131 1197.77 307.066 1198.84 305.322 1199.86 C 305.27 1199.88 305.217 1199.89 305.164 1199.9 C 304.79 1200.03 304.386 1200.11 303.952 1200.15 C 303.545 1200.2 303.135 1200.23 302.725 1200.22 C 302.686 1200.38 302.643 1200.55 302.598 1200.7 C 302.295 1201.78 301.949 1202.49 301.56 1202.88 C 301.383 1203.08 301.134 1203.19 300.869 1203.19 C 300.563 1203.19 300.263 1203.11 300.002 1202.94 C 299.118 1202.42 298.21 1201.13 297.279 1199.04 C 296.968 1198.34 296.68 1197.62 296.416 1196.88 C 296.796 1194.8 297.113 1192.67 297.365 1190.57 C 297.646 1188.22 297.824 1185.88 297.9 1183.54 C 298.026 1179.08 298.12 1174.84 298.182 1170.83 C 298.241 1167.14 298.271 1163.46 298.272 1159.79 C 298.272 1159.63 298.26 1159.47 298.237 1159.33 C 298.129 1158.58 297.77 1157.62 297.158 1156.44 C 296.664 1155.45 296.416 1154.7 296.416 1154.21 L 297.158 1153.85 Z M 314.229 1153.85 C 313.07 1154.15 311.909 1154.46 310.746 1154.78 C 307.188 1155.7 304.39 1156.38 302.354 1156.82 C 302.509 1156.95 302.649 1157.12 302.772 1157.29 C 303.236 1157.92 303.467 1158.76 303.467 1159.79 L 303.096 1167.58 C 304.854 1167.04 306.587 1166.41 308.291 1165.71 C 308.786 1165.47 309.157 1165.11 309.404 1164.61 C 312.126 1164.97 313.486 1165.71 313.486 1166.84 C 313.487 1166.91 313.474 1166.98 313.45 1167.07 C 313.32 1167.46 312.842 1167.81 312.016 1168.1 C 311.768 1168.17 311.516 1168.26 311.26 1168.32 C 308.539 1168.93 305.818 1169.67 303.096 1170.55 L 302.725 1180.57 C 304.209 1180.14 305.485 1179.77 306.552 1179.41 C 306.886 1179.31 307.218 1179.19 307.549 1179.08 C 307.59 1179.07 307.63 1179.05 307.67 1179.04 C 308.144 1178.84 308.722 1178.47 309.404 1177.96 C 311.154 1178.44 312.285 1178.95 312.797 1179.51 C 312.99 1179.67 313.104 1179.92 313.115 1180.19 C 313.115 1180.49 312.789 1180.8 312.135 1181.1 C 311.97 1181.17 311.802 1181.24 311.631 1181.31 C 308.353 1182.23 305.385 1182.97 302.725 1183.54 L 302.354 1196.88 C 302.832 1196.79 303.304 1196.64 303.769 1196.49 C 305.958 1195.8 309.692 1194.32 314.971 1192.07 C 315.026 1190.33 315.077 1188.58 315.124 1186.83 C 315.27 1181.47 315.342 1177.29 315.342 1174.26 C 315.342 1174.23 315.342 1174.21 315.342 1174.19 C 315.342 1170.95 315.272 1166.47 315.133 1160.76 C 315.083 1158.69 315.029 1156.64 314.971 1154.59 L 314.229 1153.85 Z" id="path-94" vector-effect="non-scaling-stroke" transform="matrix(1, 0, 0, 1, -2.842170943040401e-14, 0)"/>
</svg>