<?xml version="1.0" encoding="utf-8"?>
<svg xmlns="http://www.w3.org/2000/svg" viewBox="207.002 1488.67 24.863 50.1" width="24.863px" height="50.1px">
  <path d="M 211.084 1492.38 C 217.949 1491.14 222.897 1489.91 225.928 1488.67 C 226.587 1489.01 227.238 1489.36 227.88 1489.73 C 230.536 1491.28 231.865 1492.53 231.865 1493.49 C 231.865 1493.55 231.859 1493.6 231.848 1493.65 C 231.786 1493.93 231.56 1494.33 231.172 1494.84 C 231.036 1495.01 230.896 1495.18 230.752 1495.35 C 230.548 1502.25 230.286 1509.14 229.964 1516.04 C 229.674 1522.26 229.318 1528.47 228.897 1534.69 C 228.835 1535.08 228.757 1535.47 228.662 1535.86 C 228.426 1536.81 228.117 1537.53 227.733 1538.01 C 227.403 1538.48 226.87 1538.76 226.299 1538.77 C 225.339 1538.77 224.256 1537.37 223.05 1534.56 C 222.753 1533.87 222.476 1533.17 222.217 1532.46 C 220.779 1532.53 219.347 1532.7 217.935 1532.97 C 216.241 1533.31 214.572 1533.76 212.94 1534.32 C 212.724 1535.86 212.419 1536.87 212.025 1537.35 C 211.892 1537.53 211.682 1537.64 211.455 1537.65 C 211.057 1537.64 210.676 1537.49 210.379 1537.22 C 209.525 1536.53 208.672 1535.03 207.82 1532.71 C 207.522 1531.89 207.25 1531.07 207.002 1530.23 C 207.283 1527.56 207.539 1524.88 207.77 1522.2 C 208.14 1517.89 208.415 1513.84 208.597 1510.04 C 208.765 1506.63 208.852 1503.22 208.858 1499.8 C 208.841 1499.76 208.825 1499.72 208.809 1499.68 C 208.093 1497.94 207.615 1496.5 207.373 1495.35 L 208.115 1494.61 C 208.825 1494.66 209.527 1494.79 210.206 1495.01 C 212.006 1495.54 213.438 1496.91 214.053 1498.69 C 213.928 1500.08 213.821 1501.47 213.731 1502.86 C 213.632 1504.36 213.542 1505.97 213.461 1507.7 C 213.405 1508.9 213.355 1510.11 213.311 1511.31 C 213.345 1511.3 213.38 1511.29 213.415 1511.28 C 215.719 1510.66 217.664 1509.81 219.248 1508.71 C 219.539 1508.81 219.827 1508.93 220.11 1509.05 C 220.982 1509.44 221.625 1509.87 222.037 1510.34 C 222.382 1510.7 222.579 1511.18 222.588 1511.68 C 222.588 1512.36 221.846 1512.85 220.362 1513.16 C 220.068 1513.22 219.775 1513.27 219.482 1513.33 C 218.584 1513.5 217.631 1513.69 216.624 1513.91 C 215.517 1514.14 214.413 1514.39 213.311 1514.65 C 213.249 1520.15 213.125 1525.6 212.94 1530.97 C 213.332 1530.84 213.725 1530.7 214.119 1530.56 C 216.475 1529.76 218.551 1529.16 220.346 1528.79 C 221.209 1528.61 222.081 1528.47 222.959 1528.38 C 223.256 1522.4 223.503 1516.41 223.701 1510.43 C 223.88 1505.03 224.003 1499.63 224.072 1494.24 C 224.064 1494.22 224.055 1494.21 224.047 1494.19 C 223.799 1493.79 223.437 1493.55 222.959 1493.49 C 220.471 1494.06 217.996 1494.67 215.537 1495.35 C 214.3 1494.92 213.208 1494.48 212.261 1494 C 211.729 1493.74 211.212 1493.44 210.713 1493.12 L 211.084 1492.38 Z" id="path-78" vector-effect="non-scaling-stroke" transform="matrix(1, 0, 0, 1, 0, 2.2737367544323206e-13)"/>
</svg>