<?xml version="1.0" encoding="utf-8"?>
<svg xmlns="http://www.w3.org/2000/svg" viewBox="204.374 1545.33 28.203 75.3301" width="28.203px" height="75.3301px">
  <path d="M 222.557 1567.6 C 225.439 1568.28 227.522 1569.2 228.805 1570.34 C 229.77 1571.12 230.337 1572.29 230.35 1573.54 C 230.351 1573.66 230.329 1573.79 230.285 1573.91 C 230.121 1574.36 229.648 1574.73 228.866 1575.02 C 227.887 1575.97 226.893 1576.9 225.886 1577.81 C 222.921 1580.51 219.997 1582.92 217.114 1585.03 C 214.131 1587.24 210.99 1589.23 207.714 1590.98 L 206.971 1590.23 C 207.009 1590.2 207.047 1590.16 207.085 1590.12 C 211.903 1585.42 215.777 1581.05 218.707 1577.03 C 220.134 1575.09 221.421 1573.06 222.557 1570.94 C 222.556 1570.87 222.55 1570.81 222.537 1570.75 C 222.508 1570.59 222.445 1570.4 222.349 1570.17 C 222.298 1570.05 222.244 1569.94 222.186 1569.82 C 222.13 1569.71 222.078 1569.59 222.033 1569.48 C 221.891 1569.11 221.817 1568.73 221.815 1568.34 L 222.557 1567.6 Z M 223.671 1545.33 C 223.979 1545.39 224.285 1545.45 224.589 1545.52 C 227.629 1546.22 229.66 1547.58 230.683 1549.58 C 231.223 1550.68 231.491 1551.9 231.464 1553.13 C 231.464 1553.38 231.048 1553.67 230.215 1554.01 C 230.015 1554.09 229.812 1554.17 229.608 1554.24 C 228.291 1555.4 226.941 1556.52 225.562 1557.6 C 219.881 1562.11 213.63 1565.84 206.971 1568.71 L 206.229 1567.97 C 214.146 1561.29 220.084 1554.98 224.042 1549.04 C 223.856 1548.24 223.609 1547.62 223.3 1547.19 C 223.215 1547.06 223.142 1546.93 223.081 1546.79 C 222.982 1546.56 222.93 1546.32 222.928 1546.07 L 223.671 1545.33 Z M 224.784 1586.89 C 225.32 1587.03 225.85 1587.19 226.376 1587.36 C 230.291 1588.65 232.358 1590.47 232.577 1592.83 C 232.264 1593.14 231.962 1593.47 231.674 1593.81 C 231.332 1594.2 231.014 1594.62 230.721 1595.06 C 223.423 1606.32 214.888 1614.85 205.116 1620.66 L 204.374 1619.92 C 206.979 1617.29 209.464 1614.54 211.821 1611.68 C 217.088 1605.34 221.566 1598.39 225.155 1590.98 C 225.155 1590.9 225.151 1590.82 225.144 1590.74 C 225.122 1590.47 225.061 1590.14 224.963 1589.76 C 224.909 1589.54 224.849 1589.33 224.784 1589.12 C 224.749 1589.07 224.714 1589.02 224.68 1588.98 C 224.37 1588.53 224.172 1588.17 224.088 1587.9 C 224.06 1587.82 224.044 1587.73 224.042 1587.64 L 224.784 1586.89 Z" id="path-80" vector-effect="non-scaling-stroke" transform="matrix(1, 0, 0, 1, -1.4210854715202004e-14, 0)"/>
</svg>