<?xml version="1.0" encoding="utf-8"?>
<svg xmlns="http://www.w3.org/2000/svg" viewBox="353.635 676.358 31.914 77.559" width="31.914px" height="77.559px">
  <path d="M 384.436 707.901 C 381.838 711.365 379.24 714.705 376.643 717.921 C 376.256 730.774 376.021 740.078 375.936 745.834 C 375.915 747.168 375.903 748.501 375.9 749.835 C 375.715 751.461 375.376 752.601 374.882 753.256 C 374.613 753.662 374.161 753.91 373.674 753.917 C 373.584 753.916 373.494 753.898 373.41 753.864 C 372.596 753.553 371.44 751.874 369.943 748.827 C 369.566 748.056 369.201 747.279 368.85 746.495 C 369.022 745.774 369.185 745.052 369.338 744.327 C 370.013 741.144 370.559 737.742 370.976 734.121 C 371.39 730.464 371.671 726.793 371.818 723.116 C 365.015 729.857 361.18 733.692 360.315 734.62 C 358.218 734.234 356.355 733.045 355.12 731.307 C 354.478 730.389 353.977 729.379 353.635 728.311 L 354.006 727.569 C 354.404 727.663 354.806 727.741 355.21 727.802 C 355.794 727.892 356.384 727.938 356.975 727.94 C 358.828 726.703 360.655 725.427 362.454 724.113 C 365.65 721.775 368.773 719.339 371.818 716.807 C 372.066 711.55 372.19 706.231 372.19 700.85 C 371.817 701 371.442 701.146 371.066 701.289 C 368.582 702.234 366.854 702.706 365.881 702.706 L 361.428 702.335 C 361.003 702.911 360.563 703.475 360.108 704.028 C 359.319 704.991 358.435 705.992 357.456 707.031 C 356.456 708.089 355.43 709.122 354.377 710.128 L 353.635 709.757 C 354.485 707.822 355.308 705.875 356.105 703.917 C 358.352 698.378 359.755 694.139 360.315 691.202 C 360.237 690.504 360.111 689.903 359.936 689.4 C 359.842 689.123 359.72 688.856 359.572 688.604 L 359.943 687.862 C 364.644 688.481 366.994 690.584 366.994 694.171 C 366.994 694.728 366.499 695.593 365.51 696.768 L 363.654 699.366 C 364.137 699.362 364.62 699.322 365.097 699.248 C 366.298 699.07 367.765 698.692 369.499 698.114 C 370.404 697.81 371.301 697.485 372.19 697.139 L 372.561 684.151 C 372.437 682.481 372.066 681.12 371.447 680.069 C 371.409 680.027 371.372 679.985 371.334 679.942 C 370.535 679.045 370.01 678.301 369.759 677.708 C 369.673 677.515 369.616 677.31 369.592 677.1 L 369.963 676.358 C 374.292 676.358 377.508 678.09 379.611 681.554 C 379.611 681.925 379.364 683.78 378.869 687.12 L 378.498 693.8 L 379.982 692.686 C 380.564 692.791 381.143 692.913 381.718 693.05 C 384.272 693.667 385.549 694.412 385.549 695.284 C 385.545 695.459 385.49 695.628 385.389 695.771 C 385.171 696.104 384.73 696.436 384.065 696.768 L 377.756 698.995 C 377.663 700.104 377.578 701.213 377.501 702.323 C 377.265 705.787 377.102 709.255 377.014 712.725 L 383.693 707.53 L 384.436 707.901 Z" id="path-86" vector-effect="non-scaling-stroke" transform="matrix(1, 0, 0, 1, -7.105427357601002e-15, 0)"/>
</svg>