<?xml version="1.0" encoding="utf-8"?>
<svg xmlns="http://www.w3.org/2000/svg" viewBox="204.607 1724.75 23.008 70.51" width="23.008px" height="70.51px">
  <path d="M 207.204 1745.91 C 210.637 1746.18 213.304 1746.46 215.206 1746.74 C 215.758 1746.82 216.307 1746.91 216.853 1747.02 C 216.918 1747.08 216.982 1747.15 217.045 1747.21 C 217.985 1748.19 218.649 1749.12 219.038 1750.01 C 219.301 1750.59 219.442 1751.21 219.451 1751.84 C 219.451 1753.58 218.709 1754.44 217.224 1754.44 C 217.182 1754.44 217.14 1754.44 217.097 1754.44 C 214.903 1754.38 212.345 1752.8 209.423 1749.68 C 208.516 1748.71 207.652 1747.7 206.833 1746.65 L 207.204 1745.91 Z M 214.626 1724.75 C 217.294 1725.06 219.695 1725.42 221.831 1725.83 C 223.025 1726.05 224.211 1726.31 225.388 1726.61 C 225.685 1726.98 225.958 1727.36 226.208 1727.77 C 227.121 1729.19 227.609 1730.85 227.615 1732.55 C 227.615 1732.66 227.61 1732.78 227.6 1732.89 C 227.538 1733.62 227.264 1734.09 226.78 1734.29 C 226.573 1734.37 226.352 1734.41 226.13 1734.4 C 225.894 1734.4 225.659 1734.38 225.425 1734.35 C 223.255 1734.02 220.559 1732.21 217.339 1728.91 C 216.27 1727.81 215.241 1726.67 214.255 1725.5 L 214.626 1724.75 Z M 226.872 1758.52 C 226.729 1758.94 226.586 1759.36 226.442 1759.77 C 224.29 1766.01 222.137 1771.89 219.984 1777.43 C 217.951 1782.68 215.793 1787.88 213.513 1793.04 L 212.771 1795.26 C 208.565 1794.03 205.844 1790.93 204.607 1785.98 L 205.349 1785.61 C 205.689 1785.7 206.029 1785.8 206.367 1785.89 C 206.896 1786.04 207.423 1786.19 207.947 1786.36 C 207.977 1786.32 208.007 1786.28 208.037 1786.25 C 211.795 1781.67 215.813 1775.83 220.089 1768.72 C 222.176 1765.24 224.19 1761.72 226.13 1758.15 L 226.872 1758.52 Z" id="path-84" vector-effect="non-scaling-stroke" transform="matrix(1, 0, 0, 1, 0, -2.2737367544323206e-13)"/>
</svg>