<?xml version="1.0" encoding="utf-8"?>
<svg xmlns="http://www.w3.org/2000/svg" viewBox="202.929 1630.67 27.832 80.8999" width="27.832px" height="80.8999px">
  <path d="M 214.062 1630.67 C 215.738 1630.67 217.183 1630.88 218.399 1631.29 C 220.317 1631.85 221.867 1633.27 222.597 1635.13 C 222.57 1635.27 222.543 1635.41 222.516 1635.55 C 222.134 1637.53 221.913 1638.75 221.855 1639.21 C 221.488 1643.78 221.24 1648.36 221.113 1652.94 C 221.775 1652.67 222.418 1652.35 223.037 1651.99 C 223.672 1651.62 224.27 1651.19 224.824 1650.71 C 225.435 1650.77 226.044 1650.84 226.65 1650.93 C 228.416 1651.2 229.613 1651.57 230.241 1652.05 C 230.549 1652.24 230.743 1652.58 230.761 1652.94 C 230.699 1653.87 230.205 1654.49 229.277 1654.8 C 228.451 1655.03 227.627 1655.28 226.805 1655.53 C 224.896 1656.12 222.999 1656.74 221.113 1657.39 C 221.091 1658.18 221.068 1658.97 221.046 1659.76 C 220.484 1679.82 220.148 1694.05 220.039 1702.45 C 220.016 1704.13 220.003 1705.81 220 1707.49 C 219.752 1710.21 218.886 1711.57 217.402 1711.57 C 216.901 1711.56 216.419 1711.38 216.044 1711.04 C 214.998 1710.18 214.077 1708.28 213.28 1705.33 C 213.013 1704.33 212.779 1703.32 212.578 1702.3 C 212.831 1701.17 213.044 1700.03 213.216 1698.89 C 214.386 1691.38 215.286 1678.04 215.917 1658.88 C 215.661 1658.88 215.405 1658.88 215.149 1658.87 C 213.298 1658.84 211.449 1658.72 209.609 1658.51 C 209.604 1658.6 209.599 1658.69 209.594 1658.78 C 209.275 1664.49 208.553 1668.16 207.429 1669.79 C 207.118 1670.35 206.54 1670.71 205.898 1670.75 C 205.047 1670.76 204.269 1670.27 203.89 1669.51 C 203.25 1668.42 202.929 1666.61 202.929 1664.07 C 202.93 1663.8 202.951 1663.52 202.993 1663.25 C 203.129 1662.36 203.479 1661.4 204.042 1660.36 C 204.854 1658.82 205.506 1656.96 205.998 1654.78 C 206.27 1653.56 206.484 1652.33 206.64 1651.09 L 207.382 1651.09 C 207.385 1651.09 207.387 1651.09 207.389 1651.1 C 207.942 1652.2 208.398 1653.28 208.758 1654.34 C 209.147 1655.45 209.432 1656.6 209.609 1657.77 C 211.756 1657.15 213.862 1656.41 215.917 1655.54 L 215.917 1636.98 C 215.917 1636.97 215.917 1636.96 215.917 1636.95 C 215.915 1636.62 215.881 1636.31 215.813 1636.02 C 215.71 1635.55 215.491 1635.12 215.175 1634.76 C 214.339 1633.76 213.786 1632.87 213.515 1632.09 C 213.392 1631.75 213.326 1631.4 213.32 1631.05 L 214.062 1630.67 Z" id="path-82" vector-effect="non-scaling-stroke" transform="matrix(1, 0, 0, 1, 0, -2.2737367544323206e-13)"/>
</svg>