<?xml version="1.0" encoding="utf-8"?>
<svg xmlns="http://www.w3.org/2000/svg" viewBox="352.592 805.197 31.914 57.519" width="31.914px" height="57.519px">
  <path d="M 357.787 811.876 C 358.055 811.811 358.324 811.746 358.592 811.68 C 364.137 810.324 368.414 809.125 371.425 808.084 C 372.335 807.776 373.232 807.431 374.115 807.052 C 374.219 807.006 374.322 806.959 374.425 806.91 C 375.383 806.46 376.278 805.884 377.084 805.197 C 377.604 805.262 378.122 805.337 378.639 805.424 C 380.836 805.798 382.327 806.31 383.111 806.959 C 383.504 807.239 383.745 807.684 383.764 808.165 C 383.777 808.686 383.521 809.177 383.086 809.464 C 382.719 809.724 382.202 809.91 381.537 810.021 C 378.816 810.392 375.723 811.01 372.26 811.876 C 373.249 812.742 373.991 813.732 374.486 814.845 L 374.486 825.236 C 377.393 825.236 379.352 825.553 380.361 826.185 C 380.842 826.432 381.151 826.922 381.166 827.462 C 381.163 827.725 381.071 827.979 380.904 828.182 C 380.673 828.481 380.289 828.754 379.752 829.001 C 379.487 829.122 379.216 829.228 378.939 829.318 C 378.549 829.443 378.159 829.567 377.768 829.689 C 376.553 830.07 375.336 830.441 374.115 830.802 L 373.744 847.501 C 377.182 845.598 380.646 843.743 384.135 841.935 L 384.506 842.677 C 377.511 848.948 370.333 855.012 362.982 860.861 L 361.127 862.716 C 360.109 862.38 359.118 861.966 358.164 861.477 C 355.962 860.373 354.052 858.763 352.592 856.779 L 353.334 856.036 L 356.674 856.036 C 360.756 854.428 364.591 852.573 368.178 850.47 L 368.549 833.029 L 364.096 834.142 C 363.482 834.065 362.875 833.937 362.282 833.761 C 361.366 833.487 360.482 833.117 359.643 832.657 L 360.014 831.915 C 363.106 830.988 365.951 829.999 368.549 828.947 L 368.549 815.587 C 368.549 815.033 368.447 814.427 368.244 813.771 C 368.121 813.379 367.975 812.994 367.807 812.618 C 367.439 812.711 367.072 812.808 366.706 812.91 C 365.185 813.333 363.693 813.855 362.24 814.474 C 362.011 814.452 361.783 814.422 361.556 814.384 C 360.049 814.154 358.625 813.547 357.416 812.618 L 357.787 811.876 Z" id="path-88" vector-effect="non-scaling-stroke" transform="matrix(1, 0, 0, 1, -7.105427357601002e-15, 0)"/>
</svg>