<?xml version="1.0" encoding="utf-8"?>
<svg xmlns="http://www.w3.org/2000/svg" viewBox="286.927 965.558 31.653 58.632" width="31.653px" height="58.632px">
  <path d="M 308.507 965.558 C 311.012 966.562 312.904 967.817 314.184 969.321 C 315.044 970.289 316.275 972.238 316.593 973.658 C 316.593 973.77 316.586 973.883 316.57 973.994 C 316.5 974.616 316.213 975.37 315.733 976.256 C 315.43 977.179 315.128 978.099 314.818 979.015 C 313.903 981.715 313.432 983.788 312.494 986.136 C 311.586 988.431 310.703 991.612 309.741 993.849 C 309.982 994.124 310.222 994.4 310.463 994.677 C 313.184 997.813 313.819 998.884 314.819 1000.29 C 315.029 1000.58 315.23 1000.87 315.417 1001.18 C 315.804 1001.91 316.176 1002.65 316.533 1003.4 C 317.409 1005.27 317.999 1006.9 318.317 1008.31 C 318.48 1009.01 318.573 1009.73 318.58 1010.46 C 318.58 1012.44 318.007 1013.43 316.859 1013.43 C 316.727 1013.43 316.603 1013.42 316.479 1013.4 C 315.572 1013.25 314.354 1012.746 313.478 1011.526 C 313.121 1011.016 312.795 1010.476 312.501 1009.906 C 312.082 1009.086 311.64 1008.286 311.19 1007.496 C 310.415 1006.116 309.66 1004.924 308.706 1003.444 C 307.729 1001.934 307.389 1001.593 306.365 1000.149 C 304.318 1004.513 301.844 1009.688 299.285 1013.568 C 295.958 1018.648 292.997 1021.277 287.501 1024.19 L 286.927 1023.45 C 289.719 1019.47 292.293 1015.25 294.643 1010.83 C 297.535 1005.36 300.007 999.944 302.326 994.043 C 301.325 992.739 300.325 991.44 299.317 990.147 C 297.223 987.461 295.527 984.871 293.945 982.942 C 293.239 982.086 292.533 981.239 291.82 980.402 L 292.394 979.66 C 295.465 981.392 299.59 984.484 304.77 988.937 C 305.631 986.513 306.46 983.892 307.251 981.074 C 308.027 978.282 308.74 975.459 309.376 972.609 C 309.376 972.313 309.368 972.017 309.36 971.721 C 309.329 970.583 309.236 969.89 309.081 969.64 C 308.787 969.144 308.546 968.649 308.36 968.153 C 308.135 967.571 307.996 966.944 307.934 966.3 L 308.507 965.558 Z" id="path-92" vector-effect="non-scaling-stroke" style="" transform="matrix(1, 0, 0, 1.0000000000000002, 0, 0)"/>
</svg>