<?xml version="1.0" encoding="utf-8"?>
<svg xmlns="http://www.w3.org/2000/svg" viewBox="410.175 359.578 50.226 76.541" width="50.226px" height="76.541px">
  <path d="M 432.811 359.578 C 435.385 359.991 437.764 361.202 439.612 363.041 C 440.706 364.114 441.663 365.319 442.46 366.628 C 442.457 366.634 442.453 366.64 442.45 366.646 C 441.958 367.554 440.859 372.013 439.152 380.023 C 438.891 381.248 438.633 382.473 438.378 383.699 C 446.356 382.029 447.227 381.383 449.64 380.826 C 450.036 380.733 450.423 380.604 450.796 380.443 C 451.447 380.159 452.056 379.788 452.608 379.341 C 456.789 381.73 459.287 383.399 460.104 384.346 C 460.263 384.495 460.367 384.693 460.401 384.908 C 460.399 385.051 460.379 385.193 460.34 385.33 C 460.207 385.823 459.856 386.424 459.288 387.134 C 458.744 389.682 458.181 392.226 457.6 394.766 C 454.783 407.065 452.142 416.354 449.679 422.634 C 448.937 424.592 448.056 426.494 447.042 428.326 C 444.073 433.521 441.97 436.119 440.733 436.119 C 440.584 436.114 440.439 436.066 440.316 435.981 C 439.915 435.726 439.47 435.119 438.981 434.159 C 438.813 433.827 438.655 433.491 438.507 433.15 C 437.677 432.013 436.825 430.891 435.953 429.785 C 434.299 427.695 432.825 426.026 431.532 424.779 C 430.928 424.185 430.282 423.635 429.601 423.131 L 429.972 422.017 C 430.288 422.119 430.603 422.22 430.919 422.32 C 435.732 423.85 438.632 424.615 439.62 424.615 C 440.671 424.615 441.537 423.873 442.218 422.388 C 444.771 416.981 446.851 411.362 448.434 405.596 C 450.164 399.295 451.435 392.877 452.237 386.392 C 452.237 386.174 452.213 385.956 452.166 385.743 C 452.101 385.453 452 385.173 451.866 384.908 C 451.604 384.919 451.341 384.938 451.08 384.966 C 448.517 385.226 446.794 385.853 437.264 387.781 C 433.244 401.388 428.306 412.337 422.45 420.628 C 419.283 425.243 415.388 429.315 410.917 432.683 L 410.175 432.312 C 414.623 426.388 418.45 420.022 421.596 413.315 C 425.211 405.584 428.096 397.533 430.214 389.265 C 425.384 390.448 422.046 391.159 420.201 391.4 C 419.83 391.454 419.456 391.484 419.081 391.492 C 418.777 391.41 418.474 391.325 418.172 391.237 C 416.371 390.711 414.872 390.142 413.675 389.53 C 413.099 389.242 412.549 388.905 412.03 388.523 L 412.401 387.41 C 413.261 387.371 414.12 387.314 414.978 387.239 C 417.843 386.993 421.345 386.528 425.482 385.844 C 427.434 385.52 429.382 385.176 431.327 384.812 C 432.811 378.627 433.924 372.937 434.667 367.742 C 434.667 367.631 434.665 367.519 434.66 367.408 C 434.639 366.935 434.575 366.499 434.467 366.1 C 434.306 365.468 433.992 364.885 433.553 364.402 C 433.439 364.274 433.33 364.141 433.226 364.005 C 432.478 363.063 432.07 361.895 432.069 360.691 L 432.811 359.578 Z" id="path-11" vector-effect="non-scaling-stroke"/>
</svg>