<?xml version="1.0" encoding="utf-8"?>
<svg xmlns="http://www.w3.org/2000/svg" viewBox="49.02 346.235 49.343 81.269" width="49.343px" height="81.269px">
  <path d="M 69.22 391.508 C 65.859 392.007 66.067 391.981 62.751 392.719 C 62.746 392.803 62.74 392.886 62.733 392.969 C 62.691 393.428 62.6 393.788 62.46 394.05 C 62.314 394.374 61.991 394.58 61.637 394.574 C 60.495 394.574 59.279 393.842 57.991 392.377 C 57.57 391.895 57.177 391.389 56.813 390.863 C 56.357 389.373 55.896 387.885 55.429 386.398 C 54.333 382.912 53.063 378.957 51.618 374.535 C 51.391 374.3 51.17 374.059 50.954 373.814 C 50.29 373.062 49.786 372.381 49.443 371.771 C 49.269 371.471 49.127 371.154 49.02 370.824 L 49.391 370.082 C 49.57 370.082 49.75 370.085 49.93 370.09 C 52.34 370.14 54.702 370.774 56.813 371.937 C 57.469 371.849 58.125 371.757 58.781 371.662 C 62.863 371.071 63.853 370.942 68.849 369.985 L 68.478 354.77 C 68.478 352.482 68.23 351.121 67.736 350.688 C 66.464 349.508 65.659 348.527 65.321 347.746 C 65.208 347.505 65.146 347.244 65.138 346.977 L 65.509 346.235 C 65.635 346.235 65.763 346.236 65.89 346.237 C 68.737 346.267 70.96 346.638 72.56 347.348 C 74.972 348.4 76.332 349.637 76.642 351.059 C 76.452 351.812 76.294 352.572 76.168 353.337 C 76.027 354.18 75.938 355.03 75.9 355.883 L 75.529 368.872 L 83.519 367.343 C 83.665 367.309 83.812 367.273 83.958 367.235 C 85.864 366.743 87.45 366.036 88.715 365.116 C 89.071 365.288 89.427 365.461 89.782 365.636 C 94.152 367.793 96.853 369.5 97.885 370.758 C 98.157 371.04 98.325 371.406 98.363 371.796 C 98.361 371.921 98.341 372.044 98.303 372.162 C 98.132 372.713 97.602 373.418 96.714 374.277 C 96.406 374.573 96.09 374.86 95.766 375.136 C 95.646 375.384 95.527 375.631 95.408 375.877 C 92.365 382.174 90.01 386.751 88.344 389.609 C 88.125 389.828 87.904 390.043 87.679 390.254 C 86.291 391.556 85.276 392.206 84.633 392.206 C 84.214 392.205 83.799 392.137 83.403 392.003 C 82.953 391.854 82.502 391.623 82.052 391.309 C 81.647 391.024 81.269 390.704 80.922 390.351 L 79.066 389.98 C 78.046 390.023 79.191 389.826 77.703 390.043 C 76.976 390.151 76.252 390.268 75.529 390.395 L 74.787 417.856 C 74.748 418.191 74.707 418.525 74.665 418.859 C 74.131 423.017 73.424 425.676 72.544 426.834 C 72.307 427.221 71.899 427.47 71.447 427.504 C 70.299 427.504 69.591 425.039 69.324 420.107 C 69.271 419.11 69.236 418.113 69.22 417.114 L 69.22 391.508 Z M 75.529 387.055 C 77.569 386.561 77.272 386.517 79.437 386.269 C 80.489 386.579 80.833 386.95 82.406 387.382 C 84.351 382.297 85.962 377.091 87.23 371.796 C 87.136 371.422 86.901 371.189 86.523 371.098 C 86.389 371.068 86.253 371.053 86.117 371.054 C 81.771 371.551 79.84 371.843 75.529 372.582 L 75.529 387.055 Z M 69.22 388.168 C 68.972 383.348 68.849 378.523 68.849 373.696 C 64.384 374.502 63.481 374.723 59.04 375.648 L 62.751 389.75 C 66.077 388.949 65.867 388.852 69.22 388.168 Z" id="path-14" vector-effect="non-scaling-stroke" transform="matrix(1, 0, 0, 1, 1.1368683772161603e-13, 0)"/>
</svg>