<?xml version="1.0" encoding="utf-8"?>
<svg xmlns="http://www.w3.org/2000/svg" viewBox="322.255 361.5178 50.57 83.6842" width="50.57px" height="83.6842px">
  <path d="M 334.828 369.166 L 338.181 369.166 C 342.838 367.667 347.214 365.867 351.312 363.767 C 351.964 363.467 352.71 362.718 353.548 361.518 C 354.252 361.515 354.958 361.543 355.662 361.603 C 357.71 361.786 359.113 362.26 359.87 363.025 C 360.259 363.339 360.513 363.967 360.532 364.666 C 360.534 364.96 360.486 365.247 360.394 365.498 C 360.23 365.946 359.922 366.314 359.468 366.605 C 359.268 366.731 359.064 366.835 358.856 366.917 C 352.072 369.281 345.273 371.53 338.46 373.665 C 338.424 373.648 338.388 373.631 338.352 373.613 C 336.547 372.719 335.279 371.537 334.549 370.067 L 334.828 369.166 Z M 322.535 396.611 C 329.286 394.654 336.038 392.705 342.791 390.762 C 349.076 388.955 355.363 387.155 361.65 385.364 C 361.689 385.343 361.729 385.321 361.768 385.299 C 363.11 384.555 364.188 383.526 365.003 382.214 C 365.53 382.319 366.056 382.442 366.581 382.58 C 369.215 383.283 371.016 384.272 371.984 385.549 C 372.493 386.13 372.804 387.06 372.825 388.062 C 372.825 389.712 371.894 390.612 370.031 390.762 C 366.768 390.926 363.507 391.226 360.253 391.662 C 356.706 392.137 353.637 392.659 350.106 393.383 C 350.48 393.667 350.841 393.992 351.187 394.356 C 352.329 395.521 354.203 397.544 354.721 399.553 C 354.721 400.153 354.535 400.903 354.163 401.802 C 352.877 411.733 349.442 421.097 345.335 428.789 C 342.295 434.43 337.91 438.962 333.99 442.953 C 333.774 443.159 333.558 443.364 333.341 443.566 C 332.681 444.186 332.171 444.644 331.811 444.941 C 331.7 445.033 331.589 445.121 331.476 445.202 L 331.196 444.302 C 331.574 443.74 332.007 443.119 332.494 442.44 C 332.805 442.009 333.117 441.579 333.431 441.153 C 335.279 438.408 337.006 435.458 338.6 432.324 C 343.057 423.731 346.086 413.455 347.401 402.46 C 347.436 402.1 347.468 401.74 347.497 401.377 C 347.586 400.243 347.647 399.104 347.68 397.96 C 347.646 397.822 347.609 397.684 347.57 397.547 C 347.225 396.289 346.686 395.193 346.004 394.362 C 345.58 394.465 345.156 394.571 344.733 394.678 C 338.563 396.235 332.457 398.382 326.446 401.11 C 326.414 401.091 326.382 401.072 326.349 401.052 C 324.439 399.906 323.189 398.938 322.599 398.145 C 322.459 397.973 322.342 397.758 322.255 397.511 L 322.535 396.611 Z" id="path-9" vector-effect="non-scaling-stroke" style="" transform="matrix(1, 0, 0, 1, 0, 2.842170943040401e-14)"/>
</svg>