<?xml version="1.0" encoding="utf-8"?>
<svg xmlns="http://www.w3.org/2000/svg" viewBox="41.143 19.587 48.9854 69.341" width="48.9854px" height="69.341px">
  <path d="M 75.655 65.178 C 75.933 65.383 76.21 65.588 76.487 65.794 C 80.526 68.788 84.456 71.925 88.272 75.198 C 88.538 75.954 88.783 76.718 89.006 77.488 C 89.754 80.079 90.128 82.408 90.128 84.475 C 90.133 84.845 90.09 85.215 90.001 85.575 C 89.768 86.472 89.212 87.046 88.334 87.297 C 87.951 87.4 87.556 87.45 87.159 87.444 C 87.125 87.444 87.091 87.443 87.056 87.44 C 85.653 87.335 83.779 85.111 81.433 80.766 C 80.842 79.665 80.277 78.551 79.737 77.425 C 70.51 80.205 61.463 83.551 52.647 87.444 C 52.116 87.679 51.59 87.927 51.07 88.186 C 50.6 88.42 50.135 88.668 49.678 88.928 C 48.589 88.619 47.535 88.197 46.533 87.669 C 43.68 86.241 41.678 83.539 41.143 80.393 L 41.885 79.651 C 42.206 79.812 42.532 79.965 42.861 80.109 C 43.509 80.39 44.067 80.581 44.533 80.681 C 44.76 80.733 44.992 80.76 45.225 80.764 C 45.281 80.764 45.336 80.763 45.391 80.762 C 45.869 80.751 46.441 80.694 47.107 80.589 C 47.471 80.531 47.833 80.466 48.194 80.393 C 53.219 64.102 58.277 38.08 59.698 29.637 C 60.004 27.82 60.238 26.171 60.782 24.411 C 60.632 24.11 60.482 23.808 60.333 23.506 C 59.684 22.183 59.256 21.247 59.048 20.699 C 59.001 20.578 58.961 20.454 58.927 20.329 L 59.669 19.587 C 60.581 19.753 61.481 19.975 62.364 20.254 C 66.045 21.433 68.239 23.437 68.946 26.267 C 63.936 45.27 57.891 64.261 52.276 80.022 C 56.519 79.121 60.756 78.193 64.986 77.239 C 69.538 76.212 74.084 75.161 78.624 74.085 C 78.33 73.517 78.041 72.946 77.757 72.372 C 76.868 70.573 76.158 68.988 75.627 67.619 C 75.361 66.939 75.123 66.249 74.913 65.55 L 75.655 65.178 Z" id="path-1" vector-effect="non-scaling-stroke" transform="matrix(0.9999999999999999, 0, 0, 0.9999999999999999, 0, -2.842170943040401e-14)"/>
</svg>