<?xml version="1.0" encoding="utf-8"?>
<svg xmlns="http://www.w3.org/2000/svg" viewBox="418.707 94.747 40.449 65.313" width="40.449px" height="65.313px">
  <path d="M 419.449 99.2 C 420.573 99.201 421.693 99.325 422.789 99.571 C 430.513 98.696 438.191 97.458 445.797 95.86 C 447.857 95.257 449.224 94.899 449.896 94.786 C 450.013 94.764 450.132 94.751 450.25 94.747 C 454.696 96.68 457.48 98.235 458.603 99.413 C 458.867 99.656 459.058 99.968 459.156 100.313 C 458.352 101.612 457.734 102.973 457.301 104.396 C 457.207 106.938 457.132 109.48 457.075 112.023 C 456.977 116.531 456.929 121.039 456.93 125.548 C 456.93 127.546 456.948 129.543 456.982 131.541 C 457.087 137.341 457.317 143.137 457.672 148.927 C 456.187 154.497 454.771 157.977 453.425 159.366 C 453.099 159.768 452.622 160.019 452.105 160.06 C 451.949 160.057 451.794 160.018 451.655 159.946 C 451.136 159.689 450.592 158.992 450.023 157.855 C 449.839 157.483 449.667 157.104 449.508 156.72 C 449.006 155.483 448.237 154.246 447.203 153.009 C 446.538 152.22 445.82 151.476 445.055 150.782 C 444.715 150.612 444.367 150.458 444.011 150.322 C 442.925 149.896 441.769 149.675 440.602 149.669 C 439.778 149.673 438.953 149.703 438.13 149.759 C 436.22 149.882 433.855 150.13 431.034 150.504 C 429.521 150.706 428.01 150.922 426.5 151.153 L 426.5 153.009 C 426.299 154.486 425.952 155.563 425.458 156.238 C 425.117 156.767 424.532 157.088 423.902 157.091 C 423.536 157.087 423.178 156.991 422.859 156.81 C 421.733 156.195 420.655 154.574 419.625 151.946 C 419.287 151.075 418.981 150.191 418.707 149.298 C 418.889 148.39 419.058 147.48 419.212 146.567 C 419.456 145.133 419.658 143.692 419.82 142.247 C 419.851 141.472 419.881 140.698 419.91 139.923 C 420.351 127.962 420.569 115.993 420.563 104.024 C 420.562 103.639 420.517 103.256 420.43 102.881 C 420.32 102.392 420.14 101.887 419.892 101.364 C 419.656 100.871 419.384 100.396 419.078 99.942 L 419.449 99.2 Z M 426.129 147.813 C 426.174 147.806 426.218 147.799 426.262 147.792 C 430.28 147.151 433.413 146.579 435.661 146.074 C 436.323 145.928 436.98 145.765 437.633 145.587 C 438.989 144.812 439.966 144.34 440.564 144.172 C 440.697 144.131 440.835 144.108 440.973 144.103 C 443.396 144.691 445.59 145.982 447.281 147.813 C 449.013 147.813 449.879 146.7 449.879 144.474 L 449.879 101.798 C 449.883 101.52 449.851 101.243 449.784 100.973 C 449.61 100.301 449.193 99.871 448.534 99.682 C 448.247 99.604 447.95 99.567 447.652 99.571 C 440.354 100.314 433.056 101.303 425.758 102.54 C 425.928 103.603 426.04 104.52 426.093 105.291 C 426.116 105.61 426.128 105.931 426.129 106.251 L 426.129 116.271 C 426.685 116.185 427.239 116.093 427.792 115.995 C 429.422 115.704 430.953 115.37 432.385 114.992 C 433.786 114.626 435.167 114.186 436.52 113.673 C 437.88 112.702 438.858 112.112 439.455 111.903 C 439.585 111.853 439.721 111.824 439.859 111.817 C 440.137 111.869 440.414 111.925 440.69 111.985 C 442.84 112.451 444.311 113.044 445.103 113.765 C 445.527 114.105 445.78 114.614 445.797 115.157 C 445.807 115.595 445.579 116.004 445.201 116.226 C 445.04 116.331 444.846 116.419 444.619 116.49 C 444.398 116.558 444.171 116.609 443.941 116.642 C 442.707 116.814 441.474 116.996 440.242 117.187 C 436.39 117.788 432.55 118.472 428.727 119.239 L 426.129 118.868 L 426.129 130.001 C 430.83 129.444 434.665 128.826 437.633 128.146 C 437.808 127.97 437.986 127.798 438.167 127.628 C 438.859 126.982 439.411 126.57 439.821 126.392 C 439.95 126.331 440.089 126.296 440.231 126.29 C 440.466 126.341 440.699 126.395 440.932 126.452 C 443.102 126.984 444.597 127.642 445.418 128.427 C 445.88 128.822 446.152 129.394 446.168 130.001 C 446.175 130.263 446.092 130.519 445.933 130.727 C 445.608 131.149 444.944 131.402 443.941 131.485 C 440.107 131.794 435.159 132.413 429.098 133.341 L 426.129 132.97 L 426.129 147.813 Z" id="path-12" vector-effect="non-scaling-stroke" transform="matrix(0.9999999999999999, 0, 0, 0.9999999999999999, 0, -2.842170943040401e-14)"/>
</svg>