<?xml version="1.0" encoding="utf-8"?>
<svg xmlns="http://www.w3.org/2000/svg" viewBox="145.929 336.4476 50.694 83.8684" width="50.694px" height="83.8684px">
  <path d="M 163.951 336.448 C 165.198 336.44 166.442 336.556 167.666 336.795 C 171.174 337.384 174.199 339.594 175.826 342.757 C 175.824 342.767 175.822 342.777 175.82 342.786 C 175.695 343.406 175.54 344.056 175.353 344.737 C 175.159 345.444 174.945 346.145 174.712 346.839 C 174.561 349.374 174.422 351.91 174.295 354.446 C 174.174 356.858 174.066 359.27 173.97 361.683 C 174.814 361.558 175.656 361.426 176.498 361.288 C 179.129 360.856 176.943 361.27 179.553 360.728 C 179.646 360.691 179.738 360.652 179.829 360.611 C 180.621 360.259 181.509 359.715 182.492 358.979 C 183.01 358.59 183.515 358.183 184.006 357.76 C 190.051 358.916 193.924 360.263 195.625 361.802 C 196.217 362.259 196.581 362.951 196.623 363.697 C 196.623 364.501 195.888 365.06 194.418 365.374 C 194.043 365.453 193.664 365.512 193.283 365.553 C 185.552 365.553 182.444 365.147 174.341 366.136 C 174.316 368.139 174.29 370.141 174.263 372.143 C 174.042 388.795 173.82 402.626 173.599 413.636 C 173.57 413.99 173.535 414.343 173.494 414.695 C 173.06 418.443 172.105 420.316 170.63 420.316 C 170.22 420.267 169.865 420.008 169.694 419.632 C 168.395 417.575 167.594 410.876 167.29 399.534 C 167.289 394.308 167.259 389.082 167.198 383.856 C 167.133 378.32 167.04 372.784 166.919 367.249 C 165.083 367.586 163.251 367.941 161.422 368.316 C 156.162 369.389 157.041 368.667 151.867 370.098 C 149.64 369.356 147.661 368.491 145.929 367.501 L 146.301 366.759 C 155.212 364.928 158.018 365.048 166.919 363.167 L 166.919 344.612 C 166.909 344.324 166.882 344.037 166.838 343.752 C 166.668 342.495 166.035 341.346 165.064 340.53 C 164.407 339.939 163.924 339.348 163.616 338.756 C 163.355 338.276 163.215 337.738 163.208 337.191 L 163.951 336.448 Z" id="path-16" vector-effect="non-scaling-stroke" transform="matrix(1, 0, 0, 1, 1.1368683772161603e-13, 0)"/>
</svg>