<?xml version="1.0" encoding="utf-8"?>
<svg xmlns="http://www.w3.org/2000/svg" viewBox="262.714 358.028 50.824 85.723" width="50.824px" height="85.723px">
  <path d="M 276.868 385.489 C 277.222 385.412 277.576 385.333 277.929 385.252 C 280.327 384.702 282.697 384.038 285.032 383.263 C 285.032 382.271 285.029 381.279 285.024 380.287 C 285.01 377.363 284.973 374.593 284.914 371.978 C 284.859 369.43 284.775 366.883 284.661 364.337 C 284.64 364.251 284.616 364.165 284.591 364.08 C 284.295 363.011 283.671 362.062 282.805 361.368 C 282.063 360.626 281.692 359.76 281.692 358.771 L 282.434 358.028 C 283.042 358.027 283.65 358.061 284.254 358.131 C 287.723 358.479 290.861 360.343 292.825 363.224 C 292.825 363.307 292.824 363.39 292.821 363.473 C 292.799 364.195 292.682 365.059 292.47 366.065 C 292.355 366.605 292.226 367.143 292.082 367.677 C 291.897 372.455 291.781 376.224 291.734 378.984 C 291.72 379.791 291.712 380.599 291.711 381.407 C 292.123 381.283 292.534 381.155 292.943 381.023 C 293.901 380.715 294.974 380.348 296.164 379.923 C 296.305 379.742 296.449 379.563 296.596 379.387 C 297.28 378.567 297.878 378.004 298.391 377.696 C 304.329 378.376 307.297 379.613 307.297 381.407 C 307.3 381.709 307.197 382.002 307.005 382.236 C 306.735 382.571 306.277 382.839 305.631 383.041 C 305.326 383.134 305.015 383.208 304.7 383.263 C 301.492 383.804 298.549 384.345 295.872 384.886 C 294.357 385.191 292.847 385.516 291.34 385.861 L 291.34 399.591 C 292.458 399.346 293.575 399.098 294.692 398.849 C 297.909 398.129 299.071 397.661 302.277 396.896 C 302.527 396.662 302.783 396.434 303.043 396.212 C 303.859 395.519 304.719 394.88 305.617 394.299 C 306.391 394.427 307.161 394.57 307.929 394.729 C 313.81 395.951 313.536 397.389 313.536 399.591 C 313.536 400.766 312.176 401.384 309.454 401.446 C 301.615 401.58 299.064 402.324 291.34 403.673 C 291.341 408.022 291.307 412.37 291.236 416.719 C 291.129 423.506 290.917 430.29 290.598 437.071 C 290.343 440.133 289.854 442.142 289.131 443.099 C 288.884 443.488 288.461 443.732 288 443.751 C 286.64 443.751 285.774 442.019 285.403 438.556 C 285.156 427.546 285.032 416.29 285.032 404.786 C 281.987 405.338 278.952 405.943 275.928 406.6 C 271.382 407.583 272.383 407.631 267.909 408.903 C 266.054 408.284 264.322 407.418 262.714 406.305 L 263.085 405.563 L 285.032 400.704 L 285.032 387.345 C 284.217 387.493 283.402 387.647 282.589 387.809 C 281.811 387.963 281.07 388.118 280.364 388.273 C 279.567 388.446 278.773 388.632 277.981 388.829 C 276.002 388.829 273.652 388.705 270.93 388.458 C 270.88 388.53 270.761 387.95 270.538 387.557 L 270.406 386.791 C 270.564 386.484 271.159 386.299 272.786 385.489 L 276.868 385.489 Z" id="path-7" vector-effect="non-scaling-stroke" transform="matrix(0.9999999999999999, 0, 0, 0.9999999999999999, 2.842170943040401e-14, 0)"/>
</svg>