<?xml version="1.0" encoding="utf-8"?>
<svg xmlns="http://www.w3.org/2000/svg" viewBox="22.555 33.451 48.298 72.295" width="48.298px" height="72.295px">
  <path d="M 23.297 37.519 C 23.659 37.519 24.02 37.545 24.377 37.595 C 25.373 37.735 26.368 38.07 27.363 38.598 C 28.16 39.028 28.912 39.536 29.606 40.116 C 38.673 38.925 44.297 37.334 52.67 36.048 C 54.65 35.801 56.752 34.935 58.978 33.451 C 60.033 33.768 61.081 34.108 62.12 34.471 C 67.837 36.481 70.748 38.492 70.853 40.502 C 70.853 40.672 70.84 40.841 70.813 41.009 C 70.707 41.706 70.387 42.488 69.853 43.355 C 69.59 43.779 69.305 44.19 68.998 44.584 C 68.907 56.026 70.472 75.862 70.164 85.365 C 69.997 90.527 68.909 95.502 67.824 100.551 C 67.709 100.876 67.585 101.197 67.452 101.515 C 66.27 104.336 64.786 105.746 63 105.746 C 62.717 105.73 62.446 105.621 62.23 105.436 C 61.391 104.797 60.411 103.169 59.289 100.551 C 57.167 98.896 52.661 97.929 51.867 97.953 C 51.389 97.967 51.35 98.325 40.07 99.957 C 39.699 100.329 39.328 100.607 38.957 100.792 C 38.613 100.971 38.232 101.067 37.843 101.071 C 36.359 101.071 34.257 98.845 31.535 94.391 C 30.839 88.315 28.504 67.496 26.904 56.618 C 26.331 52.724 25.747 48.832 25.153 44.941 C 25.113 44.713 25.07 44.486 25.022 44.259 C 24.863 43.486 24.659 42.722 24.41 41.972 C 24.299 41.784 24.19 41.595 24.082 41.405 C 23.765 40.846000000000004 23.481 40.309 23.23 39.793 C 22.985 39.292 22.759 38.781 22.555 38.261 L 23.297 37.519 Z M 31.09 43.085 C 31.856 47.1 32.607 51.117 33.342 55.137 C 35.594 67.461 38.381 89.515 39.328 96.618 C 52.673 94.089 49.618 93.194 52.184 93.325 C 53.194 93.376 54.197 93.15 55.207 93.129 C 56.228 93.129 57.527 93.547 59.103 94.382 C 59.672 94.686 60.229 95.01 60.773 95.356 C 62.019 82.543 60.278 57.851 60.834 42.728 C 60.835 42.575 60.826 42.422 60.809 42.269 C 60.644 40.821 59.663 39.984 57.865 39.759 C 49.01 40.714 44.125 41.806 35.914 43.085 L 31.09 43.085 Z M 39.696 57.09 C 40.285 57.398 40.87 57.715 41.452 58.04 C 46.942 61.119 50.577 64.223 52.353 67.353 C 53.301 68.857 53.74 70.768 53.583 72.712 C 53.566 72.871 53.547 73.031 53.525 73.189 C 53.206 75.436 52.387 76.777 51.066 77.213 C 50.569 77.367 50.056 77.412 49.554 77.347 C 49.317 77.323 49.087 77.252 48.871 77.136 C 48.222 76.788 47.709 76.026 47.335 74.849 C 47.187 74.369 47.066 73.874 46.976 73.367 C 46.965 73.303 46.953 73.241 46.941 73.176 C 46.081 68.536 43.439 63.6 39.017 58.368 L 39.696 57.09 Z" id="path-3" vector-effect="non-scaling-stroke" transform="matrix(0.9999999999999999, 0, 0, 0.9999999999999999, 0, -7.105427357601002e-15)"/>
</svg>