<?xml version="1.0" encoding="utf-8"?>
<svg xmlns="http://www.w3.org/2000/svg" viewBox="406.388 18.957 51.106 78.672" width="51.106px" height="78.672px">
  <path d="M 407.155 30.723 C 409.963 30.144 412.733 29.391 415.448 28.468 C 418.359 27.494 420.476 26.398 423.761 24.964 C 426.974 23.553 430.142 22.045 433.263 20.442 C 433.416 20.319 433.571 20.198 433.728 20.08 C 434.452 19.533 435.027 19.186 435.452 19.039 C 435.583 18.989 435.721 18.961 435.861 18.957 C 435.937 18.994 436.013 19.031 436.089 19.069 C 442.122 22.045 445.138 24.358 445.138 26.008 C 445.131 26.186 445.066 26.358 444.954 26.497 C 444.652 26.907 443.978 27.338 442.931 27.79 C 442.558 27.949 442.18 28.098 441.798 28.235 C 436.603 32.069 431.531 36.151 426.583 40.481 C 428.473 41.491 430.082 42.956 431.265 44.743 C 432.132 46.064 432.805 47.503 433.263 49.016 C 437.195 48.032 438.296 47.966 442.279 47.219 C 444.011 46.601 445.248 45.611 445.99 44.25 C 446.882 44.392 447.771 44.555 448.656 44.737 C 452.451 45.521 455.023 46.503 456.374 47.682 C 457.048 48.19 457.459 48.973 457.494 49.817 C 457.494 51.301 456.381 52.043 454.154 52.043 C 447.474 52.043 442.664 51.984 434.005 53.469 C 434.108 54.547 434.205 55.625 434.296 56.705 C 434.844 63.193 435.118 69.041 435.118 74.25 C 435.115 76.453 434.929 78.653 434.562 80.826 C 433.986 84.167 433.053 87.436 431.779 90.578 C 431.511 91.217 431.228 91.851 430.932 92.478 C 429.302 95.912 427.852 97.629 426.583 97.629 C 426.078 97.629 425.491 96.887 424.821 95.403 C 424.656 95.035 424.502 94.664 424.357 94.289 C 423.51 93.074 422.587 91.914 421.594 90.817 C 419.142 88.13 416.324 85.801 413.224 83.899 L 413.224 83.157 C 414.149 83.385 415.08 83.593 416.014 83.782 C 418.869 84.354 421.403 84.641 423.615 84.641 C 424.403 84.641 425.113 84.012 425.745 82.756 C 425.92 82.403 426.076 82.041 426.212 81.672 C 427.689 77.629 428.443 73.358 428.439 69.055 C 428.437 66.766 428.406 64.477 428.346 62.19 C 428.28 59.653 428.187 57.117 428.068 54.582 C 427.155 54.763 426.243 54.949 425.332 55.14 C 419.886 56.28 421.74 56.054 417.848 57.237 C 415.983 57.796 414.14 58.428 412.325 59.133 C 412.225 59.099 412.124 59.065 412.024 59.032 C 409.947 58.329 408.378 57.69 407.315 57.115 C 406.992 56.944 406.683 56.75 406.388 56.535 L 406.759 55.793 C 411.143 54.666 412.395 54.129 416.793 53.061 C 421.549 51.905 422.928 51.602 427.697 50.5 C 427.288 48.728 426.729 47.14 426.02 45.736 C 424.904 43.434 423.172 41.487 421.017 40.11 L 421.388 38.996 C 421.671 38.995 421.955 39.009 422.237 39.037 C 423.103 39.115 423.948 39.353 424.728 39.739 C 428.69 33.747 431.369 29.34 432.764 26.52 C 433.093 25.872 433.384 25.206 433.634 24.524 C 427.094 27.388 421.64 30.373 415.319 33.692 C 411.422 32.95 408.577 32.208 406.784 31.466 L 407.155 30.723 Z" id="path-24" vector-effect="non-scaling-stroke"/>
</svg>