<?xml version="1.0" encoding="utf-8"?>
<svg xmlns="http://www.w3.org/2000/svg" viewBox="149.393 369.225 38.354 78.672" width="38.354px" height="78.672px">
  <path d="M 149.764 380.991 C 152.572 380.412 155.342 379.659 158.057 378.736 C 160.968 377.762 163.085 376.666 166.37 375.232 C 169.583 373.821 172.751 372.313 175.872 370.71 C 176.025 370.587 176.18 370.466 176.337 370.348 C 177.061 369.801 177.636 369.454 178.061 369.307 C 178.192 369.257 178.33 369.229 178.47 369.225 C 178.546 369.262 178.622 369.299 178.698 369.337 C 184.731 372.313 187.747 374.626 187.747 376.276 C 187.74 376.454 187.675 376.626 187.563 376.765 C 187.261 377.175 186.587 377.606 185.54 378.058 C 185.167 378.217 184.789 378.366 184.407 378.503 C 179.212 382.337 174.14 386.419 169.192 390.749 C 171.082 391.759 172.691 393.224 173.874 395.011 C 174.741 396.332 175.414 397.771 175.872 399.284 C 176.433 400.729 176.488 401.816 176.614 403.737 C 176.717 404.815 176.814 405.893 176.905 406.973 C 177.453 413.461 177.727 419.309 177.727 424.518 C 177.724 426.721 177.538 428.921 177.171 431.094 C 176.595 434.435 175.662 437.704 174.388 440.846 C 174.12 441.485 173.837 442.119 173.541 442.746 C 171.911 446.18 170.461 447.897 169.192 447.897 C 168.687 447.897 168.1 447.155 167.43 445.671 C 167.265 445.303 167.111 444.932 166.966 444.557 C 166.119 443.342 165.196 442.182 164.203 441.085 C 161.751 438.398 158.933 436.069 155.833 434.167 L 155.833 433.425 C 156.758 433.653 157.689 433.861 158.623 434.05 C 161.478 434.622 164.012 434.909 166.224 434.909 C 167.012 434.909 167.722 434.28 168.354 433.024 C 168.529 432.671 168.685 432.309 168.821 431.94 C 170.298 427.897 171.052 423.626 171.048 419.323 C 171.046 417.034 171.015 414.745 170.955 412.458 C 170.889 409.921 170.762 407.386 170.677 404.85 C 170.637 403.649 170.665 402.817 170.306 400.768 C 169.897 398.996 169.338 397.408 168.629 396.004 C 167.513 393.702 165.781 391.755 163.626 390.378 L 163.997 389.264 C 164.28 389.263 164.564 389.277 164.846 389.305 C 165.712 389.383 166.557 389.621 167.337 390.007 C 171.299 384.015 173.978 379.608 175.373 376.788 C 175.702 376.14 175.993 375.474 176.243 374.792 C 169.703 377.656 164.249 380.641 157.928 383.96 C 154.031 383.218 151.186 382.476 149.393 381.734 L 149.764 380.991 Z" id="path-24" vector-effect="non-scaling-stroke"/>
</svg>