<?xml version="1.0" encoding="utf-8"?>
<svg xmlns="http://www.w3.org/2000/svg" viewBox="169.043 28.826 60.1171 59.375" width="60.1171px" height="59.375px">
  <path d="M 179.434 33.651 L 182.774 34.764 C 182.808 34.757 182.841 34.75 182.875 34.744 C 187.053 33.938 191.596 32.584 196.504 30.682 C 196.929 30.426 197.413 30.054 197.955 29.566 C 198.22 29.326 198.479 29.079 198.731 28.826 C 202.596 30.082 204.952 31.112 205.797 31.916 C 205.994 32.067 206.122 32.29 206.152 32.537 C 206.152 32.939 205.744 33.749 204.928 34.968 C 204.722 35.274 204.512 35.577 204.297 35.877 C 201.081 45.773 199.473 54.061 199.473 60.741 C 199.473 61.122 199.478 61.504 199.488 61.886 C 199.639 67.278 200.871 71.102 203.184 73.358 C 206.089 76.106 209.676 78.028 213.574 78.924 C 213.847 78.984 214.122 79.035 214.398 79.078 C 214.878 79.152 215.396 79.207 215.952 79.243 C 216.519 79.278 217.088 79.296 217.656 79.295 C 218.27 79.298 218.855 79.033 219.259 78.571 C 219.474 78.339 219.669 78.052 219.844 77.71 C 220.008 77.384 220.145 77.045 220.254 76.698 C 221.548 72.633 222.785 68.55 223.965 64.451 L 224.707 65.194 C 224.711 65.258 224.715 65.323 224.719 65.388 C 225.214 73.201 225.952 78.703 226.934 81.893 C 226.982 81.957 227.03 82.021 227.077 82.086 C 228.084 83.452 228.726 84.574 229.003 85.453 C 229.1 85.741 229.153 86.042 229.16 86.346 C 229.164 86.87 228.874 87.352 228.41 87.596 C 227.743 87.999 226.633 88.201 225.078 88.201 C 221.285 88.197 217.523 87.513 213.971 86.182 C 210.659 84.928 207.53 83.236 204.668 81.151 C 200.385 78.095 197.33 73.614 196.052 68.511 C 195.339 65.73 194.992 62.868 195.02 59.998 C 195.02 59.696 195.02 59.395 195.021 59.094 C 195.052 49.932 195.546 41.699 196.504 34.393 C 193.288 35.32 189.824 36.186 186.113 36.991 C 186.375 37.205 186.589 37.471 186.742 37.773 C 186.874 38.023 186.981 38.309 187.064 38.633 C 187.142 38.946 187.197 39.266 187.227 39.588 L 187.227 45.155 C 187.268 52.497 185.975 59.786 183.413 66.667 C 180.397 74.508 175.895 81.694 170.156 87.83 L 169.043 87.088 C 176.719 75.005 180.716 60.952 180.547 46.639 L 180.547 38.475 C 180.501 38.274 180.443 38.076 180.373 37.883 C 180.156 37.288 179.838 36.735 179.434 36.248 C 179.408 36.215 179.382 36.181 179.356 36.148 C 179.18 35.915 179.039 35.683 178.933 35.451 C 178.777 35.12 178.695 34.759 178.692 34.393 L 179.434 33.651 Z" id="path-4" vector-effect="non-scaling-stroke" transform="matrix(0.9999999999999999, 0, 0, 0.9999999999999999, 3.552713678800501e-15, -7.105427357601002e-15)"/>
</svg>