<?xml version="1.0" encoding="utf-8"?>
<svg xmlns="http://www.w3.org/2000/svg" viewBox="274.413 29.675 52.414 70.652" width="52.414px" height="70.652px">
  <path d="M 274.784 59.095 C 276.223 58.876 277.659 58.641 279.098 58.422 C 281.821 58.008 281.647 58.134 283.24 57.826 C 282.869 53.125 282.272 46.552 281.901 43.089 C 281.901 42.161 281.035 41.047 279.303 39.749 C 279.019 39.538 278.754 39.302 278.513 39.043 C 277.829 38.337 277.447 37.392 277.448 36.409 L 278.19 35.667 C 281.665 35.667 284.344 36.153 286.228 37.125 C 287.396 37.681 288.352 38.602 288.952 39.749 C 288.952 39.795 288.952 39.842 288.952 39.889 C 288.954 42.781 289.249 48.669 289.386 52.573 C 289.435 53.953 289.489 55.333 289.549 56.713 C 289.549 56.713 298.043 55.019 302.339 54.539 C 302.687 50.92 302.957 47.537 303.148 44.389 C 303.29 42.084 303.392 39.776 303.452 37.468 C 303.452 37.339 303.449 37.21 303.444 37.081 C 303.387 35.714 303.018 34.606 302.339 33.757 C 301.349 32.52 300.854 31.407 300.854 30.418 L 301.597 29.675 C 304.641 29.675 307.09 30.397 308.945 31.841 C 310.307 32.929 311.356 34.359 311.987 35.984 L 310.874 39.695 C 310.671 40.821 310.482 41.95 310.306 43.081 C 309.758 46.637 309.328 50.211 309.019 53.796 C 311.264 53.545 313.687 52.033 314.8 50.734 C 315.764 50.893 316.725 51.074 317.681 51.276 C 321.749 52.14 322.662 52.877 324.079 54.143 C 324.764 54.674 325.18 55.479 325.216 56.345 C 325.216 57.581 323.979 58.2 321.505 58.2 C 316.789 58.2 310.499 58.426 308.276 58.621 L 306.421 75.32 C 306.318 76.242 306.11 76.973 305.795 77.513 C 305.412 78.241 304.646 78.687 303.823 78.66 C 303.561 78.654 303.307 78.57 303.092 78.42 C 302.593 78.092 302.095 77.43 301.597 76.433 C 301.513 75.566 300.723 74.636 300.448 72.66 L 301.703 59.3 C 297.842 59.9 293.726 59.91 289.92 60.795 C 290.096 65.961 290.473 75.774 290.729 80.937 C 290.964 85.671 291.242 90.402 291.564 95.131 C 301.584 93.399 301.348 92.467 311.615 90.983 C 313.703 90.743 315.656 89.831 317.181 88.386 C 317.961 88.498 318.74 88.626 319.515 88.769 C 323.408 89.492 324.204 90.306 325.618 91.51 C 326.349 92.05 326.794 92.894 326.827 93.803 C 326.827 94.615 326.078 95.093 324.58 95.239 C 324.217 95.272 323.852 95.288 323.487 95.287 C 321.479 95.286 321.33 95.449 319.322 95.477 C 315.145 95.537 317.065 95.387 313.94 95.579 C 312.546 95.662 311.155 95.771 309.765 95.904 C 307.618 96.112 305.475 96.354 303.336 96.628 C 298.329 97.266 297.486 97.736 291.193 98.842 C 291.05 99.17 290.886 99.444 290.701 99.664 C 290.374 100.084 289.871 100.329 289.338 100.327 C 289.009 100.32 288.688 100.223 288.41 100.047 C 287.189 99.321 285.891 97.188 284.514 93.647 C 284.513 90.931 284.489 88.215 284.441 85.5 C 284.326 79.182 283.943 68.218 283.611 61.908 C 283.326 61.973 283.042 62.047 282.755 62.105 C 282 62.258 281.836 62.249 280.728 63.02 C 279.151 62.626 278.484 62.284 277.256 61.68 C 276.235 61.187 275.279 60.568 274.413 59.837 L 274.784 59.095 Z" id="path-17" vector-effect="non-scaling-stroke" transform="matrix(0.9999999999999999, 0, 0, 0.9999999999999999, -2.842170943040401e-14, -8.881784197001252e-16)"/>
</svg>