<?xml version="1.0" encoding="utf-8"?>
<svg xmlns="http://www.w3.org/2000/svg" viewBox="290.7305 21.8644 40.449 75.01" width="40.449px" height="75.01px">
  <path d="M 422.98 155.294 C 425.938 156.338 427.967 158.138 429.069 160.693 C 429.65 162.088 429.977 163.606 430.031 165.152 C 429.384 166.128 428.765 167.129 428.175 168.152 C 427.529 169.275 426.911 170.418 426.32 171.581 C 429.042 171.296 431.639 170.439 434.113 169.01 C 434.406 168.811 434.7 168.615 434.994 168.42 C 436.219 167.612 437.062 167.119 437.524 166.941 C 437.621 166.9 437.722 166.874 437.824 166.866 C 438.573 167.296 439.312 167.748 440.041 168.218 C 442.135 169.578 443.492 170.748 444.112 171.729 C 444.343 172.051 444.48 172.45 444.503 172.867 C 444.503 173.43 444.118 174.262 443.348 175.359 C 443.123 175.679 442.889 175.992 442.648 176.296 C 440.813 180.912 438.814 185.437 436.658 189.863 C 432.688 197.981 428.416 205.116 423.842 211.268 C 418.345 218.832 411.78 225.268 404.425 230.304 L 404.054 229.447 C 405.566 227.781 407.035 226.064 408.459 224.298 C 414.807 216.376 420.306 207.599 424.835 198.157 C 422.429 197.632 420.188 195.875 418.114 192.884 C 417.307 191.706 416.577 190.459 415.929 189.155 L 416.3 188.298 C 416.419 188.309 416.538 188.319 416.657 188.329 C 419.691 188.595 421.923 188.727 423.351 188.727 C 424.307 189.396 425.133 190.286 425.776 191.341 C 426.325 192.251 426.759 193.247 427.062 194.299 C 430.085 187.962 432.69 181.371 434.855 174.582 C 434.855 174.565 434.855 174.546 434.854 174.528 C 434.842 173.846 434.595 173.435 434.113 173.295 C 434.087 173.307 434.061 173.318 434.035 173.329 C 430.819 174.711 427.487 175.706 424.093 176.296 C 422.535 178.723 420.843 181.03 419.027 183.203 C 415.827 187.065 412.158 190.369 408.136 193.013 L 407.765 192.156 C 409.915 189.025 411.925 185.77 413.788 182.402 C 416.979 176.609 419.803 170.558 422.238 164.294 C 422.286 164.103 422.332 163.913 422.376 163.721 C 422.779 161.992 422.98 160.612 422.98 159.579 C 422.831 159.174 422.698 158.76 422.581 158.341 C 422.353 157.512 422.238 156.782 422.238 156.151 L 422.98 155.294 Z" id="path-9" vector-effect="non-scaling-stroke" style="" transform="matrix(1, 0, 0, 1, -113.32344224040861, -133.42962845310012)"/>
</svg>