<?xml version="1.0" encoding="utf-8"?>
<svg xmlns="http://www.w3.org/2000/svg" viewBox="142.884 20.531 53.314 67.084" width="53.314px" height="67.084px">
  <path d="M 150.766 27.962 C 160.415 26.477 167.28 24.983 176.433 22.757 C 176.975 22.371 177.564 21.936 178.202 21.453 C 178.604 21.148 179.004 20.84 179.402 20.531 C 183.393 21.279 186.043 22.25 187.351 23.446 C 187.933 23.913 188.282 24.609 188.308 25.355 C 188.308 25.372 188.307 25.389 188.305 25.406 C 188.251 25.901 187.403 26.396 185.763 26.892 C 185.377 27.007 184.989 27.113 184.597 27.21 C 177.671 27.581 173.28 28.085 166.352 29.446 C 168.33 30.284 169.93 31.268 171.152 32.398 C 172.388 33.496 173.296 34.914 173.774 36.497 C 172.431 40.832 171.071 45.161 169.692 49.485 C 171.808 48.948 172.129 48.907 174.25 48.393 C 176.211 47.917 175.265 48.049 177.231 47.597 C 177.409 47.516 177.585 47.433 177.76 47.349 C 178.392 47.045 179.206 46.633 180.2 46.113 C 180.343 46.158 180.486 46.203 180.628 46.249 C 184.646 47.542 187.171 48.738 188.201 49.836 C 188.514 50.121 188.705 50.515 188.735 50.937 C 188.735 50.947 188.735 50.957 188.733 50.968 C 188.701 51.354 188.083 52.21 186.879 53.535 C 183.127 61.999 180.004 69.89 176.499 78.41 C 178.715 78.184 179.877 77.987 182.083 77.688 C 184.454 77.366 182.28 77.692 184.64 77.303 L 187.609 75.447 C 188.301 75.593 188.99 75.754 189.675 75.928 C 194.977 77.28 196.198 78.845 196.198 80.884 C 196.196 81.393 195.942 81.868 195.518 82.151 C 194.861 82.644 193.727 82.964 192.116 83.11 C 181.03 83.11 181.132 82.622 174.985 83.04 C 173.207 83.154 174.059 83.044 172.289 83.255 C 169.991 83.538 167.695 83.849 165.404 84.19 C 159.12 85.115 154.642 86.195 148.45 87.615 C 148.222 87.53 147.995 87.442 147.769 87.351 C 146.83 86.969 145.977 86.545 145.209 86.078 C 144.365 85.571 143.585 84.966 142.884 84.275 L 143.255 83.533 C 144.889 83.26 146.524 82.999 148.16 82.75 C 150.726 82.358 151.531 82.093 154.106 81.77 C 154.268 81.206 154.43 80.643 154.591 80.08 C 156.948 71.873 159.26 63.654 161.528 55.423 C 161.343 55.461 161.158 55.5 160.972 55.54 C 158.28 56.114 158.676 56.013 156.051 56.844 C 155.306 56.679 154.569 56.479 153.842 56.246 C 152.547 55.833 151.297 55.287 150.113 54.618 L 150.484 53.875 C 152.432 53.513 154.375 53.125 156.311 52.71 C 159.336 52.064 159.284 52.144 162.27 51.341 C 162.638 50.01 162.993 48.676 163.337 47.34 C 164.328 43.504 165.21 39.641 165.981 35.755 C 165.981 34.641 165.494 33.25 164.52 31.58 C 164.166 30.977 163.786 30.388 163.383 29.817 C 163.029 29.878 162.676 29.942 162.322 30.009 C 159.93 30.452 157.56 31.007 155.219 31.673 C 154.517 31.346 153.829 30.988 153.158 30.601 C 152.188 30.043 151.264 29.409 150.395 28.704 L 150.766 27.962 Z M 177.973 51.679 C 176.217 52.012 177.376 51.775 175.63 52.162 C 172.541 52.846000000000004 171.264 53.115 168.207 53.938 C 165.301 63.215 162.332 72.245 159.301 81.028 C 164.857 80.209 165.436 79.628 171.012 78.963 C 171.732 76.622 172.445 74.641 173.125 72.289 C 175.085 65.531 177.127 59.276 178.715 52.422 L 177.973 51.679 Z" id="path-5" vector-effect="non-scaling-stroke" transform="matrix(1, 0, 0, 1, 0, 1.4210854715202004e-14)"/>
</svg>