<?xml version="1.0" encoding="utf-8"?>
<svg xmlns="http://www.w3.org/2000/svg" viewBox="27.16 25.535 40.82 77.888" width="40.82px" height="77.888px">
  <path d="M 54.992 25.535 C 58.221 26.869 60.659 28.535 62.306 30.533 C 63.422 31.819 64.234 33.507 64.641 35.393 C 64.641 35.544 64.631 35.694 64.613 35.841 C 64.514 36.667 64.152 37.669 63.527 38.845 C 63.142 40.071 62.75 41.293 62.349 42.51 C 61.168 46.098 59.975 49.452 58.772 52.571 C 57.602 55.62 56.341 58.606 54.992 61.521 C 55.302 61.887 55.612 62.254 55.922 62.621 C 59.433 66.788 61.837 69.805 63.133 71.673 C 63.401 72.054 63.657 72.45 63.898 72.86 C 64.4 73.826 64.88 74.81 65.339 75.813 C 66.467 78.292 67.234 80.464 67.639 82.33 C 67.852 83.256 67.967 84.217 67.98 85.184 C 67.98 87.814 67.238 89.128 65.754 89.128 C 65.593 89.128 65.432 89.115 65.272 89.088 C 64.095 88.893 62.946 87.981 61.823 86.354 C 61.362 85.678 60.94 84.958 60.559 84.198 C 60.014 83.115 59.451 82.047 58.871 80.997 C 57.865 79.174 56.746 77.276 55.514 75.302 C 54.26 73.3 52.973 71.334 51.652 69.409 C 49.01 75.202 46.023 80.704 42.719 85.864 C 38.425 92.612 33.437 98.524 27.902 103.423 L 27.16 102.437 C 30.758 97.154 34.081 91.552 37.108 85.67 C 40.838 78.412 44.208 70.84 47.199 63.001 C 45.909 61.268 44.615 59.543 43.315 57.824 C 40.616 54.256 38.247 51.191 36.206 48.627 C 35.302 47.49 34.39 46.366 33.469 45.253 L 34.211 44.267 C 38.169 46.568 43.488 50.677 50.168 56.591 C 51.284 53.372 52.351 49.89 53.368 46.146 C 54.371 42.438 55.283 38.687 56.105 34.901 C 56.106 34.509 56.101 34.116 56.092 33.722 C 56.053 32.211 55.934 31.29 55.734 30.958 C 55.349 30.299 55.037 29.64 54.798 28.981 C 54.512 28.208 54.326 27.376 54.25 26.521 L 54.992 25.535 Z" id="path-1" vector-effect="non-scaling-stroke" style=""/>
</svg>