<?xml version="1.0" encoding="utf-8"?>
<svg xmlns="http://www.w3.org/2000/svg" viewBox="417.521 26.664 47.129 76.817" width="47.129px" height="76.817px">
  <path d="M 439.044 38.168 C 436.184 42.497 433.421 46.392 430.753 49.852 C 429.244 51.816 427.678 53.737 426.056 55.61 C 426.65 55.607 427.244 55.572 427.834 55.504 C 429.261 55.346 430.895 55.01 432.736 54.496 C 439.416 52.641 445.601 50.785 451.291 48.93 C 453.641 47.693 455.126 47.074 455.744 47.074 C 456.308 47.368 456.87 47.666 457.429 47.969 C 461.115 49.965 463.39 51.491 464.254 52.546 C 464.476 52.773 464.615 53.068 464.65 53.383 C 464.337 53.883 464.051 54.399 463.794 54.931 C 463.345 55.855 463.009 56.831 462.794 57.836 C 462.598 63.76 462.35 69.682 462.052 75.602 C 461.728 82.052 461.357 88.5 460.939 94.945 C 460.79 95.673 460.624 96.398 460.44 97.119 C 459.726 99.902 458.914 101.771 458.002 102.728 C 457.625 103.181 457.075 103.454 456.486 103.481 C 456.472 103.481 456.458 103.48 456.444 103.478 C 456.146 103.434 455.773 102.935 455.323 101.982 C 455.21 101.742 455.103 101.499 455.001 101.254 C 454.816 100.811 454.613 100.375 454.394 99.948 C 453.8 98.779 453.013 97.483 452.033 96.059 C 451.963 95.926 451.89 95.794 451.813 95.665 C 450.969 94.24 449.825 93.274 448.382 92.767 C 447.526 92.478 446.628 92.336 445.724 92.348 C 442.833 92.348 439.357 92.816 435.296 93.751 C 433.314 94.212 431.346 94.735 429.396 95.317 C 429.3 95.589 429.191 95.858 429.071 96.121 C 428.779 96.76 428.461 97.229 428.119 97.526 C 427.862 97.769 427.523 97.907 427.169 97.914 C 426.766 97.897 426.381 97.745 426.074 97.483 C 425.189 96.798 424.263 95.301 423.296 92.991 C 422.955 92.167 422.638 91.334 422.345 90.492 C 422.464 89.962 422.543 89.424 422.582 88.882 C 422.868 85.887 423.033 79.496 423.076 69.711 C 423.084 67.856 423.088 66 423.087 64.145 C 423.089 63.779 423.074 63.414 423.043 63.05 C 422.973 62.255 422.821 61.625 422.585 61.161 C 422.448 60.87 422.238 60.619 421.974 60.434 C 421.383 60.991 420.733 61.586 420.024 62.221 C 419.441 62.743 418.854 63.261 418.263 63.774 L 417.521 63.031 C 419.149 60.322 420.726 57.583 422.25 54.814 C 426.531 47.024 429.779 39.991 431.994 33.715 C 431.994 32.531 431.922 31.673 431.776 31.142 C 431.742 31.004 431.69 30.871 431.623 30.746 C 431.477 30.482 431.341 30.212 431.214 29.938 C 431.013 29.499 430.854 29.078 430.738 28.674 C 430.616 28.261 430.539 27.836 430.509 27.406 L 431.251 26.664 C 434.965 27.151 437.668 28.87 439.359 31.821 C 440.076 33.11 440.596 34.499 440.9 35.942 L 439.044 38.168 Z M 429.025 91.606 C 430.739 91.332 432.45 91.034 434.155 90.712 C 438.295 89.936 442.402 88.997 446.466 87.895 C 446.914 87.966 447.357 88.067 447.791 88.196 C 448.837 88.505 449.883 88.986 450.928 89.639 C 451.846 90.219 452.712 90.877 453.517 91.606 C 454.507 79.483 455.001 66.866 455.001 53.754 C 454.94 53.012 454.445 52.641 453.517 52.641 C 448.931 53.652 444.355 54.703 439.787 55.795 C 435.571 56.803 431.364 57.854 427.169 58.949 C 427.157 58.948 427.144 58.948 427.131 58.947 C 426.326 58.906 425.641 58.794 425.075 58.609 C 424.768 58.512 424.475 58.377 424.201 58.207 L 423.459 58.949 C 425.821 60.993 427.382 62.737 428.142 64.181 C 428.393 64.631 428.566 65.121 428.654 65.629 L 428.654 72.68 C 429.334 72.496 430.011 72.306 430.687 72.11 C 433.508 71.297 436.296 70.373 439.044 69.34 C 440.117 68.88 441.024 68.103 441.642 67.113 C 442.203 67.154 442.762 67.208 443.32 67.274 C 445.722 67.561 447.37 68.036 448.265 68.699 C 448.745 68.999 449.044 69.517 449.064 70.082 C 449.067 70.595 448.805 71.073 448.371 71.346 C 448.18 71.481 447.949 71.599 447.678 71.701 C 447.404 71.801 447.123 71.88 446.837 71.938 C 446.652 71.973 446.466 72.008 446.28 72.043 C 440.362 73.172 434.484 74.499 428.654 76.02 L 429.025 91.606 Z" id="path-11" vector-effect="non-scaling-stroke"/>
</svg>