<?xml version="1.0" encoding="utf-8"?>
<svg xmlns="http://www.w3.org/2000/svg" viewBox="251.13 220.428 49.0536 73.105" width="49.0536px" height="73.105px">
  <path d="M 275.591 235.509 C 275.757 236.212 275.885 236.963 275.973 237.745 C 275.81 251.487 275.567 265.223 275.245 278.948 C 274.354 279.184 273.463 279.458 272.576 279.768 C 271.764 280.051 272.254 279.804 271.447 280.167 C 271.325 267.827 270.743 256.114 270.703 243.773 C 270.703 239.295 270.575 236.081 270.089 234.588 C 271.945 233.893 272.894 233.467 274.759 232.968 C 275.087 233.708 275.367 234.564 275.591 235.509 Z M 262.933 236.555 C 263.718 236.336 264.506 236.135 265.293 235.953 C 265.859 249.257 266.264 262.599 266.507 275.963 C 266.598 277.095 266.723 278.211 266.881 279.297 C 266.983 279.994 267.101 280.674 267.236 281.337 C 266.131 281.669 265.028 282.042 263.928 282.456 C 262.924 282.834 263.169 282.998 262.171 283.466 C 261.038 269.932 259.865 254.442 258.57 236.926 C 259.003 237.137 259.44 237.296 259.879 237.401 C 260.09 237.452 260.3 237.493 260.511 237.523 C 261.744 237.073 261.694 236.899 262.933 236.555 Z M 280.304 277.889 C 280.87 267.141 281.033 257.168 281.761 246.419 C 281.818 245.69 281.879 244.961 281.942 244.235 C 282.124 242.183 282.306 240.523 282.489 239.253 C 282.326 237.649 282.083 234.924 281.132 232.805 C 280.887 232.26 280.634 231.732 280.375 231.225 C 283.612 230.329 284.565 230.194 287.802 229.497 C 287.906 229.516 288.008 229.576 288.105 229.674 C 288.358 229.938 288.499 230.477 288.53 231.289 C 288.035 239.61 287.298 249.095 286.205 260.082 C 285.656 265.577 284.847 271.164 284.233 276.616 C 283.099 276.856 282.93 277.073 281.798 277.38 C 280.745 277.667 281.354 277.528 280.304 277.889 Z M 291.993 275.366 L 290.051 275.963 C 291.304 266.7 292.518 257.408 293.692 248.082 C 294.101 244.838 294.506 241.593 294.906 238.342 C 295.86 234.427 296.345 232.245 296.362 231.795 C 296.362 231.788 296.362 231.78 296.362 231.774 C 296.337 231.024 296.206 230.317 295.995 229.775 C 295.245 227.538 293.348 224.695 290.302 221.247 C 290.057 220.97 289.811 220.698 289.566 220.428 C 288.474 221.523 287.341 222.318 286.168 222.816 C 283.473 223.733 280.778 224.647 278.082 225.559 C 272.846 227.329 268.277 228.861 264.375 230.157 C 262.74 230.699 261.104 231.238 259.468 231.774 C 259.102 231.867 258.735 231.954 258.368 232.034 C 257.459 232.236 256.75 232.347 256.242 232.368 C 256.184 232.369 256.127 232.371 256.07 232.371 C 255.326 231.203 254.521 230.287 253.677 229.646 C 253.034 229.167 252.371 228.877 251.701 228.787 L 251.216 229.981 C 251.301 230.66 251.405 231.325 251.527 231.968 C 251.784 233.338 252.15 234.912 252.625 236.688 C 252.721 237.042 252.817 237.395 252.915 237.745 C 254.297 253.51 255.754 269.236 257.284 284.919 C 253.4 286.412 255.499 285.761 251.616 287.452 L 251.13 288.646 C 251.416 289.333 251.725 289.959 252.055 290.513 C 252.854 291.88 253.533 292.164 254.868 293.533 C 268.361 285.901 274.683 284.171 285.798 283.855 C 286.277 283.841 286.756 283.835 287.235 283.835 C 291.366 283.827 293.395 283.693 297.513 284.496 C 298.616 284.496 299.378 284.037 299.797 283.12 C 300.053 282.563 300.194 281.754 300.183 280.914 C 300.183 276.136 295.317 274.067 293.593 273.499 C 292.869 274.962 292.062 275.314 291.993 275.366 Z" id="path-68" vector-effect="non-scaling-stroke" style="" transform="matrix(1, 0, 0, 1, 0, -2.842170943040401e-14)"/>
</svg>