<?xml version="1.0" encoding="utf-8"?>
<svg xmlns="http://www.w3.org/2000/svg" viewBox="277.869 353.416 54.9225 61.602" width="54.9225px" height="61.602px">
  <path d="M 292.713 390.155 C 292.998 390.175 293.283 390.207 293.567 390.251 C 297.272 390.819 299.585 393.26 300.506 397.576 C 294.073 405.245 286.527 411.059 277.869 415.018 L 277.869 414.276 C 282.755 409.695 286.51 405.256 289.135 400.958 C 290.662 398.512 291.865 395.878 292.713 393.123 C 292.468 392.818 292.279 392.473 292.156 392.103 C 292.029 391.713 291.966 391.306 291.97 390.897 L 292.713 390.155 Z M 314.236 391.639 L 313.865 392.381 C 316.261 394.938 318.484 397.654 320.519 400.509 C 322.244 402.922 323.862 405.411 325.369 407.967 C 325.747 408.613 326.149 409.246 326.574 409.863 C 328.1 412.062 329.43 413.162 330.564 413.162 C 332.048 413.162 332.791 412.296 332.791 410.565 C 332.8 409.189 332.689 407.816 332.458 406.461 C 332.195 404.984 331.777 403.676 331.204 402.536 C 330.533 401.169 329.551 399.979 328.338 399.061 C 326.543 397.727 324.653 396.526 322.684 395.468 C 320.794 394.441 318.737 393.466 316.514 392.544 C 315.759 392.231 314.999 391.929 314.236 391.639 Z M 300.506 381.619 C 300.495 381.769 300.465 381.917 300.418 382.06 C 300.312 382.364 300.121 382.565 299.845 382.663 C 299.699 382.711 299.545 382.735 299.392 382.733 C 297.413 382.733 295.558 381.124 293.826 377.908 C 292.989 375.454 292.123 373.011 291.228 370.579 C 290.393 368.309 289.527 366.052 288.631 363.807 C 287.888 361.827 286.898 359.972 285.662 358.24 L 286.775 357.498 C 287.648 357.498 288.519 357.594 289.373 357.782 C 290.532 358.042 291.653 358.445 292.713 358.983 C 301.179 357.984 309.598 356.622 317.947 354.901 C 319.555 353.911 320.544 353.416 320.916 353.416 C 321.803 353.877 322.671 354.378 323.515 354.916 C 325.486 356.18 326.896 357.445 327.746 358.71 C 328.348 359.547 328.684 360.548 328.709 361.58 C 326.729 364.548 324.997 367.455 323.513 370.301 C 322.093 372.999 320.853 375.789 319.802 378.651 C 319.569 379.053 319.318 379.444 319.051 379.824 C 318.024 381.268 317.038 381.99 316.092 381.99 C 315.569 382.004 315.064 381.801 314.697 381.43 C 314.495 381.228 314.32 380.971 314.174 380.659 C 314.042 380.371 313.938 380.071 313.865 379.764 L 300.506 381.619 Z M 318.689 358.983 C 314.841 359.251 311.004 359.653 307.185 360.189 C 302.96 360.78 298.752 361.491 294.568 362.323 L 300.506 378.28 L 314.607 376.053 L 319.802 359.354 L 318.689 358.983 Z" id="path-85" vector-effect="non-scaling-stroke"/>
</svg>