<?xml version="1.0" encoding="utf-8"?>
<svg xmlns="http://www.w3.org/2000/svg" viewBox="269.5534 13.1212 46.016 79.573" width="46.016px" height="79.573px">
  <path d="M 19.838 -12.776 L 19.096 -12.034 C 19.519 -11.526 19.914 -10.996 20.28 -10.446 C 21.047 -9.283 21.518 -8.208 21.691 -7.222 C 21.692 -7.218 21.693 -7.214 21.694 -7.21 L 21.895 48.242 C 21.803 49.991 21.538 51.727 21.103 53.424 C 21.005 53.802 20.898 54.178 20.781 54.551 C 21.033 55.529 21.324 56.497 21.655 57.451 C 22.974 61.208 24.539 63.086 26.348 63.086 C 26.835 63.079 27.287 62.831 27.556 62.425 C 28.05 61.771 28.389 60.631 28.574 59.004 C 36.8 57.519 43.727 56.53 49.355 56.035 C 50.255 56.127 51.125 56.413 51.904 56.873 C 52.048 56.959 52.188 57.051 52.324 57.148 C 52.867 57.514 53.385 57.916 53.874 58.351 C 54.377 58.802 54.807 59.264 55.164 59.737 C 55.346 59.977 55.513 60.228 55.664 60.488 C 56.406 61.725 57.025 62.344 57.52 62.344 C 58.218 62.32 58.88 62.026 59.367 61.525 C 60.596 60.386 61.712 58.062 62.715 54.551 C 62.776 47.698 63.068 15.79 63.993 -8.199 C 63.995 -8.24 63.996 -8.282 63.998 -8.323 C 64.128 -8.625 64.254 -8.928 64.377 -9.232 C 64.754 -10.169 64.985 -10.865 65.072 -11.319 C 65.096 -11.432 65.109 -11.547 65.112 -11.663 C 65.081 -11.959 64.942 -12.233 64.721 -12.433 C 63.791 -13.444 61.2 -14.796 56.947 -16.487 L 54.35 -15.745 C 49.75 -14.815 45.13 -13.982 40.494 -13.249 C 35.904 -12.528 31.56 -11.962 27.461 -11.551 C 26.529 -11.458 25.596 -11.371 24.662 -11.292 C 22.745 -12.034 21.137 -12.529 19.838 -12.776 Z M 56.205 -9.436 C 56.208 -9.667 56.181 -9.898 56.126 -10.123 C 55.923 -10.902 55.331 -11.292 54.35 -11.292 C 53.278 -11.181 52.206 -11.066 51.135 -10.949 C 41.332 -9.877 33.497 -8.754 27.631 -7.581 C 27.816 -3.066 28.141 12.307 28.203 21.646 C 32.192 20.811 37.57 19.721 40.446 19.025 C 41.344 18.808 42.241 18.584 43.136 18.353 C 43.246 18.31 43.356 18.265 43.464 18.217 C 44.682 17.699 45.727 16.845 46.476 15.755 C 50.324 16.236 52.812 16.934 53.94 17.847 C 54.355 18.131 54.614 18.593 54.64 19.095 C 54.64 19.196 54.635 19.297 54.624 19.397 C 54.53 20.212 54.041 20.729 53.156 20.95 C 49.399 21.751 45.328 22.492 40.945 23.175 C 37.355 23.731 31.81 24.55 28.203 24.985 C 28.28 30.474 28.358 43.522 28.435 48.045 C 28.478 50.585 28.524 53.124 28.574 55.664 C 30.962 55.039 33.354 54.43 35.75 53.838 C 40.746 52.605 45.157 51.605 48.984 50.84 C 49.339 50.899 49.69 50.984 50.033 51.094 C 51.439 51.536 53.192 52.441 55.293 53.809 C 55.566 47.734 55.792 41.657 55.971 35.579 C 56.255 26.072 56.199 0.075 56.205 -9.436 Z" id="path-50" vector-effect="non-scaling-stroke" transform="matrix(1, 0, 0, 1, 250.45735541667568, 29.608225309971345)"/>
</svg>