<?xml version="1.0" encoding="utf-8"?>
<svg xmlns="http://www.w3.org/2000/svg" viewBox="419.128 338.405 51.845 80.528" width="51.845px" height="80.528px">
  <path d="M 457.751 363.268 L 457.751 363.269 C 457.985 363.253 458.217 363.22 458.452 363.218 C 463.123 363.176 461.354 361.309 463.508 359.634 C 470.435 361.675 470.973 363.493 470.973 365.905 C 470.973 366.725 470.124 367.206 468.428 367.346 C 468.04 367.377 467.651 367.392 467.262 367.39 L 457.38 368.093 L 457.38 412.253 C 457.351 412.607 457.315 412.96 457.275 413.312 C 456.84 417.06 455.885 418.933 454.411 418.933 C 453.981 418.93 453.569 418.765 453.256 418.471 C 452.173 417.514 451.445 415.07 451.071 411.14 L 451.071 368.835 C 448.72 368.95 444.963 369.701 441.765 370.373 C 441.673 371.156 441.568 371.937 441.451 372.716 C 439.587 387.57 431.805 401.043 419.87 410.08 L 419.128 409.338 C 423.274 403.917 426.597 398.496 429.099 393.074 C 432.311 386.296 434.216 378.972 434.714 371.487 L 427.069 372.986 C 426.819 372.986 426.569 372.971 426.321 372.941 C 425.06 372.796 424.381 372.294 422.763 371.435 C 421.954 371.002 421.168 370.529 420.407 370.017 L 421.149 369.275 C 428.567 367.893 427.659 368.373 435.085 367.034 L 435.085 350.706 C 435.039 350.646 434.993 350.586 434.947 350.526 C 434.262 349.63 433.659 348.746 433.137 347.876 C 432.606 346.999 432.141 346.085 431.745 345.139 L 432.487 344.397 C 432.684 344.397 432.881 344.399 433.078 344.402 C 435.715 344.451 437.823 344.83 439.403 345.54 C 441.291 346.257 442.628 347.959 442.878 349.963 C 442.39 355.144 442.142 360.345 442.136 365.549 L 451.071 364.011 L 451.071 344.343 C 450.679 343.675 450.303 342.997 449.945 342.31 C 449.405 341.279 448.914 340.224 448.473 339.147 L 449.215 338.405 C 449.332 338.405 449.449 338.406 449.566 338.408 C 451.92 338.439 453.827 338.786 455.285 339.45 C 456.797 340.068 457.968 341.311 458.493 342.858 L 457.751 346.569 L 457.751 363.268 Z" id="path-89" vector-effect="non-scaling-stroke" transform="matrix(1, 0, 0, 1, 2.842170943040401e-14, 0)"/>
</svg>