<?xml version="1.0" encoding="utf-8"?>
<svg xmlns="http://www.w3.org/2000/svg" viewBox="319.807 9.196 49.4821 71.777" width="49.4821px" height="71.777px">
  <path d="M 346.408 73.324 C 351.23 72.563 354.209 72.085 359.036 71.362 C 359.206 71.148 359.384 70.941 359.57 70.741 C 360.34 69.917 361.028 69.506 361.633 69.506 C 361.99 69.587 362.347 69.673 362.702 69.764 C 367.679 71.031 369.289 72.413 369.289 74.438 C 369.292 74.662 369.236 74.884 369.126 75.08 C 368.764 75.716 367.8 76.102 366.235 76.238 C 365.77 76.276 365.303 76.294 364.836 76.293 C 358.118 76.293 355.118 76.468 350.387 76.819 C 348.437 76.958 346.491 77.153 344.552 77.406 C 344.008 77.474 343.465 77.546 342.922 77.623 C 337.681 78.356 334.014 79.129 325.745 80.973 C 325.675 80.949 325.604 80.926 325.534 80.903 C 324.481 80.549 323.485 80.196 322.544 79.843 C 321.624 79.498 320.711 79.133 319.807 78.747 L 320.179 78.005 C 320.659 77.911 321.139 77.818 321.619 77.726 C 329.048 76.295 333.398 75.419 340.842 74.067 L 340.841 45.812 C 339.168 46.198 337.498 46.6 335.832 47.018 C 334.035 47.468 333.555 47.686 331.765 48.164 C 329.353 47.545 327.497 46.803 326.198 45.937 L 326.57 45.195 C 327.219 45.07 327.867 44.943 328.515 44.815 C 332.559 44.011 335.792 43.27 340.842 42.101 L 340.445 15.505 C 340.443 15.404 340.424 15.305 340.389 15.211 C 340.21 14.695 339.611 13.927 338.59 12.907 C 338.586 12.902 338.581 12.897 338.577 12.893 C 337.349 11.661999999999999 336.735 10.677 336.735 9.938 L 337.477 9.196 C 343.909 9.814 347.496 11.299 348.238 13.649000000000001 C 348.216 13.722 348.196 13.796 348.176 13.870000000000001 C 347.605 16.04 347.582 25.366 347.315 33.929 C 347.247 36.158 347.192 38.387 347.15 40.617 C 347.424 40.548 347.697 40.478 347.97 40.408 C 349.611 39.982 350.002 39.721 351.277 39.297 C 351.399 39.133 351.524 38.972 351.652 38.814 C 352.307 37.999 352.866 37.47 353.331 37.227 C 353.497 37.131 353.684 37.077 353.875 37.07 C 354.329 37.093 354.783 37.124 355.236 37.162 C 360.266 37.582 362.781 38.788 362.781 40.781 C 362.782 40.957 362.734 41.13 362.644 41.282 C 362.26 41.935 361.069 42.386 359.07 42.636 C 358.311 42.711 357.553 42.797 356.796 42.896 C 355.081 43.118 353.264 43.408 351.344 43.767 C 349.583 44.097 348.897 44.299 347.15 44.699 L 346.408 73.324 Z" id="path-63" vector-effect="non-scaling-stroke" transform="matrix(1, 0, 0, 1, 2.842170943040401e-14, 0)"/>
</svg>