<?xml version="1.0" encoding="utf-8"?>
<svg xmlns="http://www.w3.org/2000/svg" viewBox="68.471 42.915 49.597 71.59" width="49.597px" height="71.59px">
  <path d="M 75.724 46.471 C 77.286 46.959 78.912 47.209 80.548 47.213 C 94.155 45.976 93.453 46.255 107.307 44.028 C 107.401 44.001 107.495 43.974 107.589 43.946 C 108.181 43.77 108.875 43.542 109.672 43.263 C 109.998 43.149 110.322 43.033 110.646 42.915 C 115.594 44.956 118.068 46.564 118.068 47.739 C 118.068 47.763 118.068 47.787 118.066 47.811 C 118.035 48.234 117.734 48.759 117.162 49.384 C 116.977 49.586 116.784 49.78 116.584 49.966 C 114.014 63.674 107.549 96.649 104.183 110.205 C 104.23 110.276 104.276 110.347 104.321 110.419 C 104.578 110.831 104.753 111.203 104.846 111.534 C 104.897 111.705 104.924 111.883 104.926 112.061 C 104.928 112.225 104.873 112.384 104.771 112.511 C 104.501 112.854 103.874 113.064 102.89 113.141 C 102.58 113.164 102.269 113.175 101.957 113.174 C 100.535 113.109 99.112 113.047 97.689 112.988 C 96.143 112.924 94.597 112.862 93.051 112.803 C 91.918 112.873 90.781 112.909 89.653 113.032 C 84.94 113.548 80.525 113.924 75.151 114.505 C 75.15 114.505 75.149 114.504 75.148 114.504 C 72.181 113.762 69.955 112.773 68.471 111.536 L 68.842 110.794 C 80.238 109.706 81.688 109.736 93.051 108.35 C 93.677 108.245 94.343 108.082 95.047 107.86 C 95.627 107.676 96.199 107.468 96.762 107.236 C 97.045 107.293 97.327 107.354 97.607 107.419 C 98.139 107.544 98.576 107.668 98.918 107.793 C 99.069 107.847 99.216 107.909 99.359 107.979 C 100.597 101.67 103.127 86.507 103.967 80.595 C 103.813 80.577 103.658 80.559 103.503 80.543 C 102.009 80.386 100.061 80.28 97.658 80.224 C 89.124 80.471 88.654 81.353 82.651 82.39 C 82.226 82.333 81.804 82.26 81.384 82.172 C 80.49 81.984 79.674 81.734 78.935 81.421 C 77.984 81.031 77.107 80.48 76.343 79.792 L 76.714 79.05 C 76.749 79.045 76.783 79.041 76.817 79.035 C 84.507 77.757 84.447 77.624 92.463 76.884 C 93.929 76.64 95.18 76.342 96.217 75.99 C 96.71 75.826 97.192 75.629 97.658 75.4 C 97.897 75.416 98.134 75.447 98.369 75.492 C 100.075 75.816 102.064 76.898 104.338 78.739 C 104.353 78.662 104.365 78.584 104.382 78.508 C 105.864 71.786 107.814 55.916 108.42 51.45 C 108.421 51.229 108.403 51.007 108.364 50.789 C 108.188 49.814 107.591 49.207 106.571 48.968 C 106.203 48.887 105.828 48.849 105.451 48.853 C 101.384 49.271 97.325 49.763 93.26 50.201 C 87.582 50.813 86.959 51.115 82.404 51.666 C 81.344 51.43 80.314 51.075 79.333 50.608 C 77.723 49.858 76.348 48.684 75.353 47.213 L 75.724 46.471 Z" id="path-10" vector-effect="non-scaling-stroke" transform="matrix(0.9999999999999999, 0, 0, 0.9999999999999999, 0, 0)"/>
</svg>