<?xml version="1.0" encoding="utf-8"?>
<svg xmlns="http://www.w3.org/2000/svg" viewBox="169.359 40.625 50.501 71.25" width="50.501px" height="71.25px">
  <path d="M 185.669 40.625 C 190.67 40.873 193.932 42.481 195.454 45.449 C 195.004 47.454 194.707 49.002 194.565 50.093 C 194.524 50.399 194.494 50.707 194.476 51.015 C 194.335 54.141 194.181 57.102 194.012 59.898 C 193.863 62.382 193.691 64.864 193.497 67.343 L 204.914 64.746 C 205.025 64.714 205.131 64.664 205.23 64.597 C 205.743 64.271 206.508 63.454 207.523 62.148 C 214.047 62.952 217.309 64.56 217.309 66.972 C 217.309 67.576 216.734 68.097 215.586 68.536 C 215.293 68.647 214.998 68.744 214.699 68.828 C 212.524 68.908 210.352 69.046 208.182 69.241 C 203.151 69.703 198.142 70.432 193.171 71.425 C 193.031 72.491 192.881 73.555 192.72 74.617 C 192.468 76.282 192.183 77.94 191.866 79.59 C 195.794 85.106 199.618 90.03 203.338 94.364 C 206.019 97.507 203.76 94.853 206.431 97.938 C 208.399 100.211 209.717 102.416 214.498 105.76 C 216.202 106.952 218.057 107.904 219.86 108.926 L 219.533 109.669 C 216.73 110.179 214.312 110.514 212.28 110.673 C 211.437 110.743 210.592 110.779 209.748 110.782 C 208.239 110.782 209.536 110.915 207.233 110.775 C 206.42 110.726 205.608 110.672 204.796 110.613 C 198.49 99.357 197.302 93.691 191.214 82.929 C 189.554 89.279 186.728 95.156 182.924 100.171 C 179.19 104.977 174.7 108.946 169.685 111.875 L 169.359 111.133 C 175.697 105.561 180.542 98.087 183.347 89.551 C 185.14 84.191 186.357 78.603 186.973 72.91 C 186.683 72.984 186.393 73.058 186.103 73.132 C 184.086 73.65 182.175 74.167 180.369 74.684 C 178.649 75.176 176.936 75.698 175.231 76.25 C 174.78 76.059 174.337 75.847 173.902 75.613 C 172.81 75.025 171.948 74.372 171.317 73.652 L 171.643 72.91 C 172.988 72.573 174.334 72.233 175.679 71.889 C 179.559 70.9 183.433 69.879 187.3 68.828 C 187.625 62.798 187.829 57.672 187.911 53.451 C 187.937 52.145 187.951 50.838 187.952 49.531 C 187.953 49.077 187.939 48.623 187.912 48.17 C 187.846 47.123 187.698 46.278 187.468 45.635 C 187.353 45.295 187.185 44.981 186.973 44.707 C 185.669 42.975 185.016 41.738 185.016 40.996 L 185.669 40.625 Z" id="path-34" vector-effect="non-scaling-stroke" style="" transform="matrix(1.0000000000000002, 0, 0, 1.0000000000000002, 2.842170943040401e-14, 0)"/>
</svg>