<?xml version="1.0" encoding="utf-8"?>
<svg xmlns="http://www.w3.org/2000/svg" viewBox="358.168 343.6905 30.43 76.8165" width="30.43px" height="76.8165px">
  <path d="M 367.817 343.691 C 369.662 343.673 371.483 344.104 373.124 344.947 C 374.483 345.667 375.702 346.624 376.723 347.773 C 376.407 350.022 376.154 352.279 375.962 354.541 C 375.733 357.227 375.615 359.921 375.61 362.617 C 376.404 362.44 377.188 362.219 377.958 361.957 C 379.457 361.443 380.907 360.794 382.29 360.019 C 382.794 360.152 383.295 360.296 383.793 360.45 C 385.914 361.111 387.332 361.814 388.049 362.558 C 388.38 362.861 388.578 363.282 388.598 363.73 C 388.594 363.833 388.578 363.935 388.548 364.034 C 388.453 364.383 388.225 364.909 387.863 365.614 C 387.74 365.853 387.614 366.091 387.485 366.327 C 387.303 368.347 387.135 370.368 386.98 372.39 C 386.737 375.562 386.534 378.736 386.372 381.913 C 386.166 382.768 386.282 382.47 386.001 383.398 C 384.516 388.346 383.279 390.82 382.29 390.82 C 382.268 390.82 382.246 390.818 382.224 390.814 C 381.825 390.747 381.278 390.09 380.583 388.841 C 380.403 388.515 380.229 388.185 380.063 387.851 C 379.298 387.016 378.415 386.181 377.415 385.346 C 376.593 384.663 375.743 384.013 374.868 383.398 C 374.379 394.648 374.132 405.907 374.126 417.167 C 374.036 417.493 373.933 417.815 373.816 418.132 C 373.516 418.941 373.17 419.544 372.778 419.94 C 372.458 420.294 372.005 420.499 371.528 420.507 C 371.306 420.507 371.085 420.472 370.874 420.401 C 369.45 419.928 368.307 417.86 367.446 414.199 C 368.065 411.106 368.559 408.261 368.93 405.663 C 369.672 392.812 370.043 379.942 370.043 367.07 L 365.59 368.554 L 364.106 368.554 C 364.166 372.172 364.228 375.791 364.292 379.409 C 364.351 382.718 364.413 386.027 364.477 389.335 C 364.459 389.716 364.425 390.096 364.373 390.474 C 364.132 392.189 363.549 393.046 362.622 393.046 C 362.398 393.046 362.175 393.007 361.964 392.931 C 360.639 392.456 359.498 390.516 358.54 387.109 C 358.59 386.765 358.638 386.421 358.683 386.077 C 359.005 383.649 359.247 381.074 359.408 378.351 C 359.576 375.46 359.657 372.564 359.653 369.667 C 359.572 368.936 359.331 368.153 358.93 367.316 C 358.704 366.848 358.449 366.394 358.168 365.956 L 358.911 365.214 C 359.58 365.216 360.245 365.322 360.882 365.528 C 361.491 365.726 362.075 365.994 362.622 366.327 C 364.601 366.08 367.074 365.461 370.043 364.472 L 370.043 349.999 C 370.043 349.958 370.043 349.916 370.042 349.875 C 370.025 349.258 369.882 348.705 369.612 348.215 C 369.35 347.75 368.991 347.346 368.559 347.031 C 368.27 346.819 368.008 346.573 367.776 346.299 C 367.326 345.782 367.077 345.119 367.075 344.433 L 367.817 343.691 Z M 375.239 365.585 C 375.054 370.903 374.93 376.222 374.868 381.542 C 374.874 381.544 374.879 381.546 374.885 381.548 C 376.314 382.031 377.812 382.28 379.321 382.285 C 379.759 382.295 380.168 382.067 380.39 381.689 C 380.494 381.528 380.582 381.333 380.654 381.106 C 380.722 380.885 380.773 380.658 380.805 380.429 C 380.885 379.816 380.96 379.202 381.029 378.588 C 381.242 376.707 381.421 374.705 381.568 372.582 C 381.727 370.252 381.843 367.919 381.918 365.585 C 381.92 365.4 381.899 365.216 381.855 365.036 C 381.738 364.587 381.461 364.3 381.022 364.174 C 380.83 364.123 380.633 364.098 380.434 364.101 L 375.239 365.585 Z" id="path-87" vector-effect="non-scaling-stroke"/>
</svg>