<?xml version="1.0" encoding="utf-8"?>
<svg xmlns="http://www.w3.org/2000/svg" viewBox="201.44 286.955 46.016 79.573" width="46.016px" height="79.573px">
  <path d="M 238.549 294.006 C 238.543 303.517 238.599 329.514 238.315 339.021 C 238.136 345.099 237.91 351.176 237.637 357.251 C 235.536 355.883 233.783 354.978 232.377 354.536 C 232.034 354.426 231.683 354.341 231.328 354.282 C 227.501 355.047 223.09 356.047 218.094 357.28 C 215.698 357.872 213.306 358.481 210.918 359.106 C 210.868 356.566 210.822 354.027 210.779 351.487 C 210.702 346.964 210.624 333.916 210.547 328.427 C 214.154 327.992 219.699 327.173 223.289 326.617 C 227.672 325.934 231.743 325.193 235.5 324.392 C 236.385 324.171 236.874 323.654 236.968 322.839 C 236.979 322.739 236.984 322.638 236.984 322.537 C 236.958 322.035 236.699 321.573 236.284 321.289 C 235.156 320.376 232.668 319.678 228.82 319.197 C 228.071 320.287 227.026 321.141 225.808 321.659 C 225.7 321.707 225.59 321.752 225.48 321.795 C 224.585 322.026 223.688 322.25 222.79 322.467 C 219.914 323.163 214.536 324.253 210.547 325.088 C 210.485 315.749 210.16 300.376 209.975 295.861 C 215.841 294.688 223.676 293.565 233.479 292.493 C 234.55 292.376 235.622 292.261 236.694 292.15 C 237.675 292.15 238.267 292.54 238.47 293.319 C 238.525 293.544 238.552 293.775 238.549 294.006 Z M 202.182 290.666 L 201.44 291.408 C 201.863 291.916 202.258 292.446 202.624 292.996 C 203.391 294.159 203.862 295.234 204.035 296.22 C 204.036 296.224 204.037 296.228 204.038 296.232 L 204.239 351.684 C 204.147 353.433 203.882 355.169 203.447 356.866 C 203.349 357.244 203.242 357.62 203.125 357.993 C 203.377 358.971 203.668 359.939 203.999 360.893 C 205.318 364.65 206.883 366.528 208.692 366.528 C 209.179 366.521 209.631 366.273 209.9 365.867 C 210.394 365.213 210.733 364.073 210.918 362.446 C 219.144 360.961 226.071 359.972 231.699 359.477 C 232.599 359.569 233.469 359.855 234.248 360.315 C 234.392 360.401 234.532 360.493 234.668 360.59 C 235.211 360.956 235.729 361.358 236.218 361.793 C 236.721 362.244 237.151 362.706 237.508 363.179 C 237.69 363.419 237.857 363.67 238.008 363.93 C 238.75 365.167 239.369 365.786 239.864 365.786 C 240.562 365.762 241.224 365.468 241.711 364.967 C 242.94 363.828 244.056 361.504 245.059 357.993 C 245.12 351.14 245.412 319.232 246.337 295.243 C 246.339 295.202 246.34 295.16 246.342 295.119 C 246.472 294.817 246.598 294.514 246.721 294.21 C 247.098 293.273 247.329 292.577 247.416 292.123 C 247.44 292.01 247.453 291.895 247.456 291.779 C 247.425 291.483 247.286 291.209 247.065 291.009 C 246.135 289.998 243.544 288.646 239.291 286.955 L 236.694 287.697 C 232.094 288.627 227.474 289.46 222.838 290.193 C 218.248 290.914 213.904 291.48 209.805 291.891 C 208.873 291.984 207.94 292.071 207.006 292.15 C 205.089 291.408 203.481 290.913 202.182 290.666 Z" id="path-50" vector-effect="non-scaling-stroke" transform="matrix(1, 0, 0, 1, 0, 2.842170943040401e-14)"/>
</svg>