<?xml version="1.0" encoding="utf-8"?>
<svg xmlns="http://www.w3.org/2000/svg" viewBox="183.556 336.43 50.84 77.93" width="50.84px" height="77.93px">
  <path d="M 191.72 403.598 C 191.72 405.564 191.489 406.929 191.027 407.693 C 190.806 408.134 190.358 408.415 189.865 408.422 C 189.581 408.421 189.299 408.367 189.034 408.262 C 187.831 407.793 186.682 406.295 185.587 403.768 C 185.25 402.981 184.944 402.181 184.669 401.371 C 184.907 400.215 185.124 399.055 185.319 397.892 C 185.498 396.828 185.652 395.762 185.783 394.692 L 185.783 373.91 C 185.783 372.803 185.666 371.931 185.431 371.293 C 185.341 371.032 185.209 370.789 185.04 370.571 C 184.958 370.459 184.877 370.346 184.798 370.232 C 184.33 369.56 183.991 368.952 183.781 368.41 C 183.677 368.149 183.602 367.878 183.556 367.602 L 184.298 367.231 L 187.638 367.231 C 188.377 367.172 189.114 367.105 189.851 367.03 C 193.974 366.598 198.068 365.921 202.111 365.004 C 202.232 361.293 202.324 357.582 202.389 353.871 C 202.45 350.408 202.481 346.944 202.482 343.481 C 202.483 343.164 202.471 342.847 202.447 342.532 C 202.385 341.719 202.235 341.066 201.997 340.573 C 201.856 340.258 201.64 339.983 201.369 339.77 C 201.08 339.557 200.818 339.311 200.586 339.038 C 200.136 338.52 199.886 337.858 199.884 337.172 L 200.626 336.43 C 203.116 336.43 205.203 336.761 206.887 337.424 C 208.906 338.138 210.537 339.66 211.388 341.625 C 211.196 342.396 211.01 343.17 210.831 343.945 C 210.639 344.778 210.454 345.612 210.275 346.449 C 209.791 352.14 209.296 357.83 208.79 363.52 C 209.318 363.411 209.846 363.3 210.373 363.189 C 214.191 362.378 217.994 361.499 221.779 360.551 C 222.788 360.273 223.699 359.955 224.512 359.599 C 225.107 359.341 225.682 359.039 226.232 358.696 C 230.325 360.695 232.879 362.38 233.894 363.751 C 234.191 364.104 234.367 364.543 234.396 365.004 C 233.221 366.426 232.602 367.911 232.54 369.457 C 232.442 371.661 232.326 373.865 232.19 376.068 C 231.85 381.574 231.402 386.759 230.848 391.625 C 230.331 396.255 229.658 400.867 228.83 405.453 C 227.423 409.674 226.016 412.395 224.608 413.615 C 224.147 414.065 223.536 414.33 222.892 414.36 C 222.889 414.359 222.886 414.359 222.883 414.359 C 222.657 414.335 221.97 413.483 220.822 411.803 C 220.645 411.543 220.469 411.282 220.294 411.02 C 219.892 410.532 219.475 410.057 219.045 409.594 C 217.919 408.38 216.634 407.166 215.192 405.952 C 213.73 404.728 212.213 403.571 210.646 402.485 L 211.388 401.742 C 212.2 401.907 213.014 402.063 213.829 402.208 C 215.475 402.498 216.876 402.69 218.033 402.786 C 218.538 402.829 219.045 402.853 219.552 402.856 C 220.336 402.877 221.082 402.52 221.557 401.898 C 221.793 401.602 221.994 401.239 222.161 400.807 C 222.319 400.388 222.439 399.956 222.521 399.516 C 223.658 394.97 224.504 387.378 225.06 376.742 C 225.242 373.202 225.386 369.66 225.49 366.117 C 225.494 365.793 225.457 365.469 225.379 365.155 C 225.175 364.371 224.689 363.869 223.92 363.649 C 223.585 363.558 223.239 363.515 222.892 363.52 C 220.4 363.999 217.911 364.494 215.424 365.004 C 213.086 365.483 210.751 365.978 208.419 366.489 C 208.37 366.774 208.321 367.059 208.27 367.344 C 207.918 369.326 207.538 371.201 207.132 372.97 C 206.748 374.657 206.311 376.332 205.822 377.992 C 210.214 379.538 214.667 381.023 219.181 382.446 C 219.186 382.451 219.191 382.456 219.195 382.461 C 221.66 385.299 222.892 387.52 222.892 389.125 C 222.895 389.356 222.869 389.587 222.813 389.812 C 222.611 390.591 222.019 390.981 221.037 390.981 C 220.929 390.98 220.821 390.973 220.714 390.958 C 219.779 390.828 218.543 390.156 217.005 388.942 C 216.48 388.524 215.968 388.091 215.47 387.641 C 212.13 384.795 208.791 382.074 205.451 379.477 C 205.247 379.863 205.041 380.248 204.832 380.633 C 200.338 388.931 195.844 394.854 191.349 398.403 L 191.72 403.598 Z M 191.349 396.547 C 192.994 394.51 194.428 392.313 195.631 389.989 C 197.258 386.88 198.627 383.376 199.737 379.476 C 200.792 375.7 201.586 371.857 202.111 367.973 C 199.13 368.532 196.161 369.15 193.205 369.828 C 191.659 369.828 190.05 369.704 188.38 369.457 C 189.17 370.315 189.75 371.153 190.12 371.973 C 190.405 372.581 190.57 373.239 190.607 373.91 L 191.349 396.547 Z" id="path-83" vector-effect="non-scaling-stroke"/>
</svg>