<?xml version="1.0" encoding="utf-8"?>
<svg xmlns="http://www.w3.org/2000/svg" viewBox="104.667 346.289 50.098 69.295" width="50.098px" height="69.295px">
  <path d="M 105.41 351.856 C 106.032 351.856 106.846 351.984 107.852 352.239 C 108.277 352.348 108.7 352.468 109.12 352.598 C 114.338 352.18 119.988 351.488 126.068 350.523 C 131.077 349.721 136.067 348.804 141.035 347.773 C 141.081 347.762 141.126 347.75 141.172 347.738 C 141.821 347.565 142.572 347.289 143.426 346.912 C 143.87 346.715 144.31 346.507 144.745 346.289 C 145.794 346.675 146.834 347.089 147.862 347.529 C 152.464 349.513 154.765 351.326 154.765 352.969 C 154.765 353.588 154.27 354.453 153.281 355.566 L 147.664 411.874 C 147.107 413.605 146.117 414.471 144.695 414.471 C 144.653 414.471 144.612 414.467 144.571 414.46 C 143.72 414.311 142.03 412.706 139.5 409.647 C 132.016 410.389 124.717 411.502 117.605 412.987 L 117.605 413.729 C 117.553 413.903 117.492 414.074 117.422 414.242 C 117.313 414.5 117.189 414.721 117.051 414.904 C 116.757 415.332 116.269 415.587 115.75 415.584 C 114.744 415.584 113.576 414.278 112.245 411.665 C 111.909 411.002 111.593 410.329 111.297 409.647 C 109.503 399.875 107.326 365.71 106.152 355.938 C 105.471 355.002 105.024 354.183 104.812 353.482 C 104.72 353.196 104.672 352.898 104.667 352.598 L 105.41 351.856 Z M 142.098 405.936 C 143.7 396.696 144.37 363.022 145.488 353.711 C 145.491 353.433 145.459 353.156 145.393 352.886 C 145.217 352.214 144.8 351.784 144.142 351.595 C 143.855 351.517 143.558 351.48 143.261 351.484 C 138.416 352.087 133.59 352.829 128.788 353.711 C 128.802 353.721 128.817 353.73 128.832 353.74 C 130.292 354.72 131.267 355.7 131.757 356.68 C 131.725 357.076 131.693 357.472 131.661 357.868 C 131.47 360.239 131.651 373.719 131.512 375.473 C 131.461 376.107 131.411 376.741 131.361 377.375 C 131.529 377.336 131.696 377.296 131.863 377.253 C 132.873 376.995 133.804 376.68 134.654 376.308 C 135.593 375.904 136.481 375.39 137.299 374.777 C 141.009 375.396 142.865 376.509 142.865 378.117 C 142.865 378.195 142.849 378.272 142.818 378.343 C 142.653 378.726 142.05 379.022 141.009 379.231 C 140.196 379.34 139.384 379.46 138.574 379.59 C 136.029 380.001 133.5 380.5 130.99 381.086 C 130.982 381.229 130.974 381.372 130.967 381.515 C 130.734 385.825 130.84 403.11 130.594 407.42 C 134.181 406.802 137.273 406.184 139.871 405.565 C 140.059 405.586 140.247 405.608 140.435 405.631 C 141.009 405.704 141.456 405.776 141.776 405.849 C 141.884 405.873 141.992 405.902 142.098 405.936 Z M 116.146 381.086 C 117.07 380.831 117.996 380.585 118.926 380.35 C 121.081 379.806 123.247 379.309 125.424 378.859 C 125.238 376.076 124.768 361.566 124.706 358.164 C 124.671 357.939 124.616 357.718 124.541 357.503 C 124.358 356.965 124.042 356.327 123.593 355.59 C 123.357 355.204 123.109 354.825 122.851 354.453 C 122.416 354.5 121.981 354.546 121.546 354.592 C 118.394 354.926 115.242 355.251 112.089 355.566 C 113.555 365.588 115.732 400.001 117.234 410.018 C 119.043 409.601 120.735 409.222 122.309 408.883 C 123.461 408.634 124.614 408.394 125.77 408.163 L 125.424 382.199 C 123.568 382.756 121.712 383.251 119.857 383.684 C 119.623 383.645 119.391 383.596 119.162 383.538 C 117.922 383.22 116.767 382.636 115.775 381.828 L 116.146 381.086 Z" id="path-81" vector-effect="non-scaling-stroke"/>
</svg>