<?xml version="1.0" encoding="utf-8"?>
<svg xmlns="http://www.w3.org/2000/svg" viewBox="324.416 348.541 50.427 79.042" width="50.427px" height="79.042px">
  <path d="M 336.903 348.541 C 339.261 348.896 340.959 350.466 341.995 353.25 C 342.425 354.444 342.732 355.735 342.906 357.076 C 342.904 357.175 342.892 357.274 342.871 357.368 C 342.773 357.852 342.464 358.62 341.945 359.673 L 338.104 371.548 C 340.749 371.026 343.389 370.438 346.022 369.783 C 349.159 369.005 352.283 368.108 355.392 367.095 C 355.559 367.034 355.722 366.957 355.882 366.865 C 356.52 366.507 357.47 365.811 358.734 364.777 C 359.143 364.441 359.55 364.101 359.955 363.755 C 364.277 365.487 366.439 367.342 366.439 369.322 C 366.439 369.407 366.436 369.493 366.43 369.578 C 366.379 370.358 366.082 370.853 365.539 371.065 C 365.361 371.13 365.18 371.168 364.998 371.177 C 360.675 371.301 356.273 371.796 351.791 372.662 C 351.92 372.803 352.048 372.946 352.175 373.092 C 353.839 375.002 354.672 376.59 354.672 377.857 C 354.672 377.921 354.67 377.986 354.666 378.05 C 354.633 378.538 354.489 379.259 354.233 380.212 C 354.143 380.543 354.049 380.871 353.952 381.197 C 353.862 381.551 353.771 381.905 353.679 382.259 C 352.345 387.41 350.75 392.39 348.909 397.154 C 350.887 400.475 352.962 403.655 355.128 406.683 C 361.793 415.957 368.364 422.058 374.843 424.986 L 374.603 426.099 C 374.437 426.161 374.272 426.221 374.107 426.28 C 372.955 426.688 371.85 427.001 370.793 427.218 C 369.668 427.454 368.534 427.576 367.399 427.583 C 367.275 427.583 367.152 427.583 367.029 427.582 C 365.28 427.566 363.322 427.443 361.156 427.212 C 358.799 423.3 356.497 419.31 354.252 415.245 C 351.778 410.766 349.356 406.219 346.988 401.607 C 340.985 412.492 333.541 420.161 324.656 424.615 L 324.416 423.873 C 325.309 423.07 326.193 422.241 327.066 421.387 C 334.534 414.081 340.134 405.879 343.867 396.783 C 343.783 396.623 343.698 396.464 343.614 396.306 C 341.254 391.88 339.417 389.07 338.104 387.876 C 337.582 387.411 337.024 387.048 336.445 386.794 C 335.31 386.278 333.942 386.021 332.34 386.021 C 331.872 387.066 331.388 388.094 330.889 389.106 C 330.141 390.618 329.406 391.986 328.682 393.211 C 328.02 394.339 327.318 395.408 326.577 396.412 L 326.097 395.669 C 326.672 394.056 327.239 392.435 327.799 390.809 C 331.137 381.09 333.693 372.494 335.466 365.022 C 336.328 361.455 337.048 357.81 337.624 354.107 C 337.624 353.426 337.543 352.807 337.383 352.251 C 337.022 351.509 336.702 350.519 336.423 349.283 L 336.903 348.541 Z M 333.541 383.052 C 334.554 383.086 335.605 383.336 336.694 383.802 C 337.587 384.19 338.46 384.684 339.304 385.279 C 340.385 386.021 341.78 387.598 343.491 390.01 C 344.11 390.885 344.716 391.783 345.308 392.701 C 346.508 389.337 347.459 386.24 348.159 383.409 C 348.552 381.838 348.883 380.232 349.149 378.599 C 349.149 378.176 349.122 377.753 349.07 377.338 C 348.988 376.669 348.842 375.981 348.632 375.273 C 348.436 374.623 348.208 373.998 347.949 373.404 C 347.014 373.571 346.08 373.741 345.146 373.913 C 342.279 374.441 340.016 374.884 338.36 375.242 C 337.793 375.363 337.228 375.492 336.663 375.63 C 336.465 376.147 336.265 376.66 336.06 377.17 C 335.704 378.059 335.31 379.005 334.881 380.008 C 334.441 381.03 333.995 382.045 333.541 383.052 Z" id="path-55" vector-effect="non-scaling-stroke" style="" transform="matrix(1, 0, 0, 0.9999999999999999, 0, -5.684341886080802e-14)"/>
</svg>