<?xml version="1.0" encoding="utf-8"?>
<svg xmlns="http://www.w3.org/2000/svg" viewBox="230.781 12.436 51.975 82.383" width="51.975px" height="82.383px">
  <path d="M 255.273 49.174 L 254.902 90.365 C 254.794 92.084 254.5 93.306 254.02 94.03 C 253.744 94.513 253.231 94.814 252.675 94.819 C 252.65 94.819 252.625 94.818 252.601 94.817 C 251.141 94.739 249.723 92.364 248.347 87.693 C 248.031 86.612 247.741 85.523 247.48 84.428 C 247.637 83.878 247.779 83.325 247.908 82.768 C 248.203 81.478 248.431 80.174 248.593 78.862 C 249.149 73.418 249.521 67.852 249.707 62.162 C 248.793 63.423 247.844 64.66 246.861 65.869 C 242.372 71.447 237.077 76.326 231.152 80.346 L 230.781 79.604 C 233.267 76.861 235.604 73.987 237.782 70.993 C 242.28 64.863 245.918 58.146 248.593 51.029 C 244.717 51.994 240.879 53.108 237.089 54.369 C 236.566 54.145 236.049 53.908 235.54 53.656 C 235.061 53.418 234.62 53.181 234.218 52.943 C 233.8 52.698 233.395 52.431 233.007 52.143 L 233.378 51.401 C 234.755 51.056 236.131 50.708 237.507 50.357 C 241.829 49.251 246.143 48.114 250.449 46.947 L 250.449 18.744 C 250.445 18.659 250.439 18.575 250.432 18.492 C 250.355 17.312 249.83 16.207 248.964 15.404 C 248.409 14.889 248.007 14.399000000000001 247.757 13.935 C 247.625 13.698 247.532 13.443 247.48 13.178 L 247.851 12.436 C 252.057 12.436 255.273 13.796 257.5 16.518 C 257.448 16.685 257.401 16.854 257.358 17.024 C 257.22 17.566 257.081 18.243 256.943 19.057 C 256.876 19.447 256.814 19.837 256.757 20.229 C 256.749 20.307 256.741 20.386 256.734 20.465 C 256.492 22.908 256.281 25.501 256.099 28.245 C 255.909 31.137 255.758 34.031 255.644 36.928 C 256.825 35.306 257.984 33.667 259.121 32.014 C 261.461 28.602 263.395 25.54 264.921 22.826 C 264.901 22.764 264.882 22.703 264.863 22.642 C 264.596 21.782 264.406 21.025 264.292 20.371 C 264.239 20.078 264.201 19.783 264.179 19.487 L 264.921 19.115 C 265.6 19.262 266.265 19.468 266.908 19.732 C 269.016 20.607 270.414 22.035 271.102 24.015 C 271.449 25.067 271.618 26.17 271.601 27.279 C 266.372 31.118 261.052 34.83 255.644 38.412 L 255.273 45.463 C 255.844 45.316 256.413 45.161 256.98 44.999 C 257.518 44.844 258.027 44.689 258.506 44.535 C 259.041 44.363 259.571 44.177 260.097 43.979 C 261.087 43.484 261.829 42.742 262.324 41.752 C 265.551 41.792 267.726 42.175 268.849 42.9 C 269.387 43.186 269.729 43.74 269.746 44.35 C 269.749 44.652 269.645 44.945 269.453 45.179 C 269.183 45.514 268.725 45.782 268.08 45.984 C 267.774 46.077 267.463 46.15 267.148 46.205 C 262.571 47.195 258.613 48.184 255.273 49.174 Z M 255.267 49.175 C 256.397 50.885 257.479 52.569 258.613 54.273 C 262.077 59.478 264.781 63.471 266.721 66.252 C 267.325 67.118 267.932 67.973 268.545 68.817 C 269.573 70.203 270.643 71.491 271.752 72.676 C 273.255 74.294 274.925 75.867 276.762 77.395 C 278.724 79.015 280.724 80.496 282.756 81.832 L 282.756 82.497 C 280.844 83.17 278.794 83.664 276.602 83.98 C 274.563 84.265 272.519 84.405 270.474 84.397 C 269.592 82.244 267.095 76.544 262.982 67.297 C 260.669 62.167 258.098 57.372 255.234 52.875 C 255.234 52.875 255.241 52.509 255.246 51.242 C 255.262 49.331 255.267 49.175 255.267 49.175 Z M 238.203 27.651 C 241.171 28.825 243.521 30.062 245.253 31.362 C 245.417 32.028 245.571 32.696 245.716 33.367 C 246.15 35.395 246.367 36.953 246.367 38.041 C 246.367 39.773 245.872 40.639 244.882 40.639 C 244.205 40.614 243.558 40.353 243.054 39.901 C 241.154 38.359 239.289 34.4 237.461 28.022 L 238.203 27.651 Z" id="path-36" vector-effect="non-scaling-stroke" transform="matrix(0.9999999999999999, 0, 0, 0.9999999999999999, 2.842170943040401e-14, 0)"/>
</svg>