<?xml version="1.0" encoding="utf-8"?>
<svg viewBox="417.3726 22.358 52.5009 84.8007" width="52.501" height="84.801" xmlns="http://www.w3.org/2000/svg">
  <path d="M 440.473 104.058 L 440.473 84.858 C 440.474 84.778 440.464 84.699 440.443 84.621 C 440.374 84.379 440.184 84.258 439.873 84.258 L 422.773 84.258 C 421.364 84.273 420.01 83.713 419.023 82.708 C 419.006 82.692 418.99 82.675 418.973 82.658 C 418.419 82.118 417.988 81.465 417.707 80.744 C 417.481 80.141 417.368 79.502 417.373 78.858 L 417.373 42.458 C 417.364 41.713 417.509 40.974 417.798 40.286 C 418.074 39.655 418.474 39.084 418.973 38.608 C 420.04 37.575 421.306 37.058 422.773 37.058 L 439.873 37.058 C 439.953 37.059 440.033 37.049 440.11 37.028 C 440.352 36.96 440.473 36.77 440.473 36.458 L 440.473 25.558 C 440.469 25.165 440.534 24.773 440.665 24.401 C 440.824 23.966 441.084 23.574 441.423 23.258 C 442.056 22.658 442.806 22.358 443.673 22.358 C 444.54 22.358 445.273 22.658 445.873 23.258 C 446.397 23.781 446.712 24.478 446.759 25.216 C 446.768 25.33 446.773 25.444 446.773 25.558 L 446.773 36.458 C 446.772 36.539 446.782 36.619 446.803 36.696 C 446.872 36.938 447.062 37.058 447.373 37.058 L 464.473 37.058 C 465.19 37.051 465.902 37.18 466.57 37.44 C 467.228 37.705 467.825 38.103 468.323 38.608 C 469.332 39.605 469.892 40.969 469.873 42.387 C 469.873 42.411 469.873 42.435 469.873 42.458 L 469.873 78.858 C 469.881 79.576 469.752 80.288 469.492 80.956 C 469.226 81.614 468.829 82.211 468.323 82.708 C 467.327 83.717 465.963 84.277 464.545 84.258 C 464.521 84.259 464.497 84.259 464.473 84.258 L 447.373 84.258 C 447.293 84.257 447.213 84.268 447.136 84.288 C 446.894 84.358 446.773 84.548 446.773 84.858 L 446.773 104.058 C 446.773 104.925 446.473 105.658 445.873 106.258 C 445.306 106.839 444.526 107.164 443.714 107.158 C 443.7 107.159 443.687 107.159 443.673 107.158 C 442.806 107.158 442.056 106.858 441.423 106.258 C 441.063 105.927 440.791 105.511 440.63 105.048 C 440.524 104.729 440.471 104.395 440.473 104.058 Z M 447.373 78.158 L 463.173 78.158 C 463.253 78.159 463.333 78.149 463.41 78.128 C 463.652 78.06 463.773 77.87 463.773 77.558 L 463.773 64.158 C 463.774 64.078 463.764 63.999 463.743 63.921 C 463.674 63.679 463.484 63.558 463.173 63.558 L 447.373 63.558 C 447.293 63.557 447.213 63.568 447.136 63.588 C 446.894 63.658 446.773 63.848 446.773 64.158 L 446.773 77.558 C 446.772 77.639 446.782 77.719 446.803 77.796 C 446.872 78.038 447.062 78.158 447.373 78.158 Z M 424.173 78.158 L 439.873 78.158 C 439.953 78.159 440.033 78.149 440.11 78.128 C 440.352 78.06 440.473 77.87 440.473 77.558 L 440.473 64.158 C 440.474 64.078 440.464 63.999 440.443 63.921 C 440.374 63.679 440.184 63.558 439.873 63.558 L 424.173 63.558 C 424.093 63.557 424.013 63.568 423.936 63.588 C 423.694 63.658 423.573 63.848 423.573 64.158 L 423.573 77.558 C 423.572 77.639 423.582 77.719 423.603 77.796 C 423.672 78.038 423.862 78.158 424.173 78.158 Z M 447.373 57.458 L 463.173 57.458 C 463.253 57.459 463.333 57.449 463.41 57.428 C 463.652 57.36 463.773 57.17 463.773 56.858 L 463.773 43.758 C 463.774 43.678 463.764 43.599 463.743 43.521 C 463.674 43.279 463.484 43.158 463.173 43.158 L 447.373 43.158 C 447.293 43.157 447.213 43.168 447.136 43.188 C 446.894 43.258 446.773 43.448 446.773 43.758 L 446.773 56.858 C 446.772 56.939 446.782 57.019 446.803 57.096 C 446.872 57.338 447.062 57.458 447.373 57.458 Z M 424.173 57.458 L 439.873 57.458 C 439.953 57.459 440.033 57.449 440.11 57.428 C 440.352 57.36 440.473 57.17 440.473 56.858 L 440.473 43.758 C 440.474 43.678 440.464 43.599 440.443 43.521 C 440.374 43.279 440.184 43.158 439.873 43.158 L 424.173 43.158 C 424.093 43.157 424.013 43.168 423.936 43.188 C 423.694 43.258 423.573 43.448 423.573 43.758 L 423.573 56.858 C 423.572 56.939 423.582 57.019 423.603 57.096 C 423.672 57.338 423.862 57.458 424.173 57.458 Z" id="path-9" transform="matrix(1, 0, 0, 1, 0, -5.684341886080802e-14)"/>
</svg>