<?xml version="1.0" encoding="utf-8"?>
<svg xmlns="http://www.w3.org/2000/svg" viewBox="279.72 277.96 49.7405 78.7181" width="49.7405px" height="78.7181px">
  <path d="M 281.947 282.46 C 282.014 282.483 282.082 282.506 282.149 282.529 C 284.227 283.256 286.015 284.098 287.513 285.057 C 293.504 284.438 292.262 284.173 295.293 283.48 C 299.745 282.462 304.237 281.623 308.678 280.558 C 309.384 280.086 310.096 279.622 310.812 279.166 C 311.456 278.755 312.105 278.353 312.76 277.96 C 312.802 277.968 312.844 277.975 312.886 277.983 C 320.224 279.339 323.893 280.939 323.893 282.784 C 323.907 283.306 323.705 283.812 323.333 284.179 C 323.13 284.38 322.873 284.554 322.561 284.701 C 322.274 284.833 321.974 284.937 321.667 285.011 C 306.731 286.035 303.726 286.455 288.997 289.139 L 289.159 312.45 C 300.293 310.471 299.069 309.806 309.211 307.58 C 309.928 307.383 310.64 307.167 311.345 306.93 C 312.125 306.669 312.898 306.391 313.665 306.095 C 314.25 306.34 314.832 306.59 315.412 306.845 C 319.235 308.527 320.409 308.533 321.321 309.515 C 321.56 309.727 321.591 310.241 321.628 310.558 C 321.547 311.05 321.5 311.054 321.27 311.393 C 321.083 311.668 320.831 311.893 320.587 312.119 C 319.314 313.416 316.896 313.905 315.586 313.905 C 315.162 313.862 314.738 313.821 314.314 313.781 C 312.552 313.616 311.368 313.533 310.762 313.533 C 309.863 313.536 308.964 313.567 308.066 313.624 C 303.381 313.909 292.423 316.687 289.084 317.342 L 287.884 344.432 C 292.779 343.413 291.987 343.427 298.644 342.529 C 304.852 341.691 308.392 341.383 314.616 340.675 C 316.053 340.332 317.349 339.555 318.327 338.448 C 325.749 339.314 329.46 341.293 329.46 344.386 C 329.472 344.812 329.29 345.22 328.965 345.495 C 328.438 345.954 327.489 346.203 326.12 346.241 C 309.355 346.326 304.478 346.128 287.884 348.514 L 287.884 353.338 C 287.882 353.353 287.879 353.367 287.877 353.382 C 287.714 354.335 287.46 355.082 287.113 355.622 C 286.741 356.28 286.042 356.684 285.286 356.678 C 284.816 356.664 284.363 356.496 283.997 356.201 C 282.916 355.399 281.834 353.589 280.753 350.77 C 280.377 349.782 280.033 348.782 279.72 347.772 C 279.876 346.994 280.048 346.22 280.234 345.449 C 280.528 344.237 280.851 343.031 281.204 341.835 C 281.715 333.306 282.086 324.77 282.318 316.229 C 282.57 306.954 282.694 297.676 282.689 288.397 C 282.676 288.36 282.663 288.322 282.65 288.285 C 281.686 285.506 281.204 283.812 281.204 283.202 L 281.947 282.46 Z" id="path-32" vector-effect="non-scaling-stroke" transform="matrix(0.9999999999999999, 0, 0, 0.9999999999999999, 0, 0)"/>
</svg>