<?xml version="1.0" encoding="utf-8"?>
<svg xmlns="http://www.w3.org/2000/svg" viewBox="214.502 343.261 51.141 75.937" width="51.141px" height="75.937px">
  <path d="M 228.11 350.25 C 228.852 350.25 230.46 350.498 232.934 350.992 C 233.421 350.853 233.907 350.714 234.392 350.574 C 241.47 348.546 244.5 348.006 251.542 345.859 C 252.447 345.546 253.391 345.135 254.373 344.626 C 255.181 344.206 255.97 343.75 256.737 343.261 C 256.888 343.324 257.039 343.388 257.189 343.451 C 261.425 345.244 264.069 346.771 265.121 348.033 C 265.426 348.349 265.611 348.762 265.643 349.199 C 265.307 349.537 264.982 349.886 264.669 350.245 C 264.233 350.747 263.816 351.265 263.417 351.797 C 261.685 356.869 259.171 367.408 257.687 371.984 C 256.883 373.964 255.894 374.953 254.718 374.953 C 254.615 374.942 254.516 374.908 254.427 374.853 C 253.865 374.557 252.725 373.601 251.007 371.984 C 249.956 371.49 248.966 371.242 248.038 371.242 C 245.023 371.861 246.121 371.541 242.526 372.545 C 240.255 373.182 237.619 373.44 235.368 374.148 C 234.672 379.239 233.187 385.644 232.075 390.118 C 230.713 395.5 228.96 400.31 226.816 404.548 C 224.063 410.211 220.115 415.209 215.244 419.198 L 214.502 418.456 C 219.824 411.4 223.616 403.311 225.635 394.706 C 225.818 393.942 225.985 393.174 226.136 392.402 C 227.534 385.326 230.976 367.758 229.965 355.445 C 229.842 354.456 229.471 353.714 228.852 353.218 C 228.18 352.63 227.736 352.099 227.52 351.624 C 227.425 351.427 227.373 351.211 227.368 350.992 L 228.11 350.25 Z M 236.923 360.687 C 236.805 362.154 236.156 369.183 235.739 370.808 C 238.725 369.822 242.099 369.293 245.112 368.394 C 247.913 367.558 246.324 367.901 249.151 367.16 C 249.647 367.16 250.111 367.191 250.543 367.253 C 250.953 367.31 251.357 367.403 251.749 367.531 C 252.128 366.204 253.388 359.155 253.716 357.815 C 254.295 355.453 254.807 353.074 255.253 350.683 C 255.256 350.452 255.23 350.221 255.174 349.996 C 254.972 349.218 254.379 348.828 253.397 348.828 C 245.975 350.808 242.706 351.24 235.532 353.218 C 235.544 353.23 235.555 353.242 235.566 353.253 C 236.306 354.005 236.921 354.871 237.387 355.816 C 237.209 357.438 237.055 359.061 236.923 360.687 Z" id="path-39" vector-effect="non-scaling-stroke"/>
</svg>