<?xml version="1.0" encoding="utf-8"?>
<svg xmlns="http://www.w3.org/2000/svg" viewBox="414.17 335.573 51.504 78.371" width="51.504px" height="78.371px">
  <path d="M 414.496 342.248 C 421.465 341.049 426.812 339.628 433.923 337.598 C 435.284 337.092 437.336 337.047 438.642 335.573 C 442.852 336.93 445.704 338.577 447.2 340.517 C 447.963 341.409 448.41 342.663 448.437 343.99 C 448.437 344.001 448.436 344.013 448.433 344.023 C 448.343 344.364 446.927 345.357 444.187 347.004 C 443.755 347.265 443.321 347.522 442.887 347.777 C 436.574 355.352 430.806 364.61 425.581 375.551 C 425.371 375.966 425.165 376.383 424.961 376.804 C 423.158 380.541 421.925 383.935 421.261 386.986 C 420.894 388.604 420.699 390.278 420.682 391.963 C 420.627 394.818 421.484 397.577 423.052 399.593 C 424.974 402.093 428.064 403.865 432.323 404.912 C 434.303 405.384 436.305 405.697 438.316 405.85 C 441.989 405.85 445.66 405.005 446.585 404.803 C 451.311 403.76 454.409 401.818 455.879 398.977 C 455.934 398.895 455.984 398.808 456.029 398.716 C 456.686 397.397 457.344 393.68 458.001 387.565 C 458.179 385.901 458.341 384.234 458.49 382.565 L 459.47 382.565 C 459.563 384.161 459.687 385.754 459.842 387.343 C 460.093 389.893 460.42 392.27 460.821 394.472 C 461.222 396.723 461.753 398.932 462.409 401.08 C 462.553 401.229 462.694 401.378 462.835 401.529 C 464.15 402.946 465.008 404.185 465.409 405.249 C 465.573 405.652 465.663 406.097 465.674 406.552 C 465.661 407.093 465.492 407.607 465.197 407.993 C 464.458 409.061 462.859 410.013 460.4 410.848 C 459.552 411.134 458.698 411.385 457.837 411.601 C 449.381 414.367 449.468 413.983 444.519 413.844 C 443.032 413.697 441.547 413.502 440.067 413.258 C 424.968 410.754 417.418 403.796 417.418 392.384 C 417.418 392.082 417.424 391.779 417.435 391.478 C 417.517 389.284 417.888 386.664 418.548 383.618 C 418.894 382.036 419.279 380.469 419.703 378.918 C 423.84 367.416 429.828 354.767 436.358 343.264 C 433.497 344.078 430.09 345.006 427.346 345.673 C 425.143 346.208 421.791 346.896 419.044 347.491 C 418.198 347.498 417.353 347.395 416.524 347.183 C 415.322 346.885 415.183 343.976 414.17 343.09 L 414.496 342.248 Z" id="path-59" vector-effect="non-scaling-stroke" style="" transform="matrix(1, 0, 0, 0.9999999999999999, 0, -5.684341886080802e-14)"/>
</svg>