<?xml version="1.0" encoding="utf-8"?>
<svg viewBox="419.226 361.7472 52.707 81.1628" width="52.707" height="81.163" xmlns="http://www.w3.org/2000/svg">
  <path d="M 471.433 440.872 C 470.601 442.553 469.95 442.918 467.779 442.9 C 467.714 442.899 467.649 442.91 467.584 442.91 C 467.223 442.907 466.867 442.794 466.545 442.579 C 466.384 442.474 466.23 442.35 466.085 442.21 C 465.598 441.744 465.252 441.144 465.047 440.41 C 464.791 439.277 464.495 438.144 464.163 437.01 C 463.83 435.877 463.484 434.777 463.125 433.71 C 463.024 433.316 462.849 433.181 462.599 433.303 C 462.595 433.306 462.59 433.308 462.586 433.31 C 459.899 433.998 458.529 434.172 455.161 434.81 C 454.601 434.917 454.042 435.031 453.48 435.122 C 449.376 435.785 447.84 435.918 443.457 436.551 C 439.075 437.185 436.884 437.259 432.834 437.725 C 431.152 437.92 429.469 438.092 427.785 438.241 C 426.247 438.377 424.791 438.482 423.417 438.558 C 422.968 438.584 422.519 438.606 422.07 438.625 C 422 438.63 421.931 438.633 421.861 438.632 C 421.041 438.632 420.406 438.263 419.956 437.525 C 419.469 436.725 419.226 435.792 419.226 434.725 C 419.228 434.164 419.304 433.608 419.451 433.08 C 419.546 432.733 419.664 432.397 419.802 432.075 C 420.163 431.234 420.71 430.555 421.373 430.126 C 421.425 430.091 421.478 430.058 421.532 430.025 C 422.583 429.323 423.611 428.565 424.614 427.751 C 425.732 426.85 426.903 425.831 428.123 424.695 C 428.882 423.988 429.669 423.298 430.374 422.525 C 432.457 420.244 434.297 418.126 435.094 417.003 C 436.222 415.412 437.462 413.506 438.191 411.701 C 438.215 411.642 438.265 411.594 438.294 411.532 C 438.395 411.318 438.39 411.083 438.281 410.829 C 438.276 410.82 438.272 410.811 438.267 410.801 C 436.268 406.868 433.962 403.168 431.348 399.701 C 428.734 396.235 429.158 397.093 427.159 394.826 C 426.584 394.261 426.225 393.399 426.176 392.463 C 426.165 392.318 426.159 392.172 426.159 392.026 C 426.159 390.826 426.518 389.826 427.236 389.026 C 429.44 386.626 431.451 383.943 433.271 380.976 C 434.821 378.459 436.249 375.82 437.548 373.073 C 437.727 372.693 437.903 372.311 438.077 371.926 C 438.78 370.374 439.43 368.781 440.022 367.151 C 440.499 365.837 440.806 364.394 441.387 363.099 C 441.575 362.68 441.932 362.455 442.259 362.212 C 442.861 361.765 444.714 361.613 445.219 361.877 C 446.45 362.544 447.065 363.644 447.065 365.177 C 447.065 365.283 447.061 365.389 447.053 365.494 C 447.047 365.573 447.038 365.65 447.026 365.727 C 447.001 365.893 446.963 366.074 446.912 366.272 C 446.912 366.274 446.912 366.276 446.911 366.277 C 446.09 369.411 444.895 372.611 443.511 375.877 C 442.127 379.144 440.118 383.217 438.898 385.127 C 437.678 387.037 435.608 389.584 433.814 391.784 C 433.785 391.822 433.759 391.862 433.735 391.905 C 433.614 392.131 433.641 392.358 433.814 392.584 C 435.182 394.36 436.761 396.215 437.241 396.956 C 439.138 399.89 440.803 402.656 442.238 405.256 C 442.267 405.301 442.297 405.343 442.328 405.383 C 442.543 405.659 442.718 405.65 442.854 405.356 C 445.57 401.223 447.481 397.451 449.762 392.751 C 452.043 388.051 453.901 383.168 455.336 378.101 C 455.419 377.798 455.532 377.509 455.672 377.243 C 455.838 376.928 456.051 376.659 456.297 376.451 C 456.733 376.085 457.441 375.608 458.836 375.696 C 458.836 375.696 459.825 376.015 459.978 376.148 C 460.325 376.329 460.715 376.796 460.941 377.169 C 461.408 377.938 461.598 378.997 461.598 380.156 C 461.598 380.356 461.585 380.556 461.559 380.756 C 461.534 380.956 461.495 381.156 461.444 381.356 C 460.321 385.407 458.702 389.689 456.587 394.202 C 456.579 394.22 456.57 394.238 456.562 394.256 C 454.775 398.051 452.832 401.717 450.742 405.24 C 450.242 406.087 449.734 406.925 449.219 407.756 C 446.451 412.223 443.491 416.49 440.339 420.556 C 438.156 423.382 436.782 425.036 434.397 427.57 C 433.506 428.513 432.602 429.432 431.681 430.325 C 431.645 430.362 431.61 430.399 431.576 430.438 C 431.246 430.814 431.313 431.009 431.776 431.024 C 431.796 431.025 431.815 431.025 431.835 431.025 C 437.269 430.492 441.022 430.235 447.148 429.301 C 451.206 428.687 452.521 428.516 456.666 427.76 C 458.405 427.443 458.474 427.513 460.203 427.11 C 460.562 426.977 460.664 426.744 460.51 426.41 C 459.69 424.277 458.794 422.127 457.819 419.96 C 456.845 417.794 455.769 415.644 454.59 413.51 C 454.466 413.272 454.364 413.018 454.283 412.75 C 454.183 412.419 454.13 412.066 454.129 411.71 C 454.129 410.581 454.469 409.688 455.151 409.03 C 455.194 408.989 455.238 408.949 455.282 408.91 C 455.443 408.728 456.614 407.84 457.614 407.777 C 457.922 407.758 458.354 407.755 458.568 407.782 C 459.476 407.896 460.209 408.281 460.771 409.198 C 460.775 409.206 460.78 409.214 460.784 409.222 C 461.278 410.136 461.75 411.068 462.201 412.018 C 462.704 413.074 463.219 414.22 463.745 415.454 C 464.072 416.222 464.393 416.995 464.706 417.772 C 466.09 421.206 467.422 424.689 468.704 428.222 C 469.236 429.685 469.747 431.161 470.238 432.648 C 470.833 434.456 471.346 436.147 471.779 437.722 C 471.82 437.802 471.932 438.204 471.933 438.322 L 471.933 438.922 C 471.931 439.421 471.839 439.912 471.666 440.356 C 471.598 440.535 471.515 440.706 471.433 440.872 Z" id="path-4" style=""/>
</svg>