<?xml version="1.0" encoding="utf-8"?>
<svg viewBox="243.148 361.6966 53.3005 80.6004" width="53.3" height="80.6" xmlns="http://www.w3.org/2000/svg">
  <path d="M 253.578 395.833 C 253.547 394.845 253.548 367.097 253.548 367.097 C 253.539 366.351 253.684 365.612 253.973 364.925 C 254.25 364.293 254.649 363.723 255.148 363.247 C 256.215 362.214 257.482 361.697 258.948 361.697 L 291.048 361.697 C 291.794 361.688 292.533 361.833 293.22 362.123 C 293.852 362.399 294.423 362.798 294.898 363.297 C 295.932 364.364 296.448 365.63 296.448 367.097 L 296.448 393.797 C 296.458 394.543 296.313 395.283 296.023 395.97 C 295.747 396.602 295.348 397.172 294.848 397.647 C 293.782 398.68 292.515 399.197 291.048 399.197 L 260.248 399.197 C 260.168 399.196 260.089 399.206 260.011 399.227 C 259.769 399.296 259.648 399.486 259.648 399.797 C 259.819 400.739 258.492 415.78 257.568 419.454 C 256.644 423.128 256.222 424.438 255.45 426.909 C 255.134 427.927 254.8 428.94 254.448 429.947 C 253.42 432.919 252.182 435.814 250.743 438.61 C 250.485 439.109 250.22 439.605 249.948 440.097 C 249.712 440.588 249.382 441.029 248.977 441.394 C 248.421 441.883 247.738 442.174 246.928 442.265 C 246.736 442.287 246.542 442.297 246.348 442.297 C 246.081 442.296 245.814 442.265 245.552 442.207 C 245.313 442.154 245.078 442.084 244.848 441.997 C 244.531 441.909 244.233 441.762 243.97 441.563 C 243.422 441.133 243.148 440.478 243.148 439.597 C 243.15 439.482 243.163 439.367 243.187 439.255 C 243.237 439.022 243.332 438.753 243.474 438.449 C 243.498 438.398 243.523 438.347 243.548 438.297 C 245.705 434.909 247.462 431.282 248.783 427.49 C 248.892 427.177 248.997 426.862 249.098 426.547 C 250.398 422.514 251.582 419.048 252.082 415.581 C 252.58 412.134 253.653 398.243 253.578 395.833 Z M 260.448 393.197 L 289.548 393.197 C 289.628 393.198 289.708 393.188 289.785 393.167 C 290.027 393.098 290.148 392.908 290.148 392.597 L 290.148 368.397 C 290.149 368.317 290.139 368.237 290.118 368.16 C 290.049 367.918 289.859 367.797 289.548 367.797 L 260.448 367.797 C 260.368 367.796 260.289 367.806 260.211 367.827 C 259.969 367.896 259.848 368.086 259.848 368.397 L 259.848 392.597 C 259.847 392.677 259.857 392.757 259.878 392.835 C 259.948 393.076 260.138 393.197 260.448 393.197 Z" id="path-15" transform="matrix(1, 0, 0, 1, 0, -2.842170943040401e-14)"/>
</svg>