<?xml version="1.0" encoding="utf-8"?>
<svg xmlns="http://www.w3.org/2000/svg" viewBox="21.875 352.395 51.684 75.333" width="51.684px" height="75.333px">
  <path d="M 32.643 378.001 C 33.511 378.576 34.369 379.171 35.217 379.787 C 36.224 380.516 37.212 381.282 38.18 382.083 C 38.265 382.329 38.337 382.582 38.395 382.839 C 38.58 383.639 38.701 384.651 38.757 385.875 C 38.784 386.466 38.797 387.057 38.795 387.649 C 38.795 389.006 38.646 390.053 38.346 390.79 C 38.059 391.612 37.382 392.134 36.642 392.103 C 35.934 392.103 35.056 391.123 34.009 389.163 C 33.746 388.667 33.496 388.162 33.258 387.649 C 32.842 386.694 32.493 384.555 32.211 381.233 C 32.142 380.404 32.081 379.574 32.027 378.743 L 32.643 378.001 Z M 40.334 352.396 L 40.334 352.395 C 40.353 352.395 40.371 352.395 40.389 352.396 C 41.555 352.4 42.623 352.545 43.593 352.831 C 45.631 353.366 47.431 354.799 48.64 356.849 C 48.64 356.904 48.64 356.959 48.638 357.014 C 48.63 357.492 48.582 358.064 48.495 358.73 C 48.447 359.093 48.393 359.456 48.332 359.817 C 48.282 369.094 47.871 378.371 47.102 387.649 C 48.977 385.347 50.744 382.921 52.394 380.382 C 54.473 377.199 56.306 373.793 57.869 370.208 C 57.823 369.854 57.778 369.5 57.736 369.145 C 57.62 368.14 57.562 367.381 57.562 366.868 L 58.177 366.126 C 58.73 366.25 59.277 366.407 59.816 366.598 C 60.791 366.945 61.635 367.382 62.347 367.91 C 64.143 369.135 65.252 371.431 65.252 373.919 C 59.033 379.42 52.777 384.863 46.487 390.247 C 46.405 391.429 46.309 392.542 46.198 393.586 C 46.108 394.455 45.998 395.322 45.872 396.185 C 49.666 401.998 55.306 408.678 62.792 416.224 C 63.736 417.16 64.735 418.011 65.782 418.77 C 66.881 419.577 68.11 420.371 69.467 421.151 C 70.81 421.917 72.175 422.625 73.559 423.274 L 73.559 424.017 C 71.497 424.399 69.299 424.683 66.963 424.869 C 64.653 425.047 62.338 425.134 60.023 425.13 C 54.998 415.976 49.974 407.44 44.948 399.524 C 42.924 405.86 39.846000000000004 411.629 35.904 416.476 C 32.021 421.155 27.479 424.965 22.49 427.728 L 21.875 426.985 C 29.872 420.808 35.885 411.527 38.919 400.673 C 40.656 394.429 41.65 387.921 41.872 381.341 C 41.925 380.093 41.967 378.844 41.999 377.595 C 42.081 374.556 42.134 370.876 42.16 366.555 C 42.173 364.309 42.18 362.063 42.179 359.817 C 42.179 358.951 41.667 357.714 40.641 356.106 C 40.626 356.081 40.611 356.056 40.595 356.031 C 40.367 355.654 40.183 355.277 40.044 354.9 C 39.834 354.347 39.723 353.746 39.719 353.138 L 40.334 352.396 Z" id="path-49" vector-effect="non-scaling-stroke" style="" transform="matrix(1, 0, 0, 0.9999999999999999, 0, -5.684341886080802e-14)"/>
</svg>