<?xml version="1.0" encoding="utf-8"?>
<svg xmlns="http://www.w3.org/2000/svg" viewBox="307.369 337.68 50.469 80.156" width="50.469px" height="80.156px">
  <path d="M 312.194 347.328 C 312.688 347.328 313.222 347.288 313.796 347.207 C 314.255 347.142 314.71 347.058 315.162 346.957 C 317.628 346.268 320.076 345.517 322.503 344.704 C 326.794 343.263 331.03 341.663 335.201 339.906 C 335.421 339.713 335.646 339.525 335.874 339.342 C 336.635 338.734 337.323 338.288 337.939 338.004 C 338.249 337.857 338.576 337.748 338.912 337.68 C 339.659 337.903 340.401 338.141 341.138 338.393 C 347.076 340.431 350.045 342.667 350.045 345.102 C 350.045 345.363 349.165 345.844 347.403 346.545 C 347.048 346.686 346.692 346.823 346.334 346.957 C 343.496 349.131 340.651 351.296 337.799 353.451 C 335.085 355.502 332.364 357.543 329.635 359.574 C 330.522 360.182 331.352 360.87 332.114 361.629 C 333.825 363.295 335.025 365.414 335.573 367.738 C 338.295 367.058 340.892 366.069 343.366 364.77 C 343.666 364.549 343.968 364.331 344.273 364.118 C 345.631 363.172 346.693 362.571 347.459 362.315 C 347.694 362.229 347.941 362.181 348.19 362.172 C 354.622 363.285 357.838 364.893 357.838 366.996 C 357.838 368.404 356.776 369.24 354.65 369.503 C 354.107 369.567 353.561 369.597 353.014 369.594 C 347.448 369.594 342.005 370.212 336.686 371.449 C 337.031 373.584 337.344 375.724 337.622 377.869 C 337.881 379.875 338.086 381.748 338.238 383.489 C 338.389 385.163 338.49 386.84 338.541 388.52 C 338.448 391.489 338.245 394.454 337.934 397.409 C 337.519 401.41 336.855 405.382 335.944 409.301 C 335.823 409.611 335.7 409.92 335.575 410.229 C 333.525 415.3 331.916 417.836 330.748 417.836 C 330.47 417.822 330.201 417.734 329.968 417.581 C 329.201 417.128 328.239 416.07 327.083 414.406 C 326.683 413.827 326.296 413.238 325.924 412.641 C 325.7 412.301 325.44 411.986 325.148 411.702 C 324.003 410.542 321.916 408.996 318.886 407.063 C 317.901 406.435 316.907 405.821 315.905 405.219 L 316.276 404.477 C 316.621 404.548 316.967 404.617 317.312 404.686 C 320.466 405.314 322.924 405.71 324.686 405.874 C 325.221 405.927 325.758 405.956 326.295 405.961 C 326.7 405.965 327.103 405.92 327.496 405.826 C 328.596 405.551 329.309 404.853 329.635 403.734 C 329.689 403.539 329.743 403.344 329.795 403.149 C 331.395 397.292 332.215 391.251 332.233 385.18 C 332.233 384.363 332.225 383.546 332.207 382.729 C 332.14 379.33 331.901 375.937 331.491 372.563 C 325.322 373.892 319.248 375.628 313.307 377.758 C 311.155 377.6 309.094 376.827 307.369 375.531 L 307.741 374.789 C 309.7 374.361 311.655 373.92 313.608 373.467 C 319.227 372.167 324.817 370.752 330.377 369.223 C 329.079 365.141 327.347 362.543 325.182 361.43 C 325.179 361.428 325.176 361.427 325.173 361.425 C 324.406 361.02 323.771 360.616 323.268 360.212 C 323.024 360.018 322.795 359.804 322.584 359.574 L 322.955 358.832 C 323.806 358.662 324.832 358.55 326.033 358.497 C 326.615 358.472 327.198 358.46 327.78 358.461 C 328.58 357.512 329.372 356.555 330.154 355.592 C 333.853 351.035 336.525 347.291 338.17 344.359 L 338.17 343.617 L 337.428 343.246 C 330.749 345.967 324.193 348.936 317.76 352.152 C 313.76 351.457 311.165 350.578 309.977 349.515 C 309.527 349.167 309.252 348.639 309.225 348.07 L 309.596 347.328 L 312.194 347.328 Z" id="path-48" vector-effect="non-scaling-stroke" transform="matrix(0.9999999999999999, 0, 0, 0.9999999999999999, -2.842170943040401e-14, 0)"/>
</svg>