<?xml version="1.0" encoding="utf-8"?>
<svg xmlns="http://www.w3.org/2000/svg" viewBox="431.009 10.955 50.858 84.238" width="50.858px" height="84.238px">
  <path d="M 450.124 10.955 C 452.139 10.955 453.883 11.239 455.355 11.807 C 457.13 12.44 458.655 13.71 459.68 15.408 C 459.68 16.213 459.613 17.562 459.481 19.455 C 459.436 20.085 459.389 20.716 459.339 21.346 C 459.179 23.225 459.037 25.26 458.913 27.451 C 458.812 29.249 458.727 31.049 458.657 32.849 C 461.729 32.045 464.914 31.179 468.214 30.252 C 468.706 30.101 469.189 29.916 469.66 29.696 C 470.599 29.252 471.489 28.691 472.31 28.025 C 473.351 28.366 474.384 28.736 475.408 29.136 C 478.343 30.289 480.278 31.404 481.213 32.48 C 481.598 32.864 481.833 33.395 481.867 33.963 C 481.861 34.037 481.846 34.111 481.821 34.18 C 481.688 34.587 481.268 35.401 480.56 36.621 C 480.428 36.849 480.295 37.076 480.16 37.303 C 476.925 47.554 474.59 54.294 473.158 57.523 C 472.912 58.102 472.628 58.661 472.31 59.197 C 471.986 59.7 471.643 60.1 471.283 60.398 C 470.798 60.818 470.198 61.048 469.579 61.053 C 468.783 61.053 467.986 60.311 467.19 58.826 C 467.008 58.766 466.825 58.714 466.641 58.672 C 466.321 58.598 465.975 58.543 465.603 58.507 C 465.222 58.471 464.84 58.454 464.459 58.455 C 464.291 58.456 464.125 58.463 463.959 58.476 C 463.092 58.541 461.824 58.761 460.155 59.134 C 459.541 59.272 458.927 59.417 458.316 59.568 L 456.95 88.885 C 456.706 91.891 456.287 93.823 455.695 94.68 C 455.523 94.981 455.227 95.173 454.902 95.193 C 453.876 95.193 453.078 93.778 452.511 90.948 C 452.376 90.265 452.262 89.576 452.171 88.885 L 452.171 60.682 L 443.98 62.537 C 443.686 63.653 443.346 64.409 442.958 64.806 C 442.778 65.009 442.532 65.127 442.273 65.135 C 441.533 65.135 440.417 64.073 438.927 61.95 C 438.551 61.412 438.188 60.866 437.836 60.31 C 437.736 59.874 437.637 59.438 437.539 59.002 C 436.097 52.65 434.717 46.283 433.399 39.9 C 433.296 39.742 433.194 39.584 433.093 39.425 C 432.166 37.97 431.472 36.768 431.009 35.818 L 431.692 35.076 C 432.997 35.07 434.289 35.356 435.488 35.914 C 436.598 36.441 437.62 37.161 438.518 38.045 L 452.171 34.334 L 452.171 18.748 C 452.171 17.545 452.028 16.602 451.741 15.919 C 451.607 15.58 451.403 15.278 451.148 15.037 C 450.542 14.446 450.099 13.854 449.816 13.263 C 449.575 12.782 449.446 12.244 449.441 11.697 L 450.124 10.955 Z M 458.657 43.24 C 458.79 43.191 458.924 43.139 459.056 43.084 C 459.889 42.734 460.553 42.291 461.046 41.756 C 464.459 42.313 466.166 43.055 466.166 43.982 C 466.17 44.317 466.08 44.645 465.909 44.924 C 465.685 45.288 465.316 45.593 464.801 45.838 L 458.657 47.693 L 458.316 56.228 C 458.412 56.2 458.509 56.173 458.606 56.146 C 461.076 55.449 462.913 54.982 464.118 54.744 C 465.264 54.745 466.407 54.869 467.531 55.115 C 469.465 48.436 470.83 42.003 471.627 35.818 C 471.604 35.748 471.579 35.68 471.551 35.613 C 471.361 35.15 471.077 34.81 470.699 34.593 C 470.456 34.457 470.192 34.369 469.92 34.334 L 458.657 36.56 L 458.657 43.24 Z M 441.249 48.435 C 443.069 48.435 446.71 47.446 452.171 45.467 L 452.171 38.045 L 441.249 41.014 L 439.543 40.642 L 441.249 48.435 Z M 443.297 58.455 L 443.98 59.568 L 452.171 57.342 L 452.171 49.549 L 445.345 51.404 L 441.59 51.033 L 443.297 58.455 Z" id="path-34" vector-effect="non-scaling-stroke" style="" transform="matrix(1, 0, 0, 1, -5.684341886080802e-14, 0)"/>
</svg>