<?xml version="1.0" encoding="utf-8"?>
<svg xmlns="http://www.w3.org/2000/svg" viewBox="138.964 20.3636 49.7406 78.7181" width="49.7406px" height="78.7181px">
  <path d="M 14.089 4.5 C 14.156 4.523 14.224 4.546 14.291 4.569 C 16.369 5.296 18.157 6.138 19.655 7.097 C 25.646 6.478 24.404 6.213 27.435 5.52 C 31.887 4.502 36.379 3.663 40.82 2.598 C 41.526 2.126 42.238 1.662 42.954 1.206 C 43.598 0.7949999999999999 44.247 0.393 44.902 0 C 44.944 0.008 44.986 0.015 45.028 0.023 C 52.366 1.379 56.035 2.979 56.035 4.824 C 56.049 5.346 55.847 5.852 55.475 6.219 C 55.272 6.42 55.015 6.594 54.703 6.741 C 54.416 6.873 54.116 6.977 53.809 7.051 C 38.873 8.075 35.868 8.495 21.139 11.179 L 21.301 34.49 C 32.435 32.511 31.211 31.846 41.353 29.62 C 42.07 29.423000000000002 42.782 29.207 43.487 28.97 C 44.267 28.709 45.04 28.431 45.807 28.135 C 46.392 28.38 46.974 28.63 47.554 28.885 C 51.377 30.567 53.744 31.899 54.656 32.881 C 54.895 33.093 55.047 33.385 55.084 33.702 C 55.084 33.771 55.08 33.839 55.073 33.907 C 55.019 34.437 54.755 34.992 54.283 35.573 C 54.072 35.83 53.844 36.073 53.6 36.299 C 52.327 37.596 49.126 38.145 47.816 38.145 C 47.392 38.102 46.968 38.061 46.544 38.021 C 44.782 37.856 43.598 37.773 42.992 37.773 C 42.093 37.776 41.194 37.807 40.296 37.864 C 35.611 38.149 36.976 38.244 31.488 39.28 C 28.144 39.911 24.794 40.505 21.455 41.16 L 20.026 66.472 C 24.921 65.453 24.129 65.467 30.786 64.569 C 36.994 63.731 40.534 63.423 46.758 62.715 C 48.195 62.372 49.491 61.595 50.469 60.488 C 57.891 61.354 61.602 63.333 61.602 66.426 C 61.614 66.852 61.432 67.26 61.107 67.535 C 60.58 67.994 59.631 68.243 58.262 68.281 C 41.497 68.366 36.62 68.168 20.026 70.554 L 20.026 75.378 C 20.024 75.393 20.021 75.407 20.019 75.422 C 19.856 76.375 19.602 77.122 19.255 77.662 C 18.883 78.32 18.184 78.724 17.428 78.718 C 16.958 78.704 16.505 78.536 16.139 78.241 C 15.058 77.439 13.975999999999999 75.629 12.895 72.81 C 12.519 71.822 12.175 70.822 11.862 69.812 C 12.018 69.034 12.19 68.26 12.376 67.489 C 12.67 66.277 12.993 65.071 13.346 63.875 C 13.857 55.346 14.228 46.81 14.46 38.269 C 14.712 28.994 14.836 19.716 14.831 10.437 C 14.818 10.4 14.805 10.362 14.792 10.325 C 13.828 7.546 13.346 5.852 13.346 5.242 L 14.089 4.5 Z" id="path-32" vector-effect="non-scaling-stroke" transform="matrix(1, 0, 0, 1, 127.1020413611947, 20.363635729955234)"/>
</svg>