<?xml version="1.0" encoding="utf-8"?>
<svg xmlns="http://www.w3.org/2000/svg" viewBox="214.055 342.413 49.563 77.636" width="49.563px" height="77.636px">
  <path d="M 232.637 342.413 C 236.949 342.413 240.354 344.021 242.851 347.238 C 242.848 347.82 242.783 348.4 242.658 348.966 C 242.537 349.517 242.374 350.056 242.17 350.577 C 241.885 364.062 240.665 393.951 240.269 407.432 C 245.245 406.552 250.24 405.809 255.25 405.205 L 256.128 382.198 C 256.142 380.813 255.652 379.479 254.766 378.487 C 254.1 377.669 253.737 376.611 253.744 375.518 L 254.425 374.776 C 255.481 374.774 256.529 374.971 257.523 375.358 C 258.767 375.841 259.96 376.626 261.101 377.712 C 262.033 378.614 262.877 379.62 263.618 380.714 L 262.936 384.054 C 262.554 387.409 261.294 401.896 260.909 405.251 C 260.499 408.823 260.088 412.395 259.676 415.967 C 259.618 416.287 259.549 416.603 259.469 416.917 C 258.996 418.758 258.27 419.678 257.292 419.678 C 255.931 419.678 255.022 417.946 254.568 414.482 L 254.909 407.803 C 247.567 409.194 240.837 410.899 234.717 412.917 C 230.23 414.377 225.831 416.139 221.545 418.193 C 221.213 418.395 220.879 418.591 220.542 418.782 C 219.049 419.627 218.022 420.049 217.46 420.049 C 216.381 420.049 215.246 418.193 214.055 414.482 C 215.88 409.918 217.833 394.151 217.804 389.172 C 217.801 388.976 217.769 388.781 217.709 388.596 C 217.589 388.205 217.354 387.768 217.006 387.283 C 216.828 387.038 216.64 386.801 216.442 386.574 C 216.381 386.496 216.32 386.416 216.263 386.335 C 216.039 386.022 215.86 385.71 215.726 385.397 C 215.529 384.954 215.424 384.469 215.42 383.976 L 216.101 383.234 C 218.302 383.206 220.404 384.235 221.846 386.048 C 222.53 386.883 223.118 387.808 223.592 388.801 C 223.401 390.173 223.19 391.541 222.959 392.905 C 222.514 395.515 221.019 408.572 220.524 410.4 L 221.204 411.143 C 221.53 411.074 221.856 411.005 222.182 410.936 C 226.726 409.977 230.827 409.18 234.482 408.545 L 235.361 350.577 C 235.369 349.775 235.209 348.981 234.894 348.256 C 234.592 347.586 234.172 346.988 233.659 346.495 C 232.524 345.32 231.957 344.207 231.957 343.156 L 232.637 342.413 Z" id="path-53" vector-effect="non-scaling-stroke" style="" transform="matrix(1, 0, 0, 0.9999999999999999, 0, -5.684341886080802e-14)"/>
</svg>