<?xml version="1.0" encoding="utf-8"?>
<svg xmlns="http://www.w3.org/2000/svg" viewBox="150.379 19.17 68.7921 72.9943" width="68.7921px" height="72.9943px">
  <path d="M 191.361 43.662 C 192.614 37.214 193.414 32.193 193.762 28.598 C 193.868 27.561 193.934 26.52 193.959 25.478 C 193.959 25.392 193.954 25.307 193.944 25.222 C 193.842 24.403 193.229 23.994 192.104 23.994 C 184.805 26.344 177.507 28.447 170.209 30.303 C 171.704 35.656 173.312 40.976 175.033 46.26 C 176.398 45.995 177.754 45.688 179.099 45.339 C 181.894 44.621 184.628 43.688 187.279 42.549 C 187.492 42.578 187.705 42.611 187.917 42.649 C 189.098 42.864 190.252 43.204 191.361 43.662 Z M 162.045 24.736 C 162.254 24.758 162.462 24.783 162.67 24.81 C 164.854 25.095 167.243 25.689 169.838 26.592 C 175.405 25.393 180.488 24.122 185.088 22.779 C 187.698 22.022 190.285 21.189 192.846 20.283 C 193.013 20.149 193.185 20.02 193.36 19.896 C 193.798 19.59 194.187 19.381 194.528 19.268 C 194.703 19.207 194.887 19.174 195.072 19.17 C 195.234 19.23 195.396 19.29 195.558 19.351 C 200.285 21.133 203.254 22.719 204.466 24.11 C 204.833 24.475 205.056 24.961 205.092 25.478 C 205.088 25.705 205.038 25.929 204.944 26.136 C 204.693 26.719 204.124 27.366 203.236 28.076 C 200.886 35.931 198.783 41.992 196.928 46.26 C 196.927 46.261 196.927 46.262 196.926 46.263 C 196.451 47.299 195.703 47.973 194.684 48.285 C 194.208 48.424 193.713 48.492 193.217 48.486 C 193.115 48.485 193.013 48.473 192.913 48.451 C 192.338 48.327 191.546 47.877 190.536 47.1 C 190.185 46.829 189.842 46.549 189.506 46.26 C 186.89 46.741 184.277 47.235 181.667 47.744 C 179.205 48.224 176.747 48.718 174.291 49.228 C 175.03 49.762 175.717 50.363 176.345 51.023 C 178.123 52.816 179.118 55.239 179.115 57.764 C 177.969 60.898 176.639 64.122 174.993 67.025 C 172.094 72.14 169.658 75.921 164.727 80.672 C 160.734 84.519 156.524 86.552 150.75 88.936 L 150.379 88.193 C 164.812 76.098 171.033 65.076 172.436 54.795 C 172.435 54.665 172.431 54.535 172.422 54.405 C 172.365 53.483 172.122 52.005 171.693 49.971 C 171.527 49.967 171.364 49.918 171.222 49.831 C 170.591 49.468 169.883 48.402 169.096 46.631 C 169.073 46.536 169.05 46.442 169.026 46.347 C 167.604 40.546 165.894 34.819 163.9 29.189 C 163.878 29.166 163.857 29.142 163.835 29.119 C 162.147 27.302 161.303 26.089 161.303 25.478 L 162.045 24.736 Z M 182.455 48.857 C 183.074 49.057 183.686 49.279 184.289 49.522 C 188.014 51.031 189.877 52.912 189.877 55.166 C 188.331 64.057 187.389 70.531 187.05 74.59 C 186.965 75.535 186.917 76.483 186.908 77.432 C 186.908 79.837 187.238 81.652 187.898 82.879 C 188.243 83.576 188.808 84.14 189.506 84.482 C 189.545 84.499 189.584 84.516 189.623 84.533 C 191.32 85.253 196.319 85.855 197.648 85.853 C 200.25 85.853 202.851 85.729 205.441 85.482 C 205.563 85.466 205.685 85.449 205.806 85.431 C 209.783 84.859 212.011 83.763 212.492 82.142 C 213.007 80.393 213.471 78.63 213.883 76.854 C 214.333 74.916 214.735 72.967 215.089 71.009 L 216.203 71.38 C 216.234 72.599 216.28 73.817 216.34 75.034 C 216.585 79.901 217.034 83.012 217.687 84.368 C 218.445 85.883 218.913 87.036 219.09 87.827 C 219.14 88.031 219.167 88.24 219.171 88.45 C 219.174 88.783 219.091 89.111 218.931 89.403 C 218.378 90.408 216.877 91.113 214.427 91.518 C 213.663 91.641 212.893 91.732 212.121 91.79 C 211.211 91.85 210.3 91.902 209.389 91.944 C 207.804 92.018 206.105 92.073 204.293 92.109 C 202.449 92.145 200.605 92.162 198.761 92.161 C 198.618 92.161 198.475 92.169 198.332 92.16 C 191.836 91.739 190.623 91.345 187.409 89.595 C 185.961 88.869 184.756 87.738 183.94 86.338 C 183.226 84.998 182.719 83.557 182.439 82.065 C 182.196 80.782 182.077 79.479 182.084 78.174 C 182.084 76.218 182.107 74.262 182.154 72.306 C 182.281 66.705 182.629 61.111 183.197 55.537 L 182.455 52.197 C 182.447 52.175 182.439 52.152 182.431 52.13 C 182.074 51.141 181.85 50.351 181.759 49.762 C 181.73 49.585 181.715 49.407 181.713 49.228 L 182.455 48.857 Z" id="path-28" vector-effect="non-scaling-stroke"/>
</svg>