<?xml version="1.0" encoding="utf-8"?>
<svg viewBox="36.0158 16.2719 48.3002 83.7534" width="48.3" height="83.753" xmlns="http://www.w3.org/2000/svg">
  <path d="M 67.916 83.272 L 67.916 42.772 C 67.917 42.692 67.907 42.612 67.886 42.535 C 67.817 42.293 67.627 42.172 67.316 42.172 L 39.216 42.172 C 38.382 42.18 37.58 41.848 36.995 41.252 C 36.986 41.242 36.976 41.232 36.966 41.222 C 36.645 40.909 36.392 40.531 36.224 40.115 C 36.084 39.75 36.013 39.363 36.016 38.972 C 36.012 38.578 36.077 38.186 36.207 37.815 C 36.367 37.379 36.627 36.988 36.966 36.672 C 37.6 36.072 38.35 35.772 39.216 35.772 L 67.316 35.772 C 67.396 35.773 67.476 35.764 67.553 35.743 C 67.795 35.674 67.916 35.483 67.916 35.172 L 67.916 19.372 C 67.916 18.505 68.216 17.772 68.816 17.172 C 69.384 16.591 70.163 16.266 70.975 16.272 C 70.989 16.272 71.003 16.272 71.016 16.272 C 71.883 16.272 72.616 16.572 73.216 17.172 C 73.797 17.74 74.122 18.52 74.115 19.332 C 74.116 19.345 74.116 19.359 74.116 19.372 L 74.116 35.172 C 74.115 35.252 74.125 35.332 74.145 35.41 C 74.215 35.651 74.405 35.772 74.716 35.772 L 81.116 35.772 C 82.05 35.772 82.816 36.072 83.416 36.672 C 83.94 37.195 84.255 37.891 84.301 38.63 C 84.311 38.744 84.316 38.858 84.316 38.972 C 84.316 39.839 84.016 40.589 83.416 41.222 C 82.859 41.817 82.083 42.159 81.267 42.169 C 81.217 42.171 81.167 42.172 81.116 42.172 L 74.716 42.172 C 74.636 42.171 74.556 42.181 74.478 42.202 C 74.237 42.271 74.116 42.461 74.116 42.772 L 74.116 83.272 C 74.116 87.739 73.566 91.222 72.466 93.722 C 71.475 96.051 69.563 97.866 67.185 98.736 C 67.063 98.783 66.94 98.829 66.816 98.872 C 65.918 99.18 64.996 99.415 64.059 99.575 C 61.789 99.978 59.042 100.111 55.816 99.972 C 54.883 99.905 54.1 99.539 53.466 98.872 C 52.833 98.205 52.516 97.405 52.516 96.472 C 52.503 95.668 52.823 94.895 53.4 94.336 C 53.422 94.314 53.444 94.293 53.466 94.272 C 53.708 94.038 53.991 93.851 54.301 93.72 C 54.732 93.543 55.204 93.493 55.716 93.572 C 56.583 93.639 57.383 93.689 58.116 93.722 C 58.85 93.755 59.516 93.772 60.116 93.772 C 60.693 93.774 61.27 93.75 61.845 93.701 C 63.039 93.595 64.021 93.371 64.793 93.028 C 64.903 92.98 65.011 92.928 65.116 92.872 C 66.25 92.272 67 91.205 67.366 89.672 C 67.491 89.14 67.587 88.601 67.656 88.059 C 67.83 86.747 67.916 85.151 67.916 83.272 Z M 50.057 75.759 C 49.428 75.52 48.934 75.078 48.575 74.433 C 48.476 74.252 48.389 74.065 48.316 73.872 C 47.45 71.205 46.316 68.289 44.916 65.122 C 43.516 61.955 42.15 59.139 40.816 56.672 C 40.55 56.205 40.416 55.672 40.416 55.072 C 40.416 53.805 40.983 52.905 42.116 52.372 C 42.583 52.105 43.116 51.972 43.716 51.972 C 45.097 51.972 46.094 52.534 46.706 53.657 C 46.745 53.728 46.782 53.799 46.816 53.872 C 48.15 56.539 49.516 59.489 50.916 62.722 C 51.673 64.465 52.387 66.226 53.057 68.004 C 53.539 69.283 53.992 70.573 54.416 71.872 C 54.438 71.939 54.455 72.008 54.466 72.077 C 54.492 72.218 54.508 72.39 54.513 72.592 C 54.515 72.652 54.516 72.712 54.516 72.772 C 54.516 73.639 54.216 74.389 53.616 75.022 C 53.059 75.617 52.283 75.959 51.467 75.969 C 51.417 75.971 51.367 75.972 51.316 75.972 C 50.887 75.978 50.461 75.906 50.057 75.759 Z" id="path-1" transform="matrix(1, 0, 0, 1, 0, -5.684341886080802e-14)"/>
</svg>