<?xml version="1.0" encoding="utf-8"?>
<svg xmlns="http://www.w3.org/2000/svg" viewBox="430.886 2.918 62.714 75.703" width="62.714px" height="75.703px">
  <path d="M 488.405 56.727 C 488.734 58.528 489.082 60.325 489.449 62.119 C 489.797 63.819 490.144 65.424 490.492 66.932 C 490.876 68.609 491.294 70.279 491.745 71.941 C 492.015 72.29 492.272 72.65 492.517 73.018 C 492.973 73.71 493.286 74.316 493.454 74.835 C 493.544 75.098 493.593 75.374 493.6 75.652 C 493.6 77.136 491.868 77.879 488.405 77.879 C 484.626 77.879 481.179 77.53 478.064 76.832 C 475.468 76.271 472.957 75.375 470.593 74.168 C 463.913 70.704 460.573 65.509 460.573 58.582 C 460.573 53.614 462.064 45.946 465.048 35.579 C 466.092 31.971 467.198 28.382 468.366 24.812 C 464.716 26.791 461.005 28.77 457.233 30.75 C 454.73 44.408 450.821 55.504 445.507 64.037 C 442.013 69.862 437.273 74.843 431.628 78.621 L 430.886 78.25 C 432.552 76.269 434.107 74.197 435.544 72.044 C 439.249 66.503 442.383 60.193 444.947 53.114 C 447.198 46.796 448.948 40.311 450.182 33.719 C 449.965 33.827 449.749 33.935 449.534 34.043 C 446.387 35.622 443.263 37.246 440.163 38.914 C 437.216 38.426 434.346 37.552 431.628 36.316 L 432.37 35.574 C 437.688 34.213 443.75 32.234 450.554 29.637 C 450.989 26.229 451.349 22.263 451.633 17.739 C 451.8 15.027 451.935 12.313 452.038 9.598 C 451.852 8.546 451.358 7.556 450.554 6.629 C 450.444 6.446 450.338 6.2620000000000005 450.237 6.075 C 449.899 5.451 449.669 4.898 449.546 4.418 C 449.479 4.171 449.443 3.916 449.44 3.66 L 450.182 2.918 C 451.089 3.132 451.984 3.3970000000000002 452.862 3.7119999999999997 C 454.216 4.204 455.391 4.79 456.386 5.472 C 458.267 6.681 459.628 8.549 460.202 10.711 C 459.937 12.199 459.68 13.688 459.43 15.179 C 459.166 16.747 458.897 18.393 458.622 20.119 C 458.274 22.3 457.934 24.483 457.604 26.668 C 458.131 26.42 458.655 26.165 459.176 25.903 C 462.923 24.003 466.495 21.776 469.85 19.246 C 470.781 19.658 471.701 20.095 472.61 20.555 C 475.262 21.905 477.001 23.116 477.827 24.188 C 478.159 24.569 478.355 25.05 478.386 25.555 C 478.386 25.909 477.72 26.556 476.388 27.494 C 476.067 27.718 475.744 27.938 475.417 28.152 C 475.188 28.59 474.961 29.03 474.736 29.47 C 469.805 39.091 466.683 46.81 465.37 52.627 C 464.928 54.456 464.688 56.329 464.655 58.211 C 464.648 59.211 464.741 60.209 464.933 61.191 C 465.378 63.783 466.893 66.069 469.108 67.488 C 470.503 68.387 472.003 69.113 473.574 69.651 C 475.961 70.45 478.465 70.848 480.983 70.828 C 483.271 70.828 484.756 69.714 485.436 67.488 C 486.426 64.148 487.168 60.561 487.663 56.727 L 488.405 56.727 Z" id="path-47" vector-effect="non-scaling-stroke" transform="matrix(1, 0, 0, 1, 0, -5.684341886080802e-14)"/>
</svg>