<?xml version="1.0" encoding="utf-8"?>
<svg xmlns="http://www.w3.org/2000/svg" viewBox="424.614 334.2508 53.066 76.8762" width="53.066px" height="76.8762px">
  <path d="M 461.352 382.939 L 461.723 381.833 C 462.999 382.828 464.262 383.861 465.51 384.932 C 468.399 387.415 471.221 390.069 473.969 392.887 C 475.728 397.472 476.861 401.311 477.37 404.406 C 477.564 405.519 477.668 406.661 477.68 407.811 C 477.68 410.022 477.061 411.127 475.824 411.127 C 475.252 411.073 474.702 410.787 474.232 410.3 C 472.692 408.879 470.707 405.628 468.277 400.546 C 467.426 398.757 466.602 396.941 465.805 395.099 C 460.94 397.12 452.849 400.29 447.726 401.714 C 441.79 403.364 438.557 404.435 432.931 407.472 C 431.953 408.169 431.121 408.821 430.435 409.432 C 430.148 409.685 429.866 409.953 429.591 410.236 C 429.318 410.233 429.046 410.169 428.786 410.045 C 427.044 409.231 426.541 408.343 424.614 402.284 C 424.632 402.114 424.699 401.964 424.797 401.874 C 425.392 401.159 427.433 400.19 430.922 398.967 C 434.262 394.406 438.228 388.499 442.82 381.246 C 444.433 378.694 446.033 376.127 447.621 373.542 C 440.356 373.163 434.402 372.651 427.744 374.03 C 427.597 374.023 427.462 373.908 427.385 373.722 C 427.13 373.199 427.002 372.012 427.002 370.161 C 427 368.826 428.09 366.404 428.696 365.252 C 428.873 365.135 429.051 365.018 429.229 364.907 C 429.675 364.625 430.099 364.375 430.502 364.157 C 430.885 363.949 431.272 363.76 431.664 363.593 C 435.077 358.164 438.051 353.17 440.588 348.611 C 441.988 346.104 443.344 343.544 444.653 340.931 C 445.146 339.376 445.399 337.677 445.395 335.958 C 445.588 334.403 449.238 333.633 449.848 334.851 C 450.387 335.903 450.433 337.751 450.532 338.772 C 450.568 339.12 450.587 339.473 450.59 339.826 C 450.588 340.481 450.504 341.132 450.342 341.743 C 450.212 342.235 450.047 342.704 449.848 343.143 C 447.584 347.089 445.296 351.004 442.983 354.889 C 440.469 359.11 437.933 363.301 435.375 367.463 C 438.004 367.808 440.922 368.154 444.131 368.499 C 446.16 368.717 448.189 368.924 450.219 369.12 C 451.243 367.436 452.252 365.732 453.246 364.009 C 456.097 359.074 458.802 353.956 461.352 348.67 C 461.276 348.076 461.21 347.479 461.156 346.88 C 461.042 345.641 460.983 344.393 460.981 343.143 L 462.094 342.591 C 462.597 342.591 463.507 343.32 464.826 344.78 C 465.157 345.146 465.483 345.522 465.805 345.906 C 465.898 346.183 465.989 346.463 466.078 346.746 C 466.606 348.423 466.961 349.91 467.144 351.202 C 467.236 351.822 467.284 352.457 467.289 353.093 C 467.29 353.481 467.281 353.871 467.263 354.26 C 467.216 355.225 467.108 356.007 466.938 356.606 C 466.848 356.943 466.715 357.251 466.547 357.513 C 462.954 362.649 459.321 367.723 455.649 372.735 C 449.114 381.645 442.479 390.391 435.746 398.967 C 436.978 398.68 438.209 398.385 439.44 398.082 C 447.788 396.034 456.086 393.565 464.321 390.677 L 461.352 382.939 Z" id="path-50" vector-effect="non-scaling-stroke" style="" transform="matrix(0.9999999999999999, 0, 0, 0.9999999999999999, -2.842170943040401e-14, 0)"/>
</svg>