<?xml version="1.0" encoding="utf-8"?>
<svg viewBox="33.1047 345.8527 55.6004 84.8004" width="55.6" height="84.8" xmlns="http://www.w3.org/2000/svg">
  <path d="M 58.805 427.453 L 58.805 388.753 C 58.805 388.692 58.801 388.632 58.795 388.572 C 58.779 388.446 58.747 388.353 58.697 388.291 C 58.661 388.245 58.611 388.214 58.555 388.203 C 58.536 388.199 58.518 388.197 58.5 388.198 C 58.37 388.198 58.25 388.293 58.142 388.484 C 58.129 388.506 58.116 388.529 58.105 388.553 C 56.766 391.218 55.249 394.487 53.94 397.167 C 53.313 398.45 52.449 399.982 51.828 401.275 C 49.82 405.455 49.577 405.821 46.607 410.414 C 43.637 415.007 41.671 418.086 38.205 420.953 C 37.805 421.353 37.275 421.596 36.711 421.639 C 36.609 421.648 36.507 421.653 36.405 421.653 C 35.338 421.653 34.471 421.219 33.805 420.353 C 33.404 419.953 33.161 419.423 33.119 418.859 C 33.109 418.757 33.104 418.655 33.105 418.553 C 33.099 418.087 33.187 417.625 33.364 417.195 C 33.572 416.711 33.895 416.284 34.305 415.953 C 37.403 413.338 39.541 409.932 41.627 406.606 C 41.893 406.182 42.088 405.888 42.307 405.514 C 44.681 401.448 45.424 400.341 47.425 396.228 C 48.625 393.762 49.95 391.041 51.286 388.646 C 52.037 387.295 52.513 385.435 53.205 384.053 C 53.849 382.767 54.468 381.468 55.061 380.158 C 55.705 378.729 56.276 377.368 56.773 376.075 C 56.992 375.504 57.203 374.93 57.405 374.353 C 57.415 374.316 57.424 374.278 57.432 374.241 C 57.508 373.849 57.333 373.653 56.905 373.653 L 39.405 373.653 C 38.57 373.66 37.769 373.328 37.185 372.733 C 37.174 372.723 37.164 372.713 37.155 372.703 C 36.833 372.389 36.581 372.012 36.414 371.596 C 36.272 371.231 36.202 370.843 36.205 370.453 C 36.2 370.059 36.265 369.667 36.397 369.296 C 36.556 368.86 36.815 368.469 37.155 368.153 C 37.788 367.553 38.538 367.253 39.405 367.253 L 58.205 367.253 C 58.285 367.254 58.364 367.244 58.442 367.223 C 58.684 367.154 58.805 366.964 58.805 366.653 L 58.805 349.153 C 58.799 348.705 58.883 348.262 59.05 347.847 C 59.213 347.455 59.452 347.1 59.755 346.803 C 60.068 346.481 60.446 346.229 60.863 346.062 C 61.227 345.921 61.614 345.85 62.005 345.853 C 62.398 345.848 62.79 345.913 63.162 346.045 C 63.597 346.204 63.989 346.463 64.305 346.803 C 64.87 347.396 65.19 348.181 65.202 349.001 C 65.203 349.051 65.204 349.102 65.205 349.153 L 65.205 366.653 C 65.203 366.733 65.214 366.813 65.235 366.891 C 65.304 367.132 65.494 367.253 65.805 367.253 L 84.205 367.253 C 84.598 367.248 84.99 367.313 85.362 367.445 C 85.797 367.604 86.189 367.863 86.505 368.203 C 87.105 368.836 87.405 369.586 87.405 370.453 C 87.405 371.319 87.105 372.069 86.505 372.703 C 85.947 373.297 85.171 373.639 84.357 373.65 C 84.306 373.652 84.255 373.653 84.205 373.653 L 67.505 373.653 C 67.439 373.652 67.374 373.659 67.311 373.673 C 67.075 373.727 66.969 373.893 66.994 374.171 C 66.996 374.198 67 374.225 67.005 374.253 C 67.539 375.811 68.127 377.35 68.769 378.868 C 69.535 380.69 70.592 382.523 71.405 384.603 C 72.735 388.005 75.445 395.465 76.195 396.972 C 78.254 401.108 78.675 402.549 80.722 406.386 C 82.769 410.223 85.138 413.519 87.605 416.053 C 88.316 416.75 88.713 417.706 88.705 418.703 C 88.705 418.719 88.705 418.736 88.705 418.753 C 88.707 419.089 88.673 419.425 88.602 419.754 C 88.479 420.302 88.247 420.769 87.905 421.153 C 87.645 421.479 87.32 421.748 86.951 421.943 C 86.533 422.153 86.072 422.259 85.605 422.253 C 84.839 422.256 84.103 421.952 83.563 421.41 C 83.543 421.391 83.524 421.372 83.505 421.353 C 81.038 418.553 78.658 414.914 76.422 410.886 C 74.34 407.134 73.73 405.427 71.827 401.401 C 69.934 397.395 67.71 391.453 65.905 387.453 C 65.883 387.404 65.854 387.359 65.825 387.315 C 65.728 387.17 65.623 387.098 65.51 387.098 C 65.491 387.097 65.473 387.099 65.455 387.103 C 65.308 387.132 65.226 387.277 65.209 387.538 C 65.206 387.576 65.205 387.614 65.205 387.653 L 65.205 427.453 C 65.205 428.319 64.905 429.069 64.305 429.703 C 63.747 430.297 62.971 430.639 62.157 430.65 C 62.106 430.652 62.055 430.653 62.005 430.653 C 61.17 430.66 60.369 430.328 59.785 429.733 C 59.774 429.723 59.764 429.713 59.755 429.703 C 59.433 429.389 59.181 429.012 59.014 428.596 C 58.872 428.231 58.802 427.843 58.805 427.453 Z" id="path-11" transform="matrix(1, 0, 0, 1, 0, -2.842170943040401e-14)"/>
</svg>