<?xml version="1.0" encoding="utf-8"?>
<svg viewBox="318.333 372.8728 51.9001 78.9042" width="51.9" height="78.904" xmlns="http://www.w3.org/2000/svg">
  <path d="M 340.933 441.573 L 340.933 414.073 C 340.934 413.992 340.924 413.912 340.903 413.835 C 340.834 413.593 340.644 413.473 340.333 413.473 L 321.433 413.473 C 320.629 413.486 319.856 413.166 319.297 412.588 C 319.275 412.566 319.254 412.545 319.233 412.523 C 318.633 411.889 318.333 411.139 318.333 410.273 C 318.333 409.339 318.633 408.573 319.233 407.973 C 319.8 407.391 320.58 407.066 321.393 407.073 C 321.406 407.073 321.419 407.073 321.433 407.073 L 340.333 407.073 C 340.413 407.074 340.493 407.064 340.571 407.043 C 340.812 406.973 340.933 406.783 340.933 406.473 L 340.933 396.973 C 340.929 396.579 340.994 396.187 341.125 395.816 C 341.284 395.38 341.544 394.989 341.883 394.673 C 342.516 394.073 343.266 393.773 344.133 393.773 C 344.746 393.775 345.349 393.939 345.879 394.248 C 346 394.317 346.118 394.392 346.233 394.473 C 346.566 394.673 346.833 394.673 347.033 394.473 C 349.633 392.406 351.43 389.561 352.952 386.896 C 354.474 384.231 354.623 383.304 355.833 379.873 C 356.008 379.376 355.972 379.183 355.467 379.173 C 355.455 379.173 355.444 379.173 355.433 379.173 L 329.933 379.173 C 329.066 379.173 328.333 378.873 327.733 378.273 C 327.151 377.705 326.827 376.925 326.833 376.113 C 326.833 376.099 326.833 376.086 326.833 376.073 C 326.833 375.139 327.133 374.373 327.733 373.773 C 328.3 373.191 329.08 372.866 329.893 372.873 C 329.906 372.873 329.919 372.873 329.933 372.873 L 361.333 372.873 C 361.78 372.868 362.224 372.951 362.639 373.118 C 363.03 373.281 363.385 373.52 363.683 373.823 C 364.004 374.136 364.256 374.513 364.424 374.93 C 364.565 375.294 364.636 375.682 364.633 376.073 C 364.633 376.183 364.627 376.293 364.614 376.403 C 364.6 376.52 364.577 376.629 364.547 376.73 C 364.542 376.744 364.538 376.758 364.533 376.773 C 364.482 376.925 364.411 377.098 364.321 377.291 C 364.292 377.352 364.258 377.41 364.233 377.473 C 359.658 388.852 355.933 396.573 347.733 401.973 C 347.616 402.057 347.519 402.166 347.449 402.292 C 347.376 402.424 347.338 402.573 347.334 402.739 C 347.333 402.75 347.333 402.761 347.333 402.773 L 347.333 406.473 C 347.332 406.553 347.342 406.632 347.363 406.71 C 347.432 406.952 347.622 407.073 347.933 407.073 L 367.033 407.073 C 367.427 407.068 367.818 407.133 368.19 407.264 C 368.625 407.423 369.017 407.683 369.333 408.023 C 369.933 408.656 370.233 409.406 370.233 410.273 C 370.241 411.107 369.908 411.908 369.313 412.493 C 369.303 412.503 369.293 412.513 369.283 412.523 C 368.969 412.844 368.592 413.096 368.176 413.264 C 367.811 413.405 367.424 413.476 367.033 413.473 L 347.933 413.473 C 347.853 413.471 347.773 413.481 347.696 413.502 C 347.454 413.571 347.333 413.761 347.333 414.073 L 347.333 441.573 C 347.343 442.605 347.221 443.634 346.971 444.636 C 346.487 446.657 345.212 448.399 343.433 449.473 C 340.833 451.073 336.599 451.839 330.733 451.773 C 329.945 451.783 329.189 451.465 328.647 450.894 C 328.608 450.854 328.57 450.814 328.533 450.773 C 327.933 450.106 327.633 449.339 327.633 448.473 C 327.699 447.606 328.049 446.856 328.683 446.223 C 328.997 445.901 329.374 445.648 329.791 445.481 C 330.155 445.34 330.542 445.269 330.933 445.273 C 334.733 445.339 337.349 445.156 338.783 444.723 C 339.899 444.385 340.581 443.673 340.828 442.588 C 340.9 442.254 340.936 441.914 340.933 441.573 Z" id="path-1" style=""/>
</svg>