<?xml version="1.0" encoding="utf-8"?>
<svg xmlns="http://www.w3.org/2000/svg" viewBox="53.33 25.622 49.3551 82.556" width="49.3551px" height="82.556px">
  <path d="M 60.381 65.329 C 62.607 66.318 65.329 67.184 68.545 67.927 C 68.891 68.693 69.227 69.462 69.554 70.236 C 70.509 72.498 71.115 74.215 71.371 75.388 C 71.456 75.74 71.503 76.1 71.513 76.462 C 71.513 76.548 71.508 76.633 71.498 76.718 C 71.397 77.537 70.784 77.946 69.658 77.946 C 69.157 77.943 68.661 77.844 68.196 77.655 C 66.142 76.842 64.035 74.326 61.875 70.107 C 61.204 68.785 60.581 67.439 60.009 66.071 L 60.381 65.329 Z M 74.853 25.622 C 75.855 25.624 76.855 25.695 77.847 25.835 C 79.221 26.031 80.577 26.332 81.904 26.735 C 82.32 26.979 82.726 27.24 83.121 27.518 C 84.733 28.659 85.565 29.758 85.615 30.817 C 85.567 31.105 85.52 31.394 85.474 31.682 C 85.364 32.375 85.237 33.2 85.093 34.157 C 85.019 34.652 84.946 35.147 84.873 35.642 C 84.865 35.897 84.857 36.153 84.849 36.408 C 84.73 40.358 84.615 44.309 84.502 48.259 C 85.524 48.019 86.545 47.771 87.563 47.517 C 88.524 47.277 89.482 47.029 90.439 46.774 C 90.577 46.591 90.719 46.411 90.865 46.235 C 92.009 44.863 93.104 44.177 94.15 44.177 C 99.84 44.981 102.685 46.218 102.685 47.888 C 102.688 48.19 102.585 48.484 102.393 48.717 C 102.123 49.052 101.665 49.32 101.019 49.521 C 100.714 49.614 100.403 49.688 100.088 49.743 C 95.264 50.238 90.068 50.98 84.502 51.97 C 84.636 68.189 84.715 81.977 85.818 98.159 C 83.592 104.838 81.86 108.178 80.623 108.178 C 79.884 108.178 79.105 107.55 78.287 106.293 C 78.06 105.941 77.849 105.58 77.654 105.21 C 77.614 105.133 77.572 105.056 77.529 104.98 C 76.325 102.849 73.635 100.312 69.459 97.37 C 68.012 96.356 66.538 95.381 65.037 94.448 L 65.408 93.706 C 66.15 93.782 66.891 93.865 67.631 93.954 C 68.917 94.109 70.287 94.292 71.743 94.503 C 73.221 94.718 74.697 94.947 76.17 95.19 C 76.414 95.191 76.657 95.177 76.899 95.147 C 78.145 94.988 78.767 94.384 78.767 93.335 C 78.275 79.239 78.566 67.559 78.564 53.454 C 71.514 55.217 65.994 56.631 62.004 57.698 C 60.843 58.008 59.683 58.325 58.525 58.649 C 58.209 58.507 57.892 58.366 57.574 58.227 C 56.817 57.896 55.928 57.515 54.907 57.084 C 54.382 56.863 53.856 56.642 53.33 56.423 L 53.701 55.681 C 54.413 55.54 55.123 55.395 55.833 55.247 C 62.025 53.957 69.602 52.122 78.564 49.743 C 78.504 46.759 78.442 43.774 78.379 40.79 C 78.319 37.961 78.257 35.131 78.193 32.302 C 78.192 32.12 78.167 31.94 78.118 31.765 C 77.92 31.033 77.326 30.222 76.338 29.333 C 76.166 29.178 75.998 29.018 75.835 28.853 C 75.297 28.304 74.919 27.786 74.701 27.301 C 74.563 27.008 74.488 26.688 74.482 26.364 L 74.853 25.622 Z" id="path-26" vector-effect="non-scaling-stroke" transform="matrix(1, 0, 0, 1, 3.552713678800501e-15, 3.552713678800501e-15)"/>
</svg>