<?xml version="1.0" encoding="utf-8"?>
<svg xmlns="http://www.w3.org/2000/svg" viewBox="226.46 18.381 40.8212 82.383" width="40.8212px" height="82.383px">
  <path d="M 233.882 33.596 C 236.85 34.77 239.2 36.007 240.932 37.307 C 241.096 37.973 241.25 38.641 241.395 39.312 C 241.829 41.34 242.046 42.898 242.046 43.986 C 242.046 45.718 241.551 46.584 240.561 46.584 C 239.884 46.559 239.237 46.298 238.733 45.846000000000004 C 236.833 44.304 234.968 40.345 233.14 33.967 L 233.882 33.596 Z M 250.952 59.572 C 253.92 61.056 257.013 62.17 260.229 62.912 C 261.389 65.279 262.095 67.005 262.349 68.09 C 262.412 68.338 262.448 68.592 262.456 68.849 C 262.456 69.006 262.451 69.163 262.442 69.321 C 262.409 69.837 262.319 70.239 262.173 70.528 C 262.034 70.862 261.705 71.079 261.343 71.076 C 259.617 71.076 257.067 69.348 253.693 65.892 C 252.752 64.923 251.838 63.93 250.952 62.912 L 250.581 96.31 C 250.473 98.029 250.179 99.251 249.699 99.975 C 249.423 100.458 248.91 100.759 248.354 100.764 C 248.329 100.764 248.304 100.763 248.28 100.762 C 246.82 100.684 245.402 98.309 244.026 93.638 C 243.71 92.557 243.42 91.468 243.159 90.373 C 243.316 89.823 243.458 89.27 243.587 88.713 C 243.882 87.423 244.11 86.119 244.272 84.807 C 244.828 79.363 245.2 73.797 245.386 68.107 C 244.472 69.368 243.523 70.605 242.54 71.814 C 238.051 77.392 232.756 82.271 226.831 86.291 L 226.46 85.549 C 228.946 82.806 231.283 79.932 233.461 76.938 C 237.959 70.808 241.597 64.091 244.272 56.974 C 240.396 57.939 236.558 59.053 232.768 60.314 C 232.245 60.09 231.728 59.853 231.219 59.601 C 230.74 59.363 230.299 59.126 229.897 58.888 C 229.479 58.643 229.074 58.376 228.686 58.088 L 229.057 57.346 C 230.434 57.001 231.81 56.653 233.186 56.302 C 237.508 55.196 241.822 54.059 246.128 52.892 L 246.128 24.689 C 246.124 24.604 246.118 24.52 246.111 24.437 C 246.034 23.257 245.509 22.152 244.643 21.349 C 244.088 20.834 243.686 20.344 243.436 19.88 C 243.304 19.643 243.211 19.388 243.159 19.123 L 243.53 18.381 C 247.736 18.381 250.952 19.741 253.179 22.463 C 253.127 22.63 253.08 22.799 253.037 22.969 C 252.899 23.511 252.76 24.188 252.622 25.002 C 252.555 25.392 252.493 25.782 252.436 26.174 C 252.428 26.252 252.42 26.331 252.413 26.41 C 252.171 28.853 251.96 31.446 251.778 34.19 C 251.588 37.082 251.437 39.976 251.323 42.873 C 252.504 41.251 253.663 39.612 254.8 37.959 C 257.14 34.547 259.074 31.485 260.6 28.771 C 260.58 28.709 260.561 28.648 260.542 28.587 C 260.275 27.727 260.085 26.97 259.971 26.316 C 259.918 26.023 259.88 25.728 259.858 25.432 L 260.6 25.06 C 261.279 25.207 261.944 25.413 262.587 25.677 C 264.695 26.552 266.093 27.98 266.781 29.96 C 267.128 31.012 267.297 32.115 267.28 33.224 C 262.051 37.063 256.731 40.775 251.323 44.357 L 250.952 51.408 C 251.523 51.261 252.092 51.106 252.659 50.944 C 253.197 50.789 253.706 50.634 254.185 50.48 C 254.72 50.308 255.25 50.122 255.776 49.924 C 256.766 49.429 257.508 48.687 258.003 47.697 C 261.23 47.737 263.405 48.12 264.528 48.845 C 265.066 49.131 265.408 49.685 265.425 50.295 C 265.428 50.597 265.324 50.89 265.132 51.124 C 264.862 51.459 264.404 51.727 263.759 51.929 C 263.453 52.022 263.142 52.095 262.827 52.15 C 258.25 53.14 254.292 54.129 250.952 55.119 L 250.952 59.572 Z" id="path-36" vector-effect="non-scaling-stroke" transform="matrix(1, 0, 0, 1, 1.4210854715202004e-14, 0)"/>
</svg>