<?xml version="1.0" encoding="utf-8"?>
<svg viewBox="255.3699 17.633 45.2581 83.2" width="45.258" height="83.2" xmlns="http://www.w3.org/2000/svg">
  <path d="M 266.37 44.533 L 266.37 44.333 C 266.371 44.26 266.359 44.186 266.333 44.117 C 266.266 43.946 266.106 43.852 265.853 43.836 C 265.825 43.835 265.798 43.834 265.77 43.833 L 258.47 43.833 C 257.603 43.833 256.87 43.533 256.27 42.933 C 255.67 42.333 255.37 41.633 255.37 40.833 C 255.367 40.492 255.413 40.152 255.507 39.823 C 255.646 39.349 255.909 38.921 256.27 38.583 C 256.856 38.025 257.639 37.719 258.449 37.733 C 258.456 37.733 258.463 37.733 258.47 37.733 L 266.67 37.733 C 266.764 37.735 266.857 37.721 266.946 37.693 C 267.179 37.617 267.32 37.431 267.37 37.133 C 267.7 33.423 267.942 29.705 268.096 25.983 C 268.171 24.201 268.229 22.417 268.27 20.633 C 268.297 20.23 268.392 19.835 268.55 19.463 C 268.709 19.097 268.937 18.765 269.22 18.483 C 269.737 17.964 270.434 17.662 271.167 17.639 C 271.235 17.636 271.302 17.634 271.37 17.633 C 272.17 17.633 272.87 17.9 273.47 18.433 C 273.783 18.704 274.028 19.045 274.185 19.428 C 274.311 19.748 274.373 20.09 274.37 20.433 C 274.37 23.433 274.287 26.317 274.12 29.083 C 273.969 31.608 273.769 34.129 273.519 36.645 C 273.503 36.808 273.487 36.971 273.47 37.133 C 273.403 37.533 273.57 37.733 273.97 37.733 L 288.27 37.733 C 289.605 37.708 290.892 38.234 291.827 39.187 C 291.876 39.235 291.923 39.284 291.97 39.333 C 292.828 40.213 293.303 41.396 293.293 42.624 C 293.293 42.794 293.285 42.964 293.27 43.133 C 292.07 56.467 288.937 67.733 283.87 76.933 C 283.67 77.267 283.77 77.533 284.17 77.733 C 286.437 78.8 296.795 86.09 298.928 87.49 C 300.05 88.283 300.616 89.337 300.627 90.652 C 300.627 90.665 300.628 90.678 300.628 90.69 C 300.628 91.29 300.495 91.857 300.228 92.39 C 300.087 92.738 299.863 93.045 299.575 93.284 C 299.288 93.516 298.939 93.669 298.528 93.741 C 298.33 93.775 298.129 93.792 297.928 93.79 C 297.567 93.788 297.211 93.715 296.878 93.575 C 296.687 93.496 296.503 93.401 296.328 93.29 C 295.261 92.49 285.953 85.65 284.72 84.883 C 283.487 84.117 282.203 83.4 280.87 82.733 C 280.83 82.709 280.788 82.688 280.744 82.669 C 280.488 82.563 280.276 82.632 280.107 82.875 C 280.094 82.894 280.082 82.914 280.07 82.933 C 274.737 90.333 267.903 96.2 259.57 100.533 C 259.17 100.733 258.737 100.833 258.27 100.833 C 257.996 100.832 257.724 100.784 257.466 100.691 C 257.267 100.622 257.066 100.528 256.861 100.408 C 256.847 100.4 256.834 100.392 256.82 100.383 C 256.32 100.083 255.97 99.667 255.77 99.133 C 255.57 98.733 255.47 98.3 255.47 97.833 C 255.47 96.705 255.92 95.841 256.82 95.241 C 256.933 95.166 257.05 95.097 257.17 95.033 C 259.299 93.862 261.355 92.562 263.326 91.14 C 264.586 90.23 265.802 89.26 266.97 88.233 C 269.524 85.995 271.866 83.526 273.966 80.856 C 274.102 80.683 274.237 80.509 274.37 80.333 C 274.399 80.297 274.426 80.258 274.45 80.217 C 274.589 79.982 274.545 79.783 274.318 79.621 C 274.271 79.588 274.222 79.559 274.17 79.533 C 271.97 78.6 269.72 77.75 267.42 76.983 C 265.12 76.217 262.803 75.533 260.47 74.933 C 259.966 74.784 259.497 74.536 259.089 74.204 C 258.836 73.994 258.611 73.752 258.42 73.483 C 258.416 73.478 258.412 73.473 258.408 73.467 C 258.119 73.06 257.915 72.636 257.796 72.194 C 257.712 71.881 257.669 71.558 257.67 71.233 C 257.672 70.89 257.722 70.549 257.819 70.219 C 257.896 69.949 258.004 69.672 258.142 69.39 C 258.151 69.371 258.161 69.352 258.17 69.333 C 260.17 65.733 261.837 61.85 263.17 57.683 C 264.503 53.517 265.57 49.133 266.37 44.533 Z M 286.57 43.833 L 273.17 43.833 C 272.77 43.833 272.537 44.067 272.47 44.533 C 271.826 48.499 270.967 52.427 269.899 56.299 C 268.568 61.071 266.958 65.382 265.07 69.233 C 265.049 69.275 265.031 69.317 265.015 69.36 C 264.895 69.69 265.013 69.915 265.37 70.033 C 267.303 70.633 269.303 71.317 271.37 72.083 C 273.437 72.85 275.503 73.7 277.57 74.633 C 277.89 74.762 278.149 74.675 278.346 74.371 C 278.354 74.359 278.362 74.346 278.37 74.333 C 281.103 69.533 283.12 64.567 284.42 59.433 C 285.43 55.477 286.203 51.464 286.734 47.415 C 286.862 46.423 286.974 45.429 287.07 44.433 C 287.081 44.402 287.09 44.37 287.097 44.337 C 287.172 44.007 287.003 43.839 286.592 43.833 C 286.585 43.833 286.577 43.833 286.57 43.833 Z" id="path-5" transform="matrix(1, 0, 0, 1, 0, -5.684341886080802e-14)"/>
</svg>