<?xml version="1.0" encoding="utf-8"?>
<svg viewBox="144.6776 19.2757 53.2766 79.723" width="53.277" height="79.723" xmlns="http://www.w3.org/2000/svg">
  <path d="M 162.464 57.676 L 157.164 57.676 C 156.418 57.685 155.678 57.54 154.991 57.251 C 154.359 56.975 153.789 56.575 153.314 56.076 C 152.281 55.009 151.764 53.743 151.764 52.276 L 151.764 24.676 C 151.755 23.93 151.9 23.191 152.189 22.504 C 152.465 21.872 152.865 21.302 153.364 20.826 C 154.431 19.793 155.697 19.276 157.164 19.276 L 190.764 19.276 C 191.481 19.268 192.193 19.398 192.861 19.658 C 193.519 19.923 194.116 20.321 194.614 20.826 C 195.623 21.823 196.182 23.187 196.163 24.605 C 196.163 24.629 196.164 24.652 196.164 24.676 L 196.164 52.276 C 196.164 53.743 195.647 55.009 194.614 56.076 C 193.649 57.094 192.309 57.672 190.907 57.675 C 190.859 57.676 190.812 57.676 190.764 57.676 L 182.864 57.676 C 182.784 57.675 182.704 57.685 182.626 57.706 C 182.385 57.775 182.264 57.965 182.264 58.276 L 182.264 87.376 C 182.264 89.391 182.711 90.818 183.605 91.659 C 183.687 91.736 183.774 91.808 183.864 91.876 C 184.931 92.676 185.835 92.755 188.502 92.755 C 190.455 92.755 192.066 91.166 192.954 89.699 C 193.103 89.453 193.417 89.36 193.672 89.228 C 194.099 89.009 194.527 88.899 194.954 88.899 C 195.548 88.901 196.127 89.09 196.608 89.439 C 196.803 89.576 196.986 89.73 197.154 89.899 C 197.644 90.45 197.925 91.156 197.948 91.894 C 197.952 91.962 197.954 92.031 197.954 92.099 C 197.959 92.51 197.884 92.919 197.734 93.302 C 197.562 93.723 197.201 94.017 196.954 94.399 C 195.633 96.444 193.424 97.944 192.446 98.27 C 191.546 98.57 190.397 98.911 189.33 98.943 C 189.054 98.951 188.778 98.955 188.502 98.955 C 186.789 98.975 186.041 99.118 184.369 98.747 C 179.759 97.66 177.045 94.902 176.228 90.473 C 176.046 89.451 175.958 88.414 175.964 87.376 L 175.964 58.276 C 175.965 58.196 175.955 58.116 175.934 58.039 C 175.865 57.797 175.675 57.676 175.364 57.676 L 169.964 57.676 C 169.884 57.675 169.804 57.685 169.726 57.706 C 169.485 57.775 169.364 57.965 169.364 58.276 C 169.031 64.943 168.131 70.626 166.664 75.326 C 166.019 77.418 165.234 79.465 164.315 81.452 C 163.382 83.478 162.26 85.411 160.964 87.226 C 158.631 90.459 154.977 94.167 152.893 95.775 C 150.809 97.383 150.706 97.73 148.378 98.639 C 148.311 98.661 148.242 98.678 148.173 98.69 C 148.031 98.715 147.859 98.731 147.658 98.737 C 147.598 98.738 147.538 98.739 147.478 98.739 C 146.827 98.74 146.2 98.5 145.716 98.065 C 145.651 98.009 145.588 97.95 145.528 97.889 C 145.096 97.454 144.815 96.892 144.727 96.285 C 144.693 96.071 144.677 95.855 144.678 95.639 C 144.671 95.167 144.754 94.699 144.923 94.259 C 145.176 93.626 145.626 93.119 146.273 92.737 C 146.467 92.623 146.684 92.554 146.878 92.439 C 148.988 91.182 150.032 89.861 151.625 88.369 C 152.292 87.745 153.606 86.186 154.153 85.482 C 156.217 82.829 157.524 81.325 158.898 78.258 C 159.393 77.17 159.833 76.058 160.214 74.926 C 160.934 72.766 161.503 70.558 161.916 68.319 C 162.349 66.026 162.673 63.569 162.886 60.95 C 162.959 60.06 163.018 59.168 163.064 58.276 C 163.065 58.196 163.055 58.116 163.034 58.039 C 162.965 57.797 162.775 57.676 162.464 57.676 Z M 158.564 51.476 L 189.264 51.476 C 189.344 51.477 189.424 51.468 189.501 51.447 C 189.743 51.378 189.864 51.187 189.864 50.876 L 189.864 26.076 C 189.865 25.996 189.855 25.916 189.834 25.839 C 189.765 25.597 189.575 25.476 189.264 25.476 L 158.564 25.476 C 158.484 25.475 158.404 25.485 158.326 25.506 C 158.085 25.575 157.964 25.765 157.964 26.076 L 157.964 50.876 C 157.963 50.956 157.972 51.036 157.993 51.114 C 158.062 51.355 158.253 51.476 158.564 51.476 Z" id="path-3" transform="matrix(1, 0, 0, 1, 0, -5.684341886080802e-14)"/>
</svg>