<?xml version="1.0" encoding="utf-8"?>
<svg xmlns="http://www.w3.org/2000/svg" viewBox="149.759 137.777 49.3551 82.556" width="49.3551px" height="82.556px">
  <path d="M 156.81 178.013 C 159.036 179.002 161.758 179.868 164.974 180.611 C 165.32 181.377 165.656 182.146 165.983 182.92 C 166.938 185.182 167.544 186.899 167.8 188.072 C 167.885 188.424 167.932 188.784 167.942 189.146 C 167.942 189.232 167.937 189.317 167.927 189.402 C 167.826 190.221 167.213 190.63 166.087 190.63 C 165.586 190.627 165.09 190.528 164.625 190.339 C 162.571 189.526 160.464 187.01 158.304 182.791 C 157.633 181.469 157.01 180.123 156.438 178.755 L 156.81 178.013 Z M 173.503 137.777 C 174.505 137.779 175.505 137.85 176.497 137.99 C 177.871 138.186 179.227 138.487 180.554 138.89 C 180.97 139.134 181.376 139.395 181.771 139.673 C 183.383 140.814 184.215 141.913 184.265 142.972 C 184.217 143.26 184.17 143.549 184.124 143.837 C 184.014 144.53 183.887 145.355 183.743 146.312 C 183.669 146.807 183.596 147.302 183.523 147.797 C 183.515 148.052 183.507 148.308 183.499 148.563 C 183.38 152.513 183.265 156.464 183.152 160.414 C 184.174 160.174 185.911 159.713 186.868 159.458 C 187.006 159.275 187.148 159.095 187.294 158.919 C 188.438 157.547 189.533 156.861 190.579 156.861 C 196.269 157.665 199.114 158.902 199.114 160.572 C 199.117 160.874 199.014 161.168 198.822 161.401 C 198.552 161.736 198.094 162.004 197.448 162.205 C 197.143 162.298 196.832 162.372 196.517 162.427 C 191.693 162.922 188.718 163.135 183.152 164.125 C 183.286 180.344 183.365 194.132 184.468 210.314 C 182.242 216.993 180.51 220.333 179.273 220.333 C 178.534 220.333 177.755 219.705 176.937 218.448 C 176.71 218.096 176.499 217.735 176.304 217.365 C 176.264 217.288 176.222 217.211 176.179 217.135 C 174.975 215.004 172.285 212.467 168.109 209.525 C 166.662 208.511 165.188 207.536 163.687 206.603 L 164.058 205.861 C 164.8 205.937 165.541 206.02 166.281 206.109 C 167.567 206.264 168.937 206.447 170.393 206.658 C 171.871 206.873 173.347 207.102 174.82 207.345 C 175.064 207.346 175.307 207.332 175.549 207.302 C 176.795 207.143 177.417 206.539 177.417 205.49 C 176.925 191.394 177.216 179.714 177.214 165.609 C 170.164 167.372 162.423 169.315 158.433 170.382 C 157.272 170.692 156.112 171.009 154.954 171.333 C 154.638 171.191 154.321 171.05 154.003 170.911 C 153.246 170.58 152.357 170.199 151.336 169.768 C 150.811 169.547 150.285 169.326 149.759 169.107 L 150.13 168.365 C 150.842 168.224 151.552 168.079 152.262 167.931 C 158.454 166.641 168.252 164.277 177.214 161.898 C 177.154 158.914 177.092 155.929 177.029 152.945 C 176.969 150.116 176.907 147.286 176.843 144.457 C 176.842 144.275 176.817 144.095 176.768 143.92 C 176.57 143.188 175.976 142.377 174.988 141.488 C 174.816 141.333 174.648 141.173 174.485 141.008 C 173.947 140.459 173.569 139.941 173.351 139.456 C 173.213 139.163 173.138 138.843 173.132 138.519 L 173.503 137.777 Z" id="path-26" vector-effect="non-scaling-stroke" transform="matrix(1, 0, 0, 1, -1.4210854715202004e-14, 0)"/>
</svg>