<?xml version="1.0" encoding="utf-8"?>
<svg xmlns="http://www.w3.org/2000/svg" viewBox="35.717 337.129 51.12 83.867" width="51.12px" height="83.867px">
  <path d="M 51.658 337.129 C 56.422 338.18 59.632 340.401 59.632 343.555 C 59.262 350.223 59.078 356.907 59.082 363.594 C 59.513 363.457 59.943 363.32 60.374 363.184 C 61.645 362.781 62.85 362.4 63.991 362.042 C 65.103 361.692 65.386 361.225 66.499 360.879 C 67.224 360.701 67.948 360.139 68.672 359.195 C 68.977 358.793 69.261 358.364 69.523 357.91 C 70.134 358.035 70.743 358.18 71.349 358.345 C 73.647 358.974 75.2 359.758 76.009 360.697 C 76.403 361.089 76.646 361.702 76.668 362.363 C 76.67 362.665 76.594 362.958 76.452 363.192 C 76.252 363.527 75.912 363.795 75.435 363.997 C 75.208 364.09 74.978 364.163 74.745 364.218 C 73.29 364.442 71.837 364.681 70.386 364.935 C 68.049 365.343 65.851 365.771 63.794 366.219 C 61.941 366.618 60.922 367.182 59.082 367.676 L 59.082 369.532 C 61.19 372.938 62.573 376.108 64.883 379.268 C 72.201 389.242 79.52 396.224 86.837 400.215 L 86.563 400.957 C 85.384 401.14 84.205 401.303 83.024 401.444 C 79.631 401.854 76.226 402.063 72.821 402.07 C 67.879 392.75 63.614 384.649 58.845 375.168 C 58.846000000000004 381.971 59.106 387.592 59.151 394.395 C 59.199 401.817 59.268 409.239 59.356 416.661 C 59.277 418.38 59.059 419.601 58.704 420.325 C 58.499 420.808 57.292 420.991 56.88 420.996 C 55.551 420.996 54.085 418.027 52.482 412.09 C 52.485 411.842 52.495 411.594 52.515 411.348 C 52.582 410.438 52.753 409.065 53.027 407.228 C 53.117 406.621 53.211 406.015 53.307 405.41 C 53.361 402.554 53.409 399.699 53.452 396.843 C 53.539 390.826 53.464 385.985 53.464 381.138 C 48.654 390.353 43 397.679 36.268 404.297 L 35.717 403.554 C 35.725 403.543 35.732 403.533 35.741 403.523 C 39.574 398.253 43.408 391.179 47.243 382.299 C 49.104 377.964 50.851 373.543 52.482 369.043 C 48.681 370.017 44.92 371.256 41.214 372.754 C 40.251 372.506 39.061 371.764 37.641 370.527 L 37.916 369.785 C 39.967 369.286 42.011 368.741 44.048 368.15 C 47.25 367.223 50.429 366.16 53.582 364.961 C 53.582 355.111 53.522 348.692 53.401 345.702 C 53.384 345.193 53.353 344.684 53.307 344.179 C 53.284 343.549 53.173 342.93 52.978 342.358 C 52.783 341.799 52.523 341.286 52.208 340.84 C 52.074 340.617 51.947 340.388 51.826 340.154 C 51.523 339.57 51.317 339.051 51.206 338.597 C 51.144 338.363 51.111 338.118 51.108 337.871 L 51.658 337.129 Z" id="path-36" vector-effect="non-scaling-stroke" style="" transform="matrix(0.9999999999999999, 0, 0, 0.9999999999999999, -2.842170943040401e-14, 0)"/>
</svg>