<?xml version="1.0" encoding="utf-8"?>
<svg xmlns="http://www.w3.org/2000/svg" viewBox="260.266 12.918 54.3427 78.2445" width="54.3427px" height="78.2445px">
  <path d="M 291.791 40.774 C 292.062 40.803 292.334 40.843 292.603 40.893 C 293.391 41.042 294.101 41.279 294.737 41.603 C 295.765 42.103 296.663 42.951 297.332 44.052 C 298.23 43.853 299.126 43.648 300.021 43.437 C 300.865 43.239 301.706 43.034 302.548 42.823 C 302.615 42.79 302.683 42.755 302.749 42.719 C 303.742 42.192 304.545 41.543 305.156 40.774 C 306.17 41.079 307.176 41.418 308.176 41.791 C 311.043 42.873 312.951 43.994 313.902 45.158 C 314.32 45.598 314.575 46.235 314.608 46.92 C 314.618 47.315 314.525 47.702 314.34 48.022 C 314.066 48.48 313.581 48.77 312.886 48.896 C 312.593 48.946 312.297 48.971 312 48.967 C 311.083 48.901 310.166 48.845 309.248 48.799 C 307.655 48.717 305.953 48.656 304.144 48.615 C 302.309 48.577 300.472 48.557 298.637 48.558 C 297.116 52.996 295.485 57.058 293.746 60.745 C 292.116 64.239 290.263 67.562 288.206 70.679 C 290.597 72.085 292.949 73.588 295.263 75.187 C 297.644 76.83 299.966 78.606 302.222 80.511 C 303.961 82.969 304.829 85.837 304.829 89.114 C 304.829 89.242 304.825 89.369 304.817 89.495 C 304.761 90.299 304.52 90.811 304.096 91.034 C 303.914 91.124 303.721 91.168 303.526 91.162 C 302.933 91.16 302.347 91.008 301.802 90.715 C 300.833 90.206 299.887 89.263 298.963 87.885 C 298.947 87.862 298.931 87.837 298.915 87.813 C 296.089 83.532 291.759 78.913 285.923 73.957 C 282.562 77.733 279.177 80.909 275.767 83.486 C 272.122 86.286 268.192 88.456 264.085 89.934 L 263.758 89.114 C 268.281 85.866 272.195 82.486 275.498 78.974 C 277.877 76.479 280.058 73.701 282.012 70.679 C 281.436 70.266 280.859 69.857 280.28 69.451 C 278.481 68.19 276.668 66.96 274.841 65.764 C 274.529 65.96 274.104 66.086 273.568 66.141 C 273.34 66.163 273.113 66.174 272.885 66.173 C 272.179 66.173 271.76 65.543 271.627 64.28 C 271.595 63.958 271.58 63.632 271.582 63.306 C 272.157 61.781 272.703 60.237 273.218 58.677 C 273.786 56.956 274.327 55.222 274.841 53.474 C 270.93 54.43 268.198 55.369 264.504 56.598 L 262.873 55.369 C 262.028 54.646 262.391 55.07 261.57 54.14 L 260.266 53.321 L 260.591 52.502 C 262.017 52.164 263.443 51.831 264.87 51.504 C 268.978 50.559 272.022 49.815 276.144 48.967 C 277.014 45.986 277.865 42.996 278.698 39.998 C 280.439 33.742 282.086 27.446 283.642 21.111 C 283.642 21.009 283.639 20.907 283.633 20.804 C 283.601 20.274 283.492 19.647 283.305 18.921 C 283.21 18.555 283.105 18.191 282.989 17.834 C 282.989 17.832 282.988 17.829 282.987 17.826 C 282.702 17.142 282.481 16.47 282.322 15.812 C 282.121 15.009 282.017 14.171 282.012 13.328 L 282.664 12.918 C 283.462 13.098 284.245 13.367 285.004 13.721 C 287.741 14.934 289.881 17.658 290.812 21.111 L 289.184 25.208 C 286.466 32.923 283.86 40.433 281.361 47.739 C 283.873 47.227 286.173 46.714 288.261 46.202 C 289.441 45.914 290.617 45.607 291.791 45.28 C 291.784 45.249 291.776 45.217 291.769 45.185 C 291.456 43.797 291.26 42.703 291.18 41.901 C 291.155 41.664 291.142 41.424 291.14 41.184 L 291.791 40.774 Z M 283.967 67.812 C 284.168 67.48 284.365 67.145 284.56 66.806 C 287.534 61.605 289.864 55.867 291.465 49.787 C 290.85 49.9 290.234 50.016 289.618 50.133 C 285.921 50.837 282.625 51.541 279.73 52.245 C 279.568 52.704 279.406 53.163 279.241 53.622 C 278.132 56.731 276.991 59.823 275.819 62.896 L 283.967 67.812 Z" id="path-32" vector-effect="non-scaling-stroke" style=""/>
</svg>