<?xml version="1.0" encoding="utf-8"?>
<svg xmlns="http://www.w3.org/2000/svg" viewBox="292.885 1315.25 46.758 30.0601" width="46.758px" height="30.0601px">
  <path d="M 293.627 1320.81 C 294.118 1320.83 294.609 1320.87 295.098 1320.92 C 296.11 1321.04 297.108 1321.25 298.08 1321.56 C 299.219 1321.43 300.357 1321.3 301.495 1321.16 C 309.207 1320.22 316.863 1318.87 324.428 1317.1 C 324.909 1316.93 325.392 1316.76 325.875 1316.59 C 327.881 1315.89 329.232 1315.47 329.93 1315.31 C 330.072 1315.28 330.218 1315.25 330.365 1315.25 C 336.55 1318.03 339.643 1319.88 339.643 1320.81 C 339.639 1321.04 339.588 1321.26 339.495 1321.47 C 339.244 1322.05 338.675 1322.7 337.787 1323.41 C 337.52 1324.16 337.25 1324.92 336.975 1325.67 C 335.261 1330.35 333.181 1335.54 330.736 1341.22 C 330.44 1342.06 329.756 1342.69 328.903 1342.93 C 328.533 1343.03 328.151 1343.08 327.768 1343.08 C 327.749 1343.08 327.731 1343.08 327.713 1343.08 C 327.142 1343.06 326.429 1342.68 325.575 1341.95 C 325.307 1341.72 325.048 1341.47 324.799 1341.22 C 318.49 1341.84 312.181 1342.71 305.873 1343.82 C 305.748 1344.49 305.484 1344.93 305.08 1345.14 C 304.866 1345.26 304.629 1345.31 304.389 1345.31 C 304.114 1345.31 303.839 1345.29 303.567 1345.25 C 302.487 1345.11 301.609 1344.68 300.932 1343.95 C 300.504 1343.48 300.167 1342.93 299.936 1342.34 C 298.915 1339.28 297.616 1335.24 296.039 1330.23 C 295.479 1328.45 294.923 1326.67 294.369 1324.89 C 294.208 1324.59 294.051 1324.29 293.898 1323.98 C 293.222 1322.63 292.885 1321.69 292.885 1321.18 L 293.627 1320.81 Z M 305.131 1340.48 C 308.619 1339.77 312.114 1339.09 315.614 1338.44 C 318.793 1337.85 321.979 1337.29 325.17 1336.77 C 325.547 1335.71 325.915 1334.65 326.273 1333.58 C 327.04 1331.29 327.716 1329.12 328.301 1327.06 C 328.786 1325.36 329.226 1323.65 329.623 1321.93 C 329.626 1321.69 329.599 1321.46 329.544 1321.24 C 329.341 1320.46 328.749 1320.07 327.768 1320.07 C 318.366 1321.56 309.213 1323.04 300.307 1324.52 L 305.131 1340.48 Z" id="path-99" vector-effect="non-scaling-stroke" transform="matrix(1, 0, 0, 0.9999999999999999, 0, 2.2737367544323206e-13)"/>
</svg>