<?xml version="1.0" encoding="utf-8"?>
<svg xmlns="http://www.w3.org/2000/svg" viewBox="42.115 185.181 41.1911 38.223" width="41.1911px" height="38.223px">
  <path d="M 68.834 204.107 C 72.485 205.964 76.198 207.696 79.966 209.302 C 79.98 209.33 79.995 209.358 80.009 209.385 C 81.74 212.758 82.79 215.145 83.158 216.547 C 83.245 216.846 83.294 217.155 83.306 217.466 C 83.307 217.71 83.293 217.954 83.263 218.196 C 83.104 219.442 82.5 220.064 81.451 220.064 C 81.187 220.06 80.926 220.01 80.679 219.917 C 79.267 219.413 77.421 217.606 75.142 214.498 C 65.989 216.724 57.454 219.074 49.537 221.548 C 48.167 222.462 47.067 223.038 46.236 223.277 C 45.983 223.355 45.72 223.398 45.455 223.404 C 44.712 223.404 43.599 221.301 42.115 217.095 C 42.126 217.089 42.136 217.082 42.147 217.075 C 44.912 215.291 46.633 213.813 47.31 212.642 C 47.527 212.255 47.741 211.867 47.952 211.477 C 51.194 205.459 53.838 199.138 55.845 192.603 C 56.046 191.347 56.166 190.459 56.203 189.937 C 56.211 189.836 56.215 189.735 56.216 189.634 C 55.783 188.336 55.536 187.099 55.474 185.923 L 56.216 185.181 C 57.152 185.614 58.046 186.134 58.884 186.735 C 61.143 188.291 62.713 190.659 63.267 193.345 C 59.309 201.015 55.227 208.437 51.021 215.611 C 51.46 215.545 51.9 215.478 52.339 215.41 C 58.567 214.456 65.55 213.286 73.287 211.9 C 72.301 210.52 71.385 209.21 70.539 207.969 C 69.834 206.938 69.142 205.898 68.463 204.849 L 68.834 204.107 Z" id="path-2" vector-effect="non-scaling-stroke" transform="matrix(0.9999999999999999, 0, 0, 0.9999999999999999, 0, -2.842170943040401e-14)"/>
</svg>