<?xml version="1.0" encoding="utf-8"?>
<svg xmlns="http://www.w3.org/2000/svg" viewBox="165.207 176.1 50.9264 42.226" width="50.9264px" height="42.226px">
  <path d="M 193.58 176.1 C 196.834 178.575 199.854 181.127 202.642 183.756 C 205.299 186.245 208.188 188.957 210.64 191.877 C 211.052 192.655 211.453 193.446 211.841 194.249 C 213.54 197.768 214.932 200.805 215.566 203.664 C 215.924 205.198 216.115 206.807 216.133 208.43 C 216.134 208.54 216.133 208.65 216.13 208.759 C 216.111 209.722 216.006 210.482 215.815 211.033 C 215.593 211.744 214.551 212.33 214.028 212.295 C 213.262 212.295 212.338 211.445 211.256 209.744 C 210.927 209.223 210.611 208.678 210.31 208.116 C 205.277 198.265 199.899 188.816 194.2 179.811 C 194.142 179.707 194.085 179.606 194.029 179.5 C 193.317 178.19 192.961 177.209 192.961 176.563 L 193.58 176.1 Z M 180.388 176.1 C 180.774 176.1 181.16 176.11 181.545 176.133 C 183.904 176.279 185.785 176.877 187.188 177.932 C 188.516 178.834 190.533 180.524 190.993 182.596 C 190.638 183.021 190.234 183.592 189.781 184.311 C 189.561 184.66 189.346 185.016 189.134 185.378 C 186.869 190.588 184.303 195.49 181.467 200.026 C 177.666 206.084 172.49 211.59 167.995 216.471 C 167.754 216.678 167.512 216.881 167.267 217.078 C 166.534 217.675 165.951 218.091 165.518 218.326 L 165.207 217.397 L 167.686 213.686 C 170.148 209.717 172.419 205.49 174.48 201.038 C 177.148 195.311 179.341 189.119 181.008 182.596 C 181.058 182.189 181.11 181.782 181.163 181.378 C 181.212 181.01 181.264 180.641 181.318 180.275 C 181.267 179.734 181.163 179.27 181.008 178.882 C 180.848 178.699 180.701 178.494 180.566 178.27 C 180.349 177.909 180.183 177.488 180.079 177.027 L 180.388 176.1 Z" id="path-5" vector-effect="non-scaling-stroke" style="" transform="matrix(0.9999999999999999, 0, 0, 0.9999999999999999, 0, -2.842170943040401e-14)"/>
</svg>