<?xml version="1.0" encoding="utf-8"?>
<svg xmlns="http://www.w3.org/2000/svg" viewBox="115.278 111.9 47.514 39.1321" width="47.514px" height="39.1321px">
  <path d="M 116.02 115.929 L 115.278 116.671 C 115.284 116.996 115.359 117.315 115.497 117.608 C 115.715 118.094 116.093 118.611 116.631 119.16 C 116.794 119.326 116.961 119.486 117.133 119.64 C 117.323 119.903 117.513 120.166 117.702 120.429 C 118.236 121.171 118.665 121.774 118.989 122.238 C 120.898 129.708 121.097 131.027 122.62 138.584 C 123.151 141.209 123.662 143.838 124.151 146.47 C 125.635 149.439 126.562 151.032 128.788 151.032 C 129.265 151.038 129.699 150.758 129.889 150.32 C 130.115 149.888 130.243 149.26 130.272 148.434 C 137.333 146.958 139.124 147.16 139.895 147.132 C 144.405 146.968 145.67 146.665 149.088 146.667 C 151.422 146.619 152.838 146.226 153.337 145.49 C 153.473 145.291 153.544 145.054 153.541 144.812 C 153.541 144.266 153.474 143.853 153.34 143.574 C 153.298 143.483 153.24 143.4 153.17 143.327 C 156.319 134.193 157.535 130.486 160.195 121.388 C 160.519 121.158 160.836 120.917 161.143 120.665 C 162.045 119.923 162.577 119.287 162.739 118.755 C 162.773 118.647 162.791 118.534 162.792 118.42 C 162.751 118.033 162.583 117.67 162.313 117.389 C 161.292 116.127 161.496 115.243 157.214 112.933 C 156.565 112.584 155.913 112.239 155.258 111.9 C 153.592 112.669 151.85 113.263 150.061 113.672 C 149.938 113.701 149.815 113.729 149.691 113.755 C 138.559 115.673 141.036 115.591 123.223 117.385 C 122.373 117.388 121.523 117.318 120.684 117.176 C 120.416 117.131 120.149 117.077 119.883 117.014 C 118.028 116.148 117.628 116.053 116.02 115.929 Z M 153.031 118.58 L 153.773 119.693 C 151.795 128.971 151.017 131.953 149.037 140.735 C 142.021 141.586 141.364 142.628 130.272 144.723 C 127.675 135.075 126.44 131.115 124.337 121.467 C 139.243 119.735 137.507 120.064 153.031 118.58 Z M 133.903 124.608 C 134.547 124.882 135.15 125.261 135.824 125.454 C 139.155 126.408 140.6 127.567 142.295 128.709 C 143.358 130.002 143.88 131.626 143.759 133.263 C 143.745 133.397 143.728 133.531 143.708 133.664 C 143.42 135.552 142.568 136.663 141.152 136.998 C 140.619 137.115 140.066 137.14 139.522 137.073 C 139.265 137.047 139.015 136.981 138.777 136.878 C 138.068 136.567 137.495 135.912 137.062 134.91 C 136.889 134.5 136.746 134.079 136.636 133.65 C 136.623 133.595 136.608 133.542 136.594 133.488 C 135.547 129.549 136.927 130.878 133.2 125.67 L 133.903 124.608 Z" id="path-7" vector-effect="non-scaling-stroke"/>
</svg>