<?xml version="1.0" encoding="utf-8"?>
<svg xmlns="http://www.w3.org/2000/svg" viewBox="19.422 274.377 51.702 39.1321" width="51.702px" height="39.1321px">
  <path d="M 20.164 278.006 L 19.422 278.748 C 19.428 279.073 19.503 279.392 19.641 279.685 C 19.859 280.171 20.237 280.688 20.775 281.237 C 20.938 281.403 21.105 281.563 21.277 281.717 C 21.467 281.98 21.657 282.243 21.846 282.506 C 22.38 283.248 22.809 283.851 23.133 284.315 C 25.042 291.785 25.644 293.613 27.167 301.17 C 27.698 303.795 28.209 306.424 28.698 309.056 C 30.182 312.025 32.038 313.509 34.264 313.509 C 34.741 313.515 35.175 313.235 35.365 312.797 C 35.591 312.365 35.719 311.737 35.748 310.911 C 42.809 309.435 44.081 310.032 44.852 310.024 C 48.362 309.987 53.326 309.518 56.744 309.52 C 59.078 309.472 60.494 309.079 60.993 308.343 C 61.129 308.144 61.2 307.907 61.197 307.665 C 61.197 307.119 61.13 306.706 60.996 306.427 C 60.954 306.336 60.896 306.253 60.826 306.18 C 63.975 297.046 65.491 293.94 68.527 284.767 C 68.851 284.537 69.168 284.296 69.475 284.044 C 70.377 283.302 70.909 282.666 71.071 282.134 C 71.105 282.026 71.123 281.913 71.124 281.799 C 71.083 281.412 70.915 281.049 70.645 280.768 C 69.624 279.506 66.972 277.72 62.69 275.41 C 62.041 275.061 61.389 274.716 60.734 274.377 C 59.068 275.146 57.326 275.74 55.537 276.149 C 55.414 276.178 55.291 276.206 55.167 276.232 C 44.035 278.15 46.512 278.068 28.699 279.862 C 27.849 279.865 26.999 279.795 26.16 279.653 C 25.892 279.608 25.625 279.554 25.359 279.491 C 23.504 278.625 21.772 278.13 20.164 278.006 Z M 58.507 281.057 L 59.249 282.17 C 57.271 291.448 56.869 294.43 54.889 303.212 C 47.873 304.063 46.84 305.105 35.748 307.2 C 33.151 297.552 31.916 293.592 29.813 283.944 C 44.719 282.212 42.983 282.541 58.507 281.057 Z M 39.379 287.085 C 40.023 287.359 40.626 287.738 41.3 287.931 C 44.631 288.885 46.076 290.044 47.771 291.186 C 48.834 292.479 49.356 294.103 49.235 295.74 C 49.221 295.874 49.204 296.008 49.184 296.141 C 48.896 298.029 48.044 299.14 46.628 299.475 C 46.095 299.592 45.542 299.617 44.998 299.55 C 44.741 299.524 44.491 299.458 44.253 299.355 C 43.544 299.044 42.971 298.389 42.538 297.387 C 42.365 296.977 42.222 296.556 42.112 296.127 C 42.099 296.072 42.084 296.019 42.07 295.965 C 41.023 292.026 42.403 293.355 38.676 288.147 L 39.379 287.085 Z" id="path-7" vector-effect="non-scaling-stroke" transform="matrix(1, 0, 0, 1, 0, -2.842170943040401e-14)"/>
</svg>