<?xml version="1.0" encoding="utf-8"?>
<svg xmlns="http://www.w3.org/2000/svg" viewBox="158.447 227.459 54.033 38.767" width="54.033px" height="38.767px">
  <path d="M 169.882 230.428 L 169.881 230.428 C 170.549 230.528 171.208 230.684 171.85 230.895 C 172.597 231.139 173.308 231.481 173.964 231.912 C 175.034 231.729 176.101 231.528 177.164 231.309 C 180.22 230.686 183.24 229.897 186.21 228.944 C 186.905 228.558 187.553 228.219 188.152 227.929 C 188.49 227.765 188.833 227.608 189.178 227.459 C 190.008 227.695 190.831 227.952 191.647 228.232 C 194.026 229.054 195.608 229.877 196.393 230.699 C 196.737 231.013 196.944 231.448 196.971 231.912 C 196.969 232.03 196.948 232.147 196.908 232.257 C 196.751 232.725 196.3 233.338 195.557 234.098 C 195.294 234.367 195.023 234.628 194.745 234.881 C 193.013 246.138 192.588 248.166 192.588 253.98 C 192.571 254.974 192.93 255.937 193.593 256.677 C 193.949 257.073 194.361 257.414 194.815 257.691 C 195.275 257.962 195.766 258.176 196.278 258.328 C 196.817 258.494 197.414 258.616 198.068 258.695 C 198.713 258.771 199.43 258.793 201.718 258.051 C 202.637 257.745 203.4 257.098 204.009 256.112 C 204.279 255.668 204.506 255.199 204.687 254.711 C 205.122 253.503 205.594 251.125 206.105 247.576 C 206.26 246.492 206.406 245.407 206.542 244.32 L 207.656 244.691 C 208.147 248.938 208.89 253.151 209.882 257.308 C 210.189 257.625 210.484 257.951 210.768 258.288 C 211.471 259.128 211.958 259.889 212.228 260.573 C 212.386 260.95 212.471 261.353 212.48 261.761 C 212.48 262.202 212.33 262.63 212.055 262.974 C 211.501 263.695 210.406 264.28 208.769 264.73 C 208.461 264.808 208.149 264.873 207.835 264.924 C 206.217 265.197 203.649 265.186 200.191 265.012 C 198.929 264.949 197.35 264.618 194.073 263.628 C 193.029 263.302 192.123 262.892 191.354 262.397 C 190.008 261.576 188.998 260.302 188.506 258.804 C 187.984 257.108 187.646 254.892 187.491 252.156 C 187.423 250.91 187.391 249.662 187.393 248.413 C 187.394 246.95 187.516 236.657 187.694 233.768 L 186.952 233.026 C 184.107 233.459 181.262 234.077 178.417 234.881 C 178.632 235.024 178.811 235.215 178.939 235.439 C 179.038 235.613 179.112 235.8 179.159 235.994 C 178.234 242.481 178.702 241.175 177.006 245.419 C 176.177 247.492 175.292 249.54 174.033 251.382 C 172.658 253.314 171.163 255.158 169.557 256.903 C 166.326 260.391 162.726 263.517 158.819 266.226 L 158.447 265.483 C 160.032 263.595 161.532 261.638 162.944 259.616 C 165.523 255.91 167.561 252.254 169.06 248.649 C 171.065 244.002 170.471 245.619 171.737 240.448 L 171.737 236.366 C 171.738 236.062 171.719 235.758 171.679 235.456 C 171.58 234.732 171.352 234.17 170.995 233.768 C 170.988 233.76 170.98 233.752 170.973 233.743 C 170.274 232.954 169.826 232.29 169.628 231.751 C 169.555 231.566 169.515 231.369 169.51 231.17 L 169.882 230.428 Z" id="path-8" vector-effect="non-scaling-stroke" transform="matrix(0.9999999999999999, 0, 0, 0.9999999999999999, 3.552713678800501e-15, -3.552713678800501e-15)"/>
</svg>