<?xml version="1.0" encoding="utf-8"?>
<svg xmlns="http://www.w3.org/2000/svg" viewBox="220.379 222.221 50.8369 33.959" width="50.8369px" height="33.959px">
  <path d="M 228.144 228.158 C 229.571 227.975 230.995 227.776 232.418 227.563 C 238.344 226.684 244.224 225.52 250.038 224.076 C 250.672 223.918 251.306 223.608 251.94 223.144 C 252.319 222.865 252.676 222.556 253.007 222.221 C 258.697 223.025 261.542 224.386 261.542 226.303 C 261.557 226.729 261.388 227.14 261.077 227.43 C 260.712 227.77 260.132 227.991 259.337 228.093 C 258.96 228.139 258.581 228.161 258.202 228.158 C 256.873 228.158 255.544 228.182 254.216 228.231 C 251.454 228.329 248.698 228.552 245.956 228.901 C 246.07 229.023 246.18 229.149 246.284 229.278 C 246.979 230.115 247.385 231.154 247.441 232.24 C 247.328 232.863 247.221 233.487 247.12 234.112 C 246.516 237.792 246.037 245.354 245.866 249.079 C 248.137 248.784 250.41 248.505 252.685 248.244 C 254.739 248.008 255.761 247.792 257.819 247.594 C 258.158 247.425 258.497 247.258 258.838 247.093 C 260.295 246.389 261.313 245.959 261.89 245.804 C 262.015 245.767 262.143 245.745 262.273 245.739 C 269.2 247.038 271.215 248.755 271.215 251.167 C 271.227 251.525 271.12 251.876 270.91 252.166 C 270.598 252.58 270.046 252.844 269.255 252.958 C 268.921 253.004 268.583 253.026 268.246 253.023 C 263.549 252.776 261.332 252.79 256.628 252.79 C 254.263 252.793 251.899 252.868 249.538 253.014 C 241.485 253.502 235.803 254.096 225.574 256.18 C 223.471 255.314 221.74 254.325 220.379 253.211 L 220.75 252.469 C 224.675 251.865 228.602 251.277 232.532 250.706 C 236.272 250.163 236.556 250.329 240.3 249.821 L 240.39 232.612 C 240.39 232.585 240.389 232.558 240.389 232.531 C 240.384 232.131 240.343 231.757 240.265 231.411 C 240.157 230.908 239.947 230.433 239.648 230.014 C 239.134 230.09 238.62 230.173 238.108 230.262 C 237.219 230.417 236.273 230.6 235.27 230.811 C 234.252 231.027 233.238 231.256 232.226 231.498 C 232.206 231.491 232.185 231.484 232.165 231.476 C 230.884 231.007 229.825 230.488 228.988 229.92 C 228.547 229.627 228.139 229.285 227.773 228.901 L 228.144 228.158 Z" id="path-7" vector-effect="non-scaling-stroke" transform="matrix(1, 0, 0, 1, -1.1368683772161603e-13, 0)"/>
</svg>