<?xml version="1.0" encoding="utf-8"?>
<svg xmlns="http://www.w3.org/2000/svg" viewBox="36.881 220.542 34.1411 37.534" width="34.1411px" height="37.534px">
  <path d="M 61.917 239.075 C 62.875 239.579 64.443 240.182 65.391 240.728 C 67.313 241.834 69.209 243.572 70.059 245.211 C 70.662 246.298 70.997 247.596 71.022 248.934 C 71.024 249.174 71.003 249.414 70.959 249.646 C 70.842 250.228 70.564 250.6 70.125 250.762 C 69.933 250.83 69.735 250.862 69.537 250.858 C 69.223 250.829 68.913 250.748 68.616 250.616 C 67.026 250.006 63.809 248.244 58.964 245.332 C 58.033 244.773 56.799 244.087 55.872 243.518 C 55.06 244.431 54.297 245.161 53.369 246.225 C 51.874 247.938 50.097 249.414 48.385 250.858 C 47.728 251.38 47.936 251.225 46.53 252.302 C 46.252 252.517 45.972 252.727 45.691 252.933 C 44.456 253.842 43.118 254.734 41.676 255.61 C 40.22 256.49 38.745 257.312 37.252 258.076 L 36.881 257.114 C 37.899 256.048 38.909 254.969 39.91 253.875 C 44.771 248.558 48.338 244.023 50.612 240.272 C 49.356 239.533 48.104 238.781 46.857 238.016 C 44.251 236.422 41.667 234.767 39.108 233.053 L 39.479 232.091 C 41.986 232.633 44.49 233.357 46.945 234.115 C 49.17 234.802 51.295 235.558 53.515 236.286 C 54.034 235.493 54.981 233.866 55.482 233.053 C 56.917 230.735 58.264 228.326 59.518 225.835 C 58.528 223.75 58.034 222.307 58.034 221.504 L 58.776 220.542 C 62.208 221.239 64.649 222.336 66.097 223.835 C 67.078 224.74 66.857 225.097 66.872 226.658 C 66.74 226.878 66.608 227.099 66.476 227.317 C 64.552 230.5 61.69 235.099 59.69 238.113 L 61.917 239.075 Z" id="path-4" vector-effect="non-scaling-stroke" style=""/>
</svg>