<?xml version="1.0" encoding="utf-8"?>
<svg xmlns="http://www.w3.org/2000/svg" viewBox="167.547 210.8753 47.905 41.1237" width="47.905px" height="41.1237px">
  <path d="M 196.08 232.331 C 197.332 232.71 198.569 233.177 199.788 233.728 C 202.252 234.829 205.274 236.133 207.475 238.048 C 209.744 240.522 210.878 243.244 210.878 246.212 C 210.878 246.3 210.877 246.387 210.875 246.474 C 210.86 247.246 210.771 247.852 210.609 248.293 C 210.422 248.861 209.349 249.432 208.908 249.402 C 208.065 249.415 207.241 249.036 206.564 248.323 C 206.16 247.893 205.803 247.382 205.504 246.804 C 204.947 245.745 204.363 244.716 203.751 243.719 C 202.689 241.983 201.481 240.208 200.126 238.396 C 198.737 236.548 197.3 234.773 195.819 233.074 L 196.08 232.331 Z M 190.06 211.55 C 191.02 212.571 191.805 213.638 192.416 214.751 C 192.998 215.788 194.333 216.92 194.616 218.183 L 194.093 220.409 C 194.099 220.408 194.106 220.406 194.111 220.404 C 197.204 219.478 199.796 218.661 203.672 217.859 C 204.459 217.54 205.189 217.188 205.86 216.803 C 206.456 216.465 207.037 216.074 207.598 215.632 C 208.283 215.792 208.965 215.975 209.643 216.18 C 213.515 217.364 215.452 218.913 215.452 220.827 C 215.452 221.28 215.106 221.692 214.415 222.062 C 214.239 222.155 214.061 222.239 213.881 222.312 C 211.523 222.311 209.166 222.371 206.81 222.493 C 201.91 222.737 197.911 223.249 193.046 224.12 C 192.592 225.594 192.101 227.044 191.571 228.466 C 187.742 239.309 181.253 248.434 172.259 251.999 L 171.997 251.257 C 175.626 247.422 178.653 243.407 181.077 239.211 C 183.461 235.168 185.348 230.584 186.657 225.652 C 186.1 225.795 185.544 225.945 184.989 226.103 C 182.596 226.783 179.773 227.711 176.521 228.887 C 175.098 229.403 173.677 229.932 172.259 230.476 C 172.258 230.476 172.258 230.476 172.257 230.475 C 170.164 229.733 168.594 228.744 167.547 227.507 L 168.07 226.765 C 174.572 224.971 181.028 223.363 187.442 221.941 C 187.965 219.962 188.227 218.354 188.227 217.116 C 188.225 216.626 188.173 216.139 188.072 215.669 C 187.876 214.721 187.491 213.719 186.918 212.663 L 187.18 211.55 L 188.157 210.923 C 188.29 210.854 189.1 210.743 190.06 211.55 Z" id="path-40" vector-effect="non-scaling-stroke" style="" transform="matrix(1.0000000000000002, 0, 0, 1.0000000000000002, 2.842170943040401e-14, 0)"/>
</svg>