<?xml version="1.0" encoding="utf-8"?>
<svg xmlns="http://www.w3.org/2000/svg" viewBox="56.976 217.31 35.254 38.028" width="35.254px" height="38.028px">
  <path d="M 59.544 237.747 C 60.886 237.466 62.224 237.162 63.556 236.833 C 66.072 236.21 68.132 235.587 69.738 234.963 C 70.44 234.697 71.125 234.387 71.79 234.036 C 72.049 233.87 72.308 233.702 72.566 233.532 C 72.812 233.37 73.046 233.214 73.269 233.064 C 73.519 232.896 73.769 232.725 74.017 232.551 C 77.727 233.046 79.583 233.788 79.583 234.778 C 79.583 235.381 78.929 235.902 77.623 236.342 C 77.291 236.453 76.954 236.55 76.615 236.633 C 72.718 237.499 68.636 238.613 64.368 239.973 C 63.828 239.946 63.291 239.871 62.765 239.75 C 62.211 239.627 61.621 239.454 60.996 239.232 C 60.378 239.011 59.769 238.763 59.173 238.489 L 59.544 237.747 Z M 56.976 224.731 C 59.504 224.214 62.024 223.653 64.534 223.05 C 71.139 221.474 77.658 219.558 84.066 217.31 C 84.204 217.37 84.342 217.43 84.481 217.49 C 88.373 219.197 90.799 220.637 91.759 221.81 C 92.033 222.101 92.2 222.478 92.23 222.876 C 92.226 222.959 92.201 223.038 92.158 223.108 C 91.988 223.413 91.517 223.83 90.746 224.36 L 83.48 247.916 C 83.649 248.028 83.808 248.156 83.954 248.297 C 84.363 248.678 84.595 249.212 84.594 249.771 C 84.596 249.937 84.546 250.099 84.452 250.234 C 84.303 250.45 84.036 250.621 83.651 250.748 C 83.473 250.806 83.292 250.851 83.109 250.884 C 76.058 251.627 69.131 253.112 62.328 255.338 C 60.472 255.276 58.741 254.658 57.133 253.482 L 57.504 252.74 C 64.678 251.256 71.482 249.648 77.914 247.916 L 82.582 223.618 C 82.584 223.433 82.563 223.248 82.519 223.068 C 82.402 222.62 82.124 222.333 81.685 222.207 C 81.493 222.156 81.295 222.131 81.097 222.134 C 74.912 223.557 68.604 225.165 62.172 226.958 C 61.632 226.931 61.095 226.856 60.569 226.735 C 60.014 226.612 59.424 226.439 58.799 226.217 C 58.181 225.996 57.572 225.748 56.976 225.474 L 56.976 224.731 Z" id="path-13" vector-effect="non-scaling-stroke" transform="matrix(1, 0, 0, 1, -1.4210854715202004e-14, 0)"/>
</svg>