<?xml version="1.0" encoding="utf-8"?>
<svg xmlns="http://www.w3.org/2000/svg" viewBox="324.024 210.951 45.3932 36.477" width="45.3932px" height="36.477px">
  <path d="M 339.124 210.951 C 341.217 211.129 343.228 211.847 344.961 213.034 C 346.305 213.982 347.471 215.161 348.402 216.517 C 348.402 217.198 348.154 218.187 347.659 219.486 C 347.53 221.185 347.647 224.124 347.649 226.011 C 348.363 225.945 350.167 225.537 350.935 225.359 C 351.116 225.324 351.295 225.275 351.469 225.213 C 352.073 225.001 352.755 224.613 353.516 224.049 C 353.905 223.759 354.282 223.453 354.646 223.132 C 355.19 223.235 355.733 223.349 356.273 223.474 C 358.94 224.092 360.019 224.978 360.956 225.843 C 361.416 226.215 361.693 226.767 361.717 227.358 C 361.72 227.552 361.672 227.743 361.578 227.913 C 361.401 228.23 361.054 228.479 360.539 228.661 C 360.318 228.737 360.092 228.798 359.862 228.842 C 355.016 229.092 352.074 229.353 347.278 230.093 C 347.278 236.092 347.369 234.533 347.122 240.904 C 351.091 240.661 351.37 240.553 355.315 240.053 C 355.437 240.006 355.558 239.955 355.677 239.902 C 356.2 239.667 356.723 239.363 357.246 238.992 C 357.742 238.637 358.213 238.248 358.655 237.827 C 365.83 239.373 369.417 241.228 369.417 243.393 C 369.421 243.632 369.373 243.869 369.277 244.088 C 369.048 244.591 368.54 244.933 367.751 245.116 C 367.444 245.184 367.133 245.229 366.819 245.249 C 364.809 245.172 362.509 245.094 359.919 245.017 C 358.261 244.967 356.602 244.921 354.944 244.877 C 354.741 244.883 354.539 244.889 354.336 244.895 C 341.593 245.284 338.584 245.602 328.477 247.428 C 326.966 246.628 325.774 245.892 324.901 245.22 C 324.593 244.986 324.3 244.732 324.024 244.46 L 324.395 243.717 C 331.446 242.728 333.762 242.388 340.813 241.646 C 340.939 235.461 340.848 237.02 340.97 230.835 C 340.508 230.927 340.046 231.02 339.584 231.113 C 336.455 231.744 335.17 231.867 332.049 232.536 C 331.597 232.339 331.155 232.12 330.725 231.879 C 329.743 231.325 328.82 230.675 327.967 229.938 L 328.338 229.196 C 333.166 228.352 336.149 228.012 340.97 227.124 L 340.609 216.888 C 340.485 215.713 339.99 214.724 339.124 213.92 C 338.957 213.752 338.819 213.558 338.714 213.346 C 338.593 213.107 338.506 212.834 338.451 212.529 C 338.403 212.253 338.38 211.973 338.382 211.693 L 339.124 210.951 Z" id="path-65" vector-effect="non-scaling-stroke" transform="matrix(1, 0, 0, 1, 2.842170943040401e-14, 0)"/>
</svg>