<?xml version="1.0" encoding="utf-8"?>
<svg xmlns="http://www.w3.org/2000/svg" viewBox="275.705 212.964 47.04 35.824" width="47.04px" height="35.824px">
  <path d="M 283.127 220.87 L 311.983 217.788 L 313.468 218.53 C 313.274 220.05 312.966 221.554 312.783 223.076 C 312.154 228.315 311.459 233.802 309.9 241.366 C 306.684 239.139 304.705 238.026 303.963 238.026 C 303.221 238.026 301.976 239.344 300.569 239.796 C 300.197 239.916 299.813 239.99 299.431 240.072 C 297.403 240.518 293.7 241.168 288.323 242.023 C 286.529 235.157 284.797 228.106 283.127 220.87 Z M 276.076 216.417 L 275.705 217.53 C 276.121 218.077 276.484 218.663 276.789 219.279 C 277.097 219.889 277.383 220.57 277.649 221.32 C 277.897 222.026 278.115 222.743 278.303 223.468 C 278.875 225.653 279.393 227.852 279.856 230.063 C 280.491 233.072 281.087 236.316 281.643 239.796 C 281.945 240.623 282.277 241.439 282.64 242.242 C 282.984 242.996 283.34 243.698 283.71 244.346 C 283.763 244.437 283.816 244.529 283.869 244.62 C 284.016 244.85 284.225 245.034 284.472 245.152 C 285.093 245.479 286.106 245.668 287.511 245.72 C 287.782 245.729 288.053 245.734 288.323 245.734 C 288.413 245.731 288.494 245.679 288.535 245.599 C 288.623 245.459 288.674 245.212 288.689 244.856 C 288.693 244.777 288.694 244.698 288.694 244.62 C 291.456 244.136 297.116 242.914 299.494 242.604 C 300.859 242.426 302.225 242.26 303.592 242.108 C 304.202 242.108 305.536 242.951 307.592 244.639 C 307.62 244.661 307.647 244.683 307.674 244.706 C 307.914 245.026 308.155 245.345 308.396 245.663 C 309.849 247.575 310.703 248.609 310.959 248.767 C 310.975 248.778 310.994 248.786 311.014 248.788 C 312.871 248.788 314.149 248.016 314.848 246.473 C 314.944 246.26 315.029 246.043 315.096 245.819 C 316.982 239.503 318.175 234.634 319.475 228.016 C 319.909 225.806 320.678 223.675 321.26 221.499 C 321.476 221.272 321.681 221.035 321.875 220.79 C 322.256 220.305 322.512 219.867 322.642 219.477 C 322.707 219.292 322.742 219.097 322.745 218.901 C 322.713 218.618 322.592 218.352 322.398 218.143 C 321.534 217.033 319.052 215.306 314.952 212.964 C 313.849 213.258 312.734 213.507 311.61 213.71 C 306.451 214.694 303.428 214.664 289.746 216.364 C 286.551 216.76 283.355 217.149 280.158 217.53 C 278.92 216.804 277.511 216.42 276.076 216.417 Z M 286.381 229.32 C 290.683 228.63 295.657 227.808 298.787 226.852 C 300.296 226.399 301.777 225.86 303.224 225.239 C 303.462 225.305 303.7 225.373 303.937 225.442 C 306.895 226.302 308.753 227.1 309.511 227.838 C 309.737 228.021 309.879 228.289 309.903 228.579 C 309.904 228.665 309.9 228.75 309.891 228.836 C 309.811 229.615 309.352 230.11 308.514 230.322 C 308.24 230.388 307.959 230.425 307.677 230.434 C 301.739 230.496 294.545 230.99 288.607 231.918 C 288.604 231.916 288.6 231.914 288.596 231.912 C 287.64 231.438 286.767 230.814 286.01 230.062 L 286.381 229.32 Z" id="path-53" vector-effect="non-scaling-stroke" transform="matrix(0.9999999999999999, 0, 0, 0.9999999999999999, 0, 0)"/>
</svg>