<?xml version="1.0" encoding="utf-8"?>
<svg xmlns="http://www.w3.org/2000/svg" viewBox="33.188 513.221 48.585 37.713" width="48.585px" height="37.713px">
  <path d="M 38.488 518.746 C 39.259 518.823 40.033 518.883 40.807 518.926 C 41.505 518.965 42.205 518.985 42.905 518.986 C 44.865 518.662 46.822 518.327 48.776 517.98 C 54.895 516.892 60.988 515.705 67.051 514.422 C 67.934 514.181 68.915 513.781 69.995 513.221 C 73.022 514.221 74.939 515.134 75.742 515.961 C 76.004 516.2 76.158 516.504 76.179 516.824 C 76.179 516.842 76.177 516.861 76.175 516.88 C 76.126 517.218 75.637 517.519 74.706 517.785 C 74.398 518.179 74.089 518.573 73.778 518.966 C 71.614 521.697 69.673 524.35 67.549 526.722 C 65.401 529.131 63.347 531.779 60.982 534.048 C 65.643 535.97 70.176 535.718 74.936 537.64 C 79.647 541.844 81.773 546.73 81.773 548.772 C 81.773 549.733 81.282 550.214 80.301 550.214 C 79.65 550.214 78.788 549.871 77.717 549.188 C 77.391 548.978 77.075 548.759 76.768 548.532 C 76.168 548.018 75.567 547.504 74.966 546.991 C 68.126 541.151 63.442 537.349 60.098 534.769 C 57.29 537.515 53.885 540.972 50.532 543.274 C 45.918 546.426 41.646 549.195 35.544 550.214 C 34.648 550.364 34.023 550.814 33.482 550.934 L 33.188 550.454 C 33.284 550.384 33.382 550.317 33.48 550.25 C 33.651 550.133 33.838 550.01 34.039 549.882 C 34.244 549.75 34.451 549.621 34.66 549.493 C 42.847 545.494 46.125 541.718 51.992 535.406 C 54.064 533.18 56.247 530.489 58.13 528.153 C 60.356 525.399 61.587 523.778 63.451 520.85 C 63.453 520.76 63.44 520.67 63.414 520.583 C 63.317 520.28 63.036 520.129 62.568 520.129 C 55.955 521.456 52.646 521.773 46.108 523.329 C 45.307 523.555 44.554 523.754 43.847 523.929 C 43.328 524.057 42.805 524.177 42.28 524.29 C 41.183 523.988 41.084 521.581 40.198 520.974 C 39.446 520.458 38.774 519.872 38.194 519.226 L 38.488 518.746 Z" id="path-79" vector-effect="non-scaling-stroke" style="" transform="matrix(1, 0, 0, 1, 0, 2.842170943040401e-14)"/>
</svg>