<?xml version="1.0" encoding="utf-8"?>
<svg xmlns="http://www.w3.org/2000/svg" viewBox="414.034 227.3465 50.0262 36.1105" width="50.0262px" height="36.1105px">
  <path d="M 76.342 35.705 L 73.149 36.034 C 75.21 30.927 77.206 25.801 79.137 20.66 C 79.809 18.871 80.474 17.08 81.132 15.288 C 82.701 13.129 83.499 11.926 83.526 11.678 C 83.527 11.674 83.527 11.669 83.527 11.666 C 83.485 11.253 83.271 10.863 82.923 10.564 C 81.69 9.33 77.217 6.101 72.208 4.199 C 71.806 4.046 71.402 3.896 70.998 3.747 C 69.202 4.351 67.339 4.789 65.41 5.064 C 60.979 5.57 56.547 6.074 52.114 6.576 C 43.504 7.553 35.991 8.398 29.574 9.112 C 26.885 9.412 24.195 9.708 21.505 10.004 C 20.903 10.055 20.3 10.104 19.696 10.148 C 18.201 10.258 17.035 10.32 16.199 10.332 C 16.105 10.333 16.01 10.334 15.917 10.334 C 14.693 9.689 13.369 9.184 11.981 8.831 C 10.925 8.567 9.834 8.406 8.733 8.357 L 7.934 9.015 C 8.074 9.39 8.246 9.756 8.447 10.111 C 8.868 10.866 10.823 13.396 11.605 14.376 C 11.762 14.572 11.92 14.766 12.081 14.959 C 14.355 23.652 16.75 32.325 19.266 40.973 C 12.879 41.797 16.331 41.437 9.945 42.37 L 9.147 43.029 C 9.616 43.407 10.125 43.752 10.667 44.057 C 11.982 44.812 13.485 47.27 15.68 48.025 C 37.869 43.817 48.264 42.862 66.542 42.688 C 67.33 42.68 68.117 42.677 68.905 42.677 C 75.698 42.673 79.034 42.599 85.806 43.042 C 87.621 43.042 88.873 42.789 89.562 42.283 C 89.984 41.976 90.216 41.529 90.197 41.067 C 90.197 38.432 81.808 34.989 78.973 34.676 C 77.783 35.482 76.455 35.676 76.342 35.705 Z M 57.121 37.096 C 58.052 31.17 58.319 25.669 59.516 19.742 C 59.61 19.34 59.71 18.938 59.815 18.538 C 60.114 17.407 60.413 16.491 60.713 15.79 C 60.446 14.906 60.046 13.404 58.483 12.235 C 58.079 11.934 57.664 11.643 57.238 11.363 C 62.56 10.869 64.128 10.795 69.45 10.411 C 69.621 10.421 69.79 10.454 69.949 10.508 C 70.365 10.654 70.597 10.951 70.647 11.399 C 69.833 15.988 68.622 21.218 66.825 27.276 C 65.922 30.307 64.592 33.388 63.582 36.395 C 61.717 36.527 61.439 36.646 59.578 36.816 C 57.846 36.974 58.847 36.898 57.121 37.096 Z M 28.555 14.302 C 26.518 14.492 26.601 14.588 24.573 14.837 C 24.226 14.82 23.88 14.797 23.533 14.769 C 22.812 14.712 22.093 14.623 21.381 14.508 C 23.51 24.167 25.44 32.708 27.303 40.172 C 28.944 39.914 28.541 39.824 30.192 39.614 C 32.001 39.386 33.814 39.181 35.631 38.998 C 35.41 38.632 35.216 38.257 35.048 37.873 C 34.788 37.274 34.582 36.659 34.433 36.034 C 34.033 28.665 33.367 21.307 32.437 13.971 C 31.142 14.07 29.847 14.181 28.555 14.302 Z M 49.371 13.726 C 49.002 13.204 48.541 12.733 48.003 12.324 C 44.935 12.6 43.375 12.834 40.323 13.218 C 41.122 14.042 41.333 15.814 41.333 18.283 C 41.399 25.089 42.356 31.548 42.556 38.353 C 43.883 38.152 43.077 38.289 44.412 38.133 C 45.872 37.961 47.336 37.811 48.802 37.68 C 49.331 30.111 49.731 22.537 49.999 14.959 C 49.854 14.528 49.643 14.113 49.371 13.726 Z" id="path-70" vector-effect="non-scaling-stroke" style="" transform="matrix(0.6081170439720154, 0, 0, 0.8155410289764404, 409.2092040957391, 224.29069853262146)"/>
</svg>