<?xml version="1.0" encoding="utf-8"?>
<svg viewBox="317.1946 247.7108 47.2115 35.7003" width="47.211" height="35.7" xmlns="http://www.w3.org/2000/svg">
  <path d="M 361.206 283.411 L 320.406 283.411 C 319.54 283.411 318.806 283.111 318.206 282.511 C 317.606 281.911 317.273 281.178 317.206 280.311 C 317.121 273.256 317.539 252.957 317.551 252.114 C 317.575 250.423 319.01 248.966 319.723 248.507 C 320.46 248.032 322.897 247.816 323.709 247.822 C 323.723 247.821 323.737 247.821 323.75 247.821 L 361.206 247.711 C 361.628 247.706 362.047 247.783 362.44 247.937 C 362.799 248.082 363.127 248.294 363.406 248.561 C 363.901 249.028 364.211 249.659 364.278 250.336 C 364.297 250.493 364.306 250.652 364.306 250.811 C 364.306 251.678 364.006 252.411 363.406 253.011 C 362.839 253.592 362.059 253.917 361.247 253.911 C 361.234 253.911 361.22 253.911 361.206 253.911 L 325.106 253.911 C 325.026 253.91 324.946 253.92 324.869 253.941 C 324.627 254.01 324.506 254.2 324.506 254.511 L 324.506 276.611 C 324.505 276.691 324.515 276.771 324.536 276.849 C 324.606 277.09 324.796 277.211 325.106 277.211 L 361.206 277.211 C 362.14 277.211 362.906 277.511 363.506 278.111 C 364.087 278.678 364.412 279.458 364.406 280.271 C 364.406 280.284 364.406 280.298 364.406 280.311 C 364.34 281.178 364.006 281.911 363.406 282.511 C 362.839 283.092 362.059 283.417 361.247 283.411 C 361.234 283.411 361.22 283.411 361.206 283.411 Z" id="path-6" transform="matrix(1, 0, 0, 1, -3.552713678800501e-15, 0)"/>
</svg>