<?xml version="1.0" encoding="utf-8"?>
<svg xmlns="http://www.w3.org/2000/svg" viewBox="137.981 224.466 42.2536 37.6931" width="42.2536px" height="37.6931px">
  <path d="M 139.121 228.475 C 139.188 228.498 139.256 228.521 139.323 228.544 C 141.401 229.271 143.189 230.113 144.687 231.072 C 150.678 230.453 149.436 230.188 152.467 229.495 C 156.919 228.477 158.465 228.129 162.906 227.064 C 163.612 226.592 164.324 226.128 165.04 225.672 C 165.684 225.261 166.333 224.859 166.988 224.466 C 167.03 224.474 167.072 224.481 167.114 224.489 C 174.452 225.845 178.121 227.445 178.121 229.29 C 178.135 229.812 177.933 230.318 177.561 230.685 C 177.358 230.886 177.101 231.06 176.789 231.207 C 176.502 231.339 176.202 231.443 175.895 231.517 C 160.959 232.541 160.9 232.47 146.171 235.154 L 146.557 240.588 C 157.691 238.609 152.908 239.54 163.05 237.314 C 163.767 237.117 164.479 236.901 165.184 236.664 C 165.964 236.403 166.737 236.125 167.504 235.829 C 168.089 236.074 168.671 236.324 169.251 236.579 C 173.074 238.261 175.347 237.995 176.259 238.977 C 176.498 239.189 176.65 239.481 176.687 239.798 C 176.687 239.867 176.683 239.935 176.676 240.003 C 176.622 240.533 176.358 241.088 175.886 241.669 C 175.675 241.926 175.447 242.169 175.203 242.395 C 173.93 243.692 170.484 243.627 169.174 243.627 C 168.75 243.584 168.326 243.543 167.902 243.503 C 166.14 243.338 164.956 243.255 164.35 243.255 C 163.451 243.258 162.552 243.289 161.654 243.346 C 156.969 243.631 149.956 245.005 146.617 245.66 L 146.145 253.159 C 151.04 252.14 150.248 252.154 156.905 251.256 C 163.113 250.418 159.166 250.846 165.39 250.138 C 166.827 249.795 168.123 249.018 169.101 247.911 C 176.523 248.777 180.234 250.756 180.234 253.849 C 180.246 254.275 180.064 254.683 179.739 254.958 C 179.212 255.417 178.263 255.666 176.894 255.704 C 160.129 255.789 162.739 254.855 146.145 257.241 L 146.145 258.819 C 146.143 258.834 146.14 258.848 146.138 258.863 C 145.975 259.816 145.721 260.563 145.374 261.103 C 145.002 261.761 144.303 262.165 143.547 262.159 C 143.077 262.145 140.095 262.316 139.014 259.497 C 138.638 258.509 138.294 257.509 137.981 256.499 C 138.137 255.721 138.309 254.947 138.495 254.176 C 138.789 252.964 139.112 251.758 139.465 250.562 C 140.132 244.759 139.549 248.512 139.716 244.367 C 140.001 237.284 140.024 242.367 139.863 234.412 C 139.85 234.375 139.837 234.337 139.824 234.3 C 138.86 231.521 138.378 229.827 138.378 229.217 L 139.121 228.475 Z" id="path-34" vector-effect="non-scaling-stroke" transform="matrix(1, 0, 0, 1, 1.4210854715202004e-14, 0)"/>
</svg>