<?xml version="1.0" encoding="utf-8"?>
<svg xmlns="http://www.w3.org/2000/svg" viewBox="149.217 504.448 49.727 34.883" width="49.727px" height="34.883px">
  <path d="M 179.276 530.796 C 179.64 530.734 180.003 530.67 180.367 530.604 C 186.173 529.555 189.397 528.506 190.038 527.456 C 195.975 528.075 198.944 529.436 198.944 531.538 C 198.944 532.899 197.831 533.641 195.604 533.765 C 189.79 534.074 183.976 534.569 178.163 535.249 C 176.508 535.442 174.856 535.66 173.208 535.903 C 167.844 536.693 161.703 537.835 154.784 539.331 C 154.443 539.271 154.105 539.2 153.769 539.118 C 152.14 538.734 150.597 538.051 149.217 537.104 L 150.702 536.362 C 153.404 535.791 156.11 535.234 158.819 534.692 C 161.677 534.121 164.537 533.565 167.401 533.022 C 167.4 530.94 167.381 528.858 167.342 526.776 C 167.234 521.185 167.006 515.596 166.659 510.014 C 166.635 509.897 166.61 509.78 166.583 509.663 C 166.338 508.613 165.992 507.864 165.545 507.417 C 165.075 507.115 164.728 506.657 164.564 506.123 C 164.473 505.821 164.428 505.506 164.432 505.19 L 165.916 504.448 C 168.116 504.599 170.221 505.401 171.964 506.751 C 173.041 507.584 174.002 508.557 174.823 509.643 C 174.823 510.088 174.759 510.66 174.631 511.36 C 174.577 511.655 174.517 511.949 174.452 512.241 C 174.378 512.978 174.312 513.715 174.256 514.452 C 174.139 515.994 174.081 517.36 174.081 518.55 L 181.502 516.323 C 181.634 516.185 181.768 516.048 181.904 515.913 C 182.601 515.223 183.175 514.78 183.625 514.584 C 183.774 514.514 183.935 514.475 184.1 514.468 C 187.233 515.077 189.264 515.809 190.193 516.663 C 190.544 516.943 190.758 517.359 190.78 517.807 C 190.786 518.414 190.485 518.983 189.98 519.318 C 189.553 519.63 188.953 519.869 188.182 520.034 C 185.983 520.474 183.657 520.978 181.204 521.545 C 178.699 522.126 176.2 522.736 173.709 523.374 L 173.338 531.909 L 179.276 530.796 Z" id="path-38" vector-effect="non-scaling-stroke" transform="matrix(0.9999999999999999, 0, 0, 0.9999999999999999, 3.552713678800501e-15, 0)"/>
</svg>