<?xml version="1.0" encoding="utf-8"?>
<svg xmlns="http://www.w3.org/2000/svg" viewBox="31.042 229.617 49.413 39.179" width="49.413px" height="39.179px">
  <path d="M 38.44 236.86 C 43.37 235.707 48.203 234.062 52.938 231.922 C 53.344 231.736 53.749 231.545 54.152 231.347 C 55.454 230.705 56.43 230.128 57.079 229.617 C 60.875 231.517 63.21 233.06 64.085 234.245 C 64.311 234.509 64.45 234.85 64.477 235.214 C 64.147 235.5 63.821 235.794 63.501 236.096 C 63.02 236.549 62.556 237.024 62.11 237.519 C 61.687 238.217 61.26 238.912 60.826 239.603 C 59.548 241.641 58.287 243.543 57.045 245.309 C 55.829 247.041 54.557 248.726 53.234 250.358 C 53.603 250.665 53.974 250.972 54.345 251.275 C 56.754 253.24 59.089 255.019 61.351 256.611 C 63.519 258.146 65.747 259.575 68.028 260.894 C 70.416 262.237 72.706 263.332 74.9 264.178 C 76.711 264.887 78.568 265.441 80.455 265.833 L 80.455 266.491 C 75.524 267.918 70.297 268.686 64.773 268.796 C 59.151 262.101 54.615 256.833 51.162 252.993 C 50.777 253.44 50.388 253.883 49.996 254.322 C 47.269 257.367 44.506 259.998 41.708 262.215 C 38.508 264.788 35.022 266.889 31.338 268.466 L 31.042 267.808 C 33.44 266.053 35.729 264.119 37.894 262.021 C 41.696 258.311 45.149 254.183 48.203 249.7 C 47.98 249.43 47.755 249.163 47.528 248.898 C 46.504 247.703 45.445 246.543 44.357 245.42 C 44.183 245.24 44.005 245.066 43.823 244.896 C 43.289 244.399 42.754 243.984 42.221 243.651 C 41.595 243.252 40.918 242.961 40.215 242.786 C 40.204 242.785 40.192 242.783 40.181 242.781 C 38.76 242.541 37.856 242.244 37.47 241.889 C 37.345 241.794 37.265 241.638 37.256 241.47 L 37.552 240.811 C 37.644 240.795 37.734 240.78 37.827 240.764 C 38.961 240.575 39.756 240.481 40.215 240.481 C 40.608 240.481 41.398 240.701 42.582 241.141 C 45.176 243.03 47.647 245.121 49.979 247.395 C 52.261 243.415 54.241 239.23 55.897 234.885 L 55.305 234.556 C 54.171 234.936 53.039 235.327 51.911 235.729 C 48.671 236.88 45.461 238.136 42.286 239.494 C 42.137 239.435 41.989 239.375 41.841 239.316 C 40.493 238.769 39.468 238.299 38.767 237.907 C 38.553 237.79 38.344 237.66 38.143 237.519 L 38.44 236.86 Z" id="path-8" vector-effect="non-scaling-stroke" style="" transform="matrix(1, 0, 0, 1, 1.4210854715202004e-14, 0)"/>
</svg>