<?xml version="1.0" encoding="utf-8"?>
<svg xmlns="http://www.w3.org/2000/svg" viewBox="321.861 213.439 48.677 38.862" width="48.677px" height="38.862px">
  <path d="M 329.382 221.974 C 335.373 220.41 341.314 218.553 347.191 216.407 C 347.43 216.244 347.663 216.07 347.89 215.885 C 348.73 215.197 349.491 214.374 350.159 213.439 C 350.478 213.445 350.796 213.456 351.116 213.473 C 354.081 213.626 356.185 214.188 357.427 215.16 C 358.241 215.694 358.755 216.742 358.767 217.892 C 358.767 218.149 358.702 218.399 358.583 218.609 C 358.401 218.935 358.085 219.219 357.635 219.461 C 357.424 219.572 357.206 219.668 356.986 219.747 C 352.887 220.328 348.803 221.07 344.741 221.974 C 341.076 222.787 337.438 223.777 333.834 224.943 C 332.351 224.943 330.768 224.2 329.084 222.716 L 329.382 221.974 Z M 322.157 248.219 C 333.733 246.053 345.507 243.95 357.478 241.91 C 358.072 241.786 358.963 241.043 360.15 239.683 C 360.868 239.797 361.582 239.929 362.295 240.079 C 367.79 241.239 370.538 243.086 370.538 245.621 C 370.538 246.487 369.747 247.229 368.164 247.847 C 367.006 247.772 365.85 247.707 364.692 247.652 C 363.583 247.598 362.522 247.557 361.509 247.528 C 360.364 247.494 359.218 247.477 358.072 247.476 C 352.753 247.476 346.97 248.013 340.725 249.089 C 335.891 249.934 331.084 251.006 326.313 252.301 C 325.324 252.053 323.84 250.939 321.861 248.961 L 322.157 248.219 Z" id="path-45" vector-effect="non-scaling-stroke" style="" transform="matrix(1, 0, 0, 1, 1.4210854715202004e-14, 0)"/>
</svg>