<?xml version="1.0" encoding="utf-8"?>
<svg xmlns="http://www.w3.org/2000/svg" viewBox="125.63 519.349 45.3464 39.116" width="45.3464px" height="39.116px">
  <path d="M 126.001 522.992 C 127.563 523.48 129.189 523.73 130.825 523.734 C 144.432 522.497 146.361 522.689 160.215 520.462 C 160.31 520.435 160.404 520.408 160.497 520.38 C 161.089 520.204 161.783 519.976 162.58 519.697 C 162.906 519.583 163.231 519.467 163.554 519.349 C 168.502 521.39 170.976 522.998 170.976 524.173 C 170.977 524.197 170.976 524.221 170.974 524.245 C 170.943 524.668 170.642 525.193 170.07 525.818 C 169.885 526.019 169.693 526.213 169.492 526.4 C 166.029 539.512 165.305 540.07 162.088 553.924 C 162.136 553.995 162.182 554.066 162.226 554.138 C 162.483 554.55 162.658 554.922 162.751 555.253 C 162.802 555.424 162.829 555.601 162.831 555.78 C 162.833 555.943 162.779 556.102 162.676 556.23 C 162.406 556.573 161.779 556.783 160.795 556.86 C 160.485 556.883 160.174 556.894 159.862 556.893 C 158.44 556.828 157.017 556.766 155.594 556.707 C 154.049 556.643 152.503 556.581 150.956 556.522 C 149.823 556.592 148.691 556.668 147.558 556.751 C 139.382 557.358 141.11 557.246 133.002 558.465 C 133.001 558.465 133 558.464 132.999 558.464 C 130.032 557.722 127.806 556.733 126.322 555.496 L 126.693 554.754 C 138.09 553.666 139.593 553.455 150.956 552.069 C 151.582 551.964 152.248 551.801 152.952 551.579 C 153.533 551.395 154.105 551.187 154.667 550.955 C 154.95 551.011 155.232 551.072 155.512 551.138 C 156.044 551.263 156.481 551.387 156.823 551.512 C 156.974 551.566 157.121 551.628 157.264 551.698 C 158.502 545.389 160.595 532.223 161.328 527.884 C 161.33 527.662 161.311 527.441 161.272 527.223 C 161.096 526.248 160.499 525.641 159.479 525.402 C 159.112 525.321 158.736 525.282 158.359 525.287 C 154.292 525.704 150.229 526.154 146.168 526.635 C 137.717 527.631 141.088 526.866 132.681 528.187 C 131.621 527.95 130.591 527.596 129.61 527.129 C 128.001 526.379 126.625 525.205 125.63 523.734 L 126.001 522.992 Z" id="path-51" vector-effect="non-scaling-stroke" transform="matrix(1, 0, 0, 0.9999999999999999, 0, -5.684341886080802e-14)"/>
</svg>