<?xml version="1.0" encoding="utf-8"?>
<svg viewBox="132.8558 515.404 52.9003 40.9002" width="52.9" height="40.9" xmlns="http://www.w3.org/2000/svg">
  <path d="M 182.756 556.304 L 135.856 556.304 C 135.487 556.308 135.121 556.249 134.772 556.13 C 134.37 555.989 134.005 555.758 133.706 555.454 C 133.186 554.937 132.884 554.24 132.861 553.507 C 132.857 553.44 132.856 553.372 132.856 553.304 C 132.852 552.936 132.911 552.57 133.03 552.221 C 133.171 551.819 133.402 551.454 133.706 551.154 C 134.223 550.634 134.92 550.333 135.653 550.31 C 135.721 550.306 135.788 550.304 135.856 550.304 L 151.756 550.304 C 151.836 550.305 151.916 550.295 151.993 550.274 C 152.235 550.205 152.356 550.015 152.356 549.704 L 152.356 518.604 C 152.352 518.21 152.417 517.819 152.548 517.447 C 152.707 517.012 152.967 516.62 153.306 516.304 C 153.939 515.704 154.689 515.404 155.556 515.404 C 156.423 515.404 157.156 515.704 157.756 516.304 C 158.28 516.827 158.595 517.523 158.642 518.262 C 158.651 518.376 158.656 518.49 158.656 518.604 L 158.656 528.304 C 158.655 528.384 158.665 528.465 158.686 528.542 C 158.755 528.783 158.945 528.904 159.256 528.904 L 177.556 528.904 C 177.938 528.9 178.318 528.967 178.676 529.102 C 179.068 529.256 179.42 529.496 179.706 529.804 C 180.273 530.404 180.556 531.104 180.556 531.904 C 180.56 532.287 180.493 532.666 180.358 533.024 C 180.204 533.416 179.964 533.768 179.656 534.054 C 179.056 534.621 178.356 534.904 177.556 534.904 L 159.256 534.904 C 159.176 534.903 159.096 534.913 159.019 534.934 C 158.777 535.003 158.656 535.193 158.656 535.504 L 158.656 549.704 C 158.655 549.784 158.665 549.865 158.686 549.942 C 158.755 550.183 158.945 550.304 159.256 550.304 L 182.756 550.304 C 183.556 550.304 184.256 550.587 184.856 551.154 C 185.426 551.683 185.751 552.425 185.755 553.203 C 185.756 553.237 185.756 553.27 185.756 553.304 C 185.76 553.687 185.693 554.066 185.558 554.424 C 185.404 554.816 185.164 555.168 184.856 555.454 C 184.256 556.021 183.556 556.304 182.756 556.304 Z" id="path-13"/>
</svg>