<?xml version="1.0" encoding="utf-8"?>
<svg xmlns="http://www.w3.org/2000/svg" viewBox="331.492 226.74 44.7929 31.355" width="44.7929px" height="31.355px">
  <path d="M 333.213 231.816 C 334.64 231.633 336.064 231.434 337.487 231.221 C 343.413 230.342 354.952 230.039 360.766 228.595 C 361.4 228.437 362.034 228.127 362.668 227.663 C 363.047 227.384 363.404 227.075 363.735 226.74 C 369.425 227.544 372.27 228.905 372.27 230.822 C 372.285 231.248 372.116 231.659 371.805 231.949 C 371.44 232.289 370.86 232.51 370.065 232.612 C 369.688 232.658 369.309 232.68 368.93 232.677 C 367.601 232.677 366.272 232.701 364.944 232.75 C 362.182 232.848 342.279 234.903 339.537 235.252 C 339.651 235.374 339.761 235.5 339.865 235.629 C 340.56 236.466 340.966 237.505 341.022 238.591 C 340.909 239.214 340.802 239.838 340.701 240.463 C 340.097 244.143 340.19 249.343 340.019 253.068 C 342.29 252.773 355.479 252.163 357.754 251.902 C 359.808 251.666 360.83 251.45 362.888 251.252 C 363.227 251.083 363.566 250.916 363.907 250.751 C 365.364 250.047 366.382 249.617 366.959 249.462 C 367.084 249.425 367.212 249.403 367.342 249.397 C 374.269 250.696 376.284 252.413 376.284 254.825 C 376.296 255.183 376.189 255.534 375.979 255.824 C 375.667 256.238 375.115 256.502 374.324 256.616 C 373.99 256.662 373.652 256.684 373.315 256.681 C 368.618 256.434 366.401 256.448 361.697 256.448 C 359.332 256.451 356.968 256.526 354.607 256.672 C 346.554 257.16 346.916 256.011 336.687 258.095 C 334.584 257.229 332.853 256.24 331.492 255.126 L 331.863 254.384 C 332.589 253.968 333.209 253.888 334.453 253.81 L 334.543 236.601 C 334.543 236.574 334.542 236.547 334.542 236.52 C 334.537 236.12 334.496 235.746 334.418 235.4 C 334.31 234.897 333.208 232.943 332.842 232.559 L 333.213 231.816 Z" id="path-30" vector-effect="non-scaling-stroke" transform="matrix(1, 0, 0, 1, -7.105427357601002e-15, 0)"/>
</svg>