<?xml version="1.0" encoding="utf-8"?>
<svg xmlns="http://www.w3.org/2000/svg" viewBox="437.78 508.673 49.355 37.184" width="49.355px" height="37.184px">
  <path d="M 438.522 515.665 C 440.194 515.21 441.859 514.735 443.516 514.243 C 446.964 513.222 450.373 512.106 453.737 510.898 C 455.289 510.26 456.778 509.516 458.19 508.673 C 458.527 508.794 458.864 508.917 459.199 509.041 C 463.366 510.586 465.958 511.862 466.974 512.868 C 467.257 513.105 467.432 513.42 467.467 513.757 C 467.467 514.021 467.421 514.647 465.724 515.637 C 465.338 515.862 464.95 516.083 464.558 516.3 C 458.683 520.431 453.899 525.015 449.136 531.478 C 449.135 531.481 449.134 531.482 449.132 531.484 C 448.81 532.015 448.557 532.536 448.375 533.046 C 448.147 533.67 448.028 534.321 448.023 534.974 C 448.025 535.376 448.143 535.772 448.365 536.127 C 448.781 536.805 449.576 537.442 450.748 538.038 C 451.306 538.318 451.883 538.568 452.476 538.788 C 454.765 539.635 458.292 540.059 464.662 540.059 C 465.576 540.059 466.489 540.035 467.4 539.986 C 471.006 539.785 474.051 539.175 476.537 538.152 C 477.368 537.822 478.085 537.315 478.618 536.677 C 479.036 536.163 479.337 535.585 479.506 534.974 C 479.713 534.252 479.914 533.529 480.107 532.805 C 480.703 530.571 480.71 529.04 481.198 526.788 L 481.94 526.788 C 482.568 531.506 483.31 534.801 484.164 536.674 C 484.351 537.112 484.601 537.527 484.909 537.912 C 485.053 538.025 485.194 538.141 485.332 538.258 C 486.534 539.288 487.135 540.232 487.135 541.089 C 487.137 541.488 486.994 541.878 486.725 542.203 C 486.135 542.934 484.911 543.516 483.053 543.95 C 482.043 544.186 481.027 544.403 480.005 544.598 C 475.77 545.423 471.44 545.845 467.096 545.857 C 464.012 545.857 461.189 545.745 458.627 545.52 C 456.987 545.382 455.355 545.176 453.737 544.904 C 452.157 544.633 450.734 544.248 449.468 543.746 C 447.846 543.124 446.394 542.219 445.202 541.089 C 445.031 540.925 444.867 540.755 444.71 540.581 C 443.588 539.37 442.976 537.869 442.975 536.322 C 442.976 536.036 442.989 535.749 443.014 535.463 C 443.072 534.818 443.194 534.135 443.378 533.416 C 443.57 532.68 443.807 531.953 444.088 531.238 C 447.471 525.201 451.135 520.744 456.132 515.594 C 456.132 515.253 455.892 515.049 455.411 514.982 C 455.281 514.965 455.15 514.957 455.018 514.957 C 450.504 516.018 446.174 517.289 442.03 518.772 C 441.606 518.739 441.184 518.692 440.764 518.631 C 440.094 518.532 439.481 518.398 438.924 518.231 C 438.317 518.052 437.833 517.26 437.78 516.3 L 438.522 515.665 Z" id="path-60" vector-effect="non-scaling-stroke" style="" transform="matrix(1, 0, 0, 0.9999999999999999, 0, -5.684341886080802e-14)"/>
</svg>