<?xml version="1.0" encoding="utf-8"?>
<svg xmlns="http://www.w3.org/2000/svg" viewBox="314.642 501.5709 50.578 61.2931" width="50.578px" height="61.2931px">
  <path d="M 327.425 507.173 L 330.759 507.173 C 335.391 506.075 339.745 504.757 343.821 503.218 C 344.47 502.999 345.211 502.45 346.044 501.571 C 346.745 501.569 347.447 501.59 348.147 501.633 C 350.185 501.767 351.58 502.115 352.333 502.675 C 352.72 502.905 352.973 503.365 352.992 503.877 C 352.993 504.092 352.946 504.303 352.854 504.487 C 352.692 504.814 352.385 505.084 351.933 505.297 C 351.735 505.39 351.532 505.466 351.325 505.526 C 344.577 507.257 337.814 508.904 331.037 510.468 C 331.001 510.456 330.965 510.443 330.929 510.43 C 329.134 509.776 327.873 508.91 327.147 507.833 L 327.425 507.173 Z M 314.921 526.876 C 321.636 525.442 328.524 523.893 335.241 522.471 C 341.493 521.147 347.85 520.307 354.104 518.995 C 354.143 518.979 354.182 518.963 354.221 518.947 C 355.556 518.402 356.629 517.69 357.439 516.729 C 357.963 516.807 358.487 516.896 359.009 516.998 C 361.629 517.513 363.42 518.237 364.383 519.172 C 364.889 519.598 365.198 520.279 365.22 521.013 C 365.22 522.222 364.294 522.881 362.441 522.991 C 359.194 523.111 355.951 523.33 352.714 523.65 C 349.186 523.998 345.666 524.437 342.154 524.967 C 342.525 525.175 342.885 525.413 343.229 525.68 C 344.365 526.533 345.563 527.781 346.079 529.252 C 346.079 529.692 345.894 530.24 345.523 530.899 C 344.244 538.173 341.817 544.943 337.732 550.577 C 334.708 554.709 330.49 558.293 326.59 561.217 C 326.376 561.368 326.161 561.518 325.946 561.666 C 325.289 562.12 324.782 562.456 324.423 562.673 C 324.313 562.741 324.202 562.804 324.09 562.864 L 323.811 562.205 C 324.188 561.793 324.618 561.338 325.103 560.841 C 325.412 560.525 325.722 560.211 326.035 559.898 C 327.873 557.888 329.591 555.727 331.176 553.432 C 335.61 547.138 338.623 539.612 339.93 531.558 C 339.966 531.295 339.997 531.031 340.026 530.765 C 340.115 529.935 340.175 529.1 340.208 528.263 C 340.174 528.162 340.137 528.06 340.099 527.96 C 339.755 527.038 339.219 526.236 338.541 525.627 C 338.119 525.703 337.697 525.78 337.276 525.859 C 331.14 526.999 325.066 528.572 319.087 530.57 C 319.055 530.556 319.023 530.542 318.991 530.527 C 317.091 529.688 315.571 528.58 314.984 527.999 C 314.845 527.873 314.729 527.716 314.642 527.534 L 314.921 526.876 Z" id="path-10" vector-effect="non-scaling-stroke" style="" transform="matrix(1, 0, 0, 1, 0, 2.842170943040401e-14)"/>
</svg>