<?xml version="1.0" encoding="utf-8"?>
<svg xmlns="http://www.w3.org/2000/svg" viewBox="50.15 453.527 49.343 62.269" width="49.343px" height="62.269px">
  <path d="M 70.35 490.8 C 66.989 491.299 67.197 491.273 63.881 492.011 C 63.876 492.095 63.87 492.178 63.863 492.261 C 63.821 492.72 63.73 493.08 63.59 493.342 C 63.444 493.666 63.121 493.872 62.767 493.866 C 61.625 493.866 60.409 493.134 59.121 491.669 C 58.7 491.187 58.307 490.681 57.943 490.155 C 57.487 488.665 57.026 487.177 56.559 485.69 C 55.463 482.204 54.193 478.249 52.748 473.827 C 52.521 473.592 52.3 473.351 52.084 473.106 C 51.42 472.354 50.916 471.673 50.573 471.063 C 50.399 470.763 50.257 470.446 50.15 470.116 L 50.521 469.374 C 50.7 469.374 50.88 469.377 51.06 469.382 C 53.47 469.432 55.832 470.066 57.943 471.229 C 58.599 471.141 59.255 471.049 59.911 470.954 C 63.993 470.363 64.983 470.234 69.979 469.277 L 69.608 462.062 C 69.608 459.774 69.36 458.413 68.866 457.98 C 67.594 456.8 66.789 455.819 66.451 455.038 C 66.338 454.797 66.276 454.536 66.268 454.269 L 66.639 453.527 C 66.765 453.527 66.893 453.528 67.02 453.529 C 69.867 453.559 72.09 453.93 73.69 454.64 C 76.102 455.692 77.462 456.929 77.772 458.351 C 77.582 459.104 77.424 459.864 77.298 460.629 C 77.157 461.472 77.068 462.322 77.03 463.175 L 76.659 468.164 L 84.649 466.635 C 84.795 466.601 84.942 466.565 85.088 466.527 C 86.994 466.035 88.58 465.328 89.845 464.408 C 90.201 464.58 90.557 464.753 90.912 464.928 C 95.282 467.085 97.983 468.792 99.015 470.05 C 99.287 470.332 99.455 470.698 99.493 471.088 C 99.491 471.213 99.471 471.336 99.433 471.454 C 99.262 472.005 98.732 472.71 97.844 473.569 C 97.536 473.865 97.22 474.152 96.896 474.428 C 96.776 474.676 96.657 474.923 96.538 475.169 C 93.495 481.466 91.14 486.043 89.474 488.901 C 89.255 489.12 89.034 489.335 88.809 489.546 C 87.421 490.848 86.406 491.498 85.763 491.498 C 85.344 491.497 84.929 491.429 84.533 491.295 C 84.083 491.146 83.632 490.915 83.182 490.601 C 82.777 490.316 82.399 489.996 82.052 489.643 L 80.196 489.272 C 79.176 489.315 80.321 489.118 78.833 489.335 C 78.106 489.443 77.382 489.56 76.659 489.687 L 75.917 506.148 C 75.878 506.483 75.837 506.817 75.795 507.151 C 75.261 511.309 74.554 513.968 73.674 515.126 C 73.437 515.513 73.029 515.762 72.577 515.796 C 71.429 515.796 70.721 513.331 70.454 508.399 C 70.401 507.402 70.366 506.405 70.35 505.406 L 70.35 490.8 Z M 76.659 486.347 C 78.699 485.853 78.402 485.809 80.567 485.561 C 81.619 485.871 81.963 486.242 83.536 486.674 C 85.481 481.589 87.092 476.383 88.36 471.088 C 88.266 470.714 88.031 470.481 87.653 470.39 C 87.519 470.36 87.383 470.345 87.247 470.346 C 82.901 470.843 80.97 471.135 76.659 471.874 L 76.659 486.347 Z M 70.35 487.46 C 70.102 482.64 69.979 477.815 69.979 472.988 C 65.514 473.794 64.611 474.015 60.17 474.94 L 63.881 489.042 C 67.207 488.241 66.997 488.144 70.35 487.46 Z" id="path-15" vector-effect="non-scaling-stroke" transform="matrix(1, 0, 0, 1, 1.1368683772161603e-13, 0)"/>
</svg>