<?xml version="1.0" encoding="utf-8"?>
<svg xmlns="http://www.w3.org/2000/svg" viewBox="148.141 460.9856 44.873 62.8684" width="44.873px" height="62.8684px">
  <path d="M 163.413 460.986 C 164.66 460.978 165.904 461.094 167.128 461.333 C 170.636 461.922 173.661 464.132 175.288 467.295 C 175.286 467.305 175.284 467.315 175.282 467.324 C 175.157 467.944 175.002 468.594 174.815 469.275 C 174.621 469.982 174.407 470.683 174.174 471.377 C 173.748 471.917 173.734 471.97 173.607 474.506 C 173.486 476.918 173.528 474.808 173.432 477.221 C 174.276 477.096 175.118 476.964 175.96 476.826 C 178.591 476.394 176.405 476.808 179.015 476.266 C 179.108 476.229 179.2 476.19 179.291 476.149 C 180.083 475.797 180.971 475.253 181.954 474.517 C 182.472 474.128 182.977 473.721 183.468 473.298 C 189.513 474.454 190.315 475.565 192.016 477.104 C 192.608 477.561 192.972 478.253 193.014 478.999 C 193.014 479.803 192.279 480.362 190.809 480.676 C 190.434 480.755 190.055 480.814 189.674 480.855 C 181.943 480.855 181.906 480.685 173.803 481.674 C 173.778 483.677 173.752 485.679 173.725 487.681 C 173.504 504.333 173.282 506.164 173.061 517.174 C 173.032 517.528 172.997 517.881 172.956 518.233 C 172.522 521.981 171.567 523.854 170.092 523.854 C 169.682 523.805 169.327 523.546 169.156 523.17 C 167.857 521.113 167.056 514.414 166.752 503.072 C 166.751 497.846 166.721 498.62 166.66 493.394 C 166.595 487.858 166.502 488.322 166.381 482.787 C 164.545 483.124 162.713 483.479 160.884 483.854 C 155.624 484.927 159.253 484.343 154.079 485.774 C 151.852 485.032 149.873 484.167 148.141 483.177 L 148.513 482.435 C 157.424 480.604 157.48 480.586 166.381 478.705 L 166.381 469.15 C 166.371 468.862 166.344 468.575 166.3 468.29 C 166.13 467.033 165.497 465.884 164.526 465.068 C 163.869 464.477 163.386 463.886 163.078 463.294 C 162.817 462.814 162.677 462.276 162.67 461.729 L 163.413 460.986 Z" id="path-17" vector-effect="non-scaling-stroke" transform="matrix(1, 0, 0, 1, 1.1368683772161603e-13, 0)"/>
</svg>