<?xml version="1.0" encoding="utf-8"?>
<svg xmlns="http://www.w3.org/2000/svg" viewBox="417.859 199.987 40.449 59.313" width="40.449px" height="59.313px">
  <path d="M 418.601 204.44 C 419.725 204.441 420.845 204.565 421.941 204.811 C 429.665 203.936 437.343 202.698 444.949 201.1 C 447.009 200.497 448.376 200.139 449.048 200.026 C 449.165 200.004 449.284 199.991 449.402 199.987 C 453.848 201.92 456.632 203.475 457.755 204.653 C 458.019 204.896 458.21 205.208 458.308 205.553 C 457.504 206.852 456.886 208.213 456.453 209.636 C 456.359 212.178 456.284 212.72 456.227 215.263 C 456.129 219.771 456.081 223.279 456.082 227.788 C 456.082 229.786 456.1 231.783 456.134 233.781 C 456.239 239.581 456.469 242.377 456.824 248.167 C 455.339 253.737 453.923 257.217 452.577 258.606 C 452.251 259.008 451.774 259.259 451.257 259.3 C 451.101 259.297 450.946 259.258 450.807 259.186 C 450.288 258.929 449.744 258.232 449.175 257.095 C 448.991 256.723 448.819 256.344 448.66 255.96 C 448.158 254.723 447.389 253.486 446.355 252.249 C 445.69 251.46 444.972 250.716 444.207 250.022 C 443.867 249.852 443.519 249.698 443.163 249.562 C 442.077 249.136 440.921 248.915 439.754 248.909 C 438.93 248.913 438.105 248.943 437.282 248.999 C 435.372 249.122 433.007 249.37 430.186 249.744 C 428.673 249.946 427.162 250.162 425.652 250.393 L 425.652 252.249 C 425.451 253.726 425.104 254.803 424.61 255.478 C 424.269 256.007 423.684 256.328 423.054 256.331 C 422.688 256.327 422.33 256.231 422.011 256.05 C 420.885 255.435 419.807 253.814 418.777 251.186 C 418.439 250.315 418.133 249.431 417.859 248.538 C 418.041 247.63 418.21 246.72 418.364 245.807 C 418.608 244.373 418.81 242.932 418.972 241.487 C 419.003 240.712 419.033 239.938 419.062 239.163 C 419.503 227.202 419.721 221.233 419.715 209.264 C 419.714 208.879 419.669 208.496 419.582 208.121 C 419.472 207.632 419.292 207.127 419.044 206.604 C 418.808 206.111 418.536 205.636 418.23 205.182 L 418.601 204.44 Z M 425.281 247.053 C 425.326 247.046 425.37 247.039 425.414 247.032 C 429.432 246.391 432.565 245.819 434.813 245.314 C 435.475 245.168 436.132 245.005 436.785 244.827 C 438.141 244.052 439.118 243.58 439.716 243.412 C 439.849 243.371 439.987 243.348 440.125 243.343 C 442.548 243.931 444.742 245.222 446.433 247.053 C 448.165 247.053 449.031 245.94 449.031 243.714 L 449.031 207.038 C 449.035 206.76 449.003 206.483 448.936 206.213 C 448.762 205.541 448.345 205.111 447.686 204.922 C 447.399 204.844 447.102 204.807 446.804 204.811 C 439.506 205.554 432.208 206.543 424.91 207.78 C 425.08 208.843 425.192 209.76 425.245 210.531 C 425.268 210.85 425.28 211.171 425.281 211.491 L 425.281 219.511 C 425.837 219.425 426.391 219.333 426.944 219.235 C 428.574 218.944 430.105 218.61 431.537 218.232 C 432.938 217.866 434.319 217.426 435.672 216.913 C 437.032 215.942 438.01 215.352 438.607 215.143 C 438.737 215.093 438.873 215.064 439.011 215.057 C 439.289 215.109 439.566 215.165 439.842 215.225 C 441.992 215.691 443.463 216.284 444.255 217.005 C 444.679 217.345 444.932 217.854 444.949 218.397 C 444.959 218.835 444.731 219.244 444.353 219.466 C 444.192 219.571 443.998 219.659 443.771 219.73 C 443.55 219.798 443.323 219.849 443.093 219.882 C 441.859 220.054 440.626 220.236 439.394 220.427 C 435.542 221.028 431.702 221.712 427.879 222.479 L 425.281 222.108 L 425.281 232.241 C 429.982 231.684 433.817 231.066 436.785 230.386 C 436.96 230.21 437.138 230.038 437.319 229.868 C 438.011 229.222 438.563 228.81 438.973 228.632 C 439.102 228.571 439.241 228.536 439.383 228.53 C 439.618 228.581 439.851 228.635 440.084 228.692 C 442.254 229.224 443.749 229.882 444.57 230.667 C 445.032 231.062 445.304 231.634 445.32 232.241 C 445.327 232.503 445.244 232.759 445.085 232.967 C 444.76 233.389 444.096 233.642 443.093 233.725 C 439.259 234.034 434.311 234.653 428.25 235.581 L 425.281 235.21 L 425.281 247.053 Z" id="path-13" vector-effect="non-scaling-stroke" transform="matrix(0.9999999999999999, 0, 0, 0.9999999999999999, 0, -2.842170943040401e-14)"/>
</svg>