<?xml version="1.0" encoding="utf-8"?>
<svg xmlns="http://www.w3.org/2000/svg" viewBox="254.842 509.212 50.435 62.2904" width="50.435px" height="62.2904px">
  <path d="M 283.816 521.83 C 287.096 521.501 289.596 521.208 291.314 520.952 C 291.785 520.883 292.254 520.804 292.722 520.716 C 293.166 520.582 293.675 520.289 294.247 519.837 C 294.489 519.644 294.723 519.443 294.949 519.232 C 295.48 519.31 296.009 519.398 296.537 519.497 C 299.289 520.014 301.178 520.708 302.202 521.579 C 302.754 521.988 303.09 522.627 303.113 523.314 C 303.114 523.472 303.073 523.629 302.993 523.766 C 302.727 524.223 302.017 524.533 300.865 524.696 C 300.502 524.745 300.138 524.779 299.773 524.798 C 297.236 524.864 294.7 524.957 292.166 525.077 C 289.381 525.207 286.598 525.362 283.816 525.541 L 283.445 539.127 C 290.124 538.693 287.44 538.488 295.11 537.932 C 295.191 537.917 295.271 537.896 295.349 537.868 C 295.667 537.758 296.134 537.525 296.75 537.169 C 296.947 537.054 297.142 536.938 297.337 536.819 C 298.008 536.986 298.677 537.167 299.341 537.363 C 302.36 538.254 303.423 538.938 304.461 539.995 C 304.954 540.438 305.248 541.061 305.277 541.724 C 305.277 542.528 304.705 543.005 303.562 543.157 C 303.269 543.193 302.974 543.211 302.679 543.209 C 290.454 543.209 292.413 543.284 286.908 543.435 C 285.629 543.467 284.351 543.515 283.074 543.58 C 283.074 543.998 283.072 544.416 283.07 544.834 C 283.052 547.474 282.636 557.768 282.517 561.436 C 282.468 562.936 282.414 564.436 282.355 565.936 C 282.341 566.145 282.324 566.353 282.305 566.562 C 282.005 569.855 281.155 571.502 279.757 571.502 C 278.918 571.517 278.12 571.14 277.6 570.482 C 276.987 569.748 276.55 568.618 276.29 567.092 C 276.166 566.34 276.084 565.582 276.046 564.822 C 276.166 560.121 276.638 548.28 276.765 543.58 C 264.951 544.384 266.451 544.198 259.295 544.539 C 258.767 544.381 258.247 544.199 257.737 543.992 C 256.751 543.587 256.012 543.143 255.52 542.66 C 255.199 542.365 254.964 541.988 254.842 541.57 L 255.213 540.828 C 268.259 539.872 266.948 540.038 272.747 539.658 C 274.084 539.562 275.424 539.509 276.765 539.498 L 276.765 526.283 C 271.322 526.715 266.003 527.21 260.808 527.767 C 260.783 527.786 260.764 527.824 260.733 527.824 C 258.824 527.795 254.507 524.661 257.156 524.409 C 258.805 524.252 262.021 524.164 264.148 524.056 C 269.173 523.621 272.839 523.299 275.147 523.091 C 275.686 523.042 276.225 522.993 276.765 522.943 L 276.765 515.892 C 276.765 515.691 276.761 515.49 276.754 515.29 C 276.717 514.353 276.59 513.687 276.373 513.293 C 276.297 513.137 276.174 513.007 276.023 512.923 C 275.724 512.751 275.438 512.558 275.167 512.347 C 274.844 512.092 274.578 511.828 274.37 511.555 C 274.004 511.101 273.802 510.537 273.796 509.955 L 274.539 509.212 C 277.339 509.312 279.6 509.789 281.323 510.645 C 282.695 511.282 283.829 512.34 284.558 513.666 C 284.403 514.902 284.248 516.043 284.094 517.087 C 284.006 517.679 283.914 518.27 283.816 518.861 L 283.816 521.83 Z" id="path-8" vector-effect="non-scaling-stroke" transform="matrix(0.9999999999999999, 0, 0, 0.9999999999999999, 2.842170943040401e-14, 0)"/>
</svg>