<?xml version="1.0" encoding="utf-8"?>
<svg xmlns="http://www.w3.org/2000/svg" viewBox="34.941 115.805 48.9854 52.324" width="48.9854px" height="52.324px">
  <path d="M 69.453 144.379 C 69.731 144.584 70.008 144.789 70.285 144.995 C 74.324 147.989 78.254 151.126 82.07 154.399 C 82.336 155.155 82.581 155.919 82.804 156.689 C 83.552 159.28 83.926 161.609 83.926 163.676 C 83.931 164.046 83.888 164.416 83.799 164.776 C 83.566 165.673 83.01 166.247 82.132 166.498 C 81.749 166.601 81.354 166.651 80.957 166.645 C 80.923 166.645 80.889 166.644 80.854 166.641 C 79.451 166.536 77.577 164.312 75.231 159.967 C 74.64 158.866 74.075 157.752 73.535 156.626 C 64.308 159.406 55.261 162.752 46.445 166.645 C 45.914 166.88 45.388 167.128 44.868 167.387 C 44.398 167.621 43.933 167.869 43.476 168.129 C 42.387 167.82 41.333 167.398 40.331 166.87 C 37.478 165.442 35.476 162.74 34.941 159.594 L 35.683 158.852 C 36.004 159.013 36.33 159.166 36.659 159.31 C 37.307 159.591 37.865 159.782 38.331 159.882 C 38.558 159.934 38.79 159.961 39.023 159.965 C 39.079 159.965 39.134 159.964 39.189 159.963 C 39.667 159.952 40.239 159.895 40.905 159.79 C 41.269 159.732 41.631 159.667 41.992 159.594 C 48.95 144.422 53.794 133.176 56.524 125.855 C 57.177 124.132 57.776 122.389 58.32 120.629 C 58.17 120.328 58.02 120.026 57.871 119.724 C 57.222 118.401 56.794 117.465 56.586 116.917 C 56.539 116.796 56.499 116.672 56.465 116.547 L 57.207 115.805 C 58.119 115.971 59.019 116.193 59.902 116.472 C 63.583 117.651 65.777 119.655 66.484 122.485 C 60.124 134.972 53.317 147.226 46.074 159.223 C 50.317 158.322 54.554 157.394 58.784 156.44 C 63.336 155.413 67.882 154.362 72.422 153.286 C 72.128 152.718 71.839 152.147 71.555 151.573 C 70.666 149.774 69.956 148.189 69.425 146.82 C 69.159 146.14 68.921 145.45 68.711 144.751 L 69.453 144.379 Z" id="path-4" vector-effect="non-scaling-stroke" transform="matrix(0.9999999999999999, 0, 0, 0.9999999999999999, 0, -2.842170943040401e-14)"/>
</svg>