<?xml version="1.0" encoding="utf-8"?>
<svg xmlns="http://www.w3.org/2000/svg" viewBox="406.506 469.886 48.589 62.487" width="48.589px" height="62.487px">
  <path d="M 426.711 469.886 C 429.285 470.299 431.059 470.347 432.907 472.186 C 434.001 473.259 434.958 474.464 435.755 475.773 C 435.752 475.779 435.748 475.785 435.745 475.791 C 435.253 476.699 435.553 474.814 433.846 482.824 C 433.585 484.049 433.327 485.274 433.072 486.5 C 441.05 484.83 441.921 484.184 444.334 483.627 C 444.73 483.534 445.117 483.405 445.49 483.244 C 446.141 482.96 446.75 482.589 447.302 482.142 C 451.483 484.531 453.981 486.2 454.798 487.147 C 454.957 487.296 455.061 487.494 455.095 487.709 C 455.093 487.852 455.073 487.994 455.034 488.131 C 454.901 488.624 454.55 489.225 453.982 489.935 C 453.438 492.483 452.951 495.179 452.37 497.719 C 449.553 510.018 448.689 512.968 446.01 519.176 C 445.18 521.099 444.387 522.748 443.373 524.58 C 440.404 529.775 438.301 532.373 437.064 532.373 C 436.915 532.368 436.77 532.32 436.647 532.235 C 436.246 531.98 435.801 531.373 435.312 530.413 C 435.144 530.081 434.986 529.745 434.838 529.404 C 434.008 528.267 433.156 527.145 432.284 526.039 C 430.63 523.949 429.156 522.28 427.863 521.033 C 427.259 520.439 426.613 519.889 425.932 519.385 L 426.303 518.271 C 426.619 518.373 426.934 518.474 427.25 518.574 C 432.063 520.104 434.963 520.869 435.951 520.869 C 437.002 520.869 437.868 520.127 438.549 518.642 C 441.102 513.235 441.021 514.064 442.984 508.397 C 445.106 502.271 446.129 495.678 446.931 489.193 C 446.931 488.975 446.907 488.757 446.86 488.544 C 446.795 488.254 446.694 487.974 446.56 487.709 C 446.298 487.72 446.035 487.739 445.774 487.767 C 443.211 488.027 441.488 488.654 431.958 490.582 C 427.938 504.189 425.275 509.183 419.176 517.312 C 415.817 521.789 411.719 525.569 407.248 528.937 L 406.506 528.566 C 410.954 522.642 415.032 516.241 418.357 510.035 C 421.742 503.717 423.372 499.636 424.908 492.066 C 420.078 493.249 416.74 493.96 414.895 494.201 C 414.524 494.255 414.15 494.285 413.775 494.293 C 413.471 494.211 413.168 494.126 412.866 494.038 C 411.065 493.512 409.566 492.943 408.369 492.331 C 407.793 492.043 407.243 491.706 406.724 491.324 L 407.095 490.211 C 407.955 490.172 408.814 490.115 409.672 490.04 C 412.537 489.794 416.039 489.329 420.176 488.645 C 422.128 488.321 424.076 487.977 426.021 487.613 C 427.505 481.428 427.219 482.082 427.962 476.887 C 427.962 476.776 427.96 476.664 427.955 476.553 C 427.934 476.08 427.87 475.644 427.762 475.245 C 427.601 474.613 427.287 474.03 426.848 473.547 C 426.734 473.419 426.625 473.286 426.521 473.15 C 425.773 472.208 425.97 472.203 425.969 470.999 L 426.711 469.886 Z" id="path-18" vector-effect="non-scaling-stroke"/>
</svg>