<?xml version="1.0" encoding="utf-8"?>
<svg xmlns="http://www.w3.org/2000/svg" viewBox="407.572 147.523 49.693 58.334" width="49.693px" height="58.334px">
  <path d="M 444.276 168.84 C 445.522 167.774 446.575 167.09 447.435 166.789 C 447.731 166.679 448.044 166.62 448.359 166.613 C 448.824 166.676 449.288 166.747 449.751 166.824 C 452.886 167.35 455.04 168.1 456.212 169.075 C 456.853 169.54 457.242 170.275 457.265 171.066 C 457.265 171.641 456.969 172.067 456.377 172.345 C 456.185 172.433 455.985 172.502 455.78 172.551 C 451.906 172.687 448.038 172.965 444.184 173.386 C 439.992 173.843 438.039 174.266 433.883 174.983 C 433.977 175.557 434.068 176.132 434.156 176.707 C 434.685 180.147 435.041 183.155 435.223 185.731 C 435.315 186.971 435.341 188.213 435.368 189.456 C 435.409 191.356 435.301 193.133 434.84 195.24 C 434.576 196.446 434.281 197.645 433.861 198.806 C 432.603 202.222 431.41 204.396 430.282 205.329 C 429.942 205.646 429.502 205.833 429.037 205.857 C 428.659 205.857 427.475 204.531 425.485 201.879 C 425.183 201.475 424.882 201.069 424.584 200.661 C 424.521 200.576 424.452 200.495 424.379 200.418 C 423.762 199.748 422.203 198.419 419.703 196.431 C 418.983 195.859 418.259 195.29 417.533 194.724 L 417.904 193.982 C 418.11 193.992 418.316 194.005 418.521 194.023 C 419.59 194.115 421.151 194.33 423.205 194.667 C 424.037 194.805 424.868 194.947 425.697 195.095 C 426.811 195.095 427.677 194.477 428.295 193.239 C 428.377 192.924 428.413 192.595 428.531 192.292 C 429.387 190.098 429.43 190.808 429.43 187.972 C 429.43 185.808 429.334 183.401 429.14 180.753 C 429.016 179.075 428.866 177.399 428.688 175.726 C 426.462 176.226 424.239 176.742 422.02 177.273 C 419.894 177.783 419.568 177.886 417.635 178.383 C 415.448 178.945 414.569 179.233 412.396 179.848 C 412.197 179.79 411.999 179.73 411.8 179.669 C 409.987 179.11 408.578 178.551 407.572 177.992 L 407.943 177.25 C 412.767 176.076 417.432 174.922 427.946 172.386 C 427.142 169.788 425.534 167.809 423.122 166.448 L 423.493 165.706 L 426.09 165.706 C 426.311 165.404 426.53 165.102 426.749 164.799 C 428.271 162.695 429.686 160.67 430.994 158.726 C 432.244 156.873 433.455 154.994 434.625 153.089 L 433.512 152.347 C 427.142 154.141 420.71 156.12 414.215 158.284 C 413.926 158.188 413.638 158.087 413.351 157.983 C 412.658 157.732 411.833 157.415 410.875 157.032 C 410.38 156.834 409.885 156.633 409.391 156.429 L 409.762 155.687 C 417.4 153.93 424.954 151.824 432.399 149.378 C 432.758 149.167 433.119 148.961 433.483 148.759 C 434.577 148.156 435.405 147.773 435.969 147.611 C 436.135 147.559 436.307 147.529 436.481 147.523 C 437.499 147.887 438.506 148.277 439.503 148.693 C 443.673 150.449 445.758 152.038 445.758 153.46 C 445.758 153.505 445.749 153.55 445.731 153.591 C 445.536 154.063 444.308 154.638 442.047 155.316 C 437.397 158.936 432.82 162.647 428.317 166.448 C 430.387 167.397 431.991 169.134 432.77 171.273 L 444.276 168.84 Z" id="path-25" vector-effect="non-scaling-stroke" transform="matrix(1.0000000000000002, 0, 0, 1.0000000000000002, 0, 0)"/>
</svg>