<?xml version="1.0" encoding="utf-8"?>
<svg xmlns="http://www.w3.org/2000/svg" viewBox="278.128 136.565 52.254 60.331" width="52.254px" height="60.331px">
  <path d="M 278.499 163.965 C 279.938 163.746 281.374 163.511 282.813 163.292 C 285.536 162.878 285.362 163.004 286.955 162.696 C 286.584 157.995 286.017 155.674 285.646 152.211 C 285.646 151.283 284.78 150.169 283.048 148.871 C 282.764 148.66 282.499 148.424 282.258 148.165 C 281.574 147.459 281.192 146.514 281.193 145.531 L 281.935 144.789 C 285.41 144.789 288.089 145.275 289.973 146.247 C 291.141 146.803 292.097 147.724 292.697 148.871 C 292.697 148.917 292.697 148.964 292.697 149.011 C 292.699 151.903 292.964 153.539 293.101 157.443 C 293.15 158.823 293.204 160.203 293.264 161.583 C 293.264 161.583 301.758 159.889 306.054 159.409 C 306.402 155.79 306.488 154.427 306.679 151.279 C 306.821 148.974 306.923 146.666 306.983 144.358 C 306.983 144.229 306.98 144.1 306.975 143.971 C 306.918 142.604 306.549 141.496 305.87 140.647 C 304.88 139.41 304.385 138.297 304.385 137.308 L 305.128 136.565 C 308.172 136.565 310.621 137.287 312.476 138.731 C 313.838 139.819 314.887 141.249 315.518 142.874 L 314.405 146.585 C 314.202 147.711 314.013 148.84 313.837 149.971 C 313.289 153.527 313.043 155.081 312.734 158.666 C 314.979 158.415 317.402 156.903 318.515 155.604 C 319.479 155.763 320.44 155.944 321.396 156.146 C 325.464 157.01 326.377 157.747 327.794 159.013 C 328.479 159.544 328.895 160.349 328.931 161.215 C 328.931 162.451 327.694 163.07 325.22 163.07 C 320.504 163.07 314.214 163.296 311.991 163.491 L 310.511 175.696 C 310.408 176.618 310.2 177.349 309.885 177.889 C 309.502 178.617 308.736 179.063 307.913 179.036 C 307.651 179.03 307.397 178.946 307.182 178.796 C 306.683 178.468 306.185 177.806 305.687 176.809 C 305.603 175.942 304.813 175.012 304.538 173.036 L 305.418 164.17 C 301.557 164.77 297.441 164.78 293.635 165.665 C 293.811 170.831 294.028 175.995 294.284 181.158 C 294.519 185.892 294.797 186.971 295.119 191.7 C 305.139 189.968 304.903 189.036 315.17 187.552 C 317.258 187.312 319.211 186.4 320.736 184.955 C 321.516 185.067 322.295 185.195 323.07 185.338 C 326.963 186.061 327.759 186.875 329.173 188.079 C 329.904 188.619 330.349 189.463 330.382 190.372 C 330.382 191.184 329.633 191.662 328.135 191.808 C 327.772 191.841 327.407 191.857 327.042 191.856 C 325.034 191.855 324.885 192.018 322.877 192.046 C 318.7 192.106 320.62 191.956 317.495 192.148 C 316.101 192.231 314.71 192.34 313.32 192.473 C 311.173 192.681 309.03 192.923 306.891 193.197 C 301.884 193.835 301.041 194.305 294.748 195.411 C 294.605 195.739 294.441 196.013 294.256 196.233 C 293.929 196.653 293.426 196.898 292.893 196.896 C 292.564 196.889 292.243 196.792 291.965 196.616 C 290.744 195.89 289.446 193.757 288.069 190.216 C 288.068 187.5 288.044 184.784 287.996 182.069 C 287.881 175.751 287.658 173.088 287.326 166.778 C 287.041 166.843 286.757 166.917 286.47 166.975 C 285.715 167.128 285.551 167.119 284.443 167.89 C 282.866 167.496 282.199 167.154 280.971 166.55 C 279.95 166.057 278.994 165.438 278.128 164.707 L 278.499 163.965 Z" id="path-18" vector-effect="non-scaling-stroke" transform="matrix(0.9999999999999999, 0, 0, 0.9999999999999999, -2.842170943040401e-14, -8.881784197001252e-16)"/>
</svg>