<?xml version="1.0" encoding="utf-8"?>
<svg xmlns="http://www.w3.org/2000/svg" viewBox="168.296 146.644 54.641 50.613" width="54.641px" height="50.613px">
  <path d="M 181.041 149.613 L 181.04 149.613 C 181.708 149.713 182.367 149.869 183.009 150.08 C 183.756 150.324 184.467 150.666 185.123 151.097 C 186.193 150.914 187.26 150.713 188.323 150.494 C 191.379 149.871 194.399 149.082 197.369 148.129 C 198.064 147.743 198.712 147.404 199.311 147.114 C 199.649 146.95 199.992 146.793 200.337 146.644 C 201.167 146.88 201.99 147.137 202.806 147.417 C 205.185 148.239 206.767 149.062 207.552 149.884 C 207.896 150.198 208.103 150.633 208.13 151.097 C 208.128 151.215 208.107 151.332 208.067 151.442 C 207.91 151.91 207.459 152.523 206.716 153.283 C 206.453 153.552 206.182 153.813 205.904 154.066 C 204.172 165.323 202.437 179.197 202.437 185.011 C 202.42 186.005 202.779 186.968 203.442 187.708 C 203.798 188.104 204.21 188.445 204.664 188.722 C 205.124 188.993 205.615 189.207 206.127 189.359 C 206.666 189.525 207.263 189.647 207.917 189.726 C 208.562 189.802 209.211 189.872 209.859 189.835 C 211.049 189.768 211.066 189.722 212.175 189.351 C 213.093 189.043 213.857 188.398 214.466 187.412 C 214.736 186.968 214.963 186.499 215.144 186.011 C 215.579 184.803 216.051 182.425 216.562 178.876 C 216.717 177.792 216.863 176.707 216.999 175.62 L 218.113 175.991 C 218.604 180.238 219.347 184.451 220.339 188.608 C 220.646 188.925 220.941 189.251 221.225 189.588 C 221.928 190.428 222.415 191.189 222.685 191.873 C 222.843 192.25 222.928 192.653 222.937 193.061 C 222.937 193.502 222.787 193.93 222.512 194.274 C 221.958 194.995 220.863 195.58 219.226 196.03 C 218.918 196.108 218.606 196.173 218.292 196.224 C 216.674 196.497 214.166 196.668 210.769 196.737 C 209.506 196.762 208.162 196.776 206.946 196.435 C 205.745 196.098 205.144 195.885 203.686 195.03 C 202.743 194.477 201.972 193.923 201.203 193.428 C 199.857 192.607 198.847 191.333 198.355 189.835 C 197.833 188.139 197.495 185.923 197.34 183.187 C 197.272 181.941 197.24 180.693 197.242 179.444 C 197.243 177.981 197.256 176.517 197.283 175.053 C 197.328 172.517 198.28 164.482 198.401 161.624 C 198.525 158.733 198.675 155.842 198.853 152.953 L 198.111 152.211 C 195.266 152.644 192.421 153.262 189.576 154.066 C 189.791 154.209 189.97 154.4 190.098 154.624 C 190.197 154.798 190.271 154.985 190.318 155.179 C 190.077 161.556 188.344 172.206 186.855 176.45 C 186.141 178.565 185.141 180.571 183.882 182.413 C 182.507 184.345 181.012 186.189 179.406 187.934 C 176.175 191.422 172.575 194.548 168.668 197.257 L 168.296 196.514 C 169.881 194.626 171.381 192.669 172.793 190.647 C 175.372 186.941 177.41 183.285 178.909 179.68 C 180.914 175.033 182.843 164.694 182.896 159.633 L 182.896 155.551 C 182.897 155.247 182.878 154.943 182.838 154.641 C 182.739 153.917 182.511 153.355 182.154 152.953 C 182.147 152.945 182.139 152.937 182.132 152.928 C 181.433 152.139 180.985 151.475 180.787 150.936 C 180.714 150.751 180.674 150.554 180.669 150.355 L 181.041 149.613 Z" id="path-6" vector-effect="non-scaling-stroke" transform="matrix(0.9999999999999999, 0, 0, 0.9999999999999999, 3.552713678800501e-15, -3.552713678800501e-15)"/>
</svg>