<?xml version="1.0" encoding="utf-8"?>
<svg xmlns="http://www.w3.org/2000/svg" viewBox="29.227 140.565 52.574 60.73" width="52.574px" height="60.73px">
  <path d="M 29.969 145.308 L 29.227 146.05 C 29.431 146.57 29.657 147.081 29.902 147.582 C 30.153 148.098 30.437 148.635 30.754 149.194 C 30.862000000000002 149.384 30.971 149.573 31.082 149.761 C 31.331 150.511 31.535 151.275 31.694 152.048 C 31.742 152.275 31.785 152.502 31.825 152.73 C 32.419 156.621 33.003 160.513 33.576 164.407 C 35.176 175.285 36.324 183.763 37.02 189.839 C 39.742 194.293 41.844 196.519 43.328 196.519 C 43.717 196.515 44.098 196.419 44.442 196.24 C 44.813 196.055 45.184 195.777 45.555 195.405 C 63.403 192.982 58.512 193.506 58.99 193.502 C 61.682 193.532 64.29 194.445 66.412 196.1 C 67.534 198.718 68.514 200.346 69.353 200.985 C 69.569 201.17 69.84 201.279 70.123 201.295 C 71.909 201.295 73.393 199.885 74.575 197.064 C 74.708 196.746 74.832 196.425 74.947 196.1 C 76.032 191.051 76.682 186.043 77.287 180.914 C 78.371 171.721 79.38 163.14 79.946 151.698 C 80.253 151.304 80.538 150.893 80.801 150.469 C 81.335 149.602 81.655 148.82 81.761 148.123 C 81.788 147.955 81.801 147.786 81.801 147.616 C 81.696 145.606 78.785 143.595 73.068 141.585 C 72.029 141.222 70.981 140.882 69.926 140.565 C 67.7 142.049 65.598 142.915 63.618 143.162 C 55.245 144.448 45.345 146.714 36.278 147.905 C 35.584 147.325 34.832 146.817 34.035 146.387 C 33.04 145.859 32.045 145.524 31.049 145.384 C 30.692 145.334 30.331 145.308 29.969 145.308 Z M 37.762 150.874 L 42.586 150.874 C 50.797 149.595 59.958 147.828 68.813 146.873 C 70.611 147.098 71.592 147.935 71.757 149.383 C 71.774 149.536 71.783 149.689 71.782 149.842 C 70.751 165.202 69.918 178.247 67.896 190.905 C 67.352 190.559 66.795 190.235 66.226 189.931 C 64.65 189.096 63.351 188.678 62.33 188.678 C 61.32 188.699 60.312 188.764 59.307 188.874 C 53.491 189.44 63.205 189.051 44.813 192.066 C 43.866 184.963 42.266 175.25 40.014 162.926 C 39.279 158.906 38.528 154.889 37.762 150.874 Z M 44.737 157.762 C 45.55 158.12 46.359 158.488 47.163 158.865 C 54.751 162.431 59.803 165.974 62.316 169.495 C 63.654 171.189 64.305 173.322 64.144 175.474 C 64.126 175.65 64.103 175.826 64.077 176.002 C 63.703 178.485 62.62 179.951 60.826 180.399 C 60.151 180.555 59.453 180.591 58.765 180.506 C 58.44 180.473 58.123 180.387 57.824 180.253 C 56.928 179.848 56.208 178.989 55.664 177.674 C 55.447 177.137 55.269 176.584 55.132 176.02 C 55.115 175.949 55.098 175.878 55.079 175.807 C 53.776 170.636 50.031 165.088 43.843 159.161 L 44.737 157.762 Z" id="path-5" vector-effect="non-scaling-stroke" transform="matrix(1, 0, 0, 1, 0, -1.7763568394002505e-15)"/>
</svg>