<?xml version="1.0" encoding="utf-8"?>
<svg xmlns="http://www.w3.org/2000/svg" viewBox="228.211 368.352 36.367 58.334" width="36.367px" height="58.334px">
  <path d="M 251.59 392.102 C 251.59 392.102 252.261 393.354 252.703 395.812 C 252.797 396.386 252.888 396.961 252.976 397.536 C 253.505 400.976 253.861 403.984 254.043 406.56 C 254.135 407.8 254.161 409.042 254.188 410.285 C 254.229 412.185 254.121 413.962 253.66 416.069 C 253.396 417.275 253.101 418.474 252.681 419.635 C 251.423 423.051 250.23 425.225 249.102 426.158 C 248.762 426.475 248.322 426.662 247.857 426.686 C 247.479 426.686 246.295 425.36 244.305 422.708 C 244.003 422.304 243.702 421.898 243.404 421.49 C 243.341 421.405 243.272 421.324 243.199 421.247 C 242.582 420.577 241.023 419.248 238.523 417.26 C 237.803 416.688 237.079 416.119 236.353 415.553 L 236.724 414.811 C 236.93 414.821 237.136 414.834 237.341 414.852 C 238.41 414.944 239.971 415.159 242.025 415.496 C 242.857 415.634 243.688 415.776 244.517 415.924 C 245.631 415.924 246.497 415.306 247.115 414.068 C 247.197 413.753 247.233 413.424 247.351 413.121 C 248.207 410.927 248.25 411.637 248.25 408.801 C 248.25 406.637 248.154 404.23 247.96 401.582 C 247.836 399.904 247.686 398.228 247.508 396.555 C 247.294 395.266 247.262 394.658 246.766 393.215 C 245.962 390.617 244.354 388.638 241.942 387.277 L 242.313 386.535 L 244.91 386.535 C 245.131 386.233 245.35 385.931 245.569 385.628 C 247.091 383.524 248.506 381.499 249.814 379.555 C 251.064 377.702 252.275 375.823 253.445 373.918 L 252.332 373.176 C 245.962 374.97 239.53 376.949 233.035 379.113 C 232.746 379.017 232.458 378.916 232.171 378.812 C 231.478 378.561 230.653 378.244 229.695 377.861 C 229.2 377.663 228.705 377.462 228.211 377.258 L 228.582 376.516 C 236.22 374.759 243.774 372.653 251.219 370.207 C 251.578 369.996 251.939 369.79 252.303 369.588 C 253.397 368.985 254.225 368.602 254.789 368.44 C 254.955 368.388 255.127 368.358 255.301 368.352 C 256.319 368.716 257.326 369.106 258.323 369.522 C 262.493 371.278 264.578 372.867 264.578 374.289 C 264.578 374.334 264.569 374.379 264.551 374.42 C 264.356 374.892 263.128 375.467 260.867 376.145 C 256.217 379.765 251.64 383.476 247.137 387.277 C 249.207 388.226 250.811 389.963 251.59 392.102 Z" id="path-25" vector-effect="non-scaling-stroke" transform="matrix(1, 0, 0, 1, -2.842170943040401e-14, 0)"/>
</svg>