<?xml version="1.0" encoding="utf-8"?>
<svg xmlns="http://www.w3.org/2000/svg" viewBox="23.157 128.764 40.82 58.632" width="40.82px" height="58.632px">
  <path d="M 50.989 128.764 C 54.218 129.768 56.656 131.022 58.303 132.526 C 59.419 133.494 60.231 134.765 60.638 136.185 C 60.638 136.298 60.628 136.411 60.61 136.522 C 60.511 137.144 60.149 137.898 59.524 138.783 C 59.139 139.706 58.747 140.626 58.346 141.542 C 57.165 144.243 55.972 146.768 54.769 149.116 C 53.599 151.411 52.338 153.659 50.989 155.853 C 51.299 156.129 51.609 156.405 51.919 156.681 C 55.43 159.818 57.834 162.089 59.13 163.495 C 59.398 163.782 59.654 164.08 59.895 164.389 C 60.397 165.116 60.877 165.857 61.336 166.612 C 62.464 168.478 63.231 170.113 63.636 171.518 C 63.849 172.215 63.964 172.938 63.977 173.666 C 63.977 175.646 63.235 176.635 61.751 176.635 C 61.59 176.635 61.429 176.625 61.269 176.605 C 60.092 176.458 58.943 175.772 57.82 174.547 C 57.359 174.038 56.937 173.496 56.556 172.924 C 56.011 172.109 55.448 171.305 54.868 170.514 C 53.862 169.142 52.743 167.713 51.511 166.227 C 50.257 164.72 48.97 163.24 47.649 161.791 C 45.007 166.152 42.02 170.294 38.716 174.178 C 34.422 179.258 29.434 183.708 23.899 187.396 L 23.157 186.654 C 26.755 182.677 30.078 178.46 33.105 174.032 C 36.835 168.568 40.205 162.868 43.196 156.967 C 41.906 155.663 40.612 154.364 39.312 153.07 C 36.613 150.384 34.244 148.077 32.203 146.147 C 31.299 145.291 30.387 144.445 29.466 143.607 L 30.208 142.865 C 34.166 144.597 39.485 147.69 46.165 152.142 C 47.281 149.719 48.348 147.098 49.365 144.279 C 50.368 141.488 51.28 138.664 52.102 135.814 C 52.103 135.519 52.098 135.223 52.089 134.927 C 52.05 133.789 51.931 133.096 51.731 132.846 C 51.346 132.35 51.034 131.854 50.795 131.358 C 50.509 130.776 50.323 130.15 50.247 129.506 L 50.989 128.764 Z" id="path-2" vector-effect="non-scaling-stroke"/>
</svg>