<?xml version="1.0" encoding="utf-8"?>
<svg xmlns="http://www.w3.org/2000/svg" viewBox="416.378 138.352 47.129 61.814" width="47.129px" height="61.814px">
  <path d="M 434.668 149.856 C 431.808 154.185 432.278 153.424 429.61 156.884 C 428.101 158.848 426.535 160.769 424.913 162.642 C 425.507 162.639 426.101 162.604 426.691 162.536 C 428.118 162.378 429.752 162.042 431.593 161.528 C 438.273 159.673 444.458 157.817 450.148 155.962 C 452.498 154.725 453.983 154.106 454.601 154.106 C 455.165 154.4 455.727 154.698 456.286 155.001 C 459.972 156.997 462.247 158.523 463.111 159.578 C 463.333 159.805 463.472 160.1 463.507 160.415 C 463.194 160.915 462.908 161.431 462.651 161.963 C 462.202 162.887 461.866 163.863 461.651 164.868 C 461.455 170.792 461.466 171.799 461.168 177.719 C 460.844 184.169 460.99 185.185 460.572 191.63 C 460.423 192.358 460.257 193.083 460.073 193.804 C 459.359 196.587 458.547 198.456 457.635 199.413 C 457.258 199.866 456.708 200.139 456.119 200.166 C 456.105 200.166 456.091 200.165 456.077 200.163 C 455.779 200.119 455.406 199.62 454.956 198.667 C 454.843 198.427 454.736 198.184 454.634 197.939 C 454.449 197.496 454.246 197.06 454.027 196.633 C 453.433 195.464 452.646 194.168 451.666 192.744 C 451.596 192.611 451.523 192.479 451.446 192.35 C 450.602 190.925 449.458 189.959 448.015 189.452 C 447.159 189.163 446.261 189.021 445.357 189.033 C 442.466 189.033 438.99 189.501 434.929 190.436 C 432.947 190.897 430.979 191.42 429.029 192.002 C 428.933 192.274 428.824 192.543 428.704 192.806 C 428.412 193.445 428.094 193.914 427.752 194.211 C 427.495 194.454 427.156 194.592 426.802 194.599 C 426.399 194.582 426.014 194.43 425.707 194.168 C 424.822 193.483 423.896 191.986 422.929 189.676 C 422.588 188.852 422.271 188.019 421.978 187.177 C 422.097 186.647 422.239 186.11 422.215 185.567 C 422.08 182.495 422.158 184.806 421.933 176.743 C 421.881 174.889 421.945 173.032 421.944 171.177 C 421.946 170.811 421.931 170.446 421.9 170.082 C 421.83 169.287 421.678 168.657 421.442 168.193 C 421.305 167.902 421.095 167.651 420.831 167.466 C 420.24 168.023 419.59 168.618 418.881 169.253 C 418.298 169.775 417.711 170.293 417.12 170.806 L 416.378 170.063 C 418.006 167.354 419.583 164.615 421.107 161.846 C 425.388 154.056 425.403 151.679 427.618 145.403 C 427.618 144.219 427.546 143.361 427.4 142.83 C 427.366 142.692 427.314 142.559 427.247 142.434 C 427.101 142.17 426.965 141.9 426.838 141.626 C 426.637 141.187 426.478 140.766 426.362 140.362 C 426.24 139.949 426.163 139.524 426.133 139.094 L 426.875 138.352 C 430.589 138.839 433.292 140.558 434.983 143.509 C 435.7 144.798 436.22 146.187 436.524 147.63 L 434.668 149.856 Z M 428.658 188.291 C 430.372 188.017 432.083 187.719 433.788 187.397 C 437.928 186.621 442.035 185.682 446.099 184.58 C 446.547 184.651 446.99 184.752 447.424 184.881 C 448.47 185.19 449.516 185.671 450.561 186.324 C 451.479 186.904 452.345 187.562 453.15 188.291 C 454.14 176.168 453.858 173.898 453.858 160.786 C 453.797 160.044 453.302 159.673 452.374 159.673 C 447.788 160.684 443.212 161.735 438.644 162.827 C 434.428 163.835 430.221 164.886 426.026 165.981 C 426.014 165.98 426.001 165.98 425.988 165.979 C 425.183 165.938 424.498 165.826 423.932 165.641 C 423.625 165.544 423.332 165.409 423.058 165.239 L 422.316 165.981 C 424.678 168.025 426.239 169.769 426.999 171.213 C 427.25 171.663 427.423 172.153 427.511 172.661 L 427.77 174.797 C 428.45 174.613 429.127 174.423 429.803 174.227 C 432.624 173.414 435.412 172.49 438.16 171.457 C 439.233 170.997 440.14 170.22 440.758 169.23 C 441.319 169.271 441.878 169.325 442.436 169.391 C 444.838 169.678 446.486 170.153 447.381 170.816 C 447.861 171.116 448.16 171.634 448.18 172.199 C 448.183 172.712 447.921 173.19 447.487 173.463 C 447.296 173.598 447.065 173.716 446.794 173.818 C 446.52 173.918 446.239 173.997 445.953 174.055 C 445.768 174.09 445.582 174.125 445.396 174.16 C 439.478 175.289 433.6 176.616 427.77 178.137 L 428.658 188.291 Z" id="path-12" vector-effect="non-scaling-stroke"/>
</svg>