<?xml version="1.0" encoding="utf-8"?>
<svg xmlns="http://www.w3.org/2000/svg" viewBox="291.3425 120.9874 40.449 59.615" width="40.449px" height="59.615px">
  <path d="M 423.592 254.417 C 426.55 255.246 428.579 256.677 429.681 258.708 C 430.262 259.816 430.589 261.023 430.643 262.252 C 429.996 263.027 429.377 263.823 428.787 264.636 C 428.141 265.528 427.523 266.437 426.932 267.361 C 429.654 267.135 432.251 266.453 434.725 265.318 C 435.018 265.16 435.312 265.004 435.606 264.849 C 436.831 264.207 437.674 263.815 438.136 263.673 C 438.233 263.641 438.334 263.62 438.436 263.614 C 439.185 263.955 439.924 264.315 440.653 264.688 C 442.747 265.769 444.104 266.699 444.724 267.479 C 444.955 267.735 445.092 268.052 445.115 268.383 C 445.115 268.831 444.73 269.492 443.96 270.364 C 443.735 270.618 443.501 270.867 443.26 271.108 C 441.425 274.777 439.426 278.373 437.27 281.891 C 433.3 288.343 429.028 294.013 424.454 298.903 C 418.957 304.914 412.392 310.03 405.037 314.032 L 404.666 313.351 C 406.178 312.027 407.647 310.662 409.071 309.259 C 415.419 302.963 420.918 295.987 425.447 288.483 C 423.041 288.065 420.8 286.669 418.726 284.292 C 417.919 283.356 417.189 282.365 416.541 281.328 L 416.912 280.647 C 417.031 280.656 417.15 280.664 417.269 280.672 C 420.303 280.883 422.535 280.988 423.963 280.988 C 424.919 281.52 425.745 282.227 426.388 283.066 C 426.937 283.789 427.371 284.58 427.674 285.417 C 430.697 280.38 433.302 275.142 435.467 269.746 C 435.467 269.733 435.467 269.718 435.466 269.703 C 435.454 269.161 435.207 268.835 434.725 268.723 C 434.699 268.733 434.673 268.742 434.647 268.75 C 431.431 269.849 428.099 270.639 424.705 271.108 C 423.147 273.037 421.455 274.871 419.639 276.598 C 416.439 279.667 412.77 282.293 408.748 284.394 L 408.377 283.713 C 410.527 281.225 412.537 278.638 414.4 275.961 C 417.591 271.357 420.415 266.548 422.85 261.57 C 422.898 261.418 422.944 261.267 422.988 261.114 C 423.391 259.74 423.592 258.643 423.592 257.822 C 423.443 257.5 423.31 257.171 423.193 256.838 C 422.965 256.18 422.85 255.599 422.85 255.098 L 423.592 254.417 Z" id="path-10" vector-effect="non-scaling-stroke" style="" transform="matrix(1, 0, 0, 1, -113.32344224040861, -133.42962845310012)"/>
</svg>