<?xml version="1.0" encoding="utf-8"?>
<svg xmlns="http://www.w3.org/2000/svg" viewBox="420.787 458.725 53.2874 62.344" width="53.2874px" height="62.344px">
  <path d="M 451.155 458.725 C 454.514 459.107 457.073 459.866 458.83 461.001 C 459.836 461.614 460.649 462.497 461.175 463.55 C 461.08 464.328 460.993 465.106 460.913 465.885 C 460.592 469.015 460.432 471.823 460.432 474.311 C 460.504 474.302 460.575 474.291 460.647 474.282 C 462.402 474.057 461.914 474.223 463.155 473.965 C 463.722 473.79 464.274 473.57 464.805 473.305 C 465.825 472.792 466.768 472.14 467.608 471.367 C 468.362 471.526 469.141 471.612 469.86 471.893 C 470.864 472.286 472.118 472.923 473.237 473.994 C 473.777 474.448 474.044 475.225 474.074 475.93 C 474.084 476.313 473.899 476.674 473.584 476.891 C 473.254 477.132 472.758 477.29 472.096 477.364 C 471.767 477.399 471.437 477.406 471.106 477.414 C 466.19 477.538 468.72 477.157 460.432 478.022 C 460.39 481.208 460.345 484.394 460.297 487.58 C 460.149 497.297 460.001 504.757 459.853 509.959 C 459.809 511.56 459.755 513.161 459.69 514.761 C 459.425 517.767 458.97 519.699 458.326 520.556 C 458.14 520.858 457.818 521.049 457.464 521.069 C 457.231 521.07 457 521.023 456.786 520.93 C 455.892 520.546 455.157 519.367 454.58 517.395 C 454.401 516.771 454.249 516.14 454.124 515.503 C 454.093 514.76 454.063 514.016 454.034 513.272 C 453.593 501.775 453.376 490.271 453.382 478.765 C 449.036 479.262 449.59 479.21 445.279 479.949 C 443.176 495.288 435.136 507.41 421.158 516.316 L 420.787 515.574 C 423.937 512.338 426.792 508.828 429.32 505.085 C 434.247 497.912 437.425 489.685 438.6 481.062 C 435.312 481.659 437.175 481.261 433.908 481.964 C 430.864 482.618 430.695 482.615 427.678 483.382 C 427.022 483.266 426.375 483.102 425.743 482.889 C 424.308 482.4 422.957 481.69 421.74 480.785 L 422.111 480.042 C 426.127 479.278 427.286 479.251 431.31 478.531 C 435.574 477.768 434.7 478.073 438.971 477.351 L 439.342 469.558 C 439.342 469.447 439.34 469.336 439.335 469.225 C 439.314 468.753 439.25 468.316 439.142 467.916 C 438.981 467.285 438.667 466.702 438.229 466.219 C 438.222 466.211 438.214 466.203 438.207 466.194 C 437.508 465.405 437.06 464.741 436.862 464.201 C 436.789 464.016 436.749 463.82 436.744 463.621 L 437.115 462.879 C 440.304 463.169 442.729 463.841 444.389 464.895 C 445.475 465.536 446.312 466.526 446.764 467.703 C 446.711 467.968 446.66 468.233 446.611 468.498 C 446.397 469.665 446.209 470.909 446.046 472.23 C 445.884 473.563 445.752 474.899 445.65 476.238 C 449.609 475.62 448.929 475.672 453.382 475.054 L 453.382 464.663 C 453.258 463.55 452.887 462.684 452.268 462.065 C 452.261 462.057 452.254 462.049 452.247 462.041 C 451.548 461.252 451.099 460.588 450.901 460.048 C 450.828 459.863 450.789 459.667 450.784 459.468 L 451.155 458.725 Z" id="path-90" vector-effect="non-scaling-stroke" transform="matrix(1, 0, 0, 1, 2.842170943040401e-14, 0)"/>
</svg>