<?xml version="1.0" encoding="utf-8"?>
<svg xmlns="http://www.w3.org/2000/svg" viewBox="54.343 141.334 47.216 51.8" width="47.216px" height="51.8px">
  <path d="M 59.215 144.89 C 60.777 145.378 62.403 145.628 64.039 145.632 C 77.646 144.395 76.944 144.674 90.798 142.447 C 90.892 142.42 90.986 142.393 91.08 142.365 C 91.672 142.189 92.366 141.961 93.163 141.682 C 93.489 141.568 93.813 141.452 94.137 141.334 C 99.085 143.375 101.559 144.983 101.559 146.158 C 101.559 146.182 101.559 146.206 101.557 146.23 C 101.526 146.653 101.225 147.178 100.653 147.803 C 100.468 148.005 100.275 148.199 100.075 148.385 C 96.612 161.497 93.272 174.98 90.055 188.834 C 90.102 188.905 90.148 188.976 90.193 189.048 C 90.45 189.46 90.625 189.832 90.718 190.163 C 90.769 190.334 90.796 190.512 90.798 190.69 C 90.8 190.854 90.745 191.013 90.643 191.14 C 90.373 191.483 89.746 191.693 88.762 191.77 C 88.452 191.793 88.141 191.804 87.829 191.803 C 86.407 191.738 84.984 191.676 83.561 191.617 C 82.015 191.553 80.469 191.491 78.923 191.432 C 77.79 191.502 76.653 191.538 75.525 191.661 C 70.812 192.177 66.397 192.553 61.023 193.134 C 61.022 193.134 61.021 193.133 61.02 193.133 C 58.053 192.391 55.827 191.402 54.343 190.165 L 54.714 189.423 C 66.11 188.335 67.56 188.365 78.923 186.979 C 79.549 186.874 80.215 186.711 80.919 186.489 C 81.499 186.305 82.071 186.097 82.634 185.865 C 82.917 185.922 83.199 185.983 83.479 186.048 C 84.011 186.173 84.448 186.297 84.79 186.422 C 84.941 186.476 85.088 186.538 85.231 186.608 C 86.469 180.299 87.362 175.106 88.351 169.045 C 88.197 169.027 88.042 169.009 87.887 168.993 C 86.393 168.836 84.445 168.73 82.042 168.674 C 73.508 168.921 73.038 169.803 67.035 170.84 C 66.61 170.783 66.188 170.71 65.768 170.622 C 64.874 170.434 64.058 170.184 63.319 169.871 C 62.368 169.481 61.491 168.93 60.727 168.242 L 61.098 167.5 C 61.133 167.495 61.167 167.491 61.201 167.485 C 68.891 166.207 68.831 166.074 76.847 165.334 C 78.313 165.09 79.564 164.792 80.601 164.44 C 81.094 164.276 81.576 164.079 82.042 163.85 C 82.281 163.866 82.518 163.897 82.753 163.942 C 84.459 164.266 86.448 165.348 88.722 167.189 C 88.737 167.112 88.752 167.035 88.766 166.958 C 89.983 160.566 91.178 154.208 91.911 149.869 C 91.912 149.648 91.894 149.426 91.855 149.208 C 91.679 148.233 91.082 147.626 90.062 147.387 C 89.694 147.306 89.319 147.268 88.942 147.272 C 84.875 147.69 80.816 148.182 76.751 148.62 C 71.073 149.232 70.45 149.534 65.895 150.085 C 64.835 149.849 63.805 149.494 62.824 149.027 C 61.214 148.277 59.839 147.103 58.844 145.632 L 59.215 144.89 Z" id="path-11" vector-effect="non-scaling-stroke" transform="matrix(0.9999999999999999, 0, 0, 0.9999999999999999, 0, 0)"/>
</svg>