<?xml version="1.0" encoding="utf-8"?>
<svg xmlns="http://www.w3.org/2000/svg" viewBox="181.552 430.52 45.529 57.864" width="45.529px" height="57.864px">
  <path d="M 189.724 477.622 C 189.724 479.588 188.975 480.953 188.562 481.717 C 188.364 482.158 187.962 482.439 187.521 482.446 C 187.267 482.445 187.014 482.391 186.777 482.286 C 185.699 481.817 184.67 480.319 183.69 477.792 C 183.388 477.005 183.114 476.205 182.868 475.395 C 183.081 474.239 183.275 473.079 183.45 471.916 C 183.61 470.852 183.748 469.786 183.865 468.716 L 183.546 456.808 C 183.546 455.701 183.442 454.829 183.231 454.191 C 183.151 453.93 183.032 453.687 182.881 453.469 C 182.808 453.357 182.735 453.244 182.664 453.13 C 182.245 452.458 181.942 451.85 181.753 451.308 C 181.66 451.047 181.593 450.776 181.552 450.5 L 182.216 450.129 L 185.208 450.129 C 185.869 450.07 186.529 450.003 187.189 449.928 C 190.882 449.496 194.548 448.819 198.169 447.902 C 198.277 444.191 197.911 441.034 197.912 437.571 C 197.912 437.254 197.902 436.937 197.88 436.622 C 197.825 435.809 197.69 435.156 197.477 434.663 C 197.351 434.348 197.158 434.073 196.915 433.86 C 196.656 433.647 196.421 433.401 196.214 433.128 C 195.811 432.61 195.587 431.948 195.585 431.262 L 196.249 430.52 C 198.479 430.52 200.348 430.851 201.856 431.514 C 203.665 432.228 205.125 433.75 205.887 435.715 C 205.715 436.486 205.549 437.26 205.388 438.035 C 205.217 438.868 205.051 439.702 204.891 440.539 C 204.552 443.015 204.461 443.659 204.15 446.418 C 204.623 446.309 205.096 446.198 205.568 446.087 C 208.987 445.276 212.393 444.397 215.782 443.449 C 216.686 443.171 217.502 442.853 218.23 442.497 C 218.763 442.239 219.278 441.937 219.77 441.594 C 223.436 443.593 225.723 445.278 226.632 446.649 C 226.898 447.002 227.055 447.441 227.081 447.902 C 226.029 449.324 225.475 450.809 225.419 452.355 C 225.332 454.559 225.424 452.556 225.302 454.759 C 224.997 460.265 224.719 460.783 224.223 465.649 C 223.76 470.279 223.157 474.891 222.416 479.477 C 221.156 483.698 219.896 486.419 218.635 487.639 C 218.222 488.089 217.675 488.354 217.098 488.384 C 217.095 488.383 217.093 488.383 217.09 488.383 C 216.888 488.359 216.272 487.507 215.244 485.827 C 215.086 485.567 214.928 485.306 214.771 485.044 C 214.411 484.556 214.038 484.081 213.653 483.618 C 212.645 482.404 211.494 481.19 210.202 479.976 C 208.893 478.752 207.535 477.595 206.131 476.509 L 206.796 475.766 C 207.523 475.931 208.252 476.087 208.982 476.232 C 210.456 476.522 211.079 476.714 212.115 476.81 C 212.567 476.853 213.021 476.877 213.475 476.88 C 214.177 476.901 214.845 476.544 215.271 475.922 C 215.482 475.626 215.662 475.263 215.811 474.831 C 215.953 474.412 216.06 473.98 216.134 473.54 C 217.152 468.994 217.838 466.301 218.336 455.665 C 218.499 452.125 218.432 452.79 218.525 449.247 C 218.528 448.923 218.495 448.599 218.425 448.285 C 218.243 447.501 217.807 446.999 217.119 446.779 C 216.819 446.688 216.509 446.645 216.198 446.65 C 213.966 447.129 212.318 447.392 210.091 447.902 C 207.997 448.381 205.906 448.876 203.818 449.387 C 203.774 449.672 203.73 449.957 203.684 450.242 C 203.369 452.224 202.823 455.31 201.975 456.642 C 205.908 458.188 208.098 458.552 212.141 459.975 C 212.145 459.98 212.15 459.985 212.153 459.99 C 214.361 462.828 215.464 465.049 215.464 466.654 C 215.467 466.885 215.444 467.116 215.393 467.341 C 215.212 468.12 214.682 468.51 213.803 468.51 C 213.706 468.509 213.609 468.502 213.514 468.487 C 212.676 468.357 211.569 467.685 210.192 466.471 C 209.722 466.053 209.263 465.62 208.817 465.17 C 205.826 462.324 204.347 460.765 201.356 458.168 C 201.173 458.554 200.989 458.939 200.802 459.324 C 196.777 467.622 193.417 468.878 189.392 472.427 L 189.724 477.622 Z M 189.392 470.571 C 191.859 468.986 192.883 466.982 194.266 464.826 C 195.507 462.893 195.796 461.978 196.662 458.664 C 197.684 454.755 198.009 454.678 198.169 450.871 C 195.499 451.43 193.878 451.913 191.231 452.591 C 189.847 452.591 188.406 452.467 186.91 452.22 C 187.618 453.078 188.137 453.916 188.468 454.736 C 188.724 455.344 188.871 456.002 188.904 456.673 L 189.392 470.571 Z" id="path-84" vector-effect="non-scaling-stroke" style=""/>
</svg>