<?xml version="1.0" encoding="utf-8"?>
<svg xmlns="http://www.w3.org/2000/svg" viewBox="312.485 121.612 49.4821 54.26" width="49.4821px" height="54.26px">
  <path d="M 339.086 168.223 C 343.908 167.462 346.887 166.984 351.714 166.261 C 351.884 166.047 352.062 165.84 352.248 165.64 C 353.018 164.816 353.706 164.405 354.311 164.405 C 354.668 164.486 355.025 164.572 355.38 164.663 C 360.357 165.93 361.967 167.312 361.967 169.337 C 361.97 169.561 361.914 169.783 361.804 169.979 C 361.442 170.615 360.478 171.001 358.913 171.137 C 358.448 171.175 357.981 171.193 357.514 171.192 C 350.796 171.192 347.796 171.367 343.065 171.718 C 341.115 171.857 339.169 172.052 337.23 172.305 C 336.686 172.373 336.143 172.445 335.6 172.522 C 330.359 173.255 326.692 174.028 318.423 175.872 C 318.353 175.848 318.282 175.825 318.212 175.802 C 317.159 175.448 316.163 175.095 315.222 174.742 C 314.302 174.397 313.389 174.032 312.485 173.646 L 312.857 172.904 C 313.337 172.81 313.817 172.717 314.297 172.625 C 321.726 171.194 326.076 170.318 333.52 168.966 L 333.321 149.422 C 331.648 149.808 329.978 150.21 328.312 150.628 C 326.515 151.078 326.035 151.296 324.245 151.774 C 321.833 151.155 319.977 150.413 318.678 149.547 L 319.05 148.805 C 319.699 148.68 320.347 148.553 320.995 148.425 C 325.039 147.621 328.272 146.88 333.322 145.711 L 333.106 127.921 C 333.104 127.82 333.085 127.721 333.05 127.627 C 332.871 127.111 332.272 126.343 331.251 125.323 C 331.247 125.318 331.242 125.313 331.238 125.309 C 330.01 124.078 329.396 123.093 329.396 122.354 L 330.138 121.612 C 336.57 122.23 340.157 123.715 340.899 126.065 C 340.877 126.138 340.857 126.212 340.837 126.286 C 340.266 128.456 340.062 128.976 339.795 137.539 C 339.727 139.768 339.672 141.997 339.63 144.227 C 339.904 144.158 340.177 144.088 340.45 144.018 C 342.091 143.592 342.482 143.331 343.757 142.907 C 343.879 142.743 344.004 142.582 344.132 142.424 C 344.787 141.609 345.346 141.08 345.811 140.837 C 345.977 140.741 346.164 140.687 346.355 140.68 C 346.809 140.703 347.263 140.734 347.716 140.772 C 352.746 141.192 355.261 142.398 355.261 144.391 C 355.262 144.567 355.214 144.74 355.124 144.892 C 354.74 145.545 353.549 145.996 351.55 146.246 C 350.791 146.321 350.033 146.407 349.276 146.506 C 347.561 146.728 345.744 147.018 343.824 147.377 C 342.063 147.707 341.377 147.909 339.63 148.309 L 339.086 168.223 Z" id="path-64" vector-effect="non-scaling-stroke" transform="matrix(1, 0, 0, 1, 2.842170943040401e-14, 0)"/>
</svg>