<?xml version="1.0" encoding="utf-8"?>
<svg xmlns="http://www.w3.org/2000/svg" viewBox="168.503 132.607 50.446 57.939" width="50.446px" height="57.939px">
  <path d="M 218.949 188.164 C 216.423 189.002 214.147 189.574 212.125 189.881 C 211.042 190.052 209.952 190.142 208.86 190.148 C 207.875 190.148 206.505 190.074 204.751 189.926 C 204.124 189.872 203.497 189.815 202.869 189.751 C 201.57 187.331 200.264 184.917 198.948 182.51 C 195.179 175.6 191.336 168.754 187.421 161.973 C 184.056 173.819 177.612 183.886 169.133 190.546 L 168.503 189.751 C 176.07 180.493 181.009 169.117 183.321 155.623 C 182.01 155.902 180.704 156.217 179.403 156.567 C 177.86 156.982 176.327 157.462 174.809 158.005 C 174.644 157.914 174.479 157.82 174.315 157.723 C 172.858 156.867 171.657 155.902 170.71 154.83 L 171.341 154.036 C 173.454 153.523 175.568 153.027 177.686 152.547 C 179.667 152.099 181.651 151.67 183.637 151.258 C 183.67 150.849 183.701 150.441 183.733 150.031 C 183.993 146.646 184.158 143.976 184.229 142.023 C 184.253 141.398 184.266 140.772 184.268 140.147 C 184.265 139.44 184.158 138.74 183.952 138.082 C 183.786 137.553 183.575 137.047 183.321 136.575 C 183.157 136.267 183.007 135.948 182.871 135.619 C 182.72 135.247 182.603 134.89 182.52 134.545 C 182.428 134.175 182.379 133.789 182.376 133.4 L 183.006 132.607 C 183.899 132.858 184.778 133.187 185.634 133.592 C 186.579 134.047 187.388 134.573 188.061 135.17 C 189.634 136.419 190.584 138.601 190.573 140.94 C 190.483 141.77 190.386 142.6 190.282 143.427 C 190.002 145.65 189.678 147.865 189.312 150.068 L 198.456 147.686 C 198.723 147.445 198.996 147.214 199.274 146.993 C 200.363 146.133 201.246 145.702 201.924 145.702 C 204.85 146.372 206.851 147.306 207.925 148.506 C 208.5 149.077 208.842 149.94 208.86 150.861 C 208.86 151.652 208.527 152.149 207.859 152.351 C 207.671 152.406 207.478 152.439 207.283 152.449 C 201.157 152.519 195.043 153.182 188.997 154.433 C 188.965 154.623 188.931 154.812 188.896 155.001 C 188.662 156.283 188.381 157.55 188.051 158.798 C 189.586 160.745 191.134 162.673 192.699 164.582 C 195.932 168.524 198.781 171.803 201.244 174.419 C 202.486 175.749 203.765 177.025 205.077 178.244 C 206.018 179.101 206.987 179.91 207.981 180.666 C 209.508 181.834 211.198 182.982 213.05 184.111 C 214.985 185.286 216.954 186.372 218.949 187.371 L 218.949 188.164 Z" id="path-35" vector-effect="non-scaling-stroke" style="" transform="matrix(1.0000000000000002, 0, 0, 1.0000000000000002, 2.842170943040401e-14, 0)"/>
</svg>