<?xml version="1.0" encoding="utf-8"?>
<svg xmlns="http://www.w3.org/2000/svg" viewBox="277.4857 134.0518 46.016 54.939" width="46.016px" height="54.939px">
  <path d="M 20.039 11.858 L 19.297 12.6 C 19.72 13.108 20.115 13.638 20.481 14.188 C 21.248 15.351 21.719 16.426 21.892 17.412 C 21.893 17.416 21.894 17.42 21.895 17.424 L 21.895 48.242 C 21.803 49.991 21.538 51.727 21.103 53.424 C 21.005 53.802 20.898 54.178 20.781 54.551 C 21.033 55.529 21.324 56.497 21.655 57.451 C 22.974 61.208 24.539 63.086 26.348 63.086 C 26.835 63.079 27.287 62.831 27.556 62.425 C 28.05 61.771 28.389 60.631 28.574 59.004 C 36.8 57.519 43.727 56.53 49.355 56.035 C 50.255 56.127 51.125 56.413 51.904 56.873 C 52.048 56.959 52.188 57.051 52.324 57.148 C 52.867 57.514 53.385 57.916 53.874 58.351 C 54.377 58.802 54.807 59.264 55.164 59.737 C 55.346 59.977 55.513 60.228 55.664 60.488 C 56.406 61.725 57.025 62.344 57.52 62.344 C 58.218 62.32 58.88 62.026 59.367 61.525 C 60.596 60.386 61.712 58.062 62.715 54.551 C 62.776 47.698 63.269 40.424 64.194 16.435 C 64.196 16.394 64.197 16.352 64.199 16.311 C 64.329 16.009 64.455 15.706 64.578 15.402 C 64.955 14.465 65.186 13.769 65.273 13.315 C 65.297 13.202 65.31 13.087 65.313 12.971 C 65.282 12.675 65.143 12.401 64.922 12.201 C 63.992 11.19 61.401 9.838 57.148 8.147 L 54.551 8.889 C 49.951 9.819 45.331 10.652 40.695 11.385 C 36.105 12.106 31.761 12.672 27.662 13.083 C 26.73 13.176 25.797 13.263 24.863 13.342 C 22.946 12.6 21.338 12.105 20.039 11.858 Z M 56.406 15.198 C 56.409 14.967 56.382 14.736 56.327 14.511 C 56.124 13.732 55.532 13.342 54.551 13.342 C 53.479 13.453 52.407 13.568 51.336 13.685 C 41.533 14.757 33.698 15.88 27.832 17.053 C 28.017 21.568 28.413 24.151 28.475 33.49 C 32.464 32.655 35.897 31.889 38.773 31.193 C 39.671 30.976 40.568 30.752 41.463 30.521 C 41.573 30.478 41.683 30.433 41.791 30.385 C 43.009 29.867 44.054 29.013 44.803 27.923 C 48.651 28.404 51.139 29.102 52.267 30.015 C 52.682 30.299 52.941 30.761 52.967 31.263 C 52.967 31.364 52.962 31.465 52.951 31.565 C 52.857 32.38 52.368 32.897 51.483 33.118 C 47.726 33.919 43.655 34.66 39.272 35.343 C 35.682 35.899 32.082 36.394 28.475 36.829 C 28.552 42.318 28.358 43.522 28.435 48.045 C 28.478 50.585 28.524 53.124 28.574 55.664 C 30.962 55.039 33.354 54.43 35.75 53.838 C 40.746 52.605 45.157 51.605 48.984 50.84 C 49.339 50.899 49.69 50.984 50.033 51.094 C 51.439 51.536 53.192 52.441 55.293 53.809 C 55.566 47.734 56.064 45.459 56.243 39.381 C 56.527 29.874 56.4 24.709 56.406 15.198 Z" id="path-51" vector-effect="non-scaling-stroke" transform="matrix(0.9999999999999999, 0, 0, 0.9999999999999999, 258.1886635152796, 125.90477177358818)"/>
</svg>