<?xml version="1.0" encoding="utf-8"?>
<svg xmlns="http://www.w3.org/2000/svg" viewBox="281.57 436.38 53.5585 56.618" width="53.5585px" height="56.618px">
  <path d="M 316.573 471.552 C 317.336 471.821 318.096 472.1 318.851 472.389 C 321.074 473.242 323.131 474.143 325.021 475.092 C 326.99 476.071 328.88 477.181 330.675 478.414 C 331.888 479.264 332.87 480.364 333.541 481.628 C 334.114 482.682 334.532 483.891 334.795 485.257 C 335.026 486.51 335.137 487.779 335.128 489.052 C 335.128 490.652 334.385 491.453 332.901 491.453 C 331.767 491.453 330.437 490.435 328.911 488.402 C 328.486 487.832 328.084 487.247 327.706 486.649 C 326.199 484.286 324.581 481.985 322.856 479.754 C 320.821 477.114 318.598 474.602 316.202 472.238 L 316.573 471.552 Z M 296.414 470.009 L 295.671 470.695 C 295.667 471.073 295.73 471.45 295.857 471.811 C 295.98 472.152 296.169 472.471 296.414 472.754 C 295.566 475.3 294.363 477.736 292.836 479.997 C 290.211 483.971 286.456 488.077 281.57 492.312 L 281.57 492.998 C 290.228 489.338 297.774 483.962 304.207 476.871 C 303.286 472.88 300.973 470.623 297.268 470.097 C 296.984 470.057 296.699 470.028 296.414 470.009 Z M 304.207 462.116 C 304.196 462.255 304.166 462.392 304.119 462.524 C 304.013 462.806 303.822 462.991 303.546 463.082 C 303.4 463.126 303.246 463.148 303.093 463.146 C 301.114 463.146 299.259 461.658 297.527 458.685 C 296.69 456.416 295.824 454.157 294.929 451.908 C 294.094 449.809 293.228 447.722 292.332 445.647 C 291.589 443.816 290.599 442.1 289.363 440.499 L 290.476 439.814 C 291.349 439.814 292.22 439.902 293.074 440.076 C 294.233 440.316 295.354 440.689 296.414 441.186 C 304.88 440.263 310.571 439.345 318.92 437.753 C 320.528 436.838 321.517 436.38 321.889 436.38 C 322.776 436.806 323.644 437.27 324.488 437.767 C 326.459 438.936 327.869 440.105 328.719 441.275 C 329.321 442.049 329.657 442.974 329.682 443.929 C 327.702 446.673 325.97 449.361 324.486 451.992 C 323.066 454.487 321.826 457.067 320.775 459.713 C 320.542 460.084 320.291 460.446 320.024 460.798 C 318.997 462.133 318.011 462.801 317.065 462.801 C 316.542 462.814 316.037 462.626 315.67 462.283 C 315.468 462.096 315.293 461.858 315.147 461.57 C 315.015 461.303 314.911 461.026 314.838 460.742 L 304.207 462.116 Z M 319.662 441.527 C 315.814 441.775 311.977 442.147 308.158 442.642 C 303.933 443.189 302.453 443.505 298.269 444.274 L 304.207 459.029 L 315.58 457.311 L 320.775 441.87 L 319.662 441.527 Z" id="path-86" vector-effect="non-scaling-stroke" style=""/>
</svg>