<?xml version="1.0" encoding="utf-8"?>
<svg xmlns="http://www.w3.org/2000/svg" viewBox="361.978 433.381 36.738 57.52" width="36.738px" height="57.52px">
  <path d="M 363.091 448.596 C 364.327 448.782 365.441 449.276 366.431 450.08 C 367.42 450.328 368.286 450.451 369.028 450.451 C 371.163 449.947 373.269 449.328 375.337 448.596 L 375.337 438.205 C 375.202 437.967 375.07 437.727 374.939 437.486 C 374.307 436.32 373.877 435.407 373.65 434.747 C 373.577 434.544 373.521 434.336 373.482 434.123 L 373.853 433.381 C 374.253 433.381 374.654 433.399 375.053 433.436 C 376.437 433.567 377.667 433.931 378.741 434.529 C 380.113 435.312 381.246 436.455 382.017 437.834 C 381.723 439.377 381.516 441.094 381.397 442.985 C 381.313 444.359 381.272 445.736 381.275 447.112 C 382.104 446.873 382.931 446.628 383.757 446.376 C 385.484 445.85 387.007 445.353 388.325 444.885 C 388.946 444.676 389.545 444.404 390.111 444.072 C 390.799 443.667 391.444 443.193 392.036 442.658 C 392.278 442.776 392.52 442.896 392.761 443.016 C 395.761 444.517 397.628 445.734 398.361 446.667 C 398.566 446.893 398.691 447.18 398.716 447.483 C 398.527 447.821 398.358 448.169 398.209 448.526 C 397.898 449.259 397.694 450.033 397.603 450.823 C 397.463 452.227 397.311 453.629 397.147 455.029 C 396.629 459.453 396.039 463.37 395.376 466.78 C 395.297 467 395.217 467.219 395.136 467.437 C 394.142 470.112 393.306 471.77 392.63 472.412 C 392.478 472.586 392.265 472.695 392.036 472.717 C 391.418 472.717 390.181 471.604 388.325 469.377 C 388.299 469.351 388.273 469.324 388.248 469.297 C 387.444 468.472 386.526 467.679 385.494 466.919 C 384.5 466.192 383.462 465.526 382.388 464.924 L 382.388 464.182 C 382.761 464.216 383.134 464.249 383.507 464.282 C 385.105 464.424 386.208 464.51 386.816 464.54 C 386.948 464.548 387.08 464.552 387.212 464.553 C 388.449 464.244 389.191 463.502 389.439 462.326 C 389.676 461.273 389.878 460.212 390.042 459.144 C 390.496 456.232 390.789 452.84 390.923 448.967 C 390.786 448.422 390.483 448.077 390.013 447.932 C 389.826 447.878 389.633 447.852 389.439 447.854 C 388.612 448.09 387.788 448.334 386.967 448.586 C 385.058 449.172 383.16 449.794 381.275 450.451 C 380.903 462.203 380.408 474.078 379.79 486.076 C 379.745 486.41 379.694 486.743 379.637 487.075 C 379.191 489.626 378.5 490.901 377.564 490.901 C 376.636 490.901 376.017 489.293 375.708 486.076 C 375.633 482.095 375.568 478.114 375.512 474.132 C 375.395 465.798 375.337 458.4 375.337 451.936 C 374.9 452.058 374.462 452.177 374.023 452.292 C 372.098 452.797 370.804 453.049 370.142 453.049 L 367.544 453.049 C 367.544 456.111 367.613 459.938 367.753 464.53 C 367.802 466.146 367.856 467.762 367.915 469.377 C 367.863 469.613 367.806 469.848 367.745 470.082 C 367.439 471.236 367.092 472.011 366.704 472.407 C 366.541 472.595 366.308 472.707 366.06 472.717 C 364.946 472.717 363.709 470.862 362.349 467.151 C 362.723 464.433 362.956 462.353 363.047 460.913 C 363.074 460.519 363.088 460.124 363.091 459.729 C 363.091 457.874 362.967 455.524 362.72 452.678 C 362.669 452.318 362.591 451.962 362.486 451.613 C 362.364 451.207 362.194 450.817 361.978 450.451 C 362.301 449.094 361.841 448.904 363.091 448.596 Z" id="path-88" vector-effect="non-scaling-stroke" transform="matrix(1, 0, 0, 1, 2.842170943040401e-14, 0)"/>
</svg>