<?xml version="1.0" encoding="utf-8"?>
<svg xmlns="http://www.w3.org/2000/svg" viewBox="104.971 429.697 40.536 48.535" width="40.536px" height="48.535px">
  <path d="M 105.572 435.264 C 106.075 435.264 106.734 435.392 107.548 435.647 C 107.892 435.756 108.234 435.876 108.574 436.006 C 112.796 435.588 117.368 434.896 122.287 433.931 C 126.34 433.129 130.378 432.212 134.398 431.181 C 134.435 431.17 134.471 431.158 134.509 431.146 C 135.034 430.973 135.641 430.697 136.332 430.32 C 136.692 430.123 137.048 429.915 137.4 429.697 C 138.248 430.083 139.09 430.497 139.922 430.937 C 143.645 432.921 145.507 434.734 145.507 436.377 C 145.507 436.996 145.107 437.861 144.306 438.974 L 139.374 474.522 C 138.924 476.253 138.123 477.119 136.972 477.119 C 136.938 477.119 136.905 477.115 136.872 477.108 C 136.183 476.959 134.816 475.354 132.769 472.295 C 126.713 473.037 120.807 474.15 115.053 475.635 L 115.053 476.377 C 115.011 476.551 114.961 476.722 114.905 476.89 C 114.816 477.148 114.716 477.369 114.604 477.552 C 114.367 477.98 113.972 478.235 113.552 478.232 C 112.738 478.232 111.793 476.926 110.716 474.313 C 110.444 473.65 110.188 472.977 109.949 472.295 C 108.497 462.523 107.122 449.118 106.173 439.346 C 105.622 438.41 105.26 437.591 105.088 436.89 C 105.014 436.604 104.975 436.306 104.971 436.006 L 105.572 435.264 Z M 134.535 468.584 C 135.831 459.344 136.76 446.478 137.665 437.167 C 137.667 436.889 137.641 436.612 137.588 436.342 C 137.445 435.67 137.108 435.24 136.576 435.051 C 136.343 434.973 136.103 434.936 135.863 434.94 C 131.943 435.543 128.374 436.237 124.488 437.119 C 124.5 437.129 124.512 437.138 124.524 437.148 C 125.705 438.128 126.494 439.108 126.89 440.088 C 126.865 440.484 126.839 440.88 126.813 441.276 C 126.658 443.647 126.698 447.612 126.585 449.366 C 126.544 450 126.504 450.634 126.463 451.268 C 126.599 451.229 126.734 451.189 126.869 451.146 C 127.687 450.888 128.44 450.573 129.128 450.201 C 129.887 449.797 129.822 449.787 130.484 449.174 C 133.486 449.793 134.987 450.906 134.987 452.514 C 134.987 452.592 134.974 452.669 134.949 452.74 C 134.816 453.123 134.328 453.419 133.486 453.628 C 132.828 453.737 132.171 453.857 131.515 453.987 C 129.456 454.398 128.194 454.393 126.163 454.979 C 126.156 455.122 126.15 455.265 126.144 455.408 C 125.956 459.718 125.762 465.758 125.563 470.068 C 128.465 469.45 130.631 468.832 132.733 468.213 C 132.885 468.234 133.037 468.256 133.189 468.279 C 133.654 468.352 134.015 468.424 134.274 468.497 C 134.362 468.521 134.449 468.55 134.535 468.584 Z M 115.202 454.612 C 115.95 454.357 116.699 454.111 117.452 453.876 C 119.195 453.332 119.898 453.202 121.659 452.752 C 121.509 449.969 121.235 444.974 121.185 441.572 C 121.157 441.347 121.112 441.126 121.052 440.911 C 120.904 440.373 120.648 439.735 120.285 438.998 C 120.094 438.612 119.893 438.233 119.684 437.861 C 119.332 437.908 118.98 437.954 118.628 438 C 116.078 438.334 114.047 438.585 111.495 438.9 C 112.682 448.922 114.353 462.352 115.568 472.369 C 117.032 471.952 117.585 471.87 118.859 471.531 C 119.791 471.282 120.724 471.042 121.659 470.811 L 121.659 456.092 C 120.158 456.649 119.706 456.777 118.205 457.21 C 118.015 457.171 117.828 457.122 117.642 457.064 C 116.639 456.746 115.705 456.162 114.902 455.354 L 115.202 454.612 Z" id="path-82" vector-effect="non-scaling-stroke" style=""/>
</svg>