<?xml version="1.0" encoding="utf-8"?>
<svg xmlns="http://www.w3.org/2000/svg" viewBox="52.405 132.578 50.0146 61.087" width="50.0146px" height="61.087px">
  <path d="M 60.554 158.442 C 62.904 158.566 65.378 158.937 67.976 159.555 C 68.3 159.813 68.615 160.082 68.919 160.363 C 71.011 162.302 72.058 164.383 72.058 166.606 C 72.058 166.642 72.057 166.678 72.055 166.714 C 72.013 167.445 71.533 167.885 70.617 168.034 C 70.357 168.074 70.095 168.093 69.832 168.091 C 69.388 168.081 68.95 167.984 68.544 167.806 C 66.424 166.935 63.637 164.061 60.183 159.184 L 60.554 158.442 Z M 87.575 143.645 C 87.947 143.442 88.32 143.241 88.695 143.043 C 90.742 141.96 91.977 141.418 92.4 141.418 C 93.272 141.546 94.141 141.695 95.007 141.863 C 99.948 142.833 102.419 144.169 102.419 145.872 C 102.434 146.446 102.157 146.989 101.683 147.314 C 101.188 147.675 100.444 147.912 99.451 148.023 C 98.958 148.076 98.462 148.101 97.966 148.098 C 97.019 148.099 96.073 148.113 95.127 148.141 C 92.982 148.203 90.701 148.334 88.283 148.533 C 86.064 148.718 84.498 148.836 82.288 149.103 C 82.286 153.691 82.323 158.28 82.397 162.867 C 82.469 167.25 82.739 167.375 82.885 171.347 C 83.044 175.821 83.27 180.291 83.563 184.758 C 82.264 190.696 80.78 193.665 79.11 193.665 C 78.568 193.665 77.175 192.055 74.929 188.835 C 74.587 188.345 74.249 187.852 73.915 187.356 C 71.246 184.434 68.259 181.82 65.008 179.563 L 65.38 178.821 C 66.144 179.013 66.909 179.2 67.676 179.383 C 70.87 180.144 73.073 180.575 74.286 180.676 C 74.563 180.679 74.84 180.648 75.11 180.581 C 75.782 180.406 76.213 179.99 76.402 179.331 C 76.479 179.044 76.516 178.748 76.512 178.45 L 75.979 150.217 C 75.61 150.273 75.241 150.33 74.872 150.388 C 69.733 151.196 66.597 151.754 62.885 152.767 C 61.225 153.213 59.586 153.731 57.971 154.318 C 55.986 154.192 54.068 153.553 52.405 152.462 L 52.776 151.72 C 57.013 150.765 61.25 149.807 65.486 148.844 C 69.414 147.952 72.052 147.407 75.979 146.506 L 75.75 141.113 C 75.75 140.765 75.734 140.417 75.702 140.07 C 75.58 138.587 75.086 137.16 74.266 135.918 C 73.524 134.805 73.153 133.939 73.153 133.32 L 73.895 132.578 C 73.93 132.585 73.966 132.593 74.002 132.6 C 77.516 133.329 79.987 134.318 81.414 135.569 C 82.106 136.131 82.594 136.906 82.801 137.773 C 82.665 138.229 82.558 138.694 82.481 139.163 C 82.293 140.249 82.396 140.702 82.334 142.354 C 82.302 143.243 82.286 144.132 82.288 145.021 L 87.575 143.645 Z" id="path-27" vector-effect="non-scaling-stroke" transform="matrix(1, 0, 0, 1, 3.552713678800501e-15, 3.552713678800501e-15)"/>
</svg>