<?xml version="1.0" encoding="utf-8"?>
<svg xmlns="http://www.w3.org/2000/svg" viewBox="222.249 129.2319 46.4833 59.6981" width="46.4833px" height="59.6981px">
  <path d="M 229.553 141.642 C 231.533 142.487 233.249 143.174 234.703 143.702 C 235.306 143.922 235.915 144.13 236.526 144.324 C 237.167 145.551 237.621 146.705 237.89 147.784 C 238.08 148.516 238.179 149.269 238.186 150.026 C 238.186 150.079 238.186 150.133 238.184 150.187 C 238.171 150.618 238.103 150.957 237.98 151.204 C 237.843 151.519 237.53 151.716 237.19 151.702 C 236.758 151.695 236.332 151.594 235.942 151.405 C 233.963 150.489 231.723 147.458 229.221 142.312 L 229.553 141.642 Z M 258.439 133.257 C 262.645 135.045 264.748 137.504 264.748 140.635 L 262.091 141.977 C 261.087 142.71 260.077 143.437 259.062 144.157 C 255.905 146.395 252.709 148.574 249.475 150.696 L 249.143 150.026 C 252.413 145.792 255.514 141.428 258.439 136.946 C 258.319 136.533 258.21 136.116 258.112 135.698 C 257.925 134.895 257.813 134.193 257.775 133.592 L 258.439 133.257 Z M 247.483 162.434 C 249.575 163.434 252.165 164.486 255.25 165.59 C 256.749 166.125 258.255 166.639 259.768 167.13 C 260.254 167.528 260.734 167.933 261.209 168.345 C 265.561 172.117 267.736 175.066 267.736 177.192 C 267.737 177.412 267.724 177.632 267.698 177.851 C 267.555 178.976 267.015 179.539 266.076 179.539 C 264.381 179.539 259.424 175.601 251.205 167.728 C 249.956 166.53 248.715 165.325 247.483 164.112 L 247.483 185.241 C 247.234 186.826 246.869 187.9 246.389 188.464 C 246.175 188.748 245.845 188.92 245.491 188.93 C 244.276 188.93 243.243 187.524 242.393 184.713 C 242.182 184.002 241.997 183.282 241.839 182.558 C 242.115 181.775 242.336 180.545 242.503 178.868 C 242.724 175.906 242.835 171.769 242.835 166.46 C 241.674 167.777 240.447 169.034 239.16 170.226 C 234.802 174.276 229.275 178.164 222.581 181.887 L 222.249 181.216 C 224.808 179.108 227.264 176.876 229.608 174.528 C 234.276 169.885 238.382 164.7 241.839 159.081 C 241.18 159.235 240.522 159.392 239.863 159.552 C 237.922 160.024 236.078 160.496 234.333 160.968 C 232.621 161.428 230.918 161.918 229.221 162.434 C 227.862 161.831 226.532 161.159 225.237 160.423 L 225.569 159.752 C 228.641 159.165 232.646 158.326 237.584 157.236 C 239.335 156.849 241.085 156.458 242.835 156.063 L 242.835 134.934 C 242.835 134.848 242.832 134.762 242.827 134.677 C 242.792 133.609 242.312 132.607 241.506 131.915 C 240.905 131.383 240.507 130.903 240.314 130.475 C 240.229 130.296 240.183 130.101 240.178 129.903 L 240.51 129.232 C 241.041 129.23 241.571 129.254 242.1 129.301 C 243.132 129.395 244.053 129.585 244.865 129.871 C 246.677 130.43 248.134 131.803 248.81 133.592 C 248.652 133.925 248.506 134.264 248.374 134.61 C 248.213 135.029 248.086 135.427 247.993 135.806 C 247.899 136.179 247.84 136.561 247.814 136.946 L 247.483 155.056 C 249.311 154.676 251.137 154.284 252.961 153.882 C 254.68 153.503 256.395 153.112 258.107 152.709 C 258.179 152.64 258.25 152.571 258.321 152.502 C 259.334 151.526 259.988 150.946 260.283 150.762 C 260.327 150.728 260.378 150.705 260.432 150.696 C 261.012 150.807 261.591 150.93 262.167 151.063 C 265.011 151.727 266.931 152.521 267.927 153.447 C 268.413 153.84 268.707 154.427 268.732 155.056 C 268.741 155.402 268.575 155.729 268.293 155.926 C 267.998 156.143 267.554 156.285 266.961 156.353 C 266.667 156.385 266.372 156.399 266.076 156.398 C 259.989 156.398 253.791 156.957 247.483 158.075 L 247.483 162.434 Z" id="path-37" vector-effect="non-scaling-stroke" style="" transform="matrix(1, 0, 0, 1, 1.4210854715202004e-14, 0)"/>
</svg>