<?xml version="1.0" encoding="utf-8"?>
<svg xmlns="http://www.w3.org/2000/svg" viewBox="18.401 478.371 49.177 57.148" width="49.177px" height="57.148px">
  <path d="M 26.936 496.183 C 28.572 497.438 30.31 498.555 32.131 499.523 C 32.297 500.04 32.439 500.565 32.554 501.096 C 32.762 502.042 32.869 503.007 32.873 503.976 C 32.873 504.063 32.872 504.151 32.87 504.239 C 32.847 505.009 32.721 505.615 32.492 506.057 C 32.226 506.624 31.644 506.975 31.018 506.945 C 30.439 506.92 29.897 506.655 29.522 506.214 C 28.212 504.864 27.103 501.644 26.194 496.554 L 26.936 496.183 Z M 52.541 484.679 C 53.287 484.816 54.024 484.997 54.748 485.222 C 55.697 485.521 56.517 485.882 57.207 486.304 C 58.927 487.229 59.99 489.035 59.963 490.988 L 57.737 492.472 C 54.212 495.75 50.377 498.966 46.233 502.121 L 45.491 501.378 C 46.41 499.849 47.304 498.306 48.173 496.748 C 49.84 493.75 51.173 491.088 52.17 488.761 C 52.17 488.471 52.166 488.182 52.156 487.893 C 52.13 487.172 52.07 486.57 51.976 486.087 C 51.934 485.861 51.875 485.638 51.799 485.421 L 52.541 484.679 Z M 33.244 478.371 C 34.189 478.447 35.13 478.562 36.065 478.716 C 38.343 479.098 40.08 479.692 41.277 480.496 C 42.502 481.21 43.257 482.519 43.264 483.937 C 42.933 484.524 42.668 485.199 42.469 485.961 C 42.326 486.516 42.22 487.079 42.151 487.648 C 42.027 494.08 41.532 499.893 40.666 505.089 C 42.923 507.979 45.081 512.374 47.067 515.456 C 49.869 519.804 51.803 523.228 55.188 525.905 C 56.905 527.323 57.095 527.529 59.118 528.462 C 60.838 529.255 63.31 530.862 67.578 532.511 L 67.578 533.254 C 66.611 533.309 65.644 533.36 64.677 533.407 C 62.654 533.505 63.143 533.498 61.58 533.53 C 60.876 533.545 60.173 533.553 59.469 533.554 C 59.131 533.553 58.794 533.551 58.456 533.546 C 57.42 533.531 56.318 533.494 55.151 533.436 C 53.868 533.37 52.586 533.286 51.305 533.183 C 46.227 524.647 44.329 517.29 40.295 507.687 C 39.04 511.289 37.471 514.775 35.607 518.103 C 31.705 525.225 26.035 531.223 19.143 535.519 L 18.401 534.777 C 26.07 527.726 31.266 519.067 33.987 508.8 C 34.209 507.824 34.399 506.842 34.559 505.855 C 35.125 502.4 35.504 498.14 35.695 493.076 C 35.797 490.278 35.846000000000004 487.478 35.842 484.679 C 35.79 484.459 35.73 484.241 35.663 484.025 C 35.354 483.043 34.919 482.271 34.358 481.711 C 33.677 481.03 33.172 480.408 32.843 479.845 C 32.704 479.613 32.59 479.368 32.502 479.113 L 33.244 478.371 Z" id="path-50" vector-effect="non-scaling-stroke" transform="matrix(1, 0, 0, 0.9999999999999999, 0, -5.684341886080802e-14)"/>
</svg>