<?xml version="1.0" encoding="utf-8"?>
<svg xmlns="http://www.w3.org/2000/svg" viewBox="430.611 136.107 45.799 59.268" width="45.799px" height="59.268px">
  <path d="M 447.36 136.107 C 449.282 136.107 450.946 136.338 452.35 136.799 C 454.044 137.313 455.499 138.343 456.477 139.721 C 456.783 141.088 456.667 141.511 456.287 143.006 C 456.157 143.517 455.921 143.599 455.745 144.479 C 455.459 145.913 455.568 147.399 455.501 148.86 C 458.432 148.207 460.235 147.945 463.383 147.193 C 463.853 147.07 464.313 146.92 464.763 146.742 C 465.659 146.381 466.508 145.926 467.291 145.386 C 468.284 145.662 469.27 145.963 470.247 146.287 C 473.047 147.223 474.893 148.128 475.786 149.001 C 476.153 149.313 476.377 149.744 476.41 150.205 C 476.404 150.265 476.389 150.325 476.366 150.381 C 476.239 150.711 475.838 151.372 475.163 152.362 C 475.037 152.547 474.91 152.731 474.781 152.915 C 471.694 161.234 469.467 166.704 468.1 169.325 C 467.866 169.795 467.595 170.248 467.291 170.683 C 466.982 171.092 466.655 171.416 466.311 171.658 C 465.849 171.999 465.276 172.186 464.686 172.19 C 463.926 172.19 463.166 171.587 462.406 170.382 C 462.233 170.334 462.058 170.291 461.882 170.257 C 461.577 170.197 461.247 170.153 460.892 170.123 C 460.529 170.094 460.164 170.08 459.801 170.081 C 459.64 170.082 459.482 170.088 459.324 170.098 C 458.496 170.151 458.523 169.888 456.93 170.191 C 456.344 170.303 455.759 170.421 455.176 170.543 L 453.872 190.256 C 453.639 192.695 453.24 194.263 452.675 194.959 C 452.511 195.203 452.228 195.359 451.918 195.375 C 450.939 195.375 450.178 194.227 449.637 191.93 C 449.508 191.376 449.399 190.817 449.313 190.256 L 449.313 171.447 L 442.987 172.539 C 442.706 173.445 442.382 174.058 442.012 174.38 C 441.84 174.545 441.605 174.641 441.358 174.647 C 440.652 174.647 439.587 173.785 438.166 172.063 C 437.807 171.626 437.46 171.183 437.125 170.732 C 437.029 170.378 436.935 170.024 436.841 169.67 C 435.465 164.515 434.149 159.348 432.891 154.168 C 432.793 154.04 432.696 153.911 432.599 153.782 C 431.715 152.601 431.053 151.626 430.611 150.855 L 431.263 150.253 C 432.508 150.248 433.74 150.48 434.884 150.933 C 435.943 151.361 436.919 151.945 437.775 152.662 L 449.313 150.065 L 449.313 142.432 C 449.313 141.456 449.176 140.69 448.902 140.136 C 448.775 139.861 448.58 139.616 448.337 139.42 C 447.758 138.941 447.336 138.46 447.066 137.98 C 446.836 137.59 446.713 137.153 446.708 136.71 L 447.36 136.107 Z M 455.501 157.292 C 455.628 157.253 455.756 157.21 455.882 157.166 C 456.676 156.882 457.31 156.522 457.78 156.088 C 461.037 156.54 462.665 157.142 462.665 157.895 C 462.669 158.166 462.583 158.433 462.42 158.659 C 462.206 158.954 461.854 159.202 461.363 159.401 L 455.501 160.906 L 455.176 167.833 C 455.267 167.81 455.36 167.788 455.452 167.766 C 457.809 167.201 458.326 167.263 459.475 167.069 C 460.569 167.07 461.659 167.171 462.732 167.371 C 464.577 161.95 465.879 156.729 466.64 151.71 C 466.618 151.653 466.594 151.598 466.567 151.544 C 466.386 151.168 466.115 150.892 465.754 150.716 C 465.522 150.606 465.27 150.534 465.011 150.506 L 455.501 151.871 L 455.501 157.292 Z M 440.381 161.094 C 442.117 161.094 444.102 160.706 449.313 159.1 L 449.313 153.076 L 440.381 155.072 L 438.753 154.77 L 440.381 161.094 Z M 442.335 169.226 L 442.987 170.129 L 449.313 168.737 L 449.313 162.412 L 444.289 163.504 L 440.706 163.203 L 442.335 169.226 Z" id="path-35" vector-effect="non-scaling-stroke" style="" transform="matrix(1, 0, 0, 1, -5.684341886080802e-14, 0)"/>
</svg>