<?xml version="1.0" encoding="utf-8"?>
<svg viewBox="416.1756 128.513 52.5009 62.8008" width="52.501" height="62.801" xmlns="http://www.w3.org/2000/svg">
  <path d="M 439.276 188.213 L 439.276 175.013 C 439.277 174.933 439.267 174.854 439.246 174.776 C 439.177 174.534 438.987 174.413 438.676 174.413 L 421.576 174.413 C 420.167 174.428 418.813 173.868 417.826 172.863 C 417.809 172.847 417.793 172.83 417.776 172.813 C 417.222 172.273 416.791 171.62 416.51 170.899 C 416.284 170.296 416.171 169.657 416.176 169.013 L 416.176 145.613 C 416.167 144.868 416.312 144.129 416.601 143.441 C 416.877 142.81 417.277 142.239 417.776 141.763 C 418.843 140.73 420.109 140.213 421.576 140.213 L 438.676 140.213 C 438.756 140.214 438.836 140.204 438.913 140.183 C 439.155 140.115 439.276 139.925 439.276 139.613 L 439.276 131.713 C 439.272 131.32 439.337 130.928 439.468 130.556 C 439.627 130.121 439.887 129.729 440.226 129.413 C 440.859 128.813 441.609 128.513 442.476 128.513 C 443.343 128.513 444.076 128.813 444.676 129.413 C 445.2 129.936 445.515 130.633 445.562 131.371 C 445.571 131.485 445.576 131.599 445.576 131.713 L 445.576 139.613 C 445.575 139.694 445.585 139.774 445.606 139.851 C 445.675 140.093 445.865 140.213 446.176 140.213 L 463.276 140.213 C 463.993 140.206 464.705 140.335 465.373 140.595 C 466.031 140.86 466.628 141.258 467.126 141.763 C 468.135 142.76 468.695 144.124 468.676 145.542 C 468.676 145.566 468.676 145.59 468.676 145.613 L 468.676 169.013 C 468.684 169.731 468.555 170.443 468.295 171.111 C 468.029 171.769 467.632 172.366 467.126 172.863 C 466.13 173.872 464.766 174.432 463.348 174.413 C 463.324 174.414 463.3 174.414 463.276 174.413 L 446.176 174.413 C 446.096 174.412 446.016 174.423 445.939 174.443 C 445.697 174.513 445.576 174.703 445.576 175.013 L 445.576 188.213 C 445.576 189.08 445.276 189.813 444.676 190.413 C 444.109 190.994 443.329 191.319 442.517 191.313 C 442.503 191.314 442.49 191.314 442.476 191.313 C 441.609 191.313 440.859 191.013 440.226 190.413 C 439.866 190.082 439.594 189.666 439.433 189.203 C 439.327 188.884 439.274 188.55 439.276 188.213 Z M 446.176 168.313 L 461.976 168.313 C 462.056 168.314 462.136 168.304 462.213 168.283 C 462.455 168.215 462.576 168.025 462.576 167.713 L 462.576 161.313 C 462.577 161.233 462.567 161.154 462.546 161.076 C 462.477 160.834 462.287 160.713 461.976 160.713 L 446.176 160.713 C 446.096 160.712 446.016 160.723 445.939 160.743 C 445.697 160.813 445.576 161.003 445.576 161.313 L 445.576 167.713 C 445.575 167.794 445.585 167.874 445.606 167.951 C 445.675 168.193 445.865 168.313 446.176 168.313 Z M 422.976 168.313 L 438.676 168.313 C 438.756 168.314 438.836 168.304 438.913 168.283 C 439.155 168.215 439.276 168.025 439.276 167.713 L 439.276 161.313 C 439.277 161.233 439.267 161.154 439.246 161.076 C 439.177 160.834 438.987 160.713 438.676 160.713 L 422.976 160.713 C 422.896 160.712 422.816 160.723 422.739 160.743 C 422.497 160.813 422.376 161.003 422.376 161.313 L 422.376 167.713 C 422.375 167.794 422.385 167.874 422.406 167.951 C 422.475 168.193 422.665 168.313 422.976 168.313 Z M 446.176 154.613 L 461.976 154.613 C 462.056 154.614 462.136 154.604 462.213 154.583 C 462.455 154.515 462.576 154.325 462.576 154.013 L 462.576 146.913 C 462.577 146.833 462.567 146.754 462.546 146.676 C 462.477 146.434 462.287 146.313 461.976 146.313 L 446.176 146.313 C 446.096 146.312 446.016 146.323 445.939 146.343 C 445.697 146.413 445.576 146.603 445.576 146.913 L 445.576 154.013 C 445.575 154.094 445.585 154.174 445.606 154.251 C 445.675 154.493 445.865 154.613 446.176 154.613 Z M 422.976 154.613 L 438.676 154.613 C 438.756 154.614 438.836 154.604 438.913 154.583 C 439.155 154.515 439.276 154.325 439.276 154.013 L 439.276 146.913 C 439.277 146.833 439.267 146.754 439.246 146.676 C 439.177 146.434 438.987 146.313 438.676 146.313 L 422.976 146.313 C 422.896 146.312 422.816 146.323 422.739 146.343 C 422.497 146.413 422.376 146.603 422.376 146.913 L 422.376 154.013 C 422.375 154.094 422.385 154.174 422.406 154.251 C 422.475 154.493 422.665 154.613 422.976 154.613 Z" id="path-10" transform="matrix(1, 0, 0, 1, 0, -2.842170943040401e-14)"/>
</svg>