<?xml version="1.0" encoding="utf-8"?>
<svg xmlns="http://www.w3.org/2000/svg" viewBox="407.838 457.929 38.0822 58.918" width="38.0822px" height="58.918px">
  <path d="M 433.273 495.716 C 433.756 495.956 434.234 496.206 434.706 496.465 C 437.725 498.121 442.349 504.334 444.065 506.338 C 444.992 509.024 445.572 511.125 445.804 512.641 C 445.875 513.079 445.914 513.52 445.92 513.963 C 445.923 514.179 445.896 514.394 445.841 514.605 C 445.638 515.331 445.046 515.695 444.065 515.695 C 443.741 515.685 443.426 515.595 443.152 515.432 C 441.955 514.777 438.271 508.517 436.612 505.42 C 429.545 508.259 419.442 512.411 412.662 515.807 L 411.178 516.847 C 411.102 516.846 411.026 516.833 410.955 516.808 C 410.627 516.692 410.299 516.324 409.972 515.703 C 409.871 515.51 409.778 515.313 409.694 515.114 C 409.565 514.633 409.454 514.149 409.36 513.661 C 409.083 512.196 408.946 510.71 408.951 509.222 C 409.326 508.959 409.697 508.692 410.065 508.42 C 411.212 507.57 412.326 506.681 413.404 505.757 C 417.734 500.673 421.692 495.243 425.279 489.467 C 424.188 489.689 423.104 489.938 422.027 490.214 C 420.119 490.704 418.233 491.265 416.373 491.893 C 414.765 492.47 413.281 493.048 411.92 493.626 C 411.533 493.626 410.996 493.414 410.307 492.991 C 410.098 492.862 409.894 492.727 409.694 492.586 C 409.25 491.99 408.876 491.351 408.58 490.68 C 408.259 489.952 408.011 489.198 407.838 488.427 C 409.57 487.156 411.054 485.885 412.291 484.615 C 417.815 478.019 422.428 470.799 426.022 463.127 C 426.022 462.332 425.925 461.448 425.732 460.474 C 425.607 459.851 425.455 459.233 425.279 458.622 L 425.651 457.929 C 426.033 458.031 426.411 458.146 426.785 458.273 C 427.87 458.641 428.805 459.084 429.592 459.6 C 431.598 460.84 432.775 462.961 432.701 465.207 C 429.541 469.159 426.387 473.116 423.238 477.077 C 420.325 480.741 417.419 484.409 414.518 488.081 C 418.971 487.619 423.176 487.04 427.135 486.347 C 430.045 481.825 432.769 477.201 435.299 472.485 C 435.299 472.286 435.293 472.087 435.281 471.889 C 435.21 470.789 434.966 469.706 434.557 468.673 L 435.299 467.979 C 436.274 468.248 437.211 468.623 438.092 469.099 C 439.529 469.891 440.567 470.909 441.207 472.157 C 441.739 473.237 442.003 474.415 441.979 475.603 L 440.494 476.99 C 439.579 478.294 438.653 479.592 437.717 480.884 C 430.952 490.192 423.705 499.186 416.002 507.835 C 417.994 507.48 419.977 507.085 421.951 506.649 C 425.44 505.877 432.07 503.972 435.499 502.994 C 434.51 501.261 433.644 499.066 432.902 496.409 L 433.273 495.716 Z" id="path-51" vector-effect="non-scaling-stroke" style="" transform="matrix(0.9999999999999999, 0, 0, 0.9999999999999999, -2.842170943040401e-14, 0)"/>
</svg>