<?xml version="1.0" encoding="utf-8"?>
<svg xmlns="http://www.w3.org/2000/svg" viewBox="209.35 444.857 48.685 58.302" width="48.685px" height="58.302px">
  <path d="M 227.346 444.857 C 231.658 444.857 235.063 446.465 237.56 449.682 C 237.557 450.264 237.492 450.844 237.367 451.41 C 237.246 451.961 237.083 452.5 236.879 453.021 C 236.594 466.506 235.96 477.061 235.564 490.542 C 240.54 489.662 245.535 488.919 250.545 488.315 L 250.545 476.44 C 250.559 475.055 250.069 473.721 249.183 472.729 C 248.517 471.911 248.154 470.853 248.161 469.76 L 248.842 469.018 C 249.898 469.016 250.946 469.213 251.94 469.6 C 253.184 470.083 254.377 470.868 255.518 471.954 C 256.45 472.856 257.294 473.862 258.035 474.956 L 257.353 478.296 C 256.971 481.651 256.589 485.006 256.204 488.361 C 255.794 491.933 255.383 495.505 254.971 499.077 C 254.913 499.397 254.844 499.713 254.764 500.027 C 254.291 501.868 253.565 502.788 252.587 502.788 C 251.226 502.788 250.317 501.056 249.863 497.592 L 250.204 490.913 C 242.862 492.304 236.132 494.009 230.012 496.027 C 225.525 497.487 221.126 499.249 216.84 501.303 C 216.508 501.505 216.174 501.701 215.837 501.892 C 214.344 502.737 213.317 503.159 212.755 503.159 C 211.676 503.159 210.541 501.303 209.35 497.592 C 211.175 493.028 212.103 488.099 212.074 483.12 C 212.071 482.924 212.039 482.729 211.979 482.544 C 211.859 482.153 211.624 481.716 211.276 481.231 C 211.098 480.986 210.91 480.749 210.712 480.522 C 210.651 480.444 210.59 480.364 210.533 480.283 C 210.309 479.97 210.13 479.658 209.996 479.345 C 209.799 478.902 209.694 478.417 209.69 477.924 L 210.371 477.182 C 212.572 477.154 214.674 478.183 216.116 479.996 C 216.8 480.831 217.388 481.756 217.862 482.749 C 217.671 484.121 217.46 485.489 217.229 486.853 C 216.784 489.463 216.314 491.682 215.819 493.51 L 216.499 494.253 C 216.825 494.184 217.151 494.115 217.477 494.046 C 222.021 493.087 226.122 492.29 229.777 491.655 L 230.07 453.021 C 230.078 452.219 229.918 451.425 229.603 450.7 C 229.301 450.03 228.881 449.432 228.368 448.939 C 227.233 447.764 226.666 446.651 226.666 445.6 L 227.346 444.857 Z" id="path-54" vector-effect="non-scaling-stroke" style="" transform="matrix(1, 0, 0, 0.9999999999999999, 0, -5.684341886080802e-14)"/>
</svg>