<?xml version="1.0" encoding="utf-8"?>
<svg xmlns="http://www.w3.org/2000/svg" viewBox="318.666 464.333 50.427 59.775" width="50.427px" height="59.775px">
  <path d="M 331.153 464.333 C 333.511 464.602 335.209 465.789 336.245 467.894 C 336.675 468.797 336.982 469.774 337.156 470.788 C 337.154 470.863 337.142 470.938 337.121 471.009 C 337.023 471.375 336.714 471.955 336.195 472.752 L 332.354 481.732 C 334.999 481.337 337.639 480.893 340.272 480.397 C 343.409 479.809 346.533 479.131 349.642 478.365 C 349.809 478.318 349.972 478.26 350.132 478.191 C 350.77 477.92 351.72 477.394 352.984 476.612 C 353.393 476.358 353.8 476.1 354.205 475.839 C 358.527 477.149 360.689 478.551 360.689 480.049 C 360.689 480.113 360.686 480.178 360.68 480.242 C 360.629 480.832 360.332 481.207 359.789 481.367 C 359.611 481.416 359.43 481.445 359.248 481.452 C 354.925 481.545 350.523 481.92 346.041 482.575 C 346.17 482.681 346.298 482.789 346.425 482.9 C 348.089 484.344 348.922 485.545 348.922 486.503 C 348.922 486.552 348.92 486.601 348.916 486.649 C 348.883 487.018 348.739 487.563 348.483 488.284 C 348.393 488.534 348.299 488.783 348.202 489.029 C 348.112 489.297 348.021 489.564 347.929 489.832 C 346.595 493.728 345 497.494 343.159 501.096 C 345.137 503.608 347.212 506.013 349.378 508.303 C 356.043 515.316 362.614 519.93 369.093 522.144 L 368.853 522.986 C 368.687 523.033 368.522 523.078 368.357 523.123 C 367.205 523.431 366.1 523.668 365.043 523.832 C 363.918 524.01 362.784 524.103 361.649 524.108 C 361.525 524.108 361.402 524.108 361.279 524.107 C 359.53 524.095 357.572 524.002 355.406 523.827 C 353.049 520.869 350.747 517.852 348.502 514.777 C 346.028 511.39 343.606 507.952 341.238 504.464 C 335.235 512.696 327.791 518.495 318.906 521.863 L 318.666 521.302 C 319.559 520.695 320.443 520.068 321.316 519.422 C 328.784 513.897 334.384 507.695 338.117 500.816 C 338.033 500.695 337.948 500.575 337.864 500.455 C 335.504 497.108 333.667 494.983 332.354 494.08 C 331.832 493.728 331.274 493.454 330.695 493.262 C 329.56 492.872 328.192 492.677 326.59 492.677 C 326.122 493.467 325.638 494.245 325.139 495.01 C 324.391 496.154 323.656 497.188 322.932 498.115 C 322.27 498.968 321.568 499.776 320.827 500.535 L 320.347 499.973 C 320.922 498.754 321.489 497.528 322.049 496.298 C 325.387 488.948 327.943 482.448 329.716 476.797 C 330.578 474.099 331.298 471.343 331.874 468.543 C 331.874 468.028 331.793 467.559 331.633 467.139 C 331.272 466.578 330.952 465.829 330.673 464.894 L 331.153 464.333 Z M 327.791 490.432 C 328.804 490.458 329.855 490.647 330.944 490.999 C 331.837 491.292 332.71 491.666 333.554 492.116 C 334.635 492.677 336.03 493.87 337.741 495.694 C 338.36 496.355 338.966 497.035 339.558 497.729 C 340.758 495.185 341.709 492.843 342.409 490.702 C 342.802 489.514 343.133 488.299 343.399 487.064 C 343.399 486.744 343.372 486.425 343.32 486.111 C 343.238 485.605 343.092 485.085 342.882 484.549 C 342.686 484.058 342.458 483.585 342.199 483.136 C 341.264 483.262 340.33 483.391 339.396 483.521 C 336.529 483.92 334.266 484.255 332.61 484.526 C 332.043 484.617 331.478 484.715 330.913 484.819 C 330.715 485.21 330.515 485.598 330.31 485.984 C 329.954 486.656 329.56 487.371 329.131 488.13 C 328.691 488.903 328.245 489.67 327.791 490.432 Z" id="path-56" vector-effect="non-scaling-stroke" style="" transform="matrix(1, 0, 0, 0.9999999999999999, 0, -5.684341886080802e-14)"/>
</svg>