<?xml version="1.0" encoding="utf-8"?>
<svg viewBox="140.4556 138.8907 51.7186 62.723" width="51.719" height="62.723" xmlns="http://www.w3.org/2000/svg">
  <path d="M 156.684 169.291 L 151.384 169.291 C 150.638 169.3 149.898 169.155 149.211 168.866 C 148.579 168.59 148.009 168.19 147.534 167.691 C 146.501 166.624 145.984 165.358 145.984 163.891 L 145.984 144.291 C 145.975 143.545 146.12 142.806 146.409 142.119 C 146.685 141.487 147.085 140.917 147.584 140.441 C 148.651 139.408 149.917 138.891 151.384 138.891 L 184.984 138.891 C 185.701 138.883 186.413 139.013 187.081 139.273 C 187.739 139.538 188.336 139.936 188.834 140.441 C 189.843 141.438 190.402 142.802 190.383 144.22 C 190.383 144.244 190.384 144.267 190.384 144.291 L 190.384 163.891 C 190.384 165.358 189.867 166.624 188.834 167.691 C 187.869 168.709 186.529 169.287 185.127 169.29 C 185.079 169.291 185.032 169.291 184.984 169.291 L 177.084 169.291 C 177.004 169.29 176.924 169.3 176.846 169.321 C 176.605 169.39 176.484 169.58 176.484 169.891 L 176.484 189.991 C 176.484 192.006 176.931 193.433 177.825 194.274 C 177.907 194.351 177.994 194.423 178.084 194.491 C 179.151 195.291 180.055 195.37 182.722 195.37 C 184.675 195.37 186.286 193.781 187.174 192.314 C 187.323 192.068 187.637 191.975 187.892 191.843 C 188.319 191.624 188.747 191.514 189.174 191.514 C 189.768 191.516 190.347 191.705 190.828 192.054 C 191.023 192.191 191.206 192.345 191.374 192.514 C 191.864 193.065 192.145 193.771 192.168 194.509 C 192.172 194.577 192.174 194.646 192.174 194.714 C 192.179 195.125 192.104 195.534 191.954 195.917 C 191.782 196.338 191.421 196.632 191.174 197.014 C 189.853 199.059 187.644 200.559 186.666 200.885 C 185.766 201.185 184.617 201.526 183.55 201.558 C 183.274 201.566 182.998 201.57 182.722 201.57 C 181.009 201.59 180.261 201.733 178.589 201.362 C 173.979 200.275 171.265 197.517 170.448 193.088 C 170.266 192.066 170.178 191.029 170.184 189.991 L 170.184 169.891 C 170.185 169.811 170.175 169.731 170.154 169.654 C 170.085 169.412 169.895 169.291 169.584 169.291 L 164.184 169.291 C 164.104 169.29 164.024 169.3 163.946 169.321 C 163.705 169.39 163.584 169.58 163.584 169.891 C 163.526 173.442 163.268 175.394 162.442 178.17 C 161.818 180.268 161.012 182.309 160.093 184.296 C 159.16 186.322 158.038 188.255 156.742 190.07 C 154.409 193.303 150.755 197.011 148.671 198.619 C 146.587 200.227 146.484 200.574 144.156 201.483 C 144.089 201.505 144.02 201.522 143.951 201.534 C 143.809 201.559 143.637 201.575 143.436 201.581 C 143.376 201.582 143.316 201.583 143.256 201.583 C 142.605 201.584 141.978 201.344 141.494 200.909 C 141.429 200.853 141.366 200.794 141.306 200.733 C 140.874 200.298 140.593 199.736 140.505 199.129 C 140.471 198.915 140.455 198.699 140.456 198.483 C 140.449 198.011 140.532 197.543 140.701 197.103 C 140.954 196.47 141.404 195.963 142.051 195.581 C 142.245 195.467 142.462 195.398 142.656 195.283 C 144.766 194.026 145.81 192.705 147.403 191.213 C 148.07 190.589 149.384 189.03 149.931 188.326 C 151.995 185.673 153.302 184.169 154.676 181.102 C 155.171 180.014 155.611 178.902 155.992 177.77 C 156.712 175.61 156.893 175.184 157.106 172.565 C 157.179 171.675 157.238 170.783 157.284 169.891 C 157.285 169.811 157.275 169.731 157.254 169.654 C 157.185 169.412 156.995 169.291 156.684 169.291 Z M 152.784 163.091 L 183.484 163.091 C 183.564 163.092 183.644 163.083 183.721 163.062 C 183.963 162.993 184.084 162.802 184.084 162.491 L 184.084 145.691 C 184.085 145.611 184.075 145.531 184.054 145.454 C 183.985 145.212 183.795 145.091 183.484 145.091 L 152.784 145.091 C 152.704 145.09 152.624 145.1 152.546 145.121 C 152.305 145.19 152.184 145.38 152.184 145.691 L 152.184 162.491 C 152.183 162.571 152.192 162.651 152.213 162.729 C 152.282 162.97 152.473 163.091 152.784 163.091 Z" id="path-4" transform="matrix(1, 0, 0, 1, 0, -2.842170943040401e-14)"/>
</svg>