<?xml version="1.0" encoding="utf-8"?>
<svg xmlns="http://www.w3.org/2000/svg" viewBox="34.009 125.864 48.016 57.806" width="48.016px" height="57.806px">
  <path d="M 82.025 182.277 C 80.012 182.586 77.993 182.842 75.97 183.044 C 72.399 183.396 68.818 183.604 65.234 183.67 C 64.558 182.287 63.874 180.91 63.18 179.54 C 60.299 173.828 57.25 168.237 54.04 162.776 C 52.31 165.502 50.408 168.071 48.354 170.463 C 44.24 175.211 39.614 179.301 34.598 182.625 L 34.009 181.928 C 34.484 181.439 34.954 180.945 35.422 180.446 C 42.372 173.018 47.596 165.388 51.094 157.553 C 50.358 156.298 49.607 155.057 48.842 153.827 C 46.362 149.842 44.265 146.906 42.551 145.016 C 42.158 144.581 41.766 144.247 41.373 144.015 C 41.007 143.792 40.606 143.658 40.195 143.624 C 40.072 143.43 39.962 143.227 39.865 143.014 C 39.752 142.766 39.665 142.502 39.606 142.23 L 39.901 141.534 C 40.066 141.533 40.232 141.537 40.397 141.544 C 42.098 141.617 43.307 142.079 44.025 142.927 C 47.166 146.409 50.211 150.124 53.157 154.071 C 56.407 146.96 59.071 139.498 61.11 131.784 L 60.815 131.087 C 55.32 132.675 49.909 134.652 44.614 137.007 C 42.678 136.438 40.801 135.621 39.016 134.569 L 39.311 133.873 C 46.451 131.993 53.527 129.786 60.521 127.256 C 60.586 127.191 60.652 127.127 60.718 127.064 C 61.551 126.264 62.173 125.864 62.583 125.864 C 65.935 127.328 68.044 128.665 68.908 129.873 C 69.176 130.201 69.335 130.632 69.358 131.087 C 69.355 131.25 69.312 131.41 69.231 131.545 C 69.058 131.856 68.708 132.168 68.18 132.48 C 65.02 141.575 61.175 150.315 56.691 158.597 C 58.522 161.042 60.43 163.404 62.412 165.677 C 65.557 169.27 68.687 172.354 71.804 174.931 C 74.984 177.602 78.414 179.834 82.025 181.58 L 82.025 182.277 Z" id="path-7" vector-effect="non-scaling-stroke" style="" transform="matrix(1, 0, 0, 1, 1.4210854715202004e-14, 0)"/>
</svg>