<?xml version="1.0" encoding="utf-8"?>
<svg viewBox="242.736 148.6889 50.9561 62.4127" width="50.956" height="62.413" xmlns="http://www.w3.org/2000/svg">
  <path d="M 260.692 167.697 L 248.692 167.697 C 248.309 167.701 247.93 167.634 247.572 167.5 C 247.18 167.346 246.828 167.106 246.542 166.797 C 245.983 166.21 245.678 165.428 245.692 164.618 C 245.692 164.611 245.692 164.604 245.692 164.597 C 245.692 163.797 245.975 163.097 246.542 162.497 C 247.071 161.927 247.813 161.602 248.591 161.599 C 248.624 161.598 248.658 161.597 248.692 161.597 L 263.592 161.597 C 263.7 161.598 263.807 161.577 263.906 161.535 C 264.028 161.481 264.129 161.39 264.209 161.263 C 264.241 161.21 264.269 161.154 264.292 161.097 C 264.958 159.163 265.575 157.163 266.142 155.097 C 266.708 153.03 266.679 153.322 267.079 151.189 C 267.15 150.774 267.302 150.378 267.528 150.024 C 267.681 149.787 267.866 149.574 268.079 149.389 C 268.34 149.155 268.643 148.972 268.971 148.848 C 269.262 148.741 269.569 148.687 269.879 148.689 C 271.012 148.689 271.895 149.105 272.529 149.939 C 272.77 150.25 272.959 150.6 273.087 150.973 C 273.263 151.501 273.297 152.058 273.187 152.644 C 273.184 152.659 273.182 152.674 273.179 152.689 C 272.845 154.422 272.942 153.78 272.442 155.547 C 271.942 157.313 271.392 159.097 270.792 160.897 C 270.775 160.936 270.759 160.975 270.746 161.016 C 270.618 161.403 270.766 161.597 271.192 161.597 L 290.592 161.597 C 290.933 161.594 291.273 161.64 291.601 161.735 C 292.075 161.873 292.504 162.136 292.842 162.497 C 293.408 163.097 293.692 163.797 293.692 164.597 C 293.696 165.019 293.62 165.438 293.466 165.832 C 293.321 166.19 293.109 166.517 292.842 166.797 C 292.374 167.291 291.744 167.601 291.067 167.669 C 290.909 167.688 290.751 167.697 290.592 167.697 L 288.092 167.697 C 287.825 167.697 287.625 167.863 287.492 168.197 C 286.558 172.397 284.471 178.926 282.705 182.826 C 280.999 186.561 278.812 190.057 276.198 193.224 C 276.019 193.442 275.838 193.66 275.655 193.876 C 275.619 193.911 275.586 193.948 275.555 193.987 C 275.333 194.269 275.4 194.498 275.755 194.676 C 279.221 196.276 286.109 201.468 289.443 203.468 C 289.891 203.726 290.297 204.05 290.649 204.429 C 291.307 205.148 291.663 206.093 291.643 207.068 C 291.641 207.335 291.611 207.602 291.553 207.864 C 291.5 208.103 291.43 208.338 291.343 208.568 C 291.009 209.634 290.276 210.168 289.143 210.168 C 288.719 210.168 288.361 210.101 288.071 209.969 C 287.954 209.915 287.843 209.848 287.743 209.768 C 283.784 207.168 274.874 200.741 270.955 198.976 C 270.868 198.954 270.778 198.943 270.688 198.943 C 270.554 198.943 270.421 198.968 270.288 199.018 C 270.242 199.035 270.198 199.054 270.155 199.076 C 268.106 200.757 265.927 202.274 263.64 203.613 C 261.699 204.752 259.714 205.818 257.655 206.726 C 255.528 207.665 251.145 210.063 248.033 210.728 C 247.567 210.828 247.102 210.932 246.636 211.03 C 245.885 211.19 245.167 211.082 244.481 210.705 C 244.308 210.609 244.143 210.5 243.986 210.38 C 243.178 209.766 242.761 208.948 242.737 207.928 C 242.736 207.895 242.736 207.862 242.736 207.83 C 242.738 207.311 242.88 206.803 243.146 206.358 C 243.233 206.209 243.33 206.066 243.436 205.93 C 243.902 205.33 244.501 204.959 245.236 204.83 C 247.828 204.375 248.09 204.081 249.311 203.662 C 252.763 202.478 255.961 200.613 258.771 199.095 C 260.246 198.301 261.676 197.427 263.055 196.476 C 263.433 196.16 263.423 195.905 263.026 195.709 C 263.002 195.697 262.979 195.686 262.955 195.676 C 260.355 194.676 264.335 196.099 261.735 195.266 C 259.135 194.432 253.621 192.355 251.088 191.755 C 250.421 191.621 249.888 191.271 249.488 190.705 C 249.315 190.464 249.173 190.202 249.067 189.925 C 248.949 189.615 248.888 189.286 248.888 188.955 C 248.885 188.686 248.916 188.418 248.978 188.157 C 249.075 187.74 249.286 187.358 249.588 187.055 C 251.188 185.121 252.804 182.871 254.438 180.305 C 255.601 178.469 258.79 173.127 259.792 171.199 C 260.275 170.273 260.741 169.339 261.192 168.397 C 261.458 167.93 261.292 167.697 260.692 167.697 Z M 280.492 167.697 L 268.592 167.697 C 268.212 167.697 267.983 167.846 267.903 168.146 C 267.899 168.163 267.895 168.18 267.892 168.197 C 265.876 172.622 261.5 180.384 258.984 184.546 C 258.558 185.252 258.126 185.956 257.688 186.655 C 257.371 187.035 257.445 187.294 257.909 187.434 C 257.935 187.441 257.961 187.448 257.988 187.455 C 260.188 188.055 265.749 190.286 267.993 191.19 C 268.147 191.251 268.301 191.313 268.455 191.376 C 268.502 191.384 268.55 191.391 268.598 191.397 C 268.827 191.423 269.004 191.409 269.13 191.357 C 269.176 191.338 269.219 191.311 269.255 191.276 C 272.594 187.762 275.305 183.699 277.268 179.267 C 278.485 176.554 280.221 171.269 280.992 168.397 C 281.002 168.36 281.011 168.322 281.019 168.285 C 281.095 167.893 280.919 167.697 280.492 167.697 Z" id="path-6" transform="matrix(1, 0, 0, 1, 0, -2.842170943040401e-14)"/>
</svg>