<?xml version="1.0" encoding="utf-8"?>
<svg xmlns="http://www.w3.org/2000/svg" viewBox="290.13 206.513 40.9605 58.1911" width="40.9605px" height="58.1911px">
  <path d="M 291.897 210.58 C 291.964 210.603 292.032 210.626 292.099 210.649 C 294.177 211.376 295.965 212.218 297.463 213.177 C 303.454 212.558 302.212 212.293 305.243 211.6 C 309.695 210.582 311.013 210.176 315.454 209.111 C 316.16 208.639 316.872 208.175 317.588 207.719 C 318.232 207.308 318.881 206.906 319.536 206.513 C 319.578 206.521 319.62 206.528 319.662 206.536 C 327 207.892 330.669 209.492 330.669 211.337 C 330.683 211.859 330.481 212.365 330.109 212.732 C 329.906 212.933 329.649 213.107 329.337 213.254 C 329.05 213.386 328.75 213.49 328.443 213.564 C 313.507 214.588 313.676 214.575 298.947 217.259 L 298.956 229.971 C 310.09 227.992 306.006 228.702 316.148 226.476 C 316.865 226.279 317.577 226.063 318.282 225.826 C 319.062 225.565 319.835 225.287 320.602 224.991 C 321.187 225.236 321.769 225.486 322.349 225.741 C 326.172 227.423 327.296 227.769 328.208 228.751 C 328.447 228.963 328.599 229.255 328.636 229.572 C 328.636 229.641 328.632 229.709 328.625 229.777 C 328.571 230.307 328.22 230.733 327.976 230.959 C 326.703 232.256 323.502 232.805 322.192 232.805 C 321.768 232.762 321.344 232.721 320.92 232.681 C 319.158 232.516 317.974 232.433 317.368 232.433 C 316.469 232.436 315.558 232.37 314.672 232.524 C 306.866 233.879 311.577 233.045 309.038 233.507 C 305.69 234.116 302.344 234.732 299.005 235.387 L 298.294 252.458 C 303.189 251.439 304.16 251.38 307.451 250.74 C 309.457 250.35 310.022 250.275 316.246 249.567 C 317.683 249.224 318.979 248.447 319.957 247.34 C 327.379 248.206 331.09 250.185 331.09 253.278 C 331.102 253.704 330.92 254.112 330.595 254.387 C 330.068 254.846 329.119 255.095 327.75 255.133 C 310.985 255.218 314.888 254.154 298.294 256.54 L 298.294 261.364 C 298.292 261.379 298.289 261.393 298.287 261.408 C 298.124 262.361 297.87 263.108 297.523 263.648 C 297.151 264.306 296.452 264.71 295.696 264.704 C 295.226 264.69 294.773 264.522 294.407 264.227 C 293.326 263.425 292.244 261.615 291.163 258.796 C 290.787 257.808 290.443 256.808 290.13 255.798 C 290.286 255.02 290.458 254.246 290.644 253.475 C 290.938 252.263 291.261 251.057 291.614 249.861 C 292.125 241.332 291.883 242.291 292.115 233.75 C 292.367 224.475 292.644 225.796 292.639 216.517 C 292.626 216.48 292.613 216.442 292.6 216.405 C 291.636 213.626 291.154 211.932 291.154 211.322 L 291.897 210.58 Z" id="path-33" vector-effect="non-scaling-stroke" transform="matrix(1, 0, 0, 1, -5.684341886080802e-14, 0)"/>
</svg>