<?xml version="1.0" encoding="utf-8"?>
<svg viewBox="36.9027 136.7439 54.4003 61.9001" width="54.4" height="61.9" xmlns="http://www.w3.org/2000/svg">
  <path d="M 71.503 183.244 C 71.507 183.971 71.439 184.697 71.299 185.41 C 70.994 187.124 70.07 188.667 68.703 189.744 C 68.027 190.268 67.278 190.691 66.48 190.998 C 65.641 191.329 64.703 191.573 63.666 191.73 C 62.652 191.878 61.628 191.95 60.603 191.944 C 60.581 191.944 60.56 191.944 60.538 191.944 C 60.213 191.944 59.869 191.935 59.505 191.918 C 59.12 191.9 58.736 191.876 58.353 191.844 C 57.52 191.778 56.67 191.678 55.803 191.544 C 55.749 191.534 55.696 191.525 55.642 191.517 C 55.453 191.489 55.268 191.475 55.088 191.475 C 54.337 191.469 53.612 191.743 53.053 192.244 C 53 192.291 52.948 192.338 52.897 192.387 C 52.247 192.997 51.886 193.854 51.903 194.744 C 51.903 195.611 52.17 196.378 52.703 197.044 C 52.711 197.055 52.719 197.065 52.728 197.075 C 53.216 197.699 53.921 198.117 54.703 198.244 C 55.636 198.311 56.503 198.394 57.303 198.494 C 58.103 198.594 58.903 198.644 59.703 198.644 C 65.303 198.644 69.72 197.278 72.953 194.544 C 74.938 192.891 76.388 190.686 77.121 188.208 C 77.59 186.596 77.82 184.923 77.803 183.244 L 77.803 156.244 C 77.803 155.934 77.924 155.744 78.165 155.674 C 78.242 155.653 78.323 155.643 78.403 155.644 L 88.103 155.644 C 88.217 155.644 88.331 155.64 88.445 155.63 C 89.184 155.584 89.88 155.268 90.403 154.744 C 91.003 154.144 91.303 153.411 91.303 152.544 C 91.303 152.43 91.298 152.316 91.288 152.202 C 91.241 151.464 90.927 150.767 90.403 150.244 C 89.803 149.644 89.036 149.344 88.103 149.344 L 78.403 149.344 C 78.092 149.344 77.901 149.224 77.832 148.982 C 77.811 148.905 77.801 148.825 77.803 148.744 L 77.803 139.844 C 77.803 139.831 77.802 139.818 77.802 139.804 C 77.808 138.992 77.484 138.212 76.903 137.644 C 76.303 137.044 75.536 136.744 74.603 136.744 C 74.589 136.744 74.576 136.744 74.562 136.744 C 73.75 136.738 72.97 137.063 72.403 137.644 C 71.803 138.244 71.503 138.978 71.503 139.844 L 71.503 148.744 C 71.503 149.056 71.382 149.246 71.14 149.315 C 71.063 149.336 70.983 149.346 70.903 149.344 L 40.103 149.344 C 39.236 149.344 38.486 149.644 37.853 150.244 C 37.513 150.56 37.253 150.952 37.094 151.387 C 36.963 151.759 36.898 152.15 36.903 152.544 C 36.9 152.881 36.953 153.215 37.059 153.534 C 37.22 153.997 37.492 154.413 37.853 154.744 C 38.486 155.344 39.236 155.644 40.103 155.644 L 70.903 155.644 C 71.214 155.644 71.404 155.765 71.473 156.007 C 71.494 156.085 71.504 156.164 71.503 156.244 L 71.503 183.244 Z M 55.203 182.044 C 53.67 182.044 52.636 181.311 52.103 179.844 C 51.236 177.511 50.22 175.211 49.053 172.944 C 47.886 170.678 46.57 168.578 45.103 166.644 C 44.636 165.911 44.403 165.244 44.403 164.644 C 44.397 164.235 44.469 163.828 44.614 163.444 C 44.836 162.878 45.232 162.411 45.803 162.044 C 46.162 161.735 46.594 161.523 47.059 161.429 C 47.336 161.371 47.619 161.343 47.903 161.344 C 49.085 161.344 50.006 161.809 50.665 162.738 C 50.713 162.806 50.759 162.874 50.803 162.944 C 51.985 164.874 53.226 167.094 54.525 169.604 C 54.618 169.784 54.711 169.964 54.803 170.144 C 55.711 171.909 56.532 173.718 57.263 175.563 C 57.599 176.415 57.913 177.276 58.203 178.144 C 58.224 178.211 58.241 178.28 58.253 178.349 C 58.279 178.491 58.295 178.662 58.3 178.864 C 58.302 178.924 58.303 178.984 58.303 179.044 C 58.303 179.844 58.02 180.544 57.453 181.144 C 56.985 181.639 56.355 181.949 55.678 182.016 C 55.52 182.035 55.362 182.045 55.203 182.044 Z" id="path-2" transform="matrix(1, 0, 0, 1, 0, -2.842170943040401e-14)"/>
</svg>