<?xml version="1.0" encoding="utf-8"?>
<svg xmlns="http://www.w3.org/2000/svg" viewBox="225.74 144.917 50.5946 61.087" width="50.5946px" height="61.087px">
  <path d="M 232.523 172.593 C 234.873 172.717 237.347 173.088 239.945 173.706 C 240.269 173.964 240.584 174.233 240.888 174.514 C 242.98 176.453 244.027 178.534 244.027 180.757 C 244.027 180.793 244.026 180.829 244.024 180.865 C 243.982 181.596 243.502 182.036 242.586 182.185 C 242.326 182.225 242.064 182.244 241.801 182.242 C 241.357 182.232 240.919 182.135 240.513 181.957 C 238.393 181.086 235.606 178.212 232.152 173.335 L 232.523 172.593 Z M 264.89 156.6 C 265.519 156.14 265.647 155.99 265.993 155.745 C 267.751 154.501 268.542 154.361 268.965 154.361 C 269.837 154.489 270.529 154.626 271.335 154.983 C 275.777 156.952 276.334 157.185 276.334 158.888 C 276.349 159.462 276.072 160.005 275.598 160.33 C 275.103 160.691 274.359 160.928 273.366 161.039 C 272.873 161.092 272.377 161.117 271.881 161.114 C 270.934 161.115 269.988 161.129 269.042 161.157 C 266.897 161.219 266.675 161.1 264.257 161.299 C 262.038 161.484 262.256 161.462 260.046 161.729 C 260.044 166.317 260.081 170.619 260.155 175.206 C 260.227 179.589 260.497 179.714 260.643 183.686 C 260.802 188.16 261.028 192.63 261.321 197.097 C 260.022 203.035 258.538 206.004 256.868 206.004 C 256.326 206.004 254.933 204.394 252.687 201.174 C 252.345 200.684 252.007 200.191 251.673 199.695 C 249.004 196.773 246.017 194.159 242.766 191.902 L 243.138 191.16 C 243.902 191.352 244.667 191.539 245.434 191.722 C 248.628 192.483 250.831 192.914 252.044 193.015 C 252.321 193.018 252.598 192.987 252.868 192.92 C 253.54 192.745 253.971 192.329 254.16 191.67 C 254.237 191.383 254.274 191.087 254.27 190.789 L 253.737 162.712 C 253.368 162.768 252.999 162.825 252.63 162.883 C 247.491 163.691 240.6 165.033 236.888 166.046 C 235.228 166.492 233.501 166.747 231.886 167.334 C 229.901 167.208 228.026 165.795 226.363 164.704 L 225.74 163.467 C 229.977 162.512 235.182 161.69 239.501 160.81 C 243.448 160.006 249.488 159.132 253.737 158.446 L 253.508 153.452 C 253.508 153.104 253.492 152.756 253.46 152.409 C 253.338 150.926 252.844 149.499 252.024 148.257 C 251.282 147.144 250.911 146.278 250.911 145.659 L 251.653 144.917 C 251.688 144.924 251.724 144.932 251.76 144.939 C 255.274 145.668 257.745 146.657 259.172 147.908 C 259.864 148.47 260.352 149.245 260.559 150.112 C 260.423 150.568 260.316 151.033 260.239 151.502 C 260.051 152.588 260.154 153.041 260.092 154.693 C 260.06 155.582 260.044 156.471 260.046 157.36 L 264.89 156.6 Z" id="path-27" vector-effect="non-scaling-stroke" transform="matrix(1, 0, 0, 1, 2.842170943040401e-14, 0)"/>
</svg>