<?xml version="1.0" encoding="utf-8"?>
<svg viewBox="237.717 508.1426 52.3005 62.6004" width="52.3" height="62.6" xmlns="http://www.w3.org/2000/svg">
  <path d="M 247.117 535.243 L 247.117 513.543 C 247.108 512.797 247.253 512.058 247.542 511.371 C 247.819 510.739 248.218 510.169 248.717 509.693 C 249.784 508.66 251.051 508.143 252.517 508.143 L 276.617 508.143 C 277.363 508.134 278.102 508.279 278.789 508.569 C 279.421 508.845 279.992 509.244 280.467 509.743 C 281.501 510.81 282.017 512.076 282.017 513.543 L 282.017 533.243 C 282.027 533.989 281.882 534.729 281.592 535.416 C 281.316 536.048 280.917 536.618 280.417 537.093 C 279.351 538.126 278.084 538.643 276.617 538.643 L 253.817 538.643 C 253.737 538.642 253.658 538.652 253.58 538.673 C 253.338 538.742 253.217 538.932 253.217 539.243 C 253.161 540.185 253.073 541.125 252.952 542.061 C 252.83 543.026 252.673 544.059 252.48 545.158 C 252.323 546.055 252.152 546.951 251.967 547.843 C 251.441 550.377 250.791 552.884 250.019 555.355 C 249.703 556.373 249.369 557.386 249.017 558.393 C 247.989 561.365 246.751 564.26 245.312 567.056 C 245.054 567.555 244.789 568.051 244.517 568.543 C 244.281 569.034 243.951 569.475 243.546 569.84 C 242.99 570.329 242.307 570.62 241.497 570.711 C 241.305 570.733 241.111 570.743 240.917 570.743 C 240.65 570.742 240.383 570.711 240.121 570.653 C 239.882 570.6 239.647 570.53 239.417 570.443 C 239.1 570.355 238.802 570.208 238.539 570.009 C 237.991 569.579 237.717 568.924 237.717 568.043 C 237.719 567.928 237.732 567.813 237.756 567.701 C 237.806 567.468 237.901 567.199 238.043 566.895 C 238.067 566.844 238.092 566.793 238.117 566.743 C 240.274 563.355 242.031 559.728 243.352 555.936 C 243.461 555.623 243.566 555.308 243.667 554.993 C 244.967 550.96 245.867 547.21 246.367 543.743 C 246.865 540.296 247.115 537.474 247.117 535.279 C 247.117 535.267 247.117 535.255 247.117 535.243 Z M 254.017 532.643 L 275.117 532.643 C 275.197 532.644 275.277 532.634 275.354 532.613 C 275.596 532.544 275.717 532.354 275.717 532.043 L 275.717 514.843 C 275.718 514.763 275.708 514.683 275.687 514.606 C 275.618 514.364 275.428 514.243 275.117 514.243 L 254.017 514.243 C 253.937 514.242 253.858 514.252 253.78 514.273 C 253.538 514.342 253.417 514.532 253.417 514.843 L 253.417 532.043 C 253.416 532.123 253.426 532.203 253.447 532.281 C 253.517 532.522 253.707 532.643 254.017 532.643 Z" id="path-16" transform="matrix(1, 0, 0, 1, -2.842170943040401e-14, -5.684341886080802e-14)"/>
</svg>