<?xml version="1.0" encoding="utf-8"?>
<svg xmlns="http://www.w3.org/2000/svg" viewBox="212.632 443.786 44.912 57.564" width="44.912px" height="57.564px">
  <path d="M 221.643 450.938 C 222.385 450.938 223.993 451.186 226.467 451.68 C 226.954 451.541 227.44 451.402 227.925 451.262 C 235.003 449.234 236.401 448.531 243.443 446.384 C 244.348 446.071 245.292 445.66 246.274 445.151 C 247.082 444.731 247.871 444.275 248.638 443.786 C 248.789 443.849 248.94 443.913 249.09 443.976 C 253.326 445.769 255.97 447.296 257.022 448.558 C 257.327 448.874 257.512 449.287 257.544 449.724 C 257.208 450.062 256.883 450.411 256.57 450.77 C 256.134 451.272 255.717 451.79 255.318 452.322 C 253.586 457.394 251.978 462.218 250.494 466.794 C 249.69 468.774 248.701 469.763 247.525 469.763 C 247.422 469.752 247.323 469.718 247.234 469.663 C 246.672 469.367 245.532 468.411 243.814 466.794 C 242.763 466.3 241.773 466.052 240.845 466.052 C 237.83 466.671 238.928 466.351 235.333 467.355 C 233.062 467.992 232.058 468.413 229.807 469.121 C 229.277 473.701 229.538 473.529 228.426 478.003 C 227.064 483.385 226.596 484.34 224.452 488.578 C 221.699 494.241 218.245 497.361 213.374 501.35 L 212.632 500.608 C 217.954 493.552 220.362 489.022 221.887 482.097 C 222.056 481.33 222.237 480.565 222.388 479.793 C 223.786 472.717 223.498 468.302 223.498 456.133 C 223.375 455.144 223.004 454.402 222.385 453.906 C 221.713 453.318 221.269 452.787 221.053 452.312 C 220.958 452.115 220.906 451.899 220.901 451.68 L 221.643 450.938 Z M 230.456 461.375 C 230.338 462.842 230.245 464.311 230.178 465.781 C 233.164 464.795 234.906 464.103 237.919 463.204 C 240.72 462.368 239.131 462.711 241.958 461.97 C 242.454 461.97 242.918 462.001 243.35 462.063 C 243.76 462.12 244.164 462.213 244.556 462.341 C 244.935 461.014 245.289 459.68 245.617 458.34 C 246.196 455.978 246.708 453.599 247.154 451.208 C 247.157 450.977 247.131 450.746 247.075 450.521 C 246.873 449.743 246.28 449.353 245.298 449.353 C 237.876 451.333 236.239 451.928 229.065 453.906 C 229.077 453.918 229.088 453.93 229.099 453.941 C 229.839 454.693 230.454 455.559 230.92 456.504 C 230.742 458.126 230.588 459.749 230.456 461.375 Z" id="path-40" vector-effect="non-scaling-stroke"/>
</svg>