<?xml version="1.0" encoding="utf-8"?>
<svg xmlns="http://www.w3.org/2000/svg" viewBox="424.544 117.455 50.204 57.975" width="50.204px" height="57.975px">
  <path d="M 469.906 158.615 C 470.213 159.994 470.537 161.37 470.879 162.744 C 471.203 164.046 471.527 165.275 471.851 166.43 C 472.209 167.714 472.598 168.993 473.019 170.266 C 473.27 170.533 473.51 170.809 473.738 171.091 C 474.163 171.621 474.455 172.085 474.612 172.482 C 474.696 172.684 474.741 172.895 474.748 173.108 C 474.748 174.245 473.133 174.814 469.906 174.814 C 467.704 174.814 467.53 174.648 464.578 173.864 C 463.764 173.648 463.608 173.623 461.47 172.556 C 455.491 169.573 452.213 165.389 452.213 160.084 C 452.213 156.279 453.603 150.407 456.384 142.468 C 457.357 139.705 458.388 136.956 459.476 134.222 C 456.075 135.738 452.616 137.253 449.1 138.77 C 446.767 149.229 443.124 157.727 438.171 164.261 C 434.915 168.722 430.497 172.537 425.236 175.43 L 424.544 175.146 C 426.097 173.629 427.546 172.042 428.885 170.393 C 432.339 166.15 435.26 161.318 437.649 155.896 C 439.747 151.058 441.378 146.092 442.528 141.043 C 442.326 141.126 442.125 141.209 441.925 141.291 C 438.991 142.501 436.08 143.744 433.19 145.022 C 430.444 144.648 427.769 143.979 425.236 143.032 L 425.927 142.464 C 430.884 141.422 436.534 139.906 442.875 137.917 C 443.281 135.307 443.616 132.27 443.881 128.806 C 444.036 126.729 444.162 124.65 444.258 122.571 C 444.085 121.765 443.625 121.007 442.875 120.297 C 442.773 120.157 442.674 120.016 442.58 119.873 C 442.265 119.395 442.05 118.972 441.936 118.604 C 441.873 118.415 441.84 118.22 441.837 118.024 L 442.528 117.455 C 443.374 117.619 444.208 117.822 445.026 118.063 C 446.288 118.44 447.383 118.889 448.311 119.411 C 450.064 120.337 451.332 121.768 451.867 123.423 C 451.62 124.563 451.381 125.703 451.148 126.845 C 450.902 128.046 450.651 129.306 450.395 130.628 C 450.07 132.298 449.754 133.97 449.446 135.643 C 449.937 135.454 450.426 135.258 450.911 135.058 C 454.403 133.603 457.733 131.897 460.86 129.96 C 461.727 130.275 462.585 130.61 463.432 130.962 C 465.904 131.996 467.525 132.923 468.294 133.744 C 468.604 134.036 468.786 134.404 468.815 134.791 C 468.815 135.062 468.195 135.558 466.953 136.276 C 466.654 136.448 466.353 136.616 466.048 136.78 C 465.835 137.115 465.623 137.452 465.413 137.789 C 460.818 145.157 457.908 151.069 456.684 155.523 C 456.272 156.924 456.048 158.358 456.018 159.8 C 456.011 160.565 456.098 161.33 456.277 162.082 C 456.692 164.067 458.056 165.942 460.017 167.206 C 461.226 167.986 462.419 169.016 464.766 169.016 C 466.116 169.016 466.505 168.561 467.139 166.856 C 468.061 164.298 468.753 161.551 469.214 158.615 L 469.906 158.615 Z" id="path-48" vector-effect="non-scaling-stroke" style="" transform="matrix(1, 0, 0, 1, 0, -5.684341886080802e-14)"/>
</svg>