<?xml version="1.0" encoding="utf-8"?>
<svg viewBox="309.798 499.8218 50.6002 60.6152" width="50.6" height="60.615" xmlns="http://www.w3.org/2000/svg">
  <path d="M 331.998 549.822 L 331.998 529.122 C 331.999 529.042 331.989 528.962 331.968 528.884 C 331.899 528.643 331.709 528.522 331.398 528.522 L 312.798 528.522 C 312.416 528.527 312.036 528.459 311.678 528.324 C 311.286 528.171 310.934 527.931 310.648 527.622 C 310.081 527.022 309.798 526.322 309.798 525.522 C 309.798 524.722 310.081 524.022 310.648 523.422 C 311.177 522.852 311.919 522.527 312.697 522.523 C 312.731 522.522 312.764 522.522 312.798 522.522 L 331.398 522.522 C 331.478 522.523 331.559 522.513 331.636 522.492 C 331.877 522.423 331.998 522.233 331.998 521.922 L 331.998 517.422 C 331.994 517.04 332.061 516.66 332.196 516.302 C 332.35 515.911 332.59 515.558 332.898 515.272 C 333.485 514.713 334.268 514.408 335.078 514.422 C 335.085 514.422 335.091 514.422 335.098 514.422 C 335.972 514.409 336.811 514.767 337.406 515.407 C 337.473 515.477 337.537 515.548 337.598 515.622 C 337.798 515.956 338.065 516.022 338.398 515.822 C 341.225 514.092 343.976 511.587 346.653 508.309 C 347.078 507.788 347.493 507.259 347.898 506.722 C 347.926 506.683 347.952 506.643 347.976 506.602 C 348.204 506.216 348.045 506.022 347.498 506.022 L 319.198 506.022 C 318.331 506.022 317.598 505.722 316.998 505.122 C 316.417 504.555 316.092 503.775 316.098 502.962 C 316.098 502.949 316.098 502.936 316.098 502.922 C 316.098 502.056 316.398 501.322 316.998 500.722 C 317.566 500.141 318.346 499.816 319.158 499.822 C 319.171 499.822 319.185 499.822 319.198 499.822 L 353.398 499.822 C 353.845 499.817 354.289 499.9 354.704 500.067 C 355.096 500.23 355.451 500.47 355.748 500.772 C 355.997 501.016 356.207 501.295 356.372 501.601 C 356.588 502.008 356.7 502.462 356.698 502.922 C 356.698 503.456 356.565 503.956 356.298 504.422 C 354.231 508.489 351.698 512.089 348.698 515.222 C 347.324 516.669 345.843 518.01 344.268 519.235 C 342.748 520.419 341.118 521.453 339.398 522.322 C 339.198 522.389 338.998 522.439 338.798 522.472 C 338.598 522.506 338.398 522.522 338.198 522.522 L 357.398 522.522 C 357.78 522.518 358.16 522.585 358.518 522.719 C 358.91 522.873 359.262 523.113 359.548 523.422 C 360.115 524.022 360.398 524.722 360.398 525.522 C 360.402 525.904 360.335 526.284 360.2 526.641 C 360.047 527.033 359.807 527.386 359.498 527.672 C 358.898 528.239 358.198 528.522 357.398 528.522 L 338.798 528.522 C 338.718 528.521 338.638 528.531 338.561 528.551 C 338.319 528.621 338.198 528.811 338.198 529.122 L 338.198 549.822 C 338.205 550.82 338.124 551.815 337.955 552.798 C 337.76 553.882 337.449 554.838 337.021 555.668 C 336.496 556.714 335.714 557.61 334.748 558.272 C 334.001 558.764 333.188 559.148 332.334 559.414 C 330.025 560.17 326.869 560.507 322.866 560.425 C 322.81 560.424 322.754 560.423 322.698 560.422 C 321.831 560.356 321.115 560.006 320.548 559.372 C 319.981 558.739 319.698 557.989 319.698 557.122 C 319.698 556.322 319.981 555.622 320.548 555.022 C 321.115 554.422 321.831 554.156 322.698 554.222 C 323.09 554.231 323.483 554.239 323.875 554.244 C 326.002 554.276 327.619 554.239 328.727 554.133 C 328.767 554.13 328.808 554.126 328.848 554.122 C 330.148 553.989 330.998 553.589 331.398 552.922 C 331.54 552.679 331.65 552.418 331.727 552.147 C 331.908 551.537 331.998 550.762 331.998 549.822 Z" id="path-2" style=""/>
</svg>