<?xml version="1.0" encoding="utf-8"?>
<svg viewBox="414.7289 492.4167 55.0002 62.5773" width="55" height="62.577" xmlns="http://www.w3.org/2000/svg">
  <path d="M 463.429 552.494 L 461.829 547.494 C 461.702 547.114 461.455 546.944 461.087 546.985 C 461.067 546.988 461.048 546.991 461.029 546.994 C 459.248 547.441 457.455 547.84 455.652 548.19 C 451.914 548.925 447.573 549.61 442.629 550.244 C 435.095 551.211 426.962 551.961 418.229 552.494 C 417.162 552.561 416.312 552.228 415.679 551.494 C 415.045 550.761 414.729 549.894 414.729 548.894 C 414.718 547.611 415.276 546.389 416.252 545.556 C 416.435 545.391 416.628 545.237 416.829 545.094 C 419.762 543.161 422.645 540.894 425.479 538.294 C 428.312 535.694 431.062 532.928 433.729 529.994 C 433.765 529.946 433.796 529.895 433.822 529.84 C 433.92 529.628 433.891 529.416 433.737 529.204 C 433.734 529.201 433.731 529.198 433.729 529.194 C 432.066 526.547 430.179 524.048 428.088 521.725 C 428.018 521.648 427.949 521.571 427.879 521.494 C 425.645 519.028 423.495 516.994 421.429 515.394 C 420.583 514.678 420.079 513.639 420.04 512.531 C 420.033 512.419 420.029 512.307 420.029 512.194 C 420.024 511.707 420.104 511.222 420.264 510.761 C 420.432 510.292 420.692 509.861 421.029 509.494 C 423.029 507.361 425.416 504.744 427.551 501.644 C 429.686 498.544 429.976 497.788 431.518 494.617 C 431.651 493.951 431.984 493.417 432.518 493.017 C 433.051 492.617 433.651 492.417 434.318 492.417 C 434.729 492.412 435.138 492.487 435.521 492.636 C 435.942 492.809 436.317 493.076 436.618 493.417 C 437.218 494.084 437.518 494.817 437.518 495.617 C 437.518 495.955 437.494 496.222 437.447 496.417 C 437.438 496.451 437.429 496.484 437.418 496.517 C 435.49 500.846 434.767 502.443 432.112 506.163 C 430.794 508.01 429.017 509.924 427.629 511.694 C 427.589 511.733 427.554 511.776 427.525 511.822 C 427.38 512.056 427.448 512.314 427.729 512.594 C 428.22 513.024 428.98 513.722 430.008 514.688 C 430.098 514.774 430.189 514.859 430.279 514.944 C 430.859 515.492 431.428 516.052 431.986 516.622 C 432.572 517.221 433.179 517.863 433.808 518.547 C 433.898 518.646 433.989 518.745 434.079 518.844 C 435.445 520.344 436.695 521.961 437.829 523.694 C 437.962 523.894 438.112 523.994 438.279 523.994 C 438.388 523.997 438.49 523.944 438.551 523.853 C 438.582 523.81 438.608 523.757 438.629 523.694 C 441.362 520.094 443.779 516.361 445.879 512.494 C 447.144 510.175 448.295 507.794 449.328 505.361 C 449.908 503.991 450.442 502.601 450.929 501.194 C 451.462 499.728 452.462 498.994 453.929 498.994 C 454.323 498.99 454.714 499.055 455.086 499.185 C 455.521 499.345 455.913 499.605 456.229 499.944 C 456.446 500.169 456.633 500.421 456.786 500.693 C 457.01 501.09 457.128 501.539 457.129 501.994 C 457.129 502.173 457.099 502.382 457.039 502.621 C 457.007 502.747 456.97 502.872 456.929 502.994 C 456.1 505.565 455.107 508.079 453.957 510.522 C 452.839 512.902 451.612 515.229 450.279 517.494 C 447.312 522.561 443.862 527.461 439.929 532.194 C 436.598 536.221 432.967 539.991 429.068 543.47 C 428.527 543.951 427.981 544.426 427.429 544.894 C 426.965 545.358 427.061 545.591 427.715 545.593 C 427.719 545.594 427.724 545.594 427.729 545.594 C 433.662 545.061 439.445 544.428 445.079 543.694 C 446.894 543.459 448.706 543.203 450.516 542.925 C 453.739 542.429 456.51 541.919 458.829 541.394 C 458.888 541.395 458.947 541.389 459.005 541.375 C 459.244 541.317 459.327 541.12 459.253 540.786 C 459.246 540.756 459.238 540.725 459.229 540.694 C 457.762 537.161 456.262 533.994 454.729 531.194 C 454.529 530.794 454.429 530.361 454.429 529.894 C 454.424 529.56 454.472 529.227 454.57 528.907 C 454.802 528.183 455.322 527.679 456.129 527.394 C 456.662 527.194 457.129 527.094 457.529 527.094 C 458.072 527.086 458.61 527.194 459.108 527.411 C 459.814 527.731 460.387 528.292 460.829 529.094 C 461.907 531.171 462.917 533.283 463.857 535.426 C 464.455 536.789 465.029 538.162 465.579 539.544 C 467.079 543.311 468.429 547.161 469.629 551.094 C 469.651 551.161 469.668 551.229 469.68 551.298 C 469.705 551.44 469.721 551.612 469.727 551.813 C 469.728 551.874 469.729 551.934 469.729 551.994 C 469.729 552.728 469.462 553.411 468.929 554.044 C 468.483 554.576 467.843 554.91 467.152 554.97 C 467.011 554.986 466.87 554.994 466.729 554.994 C 466.044 554.993 465.375 554.782 464.814 554.389 C 464.768 554.359 464.723 554.327 464.679 554.294 C 464.045 553.828 463.629 553.228 463.429 552.494 Z" id="path-3" style=""/>
</svg>