<?xml version="1.0" encoding="utf-8"?>
<svg xmlns="http://www.w3.org/2000/svg" viewBox="149.449 130.868 57.9081 59.0115" width="57.9081px" height="59.0115px">
  <path d="M 157.553 135.357 C 157.762 135.379 157.97 135.404 158.178 135.431 C 160.362 135.716 162.751 136.31 165.346 137.213 C 170.913 136.014 174.228 135.482 178.828 134.139 C 181.438 133.382 182.448 132.887 185.009 131.981 C 185.176 131.847 185.348 131.718 185.523 131.594 C 185.961 131.288 186.35 131.079 186.691 130.966 C 186.866 130.905 187.05 130.872 187.235 130.868 C 187.397 130.928 187.559 130.988 187.721 131.049 C 192.448 132.831 195.417 134.417 196.629 135.808 C 196.996 136.173 197.219 136.659 197.255 137.176 C 197.251 137.403 197.201 137.627 197.107 137.834 C 196.856 138.417 196.287 139.064 195.399 139.774 C 193.049 147.629 192.073 149.747 190.218 154.015 C 190.217 154.016 190.217 154.017 190.216 154.018 C 189.741 155.054 188.993 155.728 187.974 156.04 C 187.498 156.179 187.003 156.247 186.507 156.241 C 186.405 156.24 186.303 156.228 186.203 156.206 C 185.628 156.082 184.836 155.632 183.826 154.855 C 183.475 154.584 183.132 154.304 182.796 154.015 C 180.18 154.496 179.144 154.652 176.534 155.161 C 174.072 155.641 171.614 156.135 169.158 156.645 C 169.897 157.179 170.584 157.78 171.212 158.44 C 172.99 160.233 174.179 162.661 174.028 165.181 C 173.977 166.031 174.039 167.045 173.589 167.878 C 170.794 173.051 169.786 174.778 164.855 179.529 C 160.862 183.376 155.594 184.677 149.82 187.061 L 149.449 186.318 C 161.086 178.637 165.9 172.493 167.303 162.212 C 167.302 162.082 167.298 161.952 167.289 161.822 C 167.232 160.9 166.989 159.422 166.56 157.388 C 166.394 157.384 166.231 157.335 166.089 157.248 C 165.458 156.885 164.75 155.819 163.963 154.048 C 163.94 153.953 163.917 153.859 163.893 153.764 C 162.471 147.963 161.402 145.44 159.408 139.81 C 159.386 139.787 159.365 139.763 159.343 139.74 C 157.655 137.923 156.811 136.71 156.811 136.099 L 157.553 135.357 Z M 184.651 151.417 C 185.904 144.969 185.577 143.891 185.925 140.296 C 186.031 139.259 186.097 138.218 186.122 137.176 C 186.122 137.09 186.117 137.005 186.107 136.92 C 186.005 136.101 185.392 135.692 184.267 135.692 C 176.968 138.042 173.015 139.068 165.717 140.924 C 167.212 146.277 168.179 148.393 169.9 153.677 C 171.265 153.412 172.621 153.105 173.966 152.756 C 176.761 152.038 177.918 151.443 180.569 150.304 C 180.782 150.333 180.995 150.366 181.207 150.404 C 182.388 150.619 183.542 150.959 184.651 151.417 Z M 177.322 156.274 C 177.941 156.474 178.553 156.696 179.156 156.939 C 182.881 158.448 184.744 160.329 184.744 162.583 C 184.83 171.474 183.429 168.008 183.292 172.941 C 183.266 173.889 183.159 174.834 183.15 175.783 C 183.15 178.188 183.48 180.003 184.14 181.23 C 184.485 181.927 185.05 182.491 185.748 182.833 C 185.787 182.85 185.826 182.867 185.865 182.884 C 187.562 183.604 191.037 183.496 193.627 183.249 C 193.749 183.233 193.871 183.216 193.992 183.198 C 197.969 182.626 200.197 181.53 200.678 179.909 C 201.193 178.16 201.657 176.397 202.069 174.621 C 202.519 172.683 202.921 170.734 203.275 168.776 L 204.389 169.147 C 204.42 170.366 204.466 171.584 204.526 172.801 C 204.771 177.668 205.22 180.779 205.873 182.135 C 206.631 183.65 207.099 184.803 207.276 185.594 C 207.326 185.798 207.353 186.007 207.357 186.217 C 207.36 186.55 207.277 186.878 207.117 187.17 C 206.564 188.175 205.063 188.88 202.613 189.285 C 201.849 189.408 201.079 189.499 200.307 189.557 C 199.397 189.617 198.486 189.669 197.575 189.711 C 195.99 189.785 194.291 189.84 192.479 189.876 C 190.635 189.912 186.865 189.696 183.651 187.946 C 182.203 187.22 180.998 186.089 180.182 184.689 C 179.468 183.349 178.961 181.908 178.681 180.416 C 178.438 179.133 178.319 177.83 178.326 176.525 C 178.326 174.569 178.401 172.614 178.396 170.657 C 178.388 167.881 178.004 166.485 178.064 162.954 L 177.322 159.614 C 177.314 159.592 177.306 159.569 177.298 159.547 C 176.941 158.558 176.717 157.768 176.626 157.179 C 176.597 157.002 176.582 156.824 176.58 156.645 L 177.322 156.274 Z" id="path-29" vector-effect="non-scaling-stroke"/>
</svg>