<?xml version="1.0" encoding="utf-8"?>
<svg xmlns="http://www.w3.org/2000/svg" viewBox="422.935 448.329 50.471 56.2168" width="50.471px" height="56.2168px">
  <path d="M 422.992 454.042 C 429.28 452.87 442.456 451.046 442.456 451.046 C 443.762 450.291 445.068 449.386 446.374 448.329 C 450.584 449.302 453.436 450.484 454.932 451.875 C 455.695 452.515 456.142 453.415 456.169 454.367 C 456.169 454.375 456.168 454.383 456.165 454.39 C 456.075 454.635 454.659 455.348 451.919 456.529 C 451.487 456.716 451.053 456.9 450.619 457.083 C 444.306 462.517 438.538 469.158 433.313 477.006 C 433.103 477.304 432.897 477.603 432.693 477.905 C 430.89 480.586 429.657 483.02 428.993 485.208 C 428.626 486.369 428.431 487.57 428.414 488.779 C 428.359 490.827 429.216 492.806 430.784 494.252 C 432.706 496.045 435.796 497.316 440.055 498.067 C 442.035 498.405 444.037 498.63 446.048 498.74 C 449.721 498.74 453.392 498.134 454.317 497.989 C 459.043 497.241 462.141 495.848 463.611 493.81 C 463.666 493.751 463.716 493.688 463.761 493.623 C 464.418 492.676 465.076 490.01 465.733 485.624 C 465.911 484.43 466.073 483.234 466.222 482.037 L 467.202 482.037 C 467.295 483.182 467.419 484.325 467.574 485.465 C 467.825 487.294 468.152 488.999 468.553 490.579 C 468.954 492.193 469.485 493.778 470.141 495.319 C 470.285 495.425 470.426 495.532 470.567 495.641 C 471.882 496.657 472.74 497.546 473.141 498.309 C 473.305 498.598 473.395 498.917 473.406 499.243 C 473.393 499.631 473.224 500.001 472.929 500.277 C 472.19 501.043 470.591 501.726 468.132 502.325 C 467.284 502.53 466.43 502.71 465.569 502.865 C 457.113 504.849 457.2 504.574 452.251 504.474 C 450.764 504.369 449.279 504.229 447.799 504.054 C 432.7 502.258 425.15 497.267 425.15 489.08 C 425.15 488.864 425.156 488.647 425.167 488.43 C 425.249 486.857 425.62 484.977 426.28 482.793 C 426.626 481.658 427.011 480.534 427.435 479.421 C 431.572 471.17 436.905 462.92 443.435 454.668 C 440.618 454.931 438.29 455.407 435.519 455.937 C 433.133 456.393 430.525 456.41 428.006 457.077 C 427.16 457.082 426.431 456.662 425.717 456.395 C 424.574 455.967 423.948 455.819 422.935 455.183 L 422.992 454.042 Z" id="path-62" vector-effect="non-scaling-stroke" style="" transform="matrix(1, 0, 0, 0.9999999999999999, 0, -5.684341886080802e-14)"/>
</svg>