<?xml version="1.0" encoding="utf-8"?>
<svg xmlns="http://www.w3.org/2000/svg" viewBox="46.448 464.6 50.498 56.406" width="50.498px" height="56.406px">
  <path d="M 69.523 482.041 C 70.823 483.352 72.146 484.635 73.49 485.889 C 77.272 489.411 80.742 492.211 83.903 494.287 C 88.042 496.983 92.411 499.221 96.946 500.967 L 96.946 501.709 C 96.221 501.881 95.496 502.042 94.768 502.194 C 92.623 502.643 90.578 502.981 88.633 503.209 C 86.729 503.439 84.815 503.558 82.9 503.564 C 81.206 501.118 79.479 498.7 77.719 496.311 C 74.971 492.577 72.126 488.932 69.188 485.381 L 69.188 515.811 C 69.044 518.057 68.711 519.574 68.193 520.364 C 67.973 520.753 67.595 520.995 67.181 521.006 C 65.12 521.006 63.559 518.161 62.499 512.471 C 62.66 511.983 62.77 511.476 62.831 510.96 C 63.244 508.142 63.548 502.111 63.744 492.867 C 63.779 491.114 63.811 489.361 63.837 487.607 C 61.731 490.409 59.416 493.007 56.916 495.375 C 53.848 498.274 50.57 500.889 47.117 503.193 L 46.448 502.451 C 48.449 500.115 50.367 497.692 52.196 495.187 C 55.718 490.393 58.832 485.247 61.497 479.814 C 61.22 479.877 60.945 479.94 60.669 480.002 C 58.382 480.522 56.546 480.958 55.164 481.31 C 54.709 481.426 54.256 481.546 53.806 481.67 C 53.49 481.562 53.177 481.441 52.87 481.308 C 52.104 480.976 51.506 480.613 51.075 480.219 C 50.83 480.004 50.621 479.741 50.461 479.443 C 50.242 478.262 51.464 477.959 51.464 477.959 C 55.477 476.97 59.601 476.104 63.838 475.361 L 63.838 470.537 C 63.837 470.513 63.837 470.489 63.836 470.465 C 63.806 469.948 63.467 469.327 62.817 468.603 C 62.608 468.372 62.391 468.151 62.165 467.939 C 62.047 467.78 61.931 467.618 61.819 467.453 C 61.452 466.913 61.184 466.427 61.016 465.997 C 60.931 465.788 60.868 465.568 60.828 465.342 L 61.162 464.6 C 61.794 464.626 62.424 464.687 63.051 464.782 C 64.186 464.958 65.203 465.249 66.101 465.654 C 67.651 466.308 68.968 467.5 69.857 469.053 C 69.769 469.785 69.697 470.518 69.641 471.253 C 69.563 472.25 69.525 473.249 69.523 474.248 L 74.874 473.135 C 75.237 472.471 75.819 471.991 76.497 471.795 C 76.84 471.695 77.194 471.647 77.549 471.65 C 81.784 472.331 83.903 473.692 83.903 475.732 C 83.903 476.392 83.228 476.844 81.878 477.087 C 81.551 477.145 81.222 477.188 80.893 477.217 C 77.158 477.465 73.368 477.959 69.523 478.701 L 69.523 482.041 Z" id="path-37" vector-effect="non-scaling-stroke" style="" transform="matrix(0.9999999999999999, 0, 0, 0.9999999999999999, -2.842170943040401e-14, 0)"/>
</svg>