<?xml version="1.0" encoding="utf-8"?>
<svg xmlns="http://www.w3.org/2000/svg" viewBox="306.848 465.462 51.123 59.405" width="51.123px" height="59.405px">
  <path d="M 345.881 485.264 C 347.039 484.265 348.02 483.624 348.821 483.343 C 349.097 483.241 349.387 483.184 349.681 483.179 C 350.114 483.238 350.546 483.303 350.977 483.376 C 353.895 483.868 355.899 484.57 356.991 485.484 C 357.588 485.918 357.95 486.607 357.971 487.347 C 357.971 487.885 357.696 488.284 357.145 488.545 C 356.966 488.626 356.78 488.691 356.589 488.738 C 352.983 488.864 349.382 489.124 345.795 489.519 C 341.893 489.946 338.005 490.497 334.136 491.169 C 334.224 491.706 334.308 492.243 334.39 492.783 C 334.883 496.002 335.213 498.818 335.384 501.23 C 335.469 502.39 335.514 503.554 335.519 504.717 C 335.519 508.778 335.247 512.181 334.702 514.928 C 334.486 516.063 334.181 517.178 333.791 518.266 C 332.62 521.463 331.509 523.498 330.459 524.373 C 330.143 524.669 329.732 524.845 329.301 524.867 C 328.948 524.867 327.846 523.626 325.994 521.143 C 325.712 520.764 325.433 520.384 325.156 520.003 C 325.096 519.923 325.033 519.847 324.965 519.775 C 324.39 519.147 322.939 517.903 320.612 516.043 C 319.942 515.507 319.268 514.974 318.592 514.445 L 318.938 513.75 C 319.129 513.759 319.321 513.772 319.512 513.789 C 320.507 513.875 321.96 514.075 323.872 514.392 C 324.646 514.52 325.419 514.654 326.192 514.792 C 327.228 514.792 328.034 514.213 328.61 513.055 C 328.685 512.76 328.759 512.464 328.83 512.168 C 329.604 508.929 329.991 505.982 329.991 503.328 C 329.991 501.302 329.901 499.049 329.721 496.57 C 329.606 494.999 329.466 493.43 329.301 491.864 C 327.229 492.332 325.159 492.814 323.094 493.312 C 321.115 493.79 319.226 494.261 317.427 494.727 C 315.391 495.252 313.361 495.804 311.338 496.38 C 311.153 496.325 310.968 496.269 310.784 496.213 C 309.096 495.688 307.784 495.165 306.848 494.643 L 307.193 493.948 C 311.684 492.848 318.822 491.112 328.61 488.738 C 327.862 486.305 326.365 484.452 324.12 483.179 L 324.465 482.484 L 326.882 482.484 C 327.087 482.201 327.292 481.918 327.496 481.635 C 328.912 479.664 330.23 477.77 331.447 475.95 C 332.611 474.214 333.738 472.455 334.827 470.673 L 333.791 469.978 C 327.862 471.657 321.874 473.509 315.829 475.536 C 315.56 475.445 315.292 475.352 315.024 475.254 C 314.379 475.018 313.611 474.722 312.72 474.364 C 312.258 474.178 311.798 473.99 311.338 473.8 L 311.684 473.105 C 318.793 471.459 325.824 469.489 332.755 467.199 C 333.089 467 333.425 466.807 333.764 466.619 C 334.781 466.054 335.553 465.696 336.078 465.545 C 336.232 465.495 336.393 465.468 336.555 465.462 C 337.502 465.802 338.439 466.167 339.368 466.558 C 343.249 468.201 345.19 469.689 345.19 471.02 C 345.19 471.062 345.181 471.103 345.165 471.143 C 344.983 471.584 343.84 472.122 341.736 472.758 C 337.407 476.145 333.147 479.62 328.955 483.179 C 330.882 484.066 332.374 485.693 333.1 487.696 L 345.881 485.264 Z" id="path-49" vector-effect="non-scaling-stroke" style="" transform="matrix(0.9999999999999999, 0, 0, 0.9999999999999999, -2.842170943040401e-14, 0)"/>
</svg>