<?xml version="1.0" encoding="utf-8"?>
<svg xmlns="http://www.w3.org/2000/svg" viewBox="137.009 135.677 49.7406 58.6241" width="49.7406px" height="58.6241px">
  <path d="M 138.776 140.177 C 138.843 140.2 138.911 140.223 138.978 140.246 C 141.056 140.973 142.844 141.815 144.342 142.774 C 150.333 142.155 149.091 141.89 152.122 141.197 C 156.574 140.179 161.066 139.34 165.507 138.275 C 166.213 137.803 166.925 137.339 167.641 136.883 C 168.285 136.472 168.934 136.07 169.589 135.677 C 169.631 135.685 169.673 135.692 169.715 135.7 C 177.053 137.056 180.722 138.656 180.722 140.501 C 180.736 141.023 180.534 141.529 180.162 141.896 C 179.959 142.097 179.702 142.271 179.39 142.418 C 179.103 142.55 178.803 142.654 178.496 142.728 C 163.56 143.752 160.555 144.172 145.826 146.856 L 145.835 159.568 C 156.969 157.589 155.745 156.924 165.887 154.698 C 166.604 154.501 167.316 154.285 168.021 154.048 C 168.801 153.787 169.574 153.509 170.341 153.213 C 170.926 153.458 171.508 153.708 172.088 153.963 C 175.911 155.645 178.278 156.977 179.19 157.959 C 179.429 158.171 179.581 158.463 179.618 158.78 C 179.618 158.849 179.614 158.917 179.607 158.985 C 179.553 159.515 179.289 160.07 178.817 160.651 C 178.606 160.908 178.378 161.151 178.134 161.377 C 176.861 162.674 173.66 163.223 172.35 163.223 C 171.926 163.18 171.502 163.139 171.078 163.099 C 169.316 162.934 168.132 162.851 167.526 162.851 C 166.627 162.854 165.728 162.885 164.83 162.942 C 160.145 163.227 161.51 163.322 156.022 164.358 C 152.678 164.989 149.328 165.583 145.989 166.238 L 145.173 182.055 C 150.068 181.036 149.276 181.05 155.933 180.152 C 162.141 179.314 165.681 179.006 171.905 178.298 C 173.342 177.955 174.638 177.178 175.616 176.071 C 183.038 176.937 186.749 178.916 186.749 182.009 C 186.761 182.435 186.579 182.843 186.254 183.118 C 185.727 183.577 184.778 183.826 183.409 183.864 C 166.644 183.949 161.767 183.751 145.173 186.137 L 145.173 190.961 C 145.171 190.976 145.168 190.99 145.166 191.005 C 145.003 191.958 144.749 192.705 144.402 193.245 C 144.03 193.903 143.331 194.307 142.575 194.301 C 142.105 194.287 141.652 194.119 141.286 193.824 C 140.205 193.022 139.123 191.212 138.042 188.393 C 137.666 187.405 137.322 186.405 137.009 185.395 C 137.165 184.617 137.337 183.843 137.523 183.072 C 137.817 181.86 138.14 180.654 138.493 179.458 C 139.004 170.929 138.762 171.888 138.994 163.347 C 139.246 154.072 139.523 155.393 139.518 146.114 C 139.505 146.077 139.492 146.039 139.479 146.002 C 138.515 143.223 138.033 141.529 138.033 140.919 L 138.776 140.177 Z" id="path-33" vector-effect="non-scaling-stroke" transform="matrix(1, 0, 0, 1, 1.4210854715202004e-14, 0)"/>
</svg>