<?xml version="1.0" encoding="utf-8"?>
<svg viewBox="36.8649 468.1855 48.7011 62.201" width="48.701" height="62.201" xmlns="http://www.w3.org/2000/svg">
  <path d="M 58.966 527.386 L 58.966 500.886 C 58.966 500.826 58.962 500.765 58.956 500.705 C 58.94 500.58 58.908 500.486 58.858 500.424 C 58.822 500.379 58.772 500.347 58.716 500.336 C 58.697 500.333 58.679 500.331 58.661 500.331 C 58.531 500.331 58.411 500.427 58.303 500.617 C 58.29 500.64 58.277 500.663 58.266 500.686 C 56.999 502.858 55.613 504.957 54.114 506.975 C 53.151 508.274 52.151 509.545 51.116 510.786 C 48.282 514.186 45.066 517.286 41.466 520.086 C 40.999 520.486 40.466 520.686 39.866 520.686 C 39.028 520.705 38.231 520.328 37.715 519.669 C 37.542 519.457 37.392 519.228 37.266 518.986 C 37.199 518.72 37.116 518.453 37.016 518.186 C 36.936 517.978 36.887 517.759 36.871 517.536 C 36.867 517.486 36.865 517.436 36.866 517.386 C 36.838 516.212 37.333 515.086 38.219 514.314 C 38.391 514.16 38.574 514.017 38.766 513.886 C 41.899 511.686 44.732 509.053 47.266 505.986 C 49.184 503.675 50.925 501.222 52.471 498.646 C 52.885 497.952 53.283 497.249 53.666 496.536 C 54.373 495.224 55.032 493.886 55.642 492.525 C 56.402 490.82 57.01 489.207 57.466 487.686 C 57.476 487.649 57.485 487.612 57.493 487.574 C 57.569 487.182 57.394 486.986 56.966 486.986 L 46.166 486.986 C 45.462 486.988 44.785 486.721 44.273 486.238 C 44.253 486.221 44.234 486.204 44.216 486.186 C 43.73 485.731 43.433 485.111 43.383 484.447 C 43.371 484.327 43.365 484.207 43.366 484.086 C 43.361 483.7 43.437 483.318 43.589 482.963 C 43.736 482.631 43.949 482.333 44.216 482.086 C 44.48 481.832 44.789 481.628 45.128 481.486 C 45.457 481.352 45.81 481.284 46.166 481.286 L 58.366 481.286 C 58.446 481.287 58.525 481.277 58.603 481.256 C 58.845 481.188 58.966 480.998 58.966 480.686 L 58.966 471.286 C 58.962 470.945 59.008 470.604 59.103 470.276 C 59.241 469.802 59.505 469.374 59.866 469.036 C 60.452 468.477 61.235 468.172 62.046 468.186 C 62.052 468.186 62.059 468.186 62.066 468.186 C 62.932 468.186 63.666 468.486 64.266 469.086 C 64.847 469.654 65.172 470.434 65.166 471.246 C 65.166 471.26 65.166 471.273 65.166 471.286 L 65.166 480.686 C 65.164 480.767 65.174 480.847 65.196 480.924 C 65.265 481.166 65.455 481.286 65.766 481.286 L 81.666 481.286 C 82.424 481.274 83.154 481.572 83.689 482.11 C 83.698 482.119 83.707 482.127 83.716 482.136 C 83.951 482.367 84.147 482.634 84.297 482.928 C 84.476 483.288 84.568 483.684 84.566 484.086 C 84.577 484.845 84.28 485.576 83.742 486.11 C 83.733 486.119 83.724 486.128 83.716 486.136 C 83.188 486.681 82.461 486.988 81.703 486.986 C 81.69 486.986 81.678 486.986 81.666 486.986 L 67.466 486.986 C 67.402 486.986 67.339 486.992 67.277 487.005 C 66.967 487.074 66.896 487.334 67.066 487.786 C 68.124 490.697 69.609 493.804 71.521 497.108 C 71.535 497.134 71.55 497.16 71.566 497.186 C 73.499 500.52 75.582 503.636 77.816 506.536 C 79.526 508.757 81.128 510.655 82.623 512.23 C 83.06 512.692 83.508 513.144 83.966 513.586 C 84.342 513.956 84.669 514.372 84.939 514.825 C 85.348 515.508 85.565 516.29 85.566 517.086 C 85.566 517.753 85.432 518.32 85.166 518.786 C 85.041 519.089 84.857 519.364 84.624 519.594 C 84.312 519.894 83.919 520.079 83.445 520.151 C 83.286 520.175 83.126 520.187 82.966 520.186 C 82.458 520.186 82.047 520.067 81.731 519.829 C 81.672 519.785 81.617 519.738 81.566 519.686 C 79.967 518.376 78.46 516.959 77.054 515.445 C 75.683 513.973 74.385 512.435 73.166 510.836 C 70.432 507.27 67.999 503.586 65.866 499.786 C 65.842 499.739 65.815 499.692 65.786 499.648 C 65.689 499.504 65.584 499.431 65.471 499.431 C 65.452 499.431 65.434 499.433 65.416 499.436 C 65.269 499.466 65.187 499.611 65.17 499.871 C 65.167 499.909 65.166 499.948 65.166 499.986 L 65.166 527.386 C 65.17 527.769 65.103 528.148 64.968 528.506 C 64.814 528.898 64.574 529.25 64.266 529.536 C 63.679 530.095 62.896 530.401 62.086 530.386 C 62.079 530.386 62.072 530.386 62.066 530.386 C 61.643 530.391 61.225 530.314 60.832 530.16 C 60.473 530.015 60.145 529.804 59.866 529.536 C 59.295 529.007 58.97 528.265 58.967 527.487 C 58.966 527.454 58.965 527.42 58.966 527.386 Z" id="path-12"/>
</svg>