<?xml version="1.0" encoding="utf-8"?>
<svg xmlns="http://www.w3.org/2000/svg" viewBox="247.225 142.125 49.2044 57.891" width="49.2044px" height="57.891px">
  <path d="M 266.377 142.125 C 268.319 142.566 269.869 143.657 271.027 145.399 C 271.688 146.417 272.208 147.568 272.564 148.805 C 271.189 152.577 269.618 157.154 267.849 162.535 L 277.278 160.68 C 277.033 159.566 276.64 158.206 276.1 156.598 L 276.689 156.227 C 278.555 156.907 280.225 158.02 281.698 159.567 C 282.139 159.459 282.578 159.34 283.015 159.212 C 284.012 158.921 285.144 158.544 286.412 158.082 C 286.652 157.88 286.895 157.683 287.139 157.491 C 287.918 156.879 288.521 156.49 288.949 156.322 C 289.081 156.265 289.219 156.233 289.358 156.227 C 292.609 157.079 294.739 158.108 295.748 159.314 C 296.16 159.745 296.408 160.376 296.429 161.051 C 296.433 161.328 296.407 161.605 296.355 161.875 C 296.216 162.547 295.885 162.978 295.362 163.167 C 295.134 163.244 294.898 163.281 294.662 163.277 C 294.416 163.277 294.171 163.279 293.924 163.282 C 290.128 163.335 286.339 163.706 282.582 164.391 C 281.593 167.581 280.395 170.663 279.001 173.604 C 277.385 177.027 275.419 180.167 273.153 182.945 C 280.009 185.823 284.278 187.836 285.962 188.983 C 286.236 189.146 286.486 189.363 286.706 189.625 C 288.309 191.727 289.366 193.6 289.88 195.245 C 290.108 195.934 290.231 196.671 290.243 197.418 C 290.244 197.661 290.232 197.905 290.209 198.147 C 290.082 199.393 289.602 200.016 288.769 200.016 C 287.738 200.016 286.756 199.521 285.823 198.531 C 283.459 195.979 280.617 193.38 277.295 190.733 C 275.167 189.044 273 187.437 270.796 185.914 C 268.364 188.312 265.79 190.472 263.096 192.376 C 258.71 195.509 253.946 197.714 248.992 198.902 L 248.698 198.16 C 255.77 194.696 261.663 189.872 266.377 183.688 C 266.34 183.667 266.303 183.646 266.266 183.626 C 264.547 182.677 263.111 182.203 261.957 182.203 C 261.866 182.221 261.774 182.238 261.683 182.256 C 260.553 182.468 259.76 182.574 259.305 182.574 C 259.253 182.574 259.202 182.554 259.159 182.516 C 258.917 182.306 258.774 181.533 258.731 180.197 C 258.72 179.876 258.715 179.555 258.715 179.234 C 259.276 177.466 259.817 175.687 260.336 173.9 C 260.896 171.976 261.436 170.043 261.957 168.102 C 258.323 168.844 254.591 169.833 250.761 171.07 C 250.603 171.002 250.445 170.931 250.288 170.857 C 249.354 170.415 248.601 169.931 248.028 169.407 C 247.729 169.14 247.459 168.826 247.225 168.473 L 247.52 167.731 C 252.872 166.308 258.077 164.947 263.136 163.649 C 263.756 161.477 264.346 159.291 264.904 157.093 C 265.664 154.11 266.352 151.098 266.966 148.063 C 266.965 147.881 266.955 147.7 266.937 147.521 C 266.87 146.814 266.683 145.881 266.377 144.723 C 266.315 144.495 266.261 144.265 266.215 144.032 C 266.172 143.815 266.139 143.611 266.117 143.421 C 266.095 143.237 266.083 143.052 266.082 142.867 L 266.377 142.125 Z M 272.481 165.794 C 270.337 166.24 268.203 166.762 266.082 167.359 C 266.008 167.61 265.934 167.86 265.86 168.111 C 264.777 171.757 263.574 175.344 262.252 178.863 C 262.875 178.982 263.495 179.128 264.111 179.302 C 265.598 179.714 267.047 180.313 268.439 181.09 C 269.878 178.933 271.186 176.644 272.354 174.241 C 273.771 171.319 275.022 168.276 276.1 165.133 C 274.89 165.324 273.684 165.544 272.481 165.794 Z" id="path-33" vector-effect="non-scaling-stroke" style=""/>
</svg>