<?xml version="1.0" encoding="utf-8"?>
<svg xmlns="http://www.w3.org/2000/svg" viewBox="160.572 247.556 51.6724 29.924" width="51.6724px" height="29.924px">
  <path d="M 190.047 247.556 C 193.33 249.31 197.041 251.184 199.854 253.047 C 202.535 254.811 205.118 256.733 207.592 258.803 C 208.008 259.354 208.412 259.914 208.804 260.483 C 210.518 262.977 211.032 265.171 211.672 267.197 C 212.033 268.284 212.226 269.424 212.244 270.574 C 212.245 270.652 212.244 270.73 212.241 270.807 C 212.222 271.49 212.116 272.028 211.923 272.419 C 211.699 272.923 211.208 273.231 210.681 273.206 C 209.908 273.206 208.976 272.604 207.884 271.398 C 207.551 271.029 207.233 270.643 206.929 270.245 C 201.85 263.263 196.423 256.567 190.672 250.186 C 190.614 250.112 190.556 250.041 190.499 249.965 C 189.781 249.037 189.421 248.342 189.421 247.884 L 190.047 247.556 Z M 175.892 247.556 C 176.281 247.556 176.67 247.563 177.059 247.579 C 179.44 247.683 181.338 248.107 182.753 248.854 C 184.094 249.493 185.6 250.979 186.064 252.447 C 185.706 252.749 185.298 253.153 184.841 253.663 C 184.619 253.91 184.402 254.162 184.188 254.419 C 181.902 258.111 179.313 261.585 176.451 264.799 C 172.615 269.093 167.921 272.706 163.386 276.165 C 163.142 276.312 162.898 276.456 162.651 276.596 C 161.912 277.019 161.323 277.313 160.885 277.48 L 160.572 276.822 L 163.073 274.192 C 165.558 271.379 167.849 268.384 169.93 265.229 C 172.622 261.17 174.835 256.782 176.517 252.159 C 176.568 251.871 176.62 251.583 176.674 251.296 C 176.723 251.035 176.776 250.774 176.83 250.515 C 176.778 250.131 176.674 249.802 176.517 249.527 C 176.356 249.398 176.207 249.252 176.071 249.094 C 175.852 248.838 175.685 248.54 175.579 248.213 L 175.892 247.556 Z" id="path-6" vector-effect="non-scaling-stroke" style="" transform="matrix(0.9999999999999999, 0, 0, 0.9999999999999999, 0, -2.842170943040401e-14)"/>
</svg>