<?xml version="1.0" encoding="utf-8"?>
<svg xmlns="http://www.w3.org/2000/svg" viewBox="284.289 1372.09 37.48 24.12" width="37.48px" height="24.12px">
  <path d="M 285.031 1377.28 C 286.02 1377.28 287.257 1377.4 288.742 1377.65 C 289.679 1377.58 290.614 1377.48 291.546 1377.36 C 296.233 1376.77 302.349 1375.51 309.894 1373.57 C 310.883 1373.26 312.12 1372.76 313.605 1372.09 C 314.501 1372.41 315.388 1372.75 316.267 1373.12 C 318.787 1374.19 320.442 1375.18 321.23 1376.09 C 321.548 1376.41 321.74 1376.83 321.769 1377.28 C 320.655 1378.33 320.037 1379.07 319.913 1379.51 C 319.225 1381.53 318.498 1383.54 317.733 1385.54 C 316.886 1387.75 316.005 1389.94 315.089 1392.12 C 314.921 1392.35 314.74 1392.57 314.547 1392.77 C 313.778 1393.58 312.969 1393.98 312.121 1393.98 C 311.625 1393.98 311.007 1393.36 310.265 1392.12 C 305.514 1392.5 300.8 1393.25 296.164 1394.35 C 296.15 1394.49 296.131 1394.63 296.108 1394.77 C 295.947 1395.73 295.594 1396.21 295.05 1396.21 C 294.809 1396.21 294.568 1396.19 294.329 1396.16 C 293.384 1396.03 292.633 1395.62 292.077 1394.95 C 291.754 1394.55 291.505 1394.1 291.339 1393.61 C 289.669 1389.71 288.184 1385.75 286.886 1381.73 C 286.84 1381.6 286.784 1381.47 286.72 1381.34 C 286.549 1381 286.291 1380.61 285.947 1380.17 C 285.771 1379.94 285.589 1379.72 285.402 1379.51 C 285.4 1379.51 285.399 1379.5 285.398 1379.5 C 284.9 1378.91 284.569 1378.42 284.403 1378.04 C 284.348 1377.91 284.31 1377.78 284.289 1377.65 L 285.031 1377.28 Z M 295.792 1391.01 C 297.604 1390.59 299.419 1390.18 301.237 1389.79 C 304.721 1389.04 307.73 1388.46 310.265 1388.04 C 310.38 1387.58 310.489 1387.11 310.591 1386.64 C 311.101 1384.32 311.611 1381.32 312.121 1377.65 L 311.378 1376.91 L 292.824 1380.62 L 295.792 1391.01 Z" id="path-101" vector-effect="non-scaling-stroke" transform="matrix(1, 0, 0, 0.9999999999999999, 0, 2.2737367544323206e-13)"/>
</svg>