<?xml version="1.0" encoding="utf-8"?>
<svg xmlns="http://www.w3.org/2000/svg" viewBox="39.004 247.275 48.846 31.058" width="48.846px" height="31.058px">
  <path d="M 69.666 257.313 C 69.836 257.382 70.006 257.452 70.175 257.523 C 75.283 259.629 80.203 262.165 84.881 265.106 C 86.397 268.42 87.332 270.938 87.686 272.658 C 87.786 273.102 87.841 273.556 87.85 274.012 C 87.85 274.089 87.848 274.167 87.845 274.245 C 87.795 275.616 87.294 276.472 86.342 276.813 C 85.991 276.931 85.623 276.987 85.252 276.981 C 85.2 276.981 85.149 276.977 85.097 276.971 C 83.927 276.821 82.047 275.028 79.457 271.592 C 78.773 270.68 78.107 269.755 77.459 268.817 C 63.481 272.775 62.878 273.88 49.395 277.591 L 47.91 278.333 C 45.094 278.242 42.745 276.95 40.863 274.458 C 40.131 273.469 39.508 272.404 39.004 271.282 L 39.746 270.54 C 40.213 270.654 40.682 270.761 41.152 270.861 C 42.042 271.049 42.791 271.174 43.399 271.236 C 43.665 271.264 43.932 271.28 44.199 271.282 L 45.018 271.396 C 50.607 265.303 55.465 258.578 59.491 251.357 C 59.677 250.058 59.8 248.821 59.862 247.646 L 60.604 247.275 C 61.208 247.759 61.776 248.287 62.304 248.854 C 64.311 250.913 65.433 253.676 65.428 256.552 L 64.315 257.295 C 59.553 261.814 54.728 266.268 49.842 270.654 C 60.852 268.798 64.595 268.322 75.603 266.219 C 73.579 263.438 71.475 260.715 69.295 258.055 L 69.666 257.313 Z" id="path-3" vector-effect="non-scaling-stroke" transform="matrix(0.9999999999999999, 0, 0, 0.9999999999999999, 0, -2.842170943040401e-14)"/>
</svg>