<?xml version="1.0" encoding="utf-8"?>
<svg xmlns="http://www.w3.org/2000/svg" viewBox="39.016 349.479 43.793 31.8621" width="43.793px" height="31.8621px">
  <path d="M 39.758 352.418 C 41.366 352.542 42.559 352.642 44.414 353.508 C 44.68 353.571 44.947 353.625 45.215 353.67 C 46.054 353.812 46.904 353.882 47.754 353.879 C 65.567 352.085 55.72 353.252 66.852 351.334 C 66.976 351.308 67.099 351.28 67.222 351.251 C 69.011 350.842 70.753 350.248 72.419 349.479 C 73.074 349.818 73.726 350.163 74.375 350.512 C 78.657 352.822 81.309 354.608 82.33 355.87 C 82.6 356.151 82.768 356.514 82.809 356.901 C 82.808 357.015 82.79 357.128 82.756 357.236 C 82.594 357.768 82.062 358.404 81.16 359.146 C 80.853 359.398 80.536 359.639 80.212 359.869 C 77.176 369.042 77.767 366.103 74.618 375.237 C 74.688 375.31 74.746 375.393 74.788 375.484 C 74.922 375.763 74.989 376.176 74.989 376.722 C 74.992 376.964 74.921 377.201 74.785 377.4 C 74.286 378.136 72.87 378.529 70.536 378.577 C 67.118 378.575 67.143 378.52 63.633 378.557 C 62.862 378.565 60.67 377.267 53.609 378.743 C 53.58 379.569 53.452 380.197 53.226 380.629 C 53.036 381.067 52.602 381.347 52.125 381.341 C 49.899 381.341 48.043 379.857 46.559 376.888 C 46.07 374.256 45.559 371.627 45.028 369.002 C 43.505 361.445 44.097 365.802 42.188 358.332 C 41.864 357.868 41.435 357.265 40.901 356.523 C 40.712 356.26 40.522 355.997 40.332 355.734 C 40.16 355.58 40.001 355.401 39.884 355.2 C 39.543 354.615 39.453 354.583 39.235 354.097 C 39.097 353.804 39.022 353.485 39.016 353.16 L 39.758 352.418 Z M 70.192 356.159 C 54.668 357.643 63.774 356.229 48.868 357.961 C 50.971 367.609 51.012 365.384 53.609 375.032 C 64.701 372.937 60.682 373.05 67.698 372.199 C 69.678 363.417 68.956 366.55 70.934 357.272 L 70.192 356.159 Z M 56.399 360.952 C 56.891 361.161 57.353 361.449 57.869 361.596 C 60.42 362.323 60.359 362.853 61.657 363.722 C 62.472 364.704 62.872 365.938 62.781 367.18 C 62.77 367.281 62.757 367.384 62.742 367.486 C 62.523 368.92 62.455 368.885 61.371 369.139 C 60.963 369.227 60.539 369.246 60.123 369.194 C 59.927 369.175 59.736 369.123 59.553 369.046 C 59.01 368.81 58.571 368.312 58.238 367.55 C 58.106 367.238 57.997 366.918 57.911 366.593 C 57.902 366.551 57.89 366.511 57.879 366.469 C 57.075 363.478 57.899 364.546 55.86 361.759 L 56.399 360.952 Z" id="path-15" vector-effect="non-scaling-stroke"/>
</svg>