<?xml version="1.0" encoding="utf-8"?>
<svg xmlns="http://www.w3.org/2000/svg" viewBox="209.275 100.92 39.975 30.0491" width="39.975px" height="30.0491px">
  <path d="M 210.017 104.366 C 211.625 104.49 211.66 104.083 213.515 104.949 C 213.781 105.012 214.048 105.066 214.316 105.111 C 215.155 105.253 216.005 105.323 216.855 105.32 C 234.668 103.526 224.821 104.693 235.953 102.775 C 236.077 102.749 236.2 102.721 236.323 102.692 C 238.112 102.283 239.854 101.689 241.52 100.92 C 242.175 101.259 242.827 101.604 243.476 101.953 C 247.758 104.263 247.75 104.425 248.771 105.687 C 249.041 105.968 249.209 106.331 249.25 106.718 C 249.249 106.832 249.231 106.945 249.197 107.053 C 249.035 107.585 248.503 108.221 247.601 108.963 C 247.294 109.215 246.977 109.456 246.653 109.686 C 244.12 116.187 244.204 115.75 241.055 124.884 C 241.125 124.957 241.183 125.04 241.225 125.131 C 241.359 125.41 241.426 125.823 241.426 126.369 C 241.429 126.611 241.358 126.848 241.222 127.047 C 240.723 127.783 239.307 128.216 236.973 128.224 C 235.386 128.229 234.441 128.137 233.061 128.034 C 232.292 127.977 229.435 126.895 222.374 128.371 C 222.345 129.197 222.217 129.825 221.991 130.257 C 221.801 130.695 221.367 130.975 220.89 130.969 C 218.664 130.969 217.78 128.979 216.296 126.01 C 215.807 123.378 215.666 123.165 215.033 120.563 C 213.151 112.826 214.356 117.75 212.447 110.28 C 212.123 109.816 211.694 109.213 211.16 108.471 C 210.971 108.208 210.781 107.945 210.591 107.682 C 210.419 107.528 210.26 107.349 210.143 107.148 C 209.802 106.563 209.712 106.531 209.494 106.045 C 209.356 105.752 209.281 105.433 209.275 105.108 L 210.017 104.366 Z M 239.293 107.6 C 223.769 109.084 232.875 107.67 217.969 109.402 C 220.072 119.05 219.777 115.012 222.374 124.66 C 233.466 122.565 230.11 122.527 237.126 121.676 C 239.106 112.894 238.057 117.991 240.035 108.713 L 239.293 107.6 Z M 225.69 111.537 C 226.182 111.746 226.644 112.034 227.16 112.181 C 229.711 112.908 229.65 113.438 230.948 114.307 C 231.763 115.289 232.163 116.523 232.072 117.765 C 232.061 117.866 232.048 117.969 232.033 118.071 C 231.814 119.505 231.746 119.47 230.662 119.724 C 230.254 119.812 229.83 119.831 229.414 119.779 C 229.218 119.76 229.027 119.708 228.844 119.631 C 228.301 119.395 227.862 118.897 227.529 118.135 C 227.397 117.823 227.288 117.503 227.202 117.178 C 227.193 117.136 227.181 117.096 227.17 117.054 C 226.366 114.063 227.19 115.131 225.151 112.344 L 225.69 111.537 Z" id="path-15" vector-effect="non-scaling-stroke" transform="matrix(1, 0, 0, 1, 0, 7.105427357601002e-15)"/>
</svg>