<?xml version="1.0" encoding="utf-8"?>
<svg xmlns="http://www.w3.org/2000/svg" viewBox="150.436 292.131 51.616 29.518" width="51.616px" height="29.518px">
  <path d="M 161.871 295.1 L 161.87 295.1 C 162.538 295.2 163.197 295.356 163.839 295.567 C 164.586 295.811 165.297 296.153 165.953 296.584 C 167.023 296.401 168.09 296.2 169.153 295.981 C 172.209 295.358 175.229 294.569 178.199 293.616 C 178.894 293.23 179.542 292.891 180.141 292.601 C 180.479 292.437 180.822 292.28 181.167 292.131 C 181.997 292.367 182.82 292.624 183.636 292.904 C 186.015 293.726 187.597 294.549 188.382 295.371 C 188.726 295.685 188.933 296.12 188.96 296.584 C 188.958 296.702 188.937 296.819 188.897 296.929 C 188.74 297.397 188.289 298.01 187.546 298.77 C 187.283 299.039 187.06 299.3 186.782 299.553 C 184.621 300.097 184.434 305.398 184.577 309.403 C 184.612 310.397 184.919 311.36 185.582 312.1 C 185.938 312.496 186.35 312.837 186.804 313.114 C 187.264 313.385 187.755 313.599 188.267 313.751 C 188.806 313.917 189.002 314.001 191.29 313.259 C 192.209 312.953 192.972 312.306 193.581 311.32 C 193.851 310.876 194.078 310.407 194.259 309.919 C 194.694 308.711 195.906 306.6 196.042 305.513 L 197.156 305.884 C 197.647 310.131 197.71 311.045 199.454 312.516 C 199.761 312.833 200.056 313.159 200.34 313.496 C 201.043 314.336 201.53 315.097 201.8 315.781 C 201.958 316.158 202.043 316.561 202.052 316.969 C 202.052 317.41 201.902 317.838 201.627 318.182 C 201.073 318.903 199.978 319.488 198.341 319.938 C 198.033 320.016 197.721 320.081 197.407 320.132 C 195.789 320.405 189.339 320.041 186.062 319.051 C 185.018 318.725 184.112 318.315 183.343 317.82 C 181.997 316.999 180.987 315.725 180.495 314.227 C 179.973 312.531 179.635 310.315 179.48 307.579 C 179.412 306.333 179.38 305.085 179.382 303.836 C 179.383 302.373 179.505 301.329 179.683 298.44 L 178.941 297.698 C 176.096 298.131 173.251 298.749 170.406 299.553 C 170.621 299.696 170.8 299.887 170.928 300.111 C 171.027 300.285 171.101 300.472 171.148 300.666 C 170.625 305.244 171.015 304.976 169.319 309.22 C 168.49 311.293 168.285 311.291 167.026 313.133 C 165.651 315.065 164.389 315.907 162.048 317.038 C 159.615 318.213 156.123 320.163 150.808 321.649 L 150.436 320.906 C 152.723 319.544 153.989 318.494 155.927 316.969 C 159.149 314.433 160.173 313.763 161.751 311.441 C 163.201 309.307 163.571 307.835 163.726 305.12 L 163.726 301.038 C 163.727 300.734 163.708 300.43 163.668 300.128 C 163.569 299.404 163.341 298.842 162.984 298.44 C 162.977 298.432 162.969 298.424 162.962 298.415 C 162.263 297.626 161.815 296.962 161.617 296.423 C 161.544 296.238 161.504 296.041 161.499 295.842 L 161.871 295.1 Z" id="path-16" vector-effect="non-scaling-stroke" transform="matrix(0.9999999999999999, 0, 0, 0.9999999999999999, 3.552713678800501e-15, 0)"/>
</svg>