<?xml version="1.0" encoding="utf-8"?>
<svg xmlns="http://www.w3.org/2000/svg" viewBox="220.858 281.398 50.8369 28.006" width="50.8369px" height="28.006px">
  <path d="M 228.437 287.335 C 229.864 287.152 231.288 286.953 232.711 286.74 C 238.637 285.861 244.517 284.697 250.331 283.253 C 250.965 283.095 251.599 282.785 252.233 282.321 C 252.612 282.042 252.969 281.733 253.3 281.398 C 258.99 282.202 261.835 283.563 261.835 285.48 C 261.85 285.906 261.681 286.317 261.37 286.607 C 261.005 286.947 260.425 287.168 259.63 287.27 C 259.253 287.316 258.874 287.338 258.495 287.335 C 257.166 287.335 255.837 287.359 254.509 287.408 C 251.747 287.506 248.991 287.729 246.249 288.078 C 246.363 288.2 246.473 288.326 246.577 288.455 C 247.272 289.292 247.678 290.331 247.734 291.417 C 247.621 292.04 247.514 292.664 247.413 293.289 C 246.809 296.969 246.516 298.578 246.345 302.303 C 248.616 302.008 250.889 301.729 253.164 301.468 C 255.218 301.232 256.24 301.016 258.298 300.818 C 258.637 300.649 258.976 300.482 259.317 300.317 C 260.774 299.613 261.792 299.183 262.369 299.028 C 262.494 298.991 262.622 298.969 262.752 298.963 C 269.679 300.262 271.694 301.979 271.694 304.391 C 271.706 304.749 271.599 305.1 271.389 305.39 C 271.077 305.804 270.525 306.068 269.734 306.182 C 269.4 306.228 269.062 306.25 268.725 306.247 C 264.028 306 261.811 306.014 257.107 306.014 C 254.742 306.017 252.378 306.092 250.017 306.238 C 241.964 306.726 236.282 307.32 226.053 309.404 C 223.95 308.538 222.219 307.549 220.858 306.435 L 221.229 305.693 C 225.154 305.089 229.081 304.501 233.011 303.93 C 236.751 303.387 237.035 303.553 240.779 303.045 L 240.683 291.789 C 240.683 291.762 240.682 291.735 240.682 291.708 C 240.677 291.308 240.636 290.934 240.558 290.588 C 240.45 290.085 240.24 289.61 239.941 289.191 C 239.427 289.267 238.913 289.35 238.401 289.439 C 237.512 289.594 236.566 289.777 235.563 289.988 C 234.545 290.204 233.531 290.433 232.519 290.675 C 232.499 290.668 232.478 290.661 232.458 290.653 C 231.177 290.184 230.118 289.665 229.281 289.097 C 228.84 288.804 228.432 288.462 228.066 288.078 L 228.437 287.335 Z" id="path-8" vector-effect="non-scaling-stroke" transform="matrix(0.9999999999999999, 0, 0, 0.9999999999999999, 0, 0)"/>
</svg>