<?xml version="1.0" encoding="utf-8"?>
<svg xmlns="http://www.w3.org/2000/svg" viewBox="40.865 285.659 34.1411 28.945" width="34.1411px" height="28.945px">
  <path d="M 67.213 299.389 C 68.1 299.851 68.968 300.352 69.812 300.889 C 71.783 302.154 73.193 303.419 74.043 304.683 C 74.646 305.521 74.981 306.522 75.006 307.554 C 75.008 307.739 74.987 307.924 74.943 308.103 C 74.826 308.552 74.548 308.839 74.109 308.964 C 73.917 309.016 73.719 309.041 73.521 309.038 C 73.207 309.015 72.897 308.953 72.6 308.851 C 71.01 308.381 67.793 307.022 62.948 304.776 C 62.017 304.345 61.089 303.91 60.162 303.471 C 59.258 304.184 58.342 304.88 57.414 305.559 C 55.763 306.764 54.081 307.924 52.369 309.038 C 51.712 309.44 51.92 309.321 50.514 310.151 C 50.236 310.317 49.956 310.479 49.675 310.638 C 48.44 311.339 47.102 312.027 45.66 312.702 C 44.204 313.381 42.729 314.015 41.236 314.604 L 40.865 313.862 C 41.883 313.04 42.893 312.208 43.894 311.364 C 48.755 307.264 52.322 303.767 54.596 300.874 C 53.34 300.304 52.088 299.724 50.841 299.134 C 48.235 297.905 45.651 296.629 43.092 295.307 L 43.463 294.565 C 45.97 294.983 48.475 295.416 50.978 295.864 C 53.3 296.281 55.619 296.714 57.936 297.163 C 58.455 296.552 58.965 295.934 59.466 295.307 C 60.901 293.519 62.248 291.662 63.502 289.741 C 62.512 288.133 62.018 287.02 62.018 286.401 L 62.76 285.659 C 66.192 286.196 68.633 287.042 70.081 288.198 C 71.062 288.896 71.651 290.021 71.666 291.225 C 71.534 291.395 71.402 291.565 71.27 291.733 C 69.346 294.188 67.245 296.498 64.986 298.647 L 67.213 299.389 Z" id="path-3" vector-effect="non-scaling-stroke"/>
</svg>