<?xml version="1.0" encoding="utf-8"?>
<svg xmlns="http://www.w3.org/2000/svg" viewBox="57.496 284.404 35.254 27.832" width="35.254px" height="27.832px">
  <path d="M 60.836 300.361 C 62.178 300.08 63.516 299.776 64.848 299.447 C 67.364 298.824 69.424 298.201 71.03 297.577 C 71.732 297.311 72.417 297.001 73.082 296.65 C 73.341 296.484 73.6 296.316 73.858 296.146 C 74.104 295.984 74.338 295.828 74.561 295.678 C 74.811 295.51 75.061 295.339 75.309 295.165 C 79.019 295.66 80.875 296.402 80.875 297.392 C 80.875 297.995 80.221 298.516 78.915 298.956 C 78.583 299.067 78.246 299.164 77.907 299.247 C 74.01 300.113 69.928 301.227 65.66 302.587 C 65.12 302.56 64.583 302.485 64.057 302.364 C 63.503 302.241 62.913 302.068 62.288 301.846 C 61.67 301.625 61.061 301.377 60.465 301.103 L 60.836 300.361 Z M 57.496 291.825 C 60.024 291.308 62.544 290.747 65.054 290.144 C 71.659 288.568 78.178 286.652 84.586 284.404 C 84.724 284.464 84.862 284.524 85.001 284.584 C 88.893 286.291 91.319 287.731 92.279 288.904 C 92.553 289.195 92.72 289.572 92.75 289.97 C 92.746 290.053 92.721 290.132 92.678 290.202 C 92.508 290.507 92.037 290.924 91.266 291.454 L 85.699 304.814 C 85.868 304.926 86.027 305.054 86.173 305.195 C 86.582 305.576 86.814 306.11 86.813 306.669 C 86.815 306.835 86.765 306.997 86.671 307.132 C 86.522 307.348 86.255 307.519 85.87 307.646 C 85.692 307.704 85.511 307.749 85.328 307.782 C 78.277 308.525 71.35 310.01 64.547 312.236 C 62.691 312.174 60.96 311.556 59.352 310.38 L 59.723 309.638 C 66.897 308.154 73.701 306.546 80.133 304.814 L 83.102 290.712 C 83.104 290.527 83.083 290.342 83.039 290.162 C 82.922 289.714 82.644 289.427 82.205 289.301 C 82.013 289.25 81.815 289.225 81.617 289.228 C 75.432 290.651 69.124 292.259 62.692 294.052 C 62.152 294.025 61.615 293.95 61.089 293.829 C 60.534 293.706 59.944 293.533 59.319 293.311 C 58.701 293.09 58.092 292.842 57.496 292.568 L 57.496 291.825 Z" id="path-12" vector-effect="non-scaling-stroke" transform="matrix(1, 0, 0, 1, -1.4210854715202004e-14, 7.105427357601002e-15)"/>
</svg>