<?xml version="1.0" encoding="utf-8"?>
<svg xmlns="http://www.w3.org/2000/svg" viewBox="281.666 289.85 39.866 28.638" width="39.866px" height="28.638px">
  <path d="M 282.037 294.459 C 283.432 294.455 284.816 294.706 286.119 295.202 C 291.222 294.827 297.016 293.591 302.958 292.324 C 306.844 291.495 310.618 290.779 314.481 289.85 C 314.926 290.09 315.369 290.333 315.809 290.579 C 319.625 292.721 321.532 294.209 321.532 295.045 C 321.532 295.357 321.404 295.637 321.146 295.885 C 321.037 295.989 320.918 296.08 320.79 296.158 C 320.392 297.701 319.99 299.242 319.585 300.782 C 317.365 309.227 316.016 312.451 315.328 314.035 C 315.328 314.038 315.327 314.04 315.326 314.042 C 314.564 315.806 313.775 316.997 312.961 317.615 C 312.582 317.928 312.109 318.105 311.617 318.117 C 311.57 318.117 311.523 318.116 311.475 318.112 C 310.807 318.064 309.876 317.689 308.682 316.985 C 308.293 316.755 307.911 316.514 307.535 316.262 C 306.932 316.263 306.328 316.27 305.724 316.284 C 303.877 316.328 301.919 316.438 299.851 316.614 C 297.583 316.811 295.319 317.065 293.063 317.375 C 293.001 318.117 292.506 318.488 291.578 318.488 C 290.985 318.482 290.406 318.297 289.918 317.959 C 288.778 317.207 287.723 315.652 286.754 313.293 C 286.521 311.838 286.281 310.384 286.032 308.931 C 284.994 302.879 284.229 301.827 283.521 299.655 C 283.42 299.34 283.314 299.027 283.202 298.715 C 282.864 297.771 282.526 296.994 282.188 296.383 C 282.035 296.101 281.86 295.83 281.666 295.573 L 282.037 294.459 Z M 290.676 304.803 C 294.511 303.999 298.222 303.01 301.809 301.835 C 301.832 301.839 301.854 301.843 301.876 301.847 C 304.744 302.389 306.561 302.997 307.327 303.67 C 307.572 303.851 307.725 304.129 307.746 304.432 C 307.747 304.57 307.737 304.707 307.716 304.842 C 307.562 305.806 306.83 306.288 305.52 306.288 C 301.084 306.288 297.382 306.472 294.414 306.838 C 293.284 306.973 292.16 307.161 291.047 307.401 L 293.063 314.777 C 297.145 314.035 301.104 313.17 304.938 312.18 C 305.312 312.18 305.685 312.186 306.058 312.198 C 306.66 312.219 307.227 312.256 307.761 312.31 C 308.308 312.365 308.852 312.445 309.391 312.551 C 310.087 310.146 310.694 307.716 311.212 305.265 C 312.022 301.417 312.548 299.324 312.997 295.416 C 312.997 294.984 312.874 294.613 312.626 294.303 C 310.264 294.779 307.717 294.889 305.327 295.397 C 300.069 296.514 294.299 297.219 288.717 298.541 L 290.676 304.803 Z" id="path-54" vector-effect="non-scaling-stroke"/>
</svg>