<?xml version="1.0" encoding="utf-8"?>
<svg xmlns="http://www.w3.org/2000/svg" viewBox="173.881 281.981 37.11 29.401" width="37.11px" height="29.401px">
  <path d="M 191.694 297.765 C 198.373 297.868 202.332 298.281 203.569 299.003 C 203.622 299.032 203.675 299.062 203.727 299.091 C 205.342 300.013 206.459 301.181 207.077 302.593 C 207.472 303.527 207.666 304.512 207.651 305.502 C 207.651 305.574 207.646 305.645 207.636 305.716 C 207.534 306.399 206.92 306.74 205.795 306.74 C 205.505 306.733 205.219 306.685 204.948 306.597 C 203.891 306.282 202.424 305.444 200.547 304.084 C 199.935 303.639 199.334 303.183 198.745 302.717 C 198.584 302.583 198.42 302.452 198.252 302.324 C 197.207 301.528 195.826 300.676 194.107 299.767 C 193.193 299.287 192.265 298.825 191.323 298.384 L 191.694 297.765 Z M 174.714 293.545 C 178.585 293.24 183.232 292.702 187.022 291.977 C 187.389 291.15 187.568 291.147 187.864 290.3 C 188.216 289.295 188.504 288.274 188.725 287.242 C 188.724 286.943 188.692 286.644 188.628 286.349 C 188.526 285.874 188.345 285.383 188.086 284.875 C 187.845 284.41 187.562 283.96 187.241 283.528 C 187.241 283.347 187.265 283.165 187.312 282.987 C 187.377 282.746 187.478 282.512 187.612 282.291 L 188.354 281.981 C 188.629 282.051 188.903 282.124 189.175 282.201 C 193.328 283.38 195.405 285.06 195.405 287.242 C 195.324 287.703 195.234 288.162 195.135 288.62 C 194.886 289.767 194.757 289.916 194.444 290.739 C 198.526 290.082 202.059 290.038 204.36 288.248 C 204.638 288.312 204.914 288.38 205.19 288.449 C 209.09 289.44 210.991 291.153 210.991 292.504 C 210.991 293.049 210.419 293.424 209.276 293.627 C 208.984 293.678 208.689 293.716 208.393 293.741 C 206.001 293.741 203.461 293.824 200.774 293.988 C 198.111 294.155 195.455 294.382 192.807 294.67 C 188.972 301.892 182.787 307.462 174.252 311.382 L 173.881 310.763 C 174.653 310.107 175.407 309.435 176.142 308.749 C 180.835 304.366 184.04 299.982 185.756 295.599 C 184.549 295.75 183.343 295.904 182.138 296.062 C 180.993 296.213 179.849 296.369 178.706 296.527 C 177.726 296.276 176.232 295.172 175.527 294.843 C 175.106 294.65 174.71 294.423 174.343 294.165 L 174.714 293.545 Z" id="path-41" vector-effect="non-scaling-stroke" style="" transform="matrix(1.0000000000000002, 0, 0, 1.0000000000000002, 2.842170943040401e-14, 0)"/>
</svg>