<?xml version="1.0" encoding="utf-8"?>
<svg xmlns="http://www.w3.org/2000/svg" viewBox="35.31 587.064 46.934 27.651" width="46.934px" height="27.651px">
  <path d="M 40.43 591.026 C 41.175 591.08 41.922 591.123 42.67 591.153 C 43.344 591.181 44.021 591.195 44.697 591.196 C 46.59 590.967 48.481 590.73 50.368 590.485 C 56.28 589.716 62.809 588.819 68.666 587.913 C 69.519 587.742 70.466 587.46 71.51 587.064 C 74.434 587.771 76.286 588.415 77.061 589 C 77.314 589.169 77.463 589.383 77.483 589.609 C 77.483 589.622 77.482 589.635 77.48 589.649 C 77.432 589.888 76.96 590.1 76.06 590.288 C 75.763 590.567 75.464 590.845 75.164 591.122 C 73.074 593.052 70.555 595.936 68.504 597.611 C 66.429 599.313 64.444 601.184 62.16 602.787 C 66.662 604.144 71.041 603.966 75.64 605.324 C 80.191 608.294 82.244 611.745 82.244 613.188 C 82.244 613.867 81.77 614.206 80.822 614.206 C 80.194 614.206 79.361 613.964 78.326 613.482 C 78.011 613.333 77.706 613.179 77.409 613.018 C 76.83 612.655 76.249 612.292 75.669 611.93 C 69.061 607.804 64.536 605.118 61.306 603.296 C 58.593 605.236 55.304 607.678 52.065 609.304 C 47.608 611.53 43.481 613.487 37.586 614.206 C 36.72 614.312 36.117 614.63 35.594 614.715 L 35.31 614.376 C 35.403 614.326 35.497 614.279 35.592 614.232 C 35.757 614.149 35.938 614.062 36.132 613.972 C 36.33 613.879 36.53 613.787 36.732 613.697 C 44.641 610.872 47.807 608.205 53.475 603.746 C 55.477 602.173 57.586 600.272 59.405 598.622 C 61.555 596.677 62.744 595.532 64.545 593.463 C 64.547 593.4 64.534 593.336 64.509 593.275 C 64.415 593.061 64.144 592.954 63.692 592.954 C 57.304 593.891 54.107 594.115 47.791 595.215 C 47.017 595.374 46.29 595.515 45.607 595.638 C 45.106 595.729 44.6 595.814 44.093 595.893 C 43.033 595.68 42.938 593.029 42.082 592.6 C 41.355 592.235 40.706 591.821 40.146 591.365 L 40.43 591.026 Z" id="path-80" vector-effect="non-scaling-stroke" style="" transform="matrix(1, 0, 0, 1, 0, 2.842170943040401e-14)"/>
</svg>