<?xml version="1.0" encoding="utf-8"?>
<svg xmlns="http://www.w3.org/2000/svg" viewBox="415.0168 288.9043 49.6236 28.4923" width="49.6236px" height="28.4923px">
  <path d="M 76.342 34.141 L 73.149 34.512 C 75.21 28.756 77.206 22.981 79.137 17.186 C 79.809 15.17 80.474 13.153 81.132 11.133 C 82.701 8.7 83.499 7.344 83.526 7.064 C 83.527 7.06 83.527 7.055 83.527 7.051 C 83.485 6.585 83.271 6.146 82.923 5.809 C 81.69 4.419 77.492 0.627 72.483 -1.516 C 72.081 -1.688 71.677 -1.857 71.273 -2.025 C 69.477 -1.344 67.614 -0.85 65.685 -0.541 C 61.254 0.029 56.822 0.597 52.389 1.164 C 43.779 2.264 36.266 3.216 29.849 4.021 C 27.16 4.358 24.47 4.693 21.78 5.026 C 21.178 5.084 20.575 5.138 19.971 5.188 C 18.476 5.313 17.31 5.382 16.474 5.395 C 16.38 5.396 16.285 5.397 16.192 5.397 C 14.968 4.671 13.644 4.102 12.256 3.704 C 11.2 3.406 10.109 3.226 9.008 3.17 L 8.209 3.912 C 8.349 4.334 8.521 4.747 8.722 5.147 C 9.143 5.998 10.823 9.001 11.605 10.105 C 11.762 10.325 11.92 10.544 12.081 10.762 C 14.355 20.559 16.75 30.332 19.266 40.078 C 12.879 41.006 16.331 40.601 9.945 41.652 L 9.147 42.394 C 9.616 42.821 10.125 43.21 10.667 43.554 C 11.982 44.404 13.098 46.395 15.293 47.246 C 37.482 42.503 47.877 41.428 66.155 41.232 C 66.943 41.223 67.73 41.219 68.518 41.219 C 75.311 41.214 78.647 41.131 85.419 41.63 C 87.234 41.63 88.486 41.345 89.175 40.775 C 89.597 40.429 89.829 39.926 89.81 39.404 C 89.81 36.435 81.808 33.334 78.973 32.981 C 77.783 33.89 76.455 34.109 76.342 34.141 Z M 57.121 35.709 C 58.052 29.03 58.319 22.832 59.516 16.152 C 59.61 15.699 59.71 15.246 59.815 14.795 C 60.114 13.52 60.413 12.488 60.713 11.699 C 60.446 10.702 60.046 9.009 58.483 7.692 C 58.079 7.353 57.664 7.025 57.238 6.71 C 62.56 6.153 64.128 6.069 69.45 5.636 C 69.621 5.648 69.79 5.685 69.949 5.746 C 70.365 5.91 70.597 6.245 70.647 6.75 C 69.833 11.921 68.622 17.815 66.825 24.643 C 65.922 28.058 64.592 31.53 63.582 34.918 C 61.717 35.067 61.439 35.202 59.578 35.393 C 57.846 35.571 58.847 35.485 57.121 35.709 Z M 28.555 10.022 C 26.518 10.236 26.601 10.344 24.573 10.624 C 24.226 10.605 23.88 10.58 23.533 10.548 C 22.812 10.483 22.093 10.384 21.381 10.253 C 23.51 21.138 25.44 30.764 27.303 39.175 C 28.944 38.884 28.541 38.782 30.192 38.547 C 32.001 38.29 33.814 38.058 35.631 37.852 C 35.41 37.44 35.216 37.017 35.048 36.584 C 34.788 35.909 34.582 35.216 34.433 34.512 C 34.033 26.207 33.367 17.916 32.437 9.648 C 31.142 9.761 29.847 9.886 28.555 10.022 Z M 49.371 9.372 C 49.002 8.785 48.541 8.253 48.003 7.793 C 44.935 8.103 43.375 8.368 40.323 8.8 C 41.122 9.728 41.333 11.725 41.333 14.508 C 41.399 22.177 42.356 29.456 42.556 37.125 C 43.883 36.899 43.077 37.053 44.412 36.877 C 45.872 36.684 47.336 36.514 48.802 36.367 C 49.331 27.838 49.731 19.302 49.999 10.762 C 49.854 10.276 49.643 9.809 49.371 9.372 Z" id="path-71" vector-effect="non-scaling-stroke" style="" transform="matrix(0.6081170439720154, 0, 0, 0.5782769322395325, 410.0247253481257, 290.07535222285014)"/>
</svg>