<?xml version="1.0" encoding="utf-8"?>
<svg xmlns="http://www.w3.org/2000/svg" viewBox="314.781 269.06 45.3932 27.841" width="45.3932px" height="27.841px">
  <path d="M 331.299 269.06 C 333.392 269.238 333.911 269.074 335.857 269.864 C 337.511 270.536 337.919 270.818 338.85 272.174 C 338.85 272.855 339.05 273.844 338.555 275.143 C 338.426 276.842 338.404 275.634 338.406 277.521 C 339.12 277.455 340.924 277.047 341.692 276.869 C 341.873 276.834 342.052 276.785 342.226 276.723 C 342.83 276.511 343.512 276.123 344.273 275.559 C 344.662 275.269 345.039 274.963 345.403 274.642 C 345.947 274.745 346.49 274.859 347.03 274.984 C 349.697 275.602 350.776 276.488 351.713 277.353 C 352.173 277.725 352.45 278.277 352.474 278.868 C 352.477 279.062 352.429 279.253 352.335 279.423 C 352.158 279.74 351.811 279.989 351.296 280.171 C 351.075 280.247 350.849 280.308 350.619 280.352 C 345.773 280.602 342.831 280.863 338.035 281.603 C 338.035 287.602 338.126 284.006 337.879 290.377 C 341.848 290.134 342.127 290.026 346.072 289.526 C 346.194 289.479 346.315 289.428 346.434 289.375 C 346.957 289.14 347.48 288.836 348.003 288.465 C 348.499 288.11 348.97 287.721 349.412 287.3 C 356.587 288.846 360.174 290.701 360.174 292.866 C 360.178 293.105 360.13 293.342 360.034 293.561 C 359.805 294.064 359.297 294.406 358.508 294.589 C 358.201 294.657 357.89 294.702 357.576 294.722 C 355.566 294.645 353.266 294.567 350.676 294.49 C 349.018 294.44 347.359 294.394 345.701 294.35 C 345.498 294.356 345.296 294.362 345.093 294.368 C 332.35 294.757 329.341 295.075 319.234 296.901 C 317.723 296.101 316.531 295.365 315.658 294.693 C 315.35 294.459 315.057 294.205 314.781 293.933 L 315.152 293.19 C 322.203 292.201 324.519 291.861 331.57 291.119 C 331.696 284.934 331.605 288.53 331.727 282.345 C 331.265 282.437 330.803 282.53 330.341 282.623 C 327.212 283.254 325.927 283.377 322.806 284.046 C 322.354 283.849 321.912 283.63 321.482 283.389 C 320.5 282.835 319.577 282.185 318.724 281.448 L 319.095 280.706 C 323.923 279.862 326.906 279.522 331.727 278.634 L 331.505 273.718 C 331.381 272.543 330.994 271.667 330.889 271.455 C 330.768 271.216 330.681 270.943 330.626 270.638 C 330.578 270.362 330.555 270.082 330.557 269.802 L 331.299 269.06 Z" id="path-66" vector-effect="non-scaling-stroke" transform="matrix(1, 0, 0, 1, 2.842170943040401e-14, 0)"/>
</svg>