<?xml version="1.0" encoding="utf-8"?>
<svg viewBox="135.5438 607.459 52.9004 29.9002" width="52.9" height="29.9" xmlns="http://www.w3.org/2000/svg">
  <path d="M 185.444 637.359 L 138.544 637.359 C 138.175 637.363 137.809 637.304 137.46 637.185 C 137.058 637.044 136.693 636.813 136.394 636.509 C 135.874 635.992 135.572 635.295 135.549 634.562 C 135.545 634.495 135.544 634.427 135.544 634.359 C 135.54 633.991 135.599 633.625 135.718 633.276 C 135.859 632.874 136.09 632.509 136.394 632.209 C 136.911 631.689 137.608 631.388 138.341 631.365 C 138.409 631.361 138.476 631.359 138.544 631.359 L 154.444 631.359 C 154.524 631.36 154.604 631.35 154.681 631.329 C 154.923 631.26 155.044 631.07 155.044 630.759 L 155.044 610.659 C 155.04 610.265 155.105 609.874 155.236 609.502 C 155.395 609.067 155.655 608.675 155.994 608.359 C 156.627 607.759 157.377 607.459 158.244 607.459 C 159.111 607.459 159.844 607.759 160.444 608.359 C 160.968 608.882 161.283 609.578 161.33 610.317 C 161.339 610.431 161.344 610.545 161.344 610.659 L 161.344 617.359 C 161.343 617.439 161.353 617.52 161.374 617.597 C 161.443 617.838 161.633 617.959 161.944 617.959 L 177.244 617.959 C 177.626 617.955 178.006 618.022 178.364 618.157 C 178.756 618.311 179.108 618.551 179.394 618.859 C 179.961 619.459 180.244 620.159 180.244 620.959 C 180.248 621.342 180.181 621.721 180.046 622.079 C 179.892 622.471 179.652 622.823 179.344 623.109 C 178.744 623.676 178.044 623.959 177.244 623.959 L 161.944 623.959 C 161.864 623.958 161.784 623.968 161.707 623.989 C 161.465 624.058 161.344 624.248 161.344 624.559 L 161.344 630.759 C 161.343 630.839 161.353 630.92 161.374 630.997 C 161.443 631.238 161.633 631.359 161.944 631.359 L 185.444 631.359 C 186.244 631.359 186.944 631.642 187.544 632.209 C 188.114 632.738 188.439 633.48 188.443 634.258 C 188.444 634.292 188.444 634.325 188.444 634.359 C 188.448 634.742 188.381 635.121 188.246 635.479 C 188.092 635.871 187.852 636.223 187.544 636.509 C 186.944 637.076 186.244 637.359 185.444 637.359 Z" id="path-14"/>
</svg>