<?xml version="1.0" encoding="utf-8"?>
<svg xmlns="http://www.w3.org/2000/svg" viewBox="319.415 282.309 41.754 27.755" width="41.754px" height="27.755px">
  <path d="M 326.017 290.844 C 331.157 289.28 336.253 287.423 341.293 285.277 C 341.499 285.114 341.698 284.94 341.893 284.755 C 342.613 284.067 343.267 283.244 343.839 282.309 C 344.113 282.315 344.386 282.326 344.66 282.343 C 347.204 282.496 349.009 283.058 350.074 284.03 C 350.772 284.564 351.213 285.612 351.223 286.762 C 351.223 287.019 351.167 287.269 351.065 287.479 C 350.91 287.805 350.638 288.089 350.252 288.331 C 350.071 288.442 349.884 288.538 349.695 288.617 C 346.18 289.198 342.676 289.94 339.192 290.844 C 336.049 291.657 332.928 292.647 329.837 293.813 C 328.564 293.813 327.206 293.07 325.762 291.586 L 326.017 290.844 Z M 319.669 305.982 C 329.599 303.816 339.698 301.713 349.966 299.673 C 350.476 299.549 351.24 298.806 352.258 297.446 C 352.873 297.56 353.486 297.692 354.097 297.842 C 358.811 299.002 361.169 300.849 361.169 303.384 C 361.169 304.25 360.49 304.992 359.132 305.61 C 358.139 305.535 357.147 305.47 356.153 305.415 C 355.203 305.361 354.292 305.32 353.423 305.291 C 352.441 305.257 351.458 305.24 350.476 305.239 C 345.913 305.239 340.953 305.776 335.596 306.852 C 331.45 307.697 327.326 308.769 323.234 310.064 C 322.385 309.816 321.112 308.702 319.415 306.724 L 319.669 305.982 Z" id="path-46" vector-effect="non-scaling-stroke" style="" transform="matrix(1, 0, 0, 1, 1.4210854715202004e-14, 0)"/>
</svg>