<?xml version="1.0" encoding="utf-8"?>
<svg viewBox="318.8376 319.2898 42.2115 28.7003" width="42.211" height="28.7" xmlns="http://www.w3.org/2000/svg">
  <path d="M 357.849 347.99 L 322.049 347.99 C 321.183 347.99 320.449 347.69 319.849 347.09 C 319.249 346.49 318.916 345.757 318.849 344.89 C 318.764 337.835 319.182 324.536 319.194 323.693 C 319.218 322.002 320.653 320.545 321.366 320.086 C 322.103 319.611 324.54 319.395 325.352 319.401 C 325.366 319.4 325.38 319.4 325.393 319.4 L 357.849 319.29 C 358.271 319.285 358.69 319.362 359.083 319.516 C 359.442 319.661 359.77 319.873 360.049 320.14 C 360.544 320.607 360.854 321.238 360.921 321.915 C 360.94 322.072 360.949 322.231 360.949 322.39 C 360.949 323.257 360.649 323.99 360.049 324.59 C 359.482 325.171 358.702 325.496 357.89 325.49 C 357.877 325.49 357.863 325.49 357.849 325.49 L 326.749 325.49 C 326.669 325.489 326.589 325.499 326.512 325.52 C 326.27 325.589 326.149 325.779 326.149 326.09 L 326.149 341.19 C 326.148 341.27 326.158 341.35 326.179 341.428 C 326.249 341.669 326.439 341.79 326.749 341.79 L 357.849 341.79 C 358.783 341.79 359.549 342.09 360.149 342.69 C 360.73 343.257 361.055 344.037 361.049 344.85 C 361.049 344.863 361.049 344.877 361.049 344.89 C 360.983 345.757 360.649 346.49 360.049 347.09 C 359.482 347.671 358.702 347.996 357.89 347.99 C 357.877 347.99 357.863 347.99 357.849 347.99 Z" id="path-7" transform="matrix(1, 0, 0, 1, -3.552713678800501e-15, 0)"/>
</svg>