<?xml version="1.0" encoding="utf-8"?>
<svg xmlns="http://www.w3.org/2000/svg" viewBox="344.9713 285.357 44.6897 27.0642" width="44.6897px" height="27.0642px">
  <path d="M 345.969 294.826 C 345.455 294.902 344.205 291.514 345.634 291.35 C 348.685 291 370.573 288.656 376.387 287.212 C 377.021 287.054 377.655 286.744 378.289 286.28 C 378.668 286.001 379.025 285.692 379.356 285.357 C 385.046 286.161 387.891 287.522 387.891 289.439 C 387.906 289.865 387.737 290.276 387.426 290.566 C 387.061 290.906 386.481 291.127 385.686 291.229 C 385.309 291.275 384.93 291.297 384.551 291.294 C 383.222 291.294 381.893 291.318 380.565 291.367 C 377.803 291.465 354.748 294.717 352.006 295.066 C 352.12 295.188 352.23 295.314 352.334 295.443 C 353.029 296.28 353.435 297.319 353.491 298.405 C 353.378 299.028 353.271 299.652 353.17 300.277 C 352.566 303.957 352.544 304.213 352.373 307.938 C 354.644 307.643 363.94 306.525 366.215 306.264 C 368.269 306.028 374.206 305.798 376.264 305.6 C 376.603 305.431 376.942 305.264 377.283 305.099 C 378.74 304.395 379.758 303.965 380.335 303.81 C 380.46 303.773 380.588 303.751 380.718 303.745 C 387.645 305.044 389.66 306.761 389.66 309.173 C 389.672 309.531 389.565 309.882 389.355 310.172 C 389.043 310.586 388.491 310.85 387.7 310.964 C 387.366 311.01 387.028 311.032 386.691 311.029 C 381.994 310.782 379.777 310.796 375.073 310.796 C 372.708 310.799 365.429 310.888 363.068 311.034 C 355.015 311.522 350.036 312.544 348.191 312.409 C 346.088 311.543 346.413 309.73 346.807 308.68 L 346.711 297.424 C 346.711 297.397 346.71 297.37 346.71 297.343 C 346.705 296.943 346.664 296.569 346.586 296.223 C 346.478 295.72 346.268 295.245 345.969 294.826 Z" id="path-31" vector-effect="non-scaling-stroke" transform="matrix(1, 0, 0, 1, -7.105427357601002e-15, 0)"/>
</svg>