<?xml version="1.0" encoding="utf-8"?>
<svg xmlns="http://www.w3.org/2000/svg" viewBox="121.709 591.748 42.0114 26.799" width="42.0114px" height="26.799px">
  <path d="M 122.08 595.283 C 123.642 595.771 125.268 596.021 126.904 596.025 C 140.511 594.788 139.105 595.088 152.959 592.861 C 153.054 592.834 153.148 592.807 153.241 592.779 C 153.833 592.603 154.527 592.375 155.324 592.096 C 155.65 591.982 155.975 591.866 156.298 591.748 C 161.246 593.789 163.72 595.397 163.72 596.572 C 163.721 596.596 163.72 596.62 163.718 596.644 C 163.687 597.067 163.386 597.592 162.814 598.217 C 162.629 598.418 162.437 598.612 162.236 598.799 C 160.417 605.386 159.845 607.396 158.529 614.006 C 158.577 614.077 158.623 614.148 158.667 614.22 C 158.924 614.632 159.099 615.004 159.192 615.335 C 159.243 615.506 159.27 615.683 159.272 615.862 C 159.274 616.025 159.22 616.184 159.117 616.312 C 158.847 616.655 158.22 616.865 157.236 616.942 C 156.926 616.965 156.615 616.976 156.303 616.975 C 154.881 616.91 152.482 616.848 151.059 616.789 C 149.514 616.725 147.968 616.663 146.421 616.604 C 145.288 616.674 144.156 616.75 143.023 616.833 C 134.847 617.44 136.575 617.328 128.467 618.547 C 128.466 618.547 128.465 618.546 128.464 618.546 C 125.497 617.804 123.271 616.815 121.787 615.578 L 122.158 614.836 C 133.555 613.748 135.058 613.537 146.421 612.151 C 147.047 612.046 147.713 611.883 148.417 611.661 C 148.998 611.477 149.57 611.269 150.132 611.037 C 150.415 611.093 150.697 611.154 150.977 611.22 C 151.509 611.345 151.946 611.469 152.288 611.594 C 152.439 611.648 152.586 611.71 152.729 611.78 C 153.505 607.629 153.544 604.622 154.072 600.283 C 154.074 600.061 154.055 599.84 154.016 599.622 C 153.84 598.647 153.243 598.04 152.223 597.801 C 151.856 597.72 151.48 597.681 151.103 597.686 C 147.036 598.103 137.167 599.157 128.76 600.478 C 127.7 600.241 126.67 599.887 125.689 599.42 C 124.08 598.67 122.704 597.496 121.709 596.025 L 122.08 595.283 Z" id="path-52" vector-effect="non-scaling-stroke" transform="matrix(1, 0, 0, 0.9999999999999999, 0, -5.684341886080802e-14)"/>
</svg>