<?xml version="1.0" encoding="utf-8"?>
<svg xmlns="http://www.w3.org/2000/svg" viewBox="152.736 573.26 45.3932 27.841" width="45.3932px" height="27.841px">
  <path d="M 169.254 573.26 C 171.347 573.438 171.866 573.274 173.812 574.064 C 175.466 574.736 175.874 575.018 176.805 576.374 C 176.805 577.055 177.005 578.044 176.51 579.343 C 176.381 581.042 176.359 579.834 176.361 581.721 C 177.075 581.655 178.879 581.247 179.647 581.069 C 179.828 581.034 180.007 580.985 180.181 580.923 C 180.785 580.711 181.467 580.323 182.228 579.759 C 182.617 579.469 182.994 579.163 183.358 578.842 C 183.902 578.945 184.445 579.059 184.985 579.184 C 187.652 579.802 188.731 580.688 189.668 581.553 C 190.128 581.925 190.405 582.477 190.429 583.068 C 190.432 583.262 190.384 583.453 190.29 583.623 C 190.113 583.94 189.766 584.189 189.251 584.371 C 189.03 584.447 188.804 584.508 188.574 584.552 C 183.728 584.802 180.786 585.063 175.99 585.803 C 175.99 591.802 176.081 588.206 175.834 594.577 C 179.803 594.334 180.082 594.226 184.027 593.726 C 184.149 593.679 184.27 593.628 184.389 593.575 C 184.912 593.34 185.435 593.036 185.958 592.665 C 186.454 592.31 186.925 591.921 187.367 591.5 C 194.542 593.046 198.129 594.901 198.129 597.066 C 198.133 597.305 198.085 597.542 197.989 597.761 C 197.76 598.264 197.252 598.606 196.463 598.789 C 196.156 598.857 195.845 598.902 195.531 598.922 C 193.521 598.845 191.221 598.767 188.631 598.69 C 186.973 598.64 185.314 598.594 183.656 598.55 C 183.453 598.556 183.251 598.562 183.048 598.568 C 170.305 598.957 167.296 599.275 157.189 601.101 C 155.678 600.301 154.486 599.565 153.613 598.893 C 153.305 598.659 153.012 598.405 152.736 598.133 L 153.107 597.39 C 160.158 596.401 162.474 596.061 169.525 595.319 C 169.651 589.134 169.46 577.918 169.46 577.918 C 169.336 576.743 168.949 575.867 168.844 575.655 C 168.723 575.416 168.636 575.143 168.581 574.838 C 168.533 574.562 168.51 574.282 168.512 574.002 L 169.254 573.26 Z" id="path-66" vector-effect="non-scaling-stroke" transform="matrix(0.9999999999999999, 0, 0, 0.9999999999999999, 3.552713678800501e-15, 0)"/>
</svg>