<?xml version="1.0" encoding="utf-8"?>
<svg xmlns="http://www.w3.org/2000/svg" viewBox="137.117 275.007 41.7256 28.6773" width="41.7256px" height="28.6773px">
  <path d="M 137.86 279.016 C 137.927 279.039 137.995 279.062 138.062 279.085 C 140.14 279.812 141.928 280.654 143.426 281.613 C 149.417 280.994 148.175 280.729 151.206 280.036 C 155.658 279.018 157.204 278.67 161.645 277.605 C 162.351 277.133 163.063 276.669 163.779 276.213 C 164.423 275.802 165.072 275.4 165.727 275.007 C 165.769 275.015 165.811 275.022 165.853 275.03 C 173.191 276.386 176.86 277.986 176.86 279.831 C 176.874 280.353 176.672 280.859 176.3 281.226 C 176.097 281.427 175.84 281.601 175.528 281.748 C 175.241 281.88 174.941 281.984 174.634 282.058 C 159.698 283.082 159.639 283.011 144.91 285.695 L 144.977 290.188 C 156.111 288.209 147.244 289.842 157.386 287.616 C 158.103 287.419 158.815 287.203 159.52 286.966 C 160.3 286.705 161.073 286.427 161.84 286.131 C 162.425 286.376 163.007 286.626 163.587 286.881 C 167.41 288.563 167.629 288.246 168.541 289.228 C 168.78 289.44 168.451 289.946 167.979 290.527 C 167.768 290.784 167.54 291.027 167.296 291.253 C 166.023 292.55 164.631 292.536 163.321 292.536 C 162.897 292.493 162.473 292.452 162.049 292.412 C 160.287 292.247 159.103 292.164 158.497 292.164 C 157.598 292.167 156.699 292.198 155.801 292.255 C 151.116 292.54 148.248 292.948 144.909 293.603 L 144.753 299.377 C 149.648 298.358 148.856 298.372 155.513 297.474 C 161.721 296.636 157.774 297.064 163.998 296.356 C 165.435 296.013 166.731 295.236 167.709 294.129 C 175.131 294.995 178.842 296.974 178.842 300.067 C 178.854 300.493 178.672 300.901 178.347 301.176 C 177.82 301.635 176.871 301.884 175.502 301.922 C 158.737 302.007 161.347 301.073 144.753 303.459 C 144.753 303.459 137.872 304.167 137.727 303.073 C 137.883 302.295 138.055 301.521 138.241 300.75 C 138.535 299.538 138.997 298.123 139.211 297.136 C 139.438 295.335 139.533 294.745 139.593 293.43 C 139.725 290.506 139.855 290.197 139.74 285.309 C 139.727 285.272 139.714 285.234 139.701 285.197 C 138.737 282.418 137.117 280.368 137.117 279.758 L 137.86 279.016 Z" id="path-35" vector-effect="non-scaling-stroke" transform="matrix(1, 0, 0, 1, 1.4210854715202004e-14, 0)"/>
</svg>