<?xml version="1.0" encoding="utf-8"?>
<svg xmlns="http://www.w3.org/2000/svg" viewBox="32.601 286.729 46.6 29.157" width="46.6px" height="29.157px">
  <path d="M 39.578 292.119 C 44.227 291.261 48.785 290.037 53.25 288.445 C 53.633 288.306 54.015 288.164 54.395 288.017 C 55.623 287.539 56.544 287.109 57.156 286.729 C 60.736 288.143 62.938 289.291 63.763 290.173 C 63.976 290.37 64.107 290.624 64.132 290.894 C 63.821 291.107 63.514 291.326 63.212 291.551 C 62.758 291.888 62.321 292.241 61.9 292.61 C 61.501 293.129 61.099 293.646 60.689 294.161 C 59.484 295.677 58.295 297.093 57.124 298.407 C 55.977 299.696 54.777 300.95 53.53 302.165 C 53.878 302.393 54.227 302.621 54.577 302.847 C 56.849 304.309 59.051 305.633 61.184 306.818 C 63.229 307.96 65.33 309.024 67.481 310.005 C 69.733 311.005 71.893 311.82 73.962 312.449 C 75.67 312.977 77.421 313.389 79.201 313.681 L 79.201 314.171 C 74.55 315.233 69.621 315.804 64.412 315.886 C 59.11 310.904 54.315 307.565 51.059 304.707 C 50.695 305.04 50.329 305.37 49.959 305.697 C 47.387 307.963 45.298 309.339 42.66 310.988 C 39.642 312.903 36.354 314.467 32.88 315.64 L 32.601 315.151 C 34.862 313.845 37.021 312.405 39.063 310.844 C 42.648 308.083 45.388 305.593 48.268 302.257 C 48.058 302.056 47.845 301.857 47.631 301.66 C 46.666 300.771 45.593 299.916 44.567 299.081 C 44.403 298.947 44.235 298.817 44.063 298.691 C 43.56 298.321 43.055 298.012 42.553 297.764 C 41.962 297.467 41.324 297.251 40.661 297.12 C 40.65 297.12 40.639 297.118 40.629 297.117 C 39.289 296.938 38.436 296.717 38.072 296.453 C 37.954 296.382 37.879 296.266 37.87 296.141 L 38.74 295.06 C 38.827 295.048 38.912 295.037 39 295.025 C 40.069 294.884 40.819 294.814 41.252 294.814 C 41.622 294.814 42.367 294.978 43.484 295.305 C 45.93 296.711 48.261 298.267 50.46 299.959 C 52.612 296.998 54.479 293.883 56.041 290.65 L 55.483 290.405 C 54.413 290.688 53.346 290.979 52.282 291.278 C 49.226 292.134 46.199 293.069 43.205 294.08 C 43.064 294.036 42.925 293.991 42.785 293.947 C 41.514 293.54 40.547 293.19 39.886 292.899 C 39.684 292.811 39.487 292.715 39.298 292.61 L 39.578 292.119 Z" id="path-30" vector-effect="non-scaling-stroke" style="" transform="matrix(1, 0, 0, 1, 1.4210854715202004e-14, 0)"/>
</svg>