<?xml version="1.0" encoding="utf-8"?>
<svg xmlns="http://www.w3.org/2000/svg" viewBox="437.68 582.316 49.355 27.296" width="49.355px" height="27.296px">
  <path d="M 438.422 587.449 C 440.094 587.115 441.759 586.766 443.416 586.405 C 446.864 585.655 450.273 584.836 453.637 583.949 C 455.189 583.481 456.678 582.935 458.09 582.316 C 458.427 582.405 458.764 582.495 459.099 582.586 C 463.266 583.72 465.858 584.657 466.874 585.396 C 467.157 585.57 467.332 585.801 467.367 586.048 C 467.367 586.242 467.697 586.701 466 587.428 C 465.614 587.593 465.226 587.756 464.834 587.915 C 458.959 590.947 454.543 593.933 449.78 598.677 C 449.779 598.679 449.778 598.68 449.776 598.682 C 449.454 599.071 449.201 599.454 449.019 599.828 C 448.791 600.286 448.672 600.764 448.667 601.243 C 448.669 601.539 448.787 601.829 449.009 602.09 C 449.425 602.588 450.22 603.055 451.392 603.493 C 451.95 603.698 452.527 603.882 453.12 604.043 C 455.409 604.665 459.738 604.976 466.108 604.976 C 467.022 604.976 467.935 604.959 468.846 604.923 C 472.452 604.775 474.319 604.327 476.805 603.576 C 477.636 603.334 478.353 602.962 478.886 602.494 C 479.304 602.116 479.605 601.692 479.774 601.243 C 479.981 600.713 480.182 600.183 480.375 599.651 C 480.971 598.011 480.61 597.267 481.098 595.614 L 481.84 595.614 C 482.468 599.077 483.21 601.496 484.064 602.871 C 484.251 603.193 484.501 603.497 484.809 603.78 C 484.953 603.863 485.094 603.948 485.232 604.034 C 486.434 604.79 487.035 605.483 487.035 606.112 C 487.037 606.405 486.894 606.691 486.625 606.93 C 486.035 607.466 484.811 607.894 482.953 608.212 C 481.943 608.385 480.927 608.545 479.905 608.688 C 475.67 609.293 471.34 609.603 466.996 609.612 C 463.912 609.612 461.089 609.53 458.527 609.365 C 456.887 609.263 455.255 609.112 453.637 608.912 C 452.057 608.713 450.634 608.431 449.368 608.062 C 447.746 607.606 446.294 606.941 445.102 606.112 C 444.931 605.992 444.767 605.867 444.61 605.739 C 443.488 604.85 442.876 603.748 442.875 602.613 C 442.876 602.403 442.889 602.192 442.914 601.982 C 442.972 601.509 443.094 601.007 443.278 600.479 C 443.47 599.939 443.707 599.405 443.988 598.881 C 447.371 594.449 450.737 592.039 455.734 588.259 C 455.734 588.008 455.494 587.859 455.013 587.81 C 454.883 587.797 454.752 587.791 454.62 587.791 C 450.106 588.57 445.776 589.503 441.632 590.592 C 441.208 590.567 440.786 590.533 440.366 590.488 C 439.696 590.415 439.337 589.939 438.946 589.538 C 438.532 589.114 438.029 588.37 437.68 587.915 L 438.422 587.449 Z" id="path-61" vector-effect="non-scaling-stroke" style="" transform="matrix(1, 0, 0, 0.9999999999999999, 0, -5.684341886080802e-14)"/>
</svg>