<?xml version="1.0" encoding="utf-8"?>
<svg xmlns="http://www.w3.org/2000/svg" viewBox="81.492 116.917 48.437 36.1249" width="48.437px" height="36.1249px">
  <path d="M 90.573 118.885 C 91.242 118.985 91.9 119.141 92.542 119.352 C 93.289 119.596 94 119.938 94.655 120.37 C 95.726 120.187 96.793 119.986 97.856 119.767 C 100.912 119.143 100.932 119.354 103.901 118.401 C 104.597 118.014 105.245 117.676 105.844 117.386 C 106.183 117.222 106.525 117.066 106.87 116.917 C 107.7 117.152 108.524 117.41 109.339 117.689 C 111.719 118.512 113.301 119.334 114.085 120.157 C 114.429 120.471 114.636 120.906 114.663 121.37 C 114.661 121.487 114.64 121.604 114.6 121.714 C 114.443 122.181 113.993 122.795 113.249 123.555 C 112.986 123.824 112.715 124.085 112.437 124.339 C 110.705 135.595 109.839 136.13 109.839 141.944 C 109.823 142.938 110.182 143.902 110.844 144.642 C 111.2 145.037 111.612 145.378 112.065 145.655 C 112.526 145.926 113.017 146.14 113.529 146.293 C 114.068 146.458 114.664 146.581 115.318 146.66 C 115.963 146.735 116.635 146.939 117.261 146.768 C 119.086 146.271 117.211 146.828 119.499 146.086 C 120.417 145.78 120.849 144.703 121.458 143.716 C 121.728 143.272 121.955 142.803 122.136 142.315 C 122.571 141.107 123.044 138.729 123.554 135.18 C 123.709 134.096 123.855 133.011 123.991 131.925 L 125.104 132.296 C 125.596 136.542 126.339 140.755 127.331 144.913 C 127.638 145.229 127.934 145.556 128.217 145.893 C 128.921 146.732 129.407 147.493 129.677 148.178 C 129.835 148.555 129.921 148.958 129.929 149.366 C 129.929 149.807 129.779 150.234 129.504 150.578 C 128.95 151.299 127.855 151.884 126.218 152.335 C 125.91 152.413 125.598 152.477 125.284 152.528 C 123.666 152.801 121.158 152.972 117.76 153.041 C 116.498 153.066 114.601 152.582 111.323 151.593 C 110.28 151.266 109.374 150.856 108.605 150.362 C 107.259 149.541 106.25 148.266 105.757 146.768 C 105.235 145.072 104.897 142.856 104.742 140.121 C 104.675 138.875 104.642 137.626 104.644 136.378 C 104.645 134.914 104.813 134.754 104.933 131.897 C 105.057 129.005 105.208 126.114 105.386 123.225 L 104.644 122.483 C 101.799 122.916 101.335 122.291 98.489 123.095 C 98.705 123.238 98.698 123.674 98.826 123.898 C 98.926 124.072 99 124.259 99.046 124.454 C 98.806 130.831 99.188 128.698 97.698 132.942 C 96.985 135.056 96.399 136.74 95.14 138.582 C 93.765 140.514 92.163 142.375 90.456 144.021 C 86.959 147.395 84.816 148.233 81.863 149.11 L 81.492 148.368 C 83.077 146.48 86.066 145.133 87.477 143.112 C 90.056 139.405 89.287 140.83 90.785 137.225 C 92.791 132.578 92.376 133.966 92.429 128.905 L 92.429 124.823 C 92.431 124.519 92.411 124.215 92.371 123.914 C 92.272 123.19 92.044 122.627 91.687 122.225 C 91.68 122.217 91.673 122.209 91.665 122.201 C 90.967 121.412 90.518 120.747 90.32 120.208 C 90.248 120.023 90.208 119.827 90.202 119.628 L 90.573 118.885 Z" id="path-12" vector-effect="non-scaling-stroke" transform="matrix(1, 0, 0, 1, -1.7763568394002505e-15, 0)"/>
</svg>