<?xml version="1.0" encoding="utf-8"?>
<svg xmlns="http://www.w3.org/2000/svg" viewBox="190.672 103.592 50.1594 35.574" width="50.1594px" height="35.574px">
  <path d="M 191.043 135.455 C 191.912 135.362 192.782 135.269 193.652 135.177 C 199.954 134.508 205.864 133.826 212.171 133.196 L 211.631 115.096 C 211.571 114.376 211.453 113.715 211.277 113.113 C 211.104 112.505 210.849 111.923 210.518 111.385 C 208.414 111.694 206.435 112.065 204.58 112.498 C 203.963 112.291 203.359 112.049 202.771 111.773 C 201.853 111.339 200.969 110.837 200.127 110.272 L 200.498 109.53 C 202.092 109.284 203.685 109.029 205.276 108.764 C 209.885 107.998 214.478 107.14 219.053 106.19 C 219.609 105.842 220.166 105.415 220.723 104.911 C 221.179 104.495 221.613 104.054 222.022 103.592 C 225.756 104.038 228.264 104.778 229.548 105.81 C 230.16 106.236 230.534 106.928 230.557 107.674 C 230.557 108.292 229.938 108.663 228.701 108.787 C 226.857 108.961 224.877 109.193 222.759 109.485 C 221.025 109.725 219.295 109.987 217.569 110.272 L 217.94 112.869 L 217.737 132.453 C 221.324 132.205 222.152 131.834 226.73 131.34 C 226.777 131.327 226.825 131.314 226.873 131.3 C 227.59 131.09 228.308 130.777 229.026 130.362 C 229.653 129.994 230.251 129.577 230.812 129.114 C 237.491 130.969 240.831 133.072 240.831 135.422 C 240.841 135.805 240.656 136.167 240.34 136.384 C 240.01 136.624 239.514 136.782 238.852 136.857 C 238.523 136.892 238.192 136.908 237.862 136.907 C 235.079 136.597 232.538 136.385 230.238 136.269 C 228.945 136.201 227.652 136.166 226.358 136.164 C 220.134 136.164 216.561 136.55 209.13 137.324 C 204.44 137.817 200.157 138.453 195.496 139.166 C 195.014 139.016 194.541 138.838 194.081 138.633 C 192.787 138.067 191.626 137.237 190.672 136.197 L 191.043 135.455 Z" id="path-11" vector-effect="non-scaling-stroke" transform="matrix(0.9999999999999999, 0, 0, 1, 2.842170943040401e-14, 0)"/>
</svg>