<?xml version="1.0" encoding="utf-8"?>
<svg xmlns="http://www.w3.org/2000/svg" viewBox="15.561 534.427 51.329 35.301" width="51.329px" height="35.301px">
  <path d="M 33.711 536.116 C 33.977 536.298 34.245 536.478 34.515 536.654 C 36.248 537.78 37.464 538.343 38.164 538.343 C 38.308 538.34 38.45 538.322 38.59 538.291 C 39.151 538.175 40.001 537.866 41.141 537.363 C 41.512 537.199 41.88 537.031 42.246 536.859 L 42.617 537.601 L 41.133 541.312 C 41.134 542.558 41.258 543.801 41.504 545.023 C 41.479 545.073 41.452 545.124 41.424 545.173 C 41.318 545.362 41.203 545.523 41.077 545.657 C 40.81 545.962 40.424 546.136 40.019 546.136 C 40.012 546.136 40.005 546.136 39.997 546.136 C 39.373 546.127 38.563 545.75 37.569 545.003 C 37.264 544.773 36.968 544.531 36.68 544.28 C 36.019 543.298 35.436 542.266 34.936 541.193 C 34.288 539.794 33.754 538.344 33.34 536.859 L 33.711 536.116 Z M 22.983 548.53 C 22.983 550.107 22.844 552.171 22.566 554.722 C 22.467 555.628 22.358 556.532 22.241 557.436 C 21.801 560.959 21.173 563.227 20.356 564.242 C 20.111 564.606 19.71 564.834 19.272 564.858 C 16.86 564.858 15.623 562.384 15.561 557.436 C 18.01 554.38 20.242 551.156 22.241 547.788 L 22.983 548.53 Z M 51.605 542.827 C 53.817 542.983 55.983 543.536 57.999 544.458 C 59.677 545.222 61.266 546.168 62.737 547.28 C 62.954 547.649 63.159 548.024 63.353 548.405 C 64.427 550.514 64.964 552.49 64.964 554.331 C 64.964 556.063 64.47 556.929 63.48 556.929 C 61.814 556.929 58.787 553.961 54.4 548.025 C 53.319 546.558 52.264 545.073 51.233 543.57 L 51.605 542.827 Z M 25.703 534.427 C 26.827 538.72 29.748 546.957 31.556 549.987 C 33.188 552.722 35.322 557.455 37.187 558.62 C 37.814 559.011 39.364 560.496 40.077 560.691 C 42.176 561.265 44.178 561.714 46.079 562.043 C 47.929 562.371 49.798 562.582 51.675 562.677 C 51.698 562.677 51.72 562.677 51.742 562.677 C 53.115 562.673 54.001 562.547 54.399 562.3 C 54.541 562.232 54.635 562.092 54.644 561.935 C 54.644 561.286 53.792 558.837 52.087 554.588 C 51.828 553.944 51.567 553.3 51.304 552.658 L 52.046 552.287 C 53.241 553.709 54.471 555.101 55.736 556.461 C 58.265 559.171 60.622 561.367 62.808 563.048 C 65.53 564.409 66.89 565.769 66.89 567.13 C 66.89 567.704 66.594 568.13 66.002 568.408 C 65.81 568.496 65.61 568.565 65.405 568.615 C 64.957 568.737 64.506 568.842 64.05 568.932 C 62.46 569.249 60.494 569.473 58.154 569.602 C 56.862 569.671 55.568 569.713 54.273 569.728 C 53.181 569.726 52.09 569.666 51.004 569.549 C 48.64 569.297 46.163 568.777 43.575 567.988 C 41.148 567.238 38.873 566.209 36.716 564.866 C 32.71 562.372 29.128 555.089 27.386 550.69 C 26.218 547.74 25.287 538.339 24.961 535.169 L 25.703 534.427 Z" id="path-46" vector-effect="non-scaling-stroke" transform="matrix(0.9999999999999999, 0, 0, 0.9999999999999999, -1.4210854715202004e-14, -2.842170943040401e-14)"/>
</svg>