<?xml version="1.0" encoding="utf-8"?>
<svg xmlns="http://www.w3.org/2000/svg" viewBox="280.447 245.434 51.339 34.361" width="51.339px" height="34.361px">
  <path d="M 280.818 253.44 C 283.066 253.034 285.316 252.632 287.567 252.234 C 294.588 250.993 311.879 249.082 316.2 248.403 C 317.225 248.17 318.185 247.712 319.012 247.062 C 319.62 246.585 320.171 246.039 320.653 245.434 C 321.421 245.535 322.188 245.652 322.952 245.785 C 326.724 246.442 329.288 247.341 330.644 248.481 C 331.334 248.984 331.755 249.776 331.786 250.63 C 331.779 250.881 331.654 251.114 331.45 251.259 C 330.858 251.739 329.485 252.024 327.333 252.114 C 327.097 252.121 326.862 252.129 326.627 252.138 C 319.341 252.392 312.433 252.879 305.902 253.598 C 299.519 254.284 299.337 253.866 293.049 255.158 C 294.1 256.271 294.842 257.508 295.275 258.869 C 294.981 260.778 294.775 264.906 294.656 267.252 C 294.571 268.957 294.53 270.665 294.533 272.373 C 294.531 272.682 294.558 272.991 294.616 273.295 C 294.852 274.507 295.594 275.263 296.844 275.564 C 297.303 275.668 297.773 275.718 298.244 275.713 C 303.885 275.736 306.862 275.162 312.301 273.662 C 312.814 273.523 313.313 273.337 313.792 273.105 C 315.15 272.451 316.509 271.4 317.868 269.951 C 325.042 270.631 328.629 272.116 328.629 274.404 C 328.622 274.904 328.391 275.376 328.001 275.689 C 327.552 276.086 326.863 276.418 325.935 276.685 C 325.477 276.813 325.014 276.919 324.547 277.002 C 318.198 278.13 312.292 278.937 306.828 279.423 C 302.972 279.776 301.744 279.783 297.873 279.795 C 297.852 279.795 297.832 279.795 297.812 279.795 C 291.915 279.776 288.967 277.055 288.967 271.631 L 288.967 258.498 C 288.967 257.632 288.843 256.766 288.596 255.9 C 286.122 256.456 287.497 256.099 285.271 256.78 C 284.732 256.624 284.202 256.437 283.686 256.219 C 282.499 255.727 281.404 255.038 280.447 254.182 L 280.818 253.44 Z" id="path-18" vector-effect="non-scaling-stroke" transform="matrix(1, 0, 0, 0.9999999999999999, 0, 2.842170943040401e-14)"/>
</svg>