<?xml version="1.0" encoding="utf-8"?>
<svg xmlns="http://www.w3.org/2000/svg" viewBox="405.8482 237.396 45.7298 34.1459" width="45.7298px" height="34.1459px">
  <path d="M 408.637 268.578 C 415.248 262.094 418.478 251.703 420.218 241.859 L 420.292 240.736 C 420.201 240.486 420.119 240.231 420.045 239.971 C 419.954 239.654 419.886 239.352 419.838 239.064 C 419.785 238.76 419.758 238.45 419.755 238.138 L 420.292 237.396 C 424.044 238.447 425.847 239.447 425.847 242.602 L 425.578 243.344 C 427.176 245.605 428.831 247.786 430.541 249.884 C 433.203 253.161 436.021 256.183 438.98 258.93 C 440.719 260.516 442.536 261.934 444.418 263.172 C 446.739 264.697 449.13 266.007 451.578 267.094 L 451.578 267.836 C 451.304 267.905 451.03 267.973 450.757 268.039 C 446.778 269.009 442.752 269.561 438.712 269.691 C 433.38 261.694 428.284 255.928 423.915 248.074 C 420.28 257.218 416.199 266.133 408.88 270.623 C 408.203 271.038 407.458 271.363 407.213 271.431 C 406.402 271.657 405.719 271.497 405.869 271.312 C 406.633 270.373 407.038 270.146 408.637 268.578 Z" id="path-20" vector-effect="non-scaling-stroke" style="" transform="matrix(0.9999999999999999, 0, 0, 0.9999999999999999, 0, 0)"/>
</svg>