<?xml version="1.0" encoding="utf-8"?>
<svg xmlns="http://www.w3.org/2000/svg" viewBox="320.279 1422.47 46.758 30.0601" width="46.758px" height="30.0601px">
  <path d="M 321.021 1428.03 C 321.512 1428.05 322.003 1428.09 322.492 1428.14 C 323.504 1428.26 324.502 1428.47 325.474 1428.78 C 326.613 1428.65 327.751 1428.52 328.889 1428.38 C 336.601 1427.44 344.257 1426.09 351.822 1424.32 C 352.303 1424.15 352.786 1423.98 353.269 1423.81 C 355.275 1423.11 356.626 1422.69 357.324 1422.53 C 357.466 1422.5 357.612 1422.47 357.759 1422.47 C 363.944 1425.25 367.037 1427.1 367.037 1428.03 C 367.033 1428.26 366.982 1428.48 366.889 1428.69 C 366.638 1429.27 366.069 1429.92 365.181 1430.63 C 364.914 1431.38 364.644 1432.14 364.369 1432.89 C 362.655 1437.57 360.575 1442.76 358.13 1448.44 C 357.834 1449.28 357.15 1449.91 356.297 1450.15 C 355.927 1450.25 355.545 1450.3 355.162 1450.3 C 355.143 1450.3 355.125 1450.3 355.107 1450.3 C 354.536 1450.28 353.823 1449.9 352.969 1449.17 C 352.701 1448.94 352.442 1448.69 352.193 1448.44 C 345.884 1449.06 339.575 1449.93 333.267 1451.04 C 333.142 1451.71 332.878 1452.15 332.474 1452.36 C 332.26 1452.48 332.023 1452.53 331.783 1452.53 C 331.508 1452.53 331.233 1452.51 330.961 1452.47 C 329.881 1452.33 329.003 1451.9 328.326 1451.17 C 327.898 1450.7 327.561 1450.15 327.33 1449.56 C 326.309 1446.5 325.01 1442.46 323.433 1437.45 C 322.873 1435.67 322.317 1433.89 321.763 1432.11 C 321.602 1431.81 321.445 1431.51 321.292 1431.2 C 320.616 1429.85 320.279 1428.91 320.279 1428.4 L 321.021 1428.03 Z M 332.525 1447.7 C 336.013 1446.99 339.508 1446.31 343.008 1445.66 C 346.187 1445.07 349.373 1444.51 352.564 1443.99 C 352.941 1442.93 353.309 1441.87 353.667 1440.8 C 354.434 1438.51 355.11 1436.34 355.695 1434.28 C 356.18 1432.58 356.62 1430.87 357.017 1429.15 C 357.02 1428.91 356.993 1428.68 356.938 1428.46 C 356.735 1427.68 356.143 1427.29 355.162 1427.29 C 345.76 1428.78 336.607 1430.26 327.701 1431.74 L 332.525 1447.7 Z" id="path-103" vector-effect="non-scaling-stroke"/>
</svg>