<?xml version="1.0" encoding="utf-8"?>
<svg xmlns="http://www.w3.org/2000/svg" viewBox="301.54 120.921 62.805 36.912" width="62.805px" height="36.912px">
  <path d="M 310.536 127.745 C 311.883 127.515 313.225 127.269 314.563 127.007 C 317.6 126.416 320.819 125.708 324.22 124.886 C 327.345 124.128 330.454 123.323 333.544 122.472 C 333.926 122.283 334.31 122.098 334.698 121.918 C 335.432 121.578 336.057 121.317 336.571 121.135 C 336.795 121.054 337.023 120.983 337.255 120.921 C 342.451 122.11 345.048 123.248 345.048 124.333 C 345.048 124.364 345.042 124.393 345.032 124.421 C 344.923 124.742 344.269 125.318 343.069 126.149 C 342.743 126.375 342.413 126.597 342.079 126.814 C 339.111 132.191 336.297 137.133 332.339 141.062 C 342.045 147.578 352.47 152.233 364.345 155.351 L 364.345 155.972 C 357.588 156.904 350.774 157.526 343.935 157.833 C 341.337 155.352 337.597 152.414 333.19 148.302 C 331.623 146.84 330.703 145.669 329.132 144.21 C 327.801 145.285 326.642 145.945 325.186 146.9 C 319.704 150.505 310.587 154.26 302.283 157.101 L 301.54 156.482 C 303.171 155.604 304.78 154.698 306.366 153.763 C 313.476 149.569 320.502 144.843 324.771 140.509 C 324.582 140.351 324.374 140.213 324.203 140.035 C 321.858 137.596 320.735 136.566 318.758 134.974 C 318.082 134.43 317.388 133.908 316.694 133.384 C 316.643 133.363 316.593 133.34 316.543 133.316 C 316.355 133.228 316.193 133.132 316.059 133.027 C 315.755 132.803 315.58 132.482 315.58 132.144 L 316.322 131.833 C 316.694 131.833 317.204 131.95 317.853 132.181 C 318.088 132.267 318.32 132.357 318.549 132.453 C 319.783 133.168 319.673 132.909 320.886 133.648 C 323.031 134.957 325.148 136.298 327.235 137.671 C 327.993 136.795 328.727 135.902 329.434 134.996 C 331.811 131.947 333.363 129.715 334.468 127.103 C 334.47 126.948 334.449 126.795 334.405 126.644 C 334.289 126.27 334.011 126.029 333.571 125.924 C 333.38 125.881 333.182 125.86 332.984 125.863 C 327.012 127.319 321.654 128.336 315.752 129.981 C 315.069 129.856 313.999 129.644 313.329 129.476 C 312.705 129.318 312.134 129.148 311.616 128.968 C 311.116 128.797 310.631 128.595 310.165 128.365 L 310.536 127.745 Z" id="path-14" vector-effect="non-scaling-stroke" style="" transform="matrix(1, 0, 0, 0.9999999999999999, 2.842170943040401e-14, 0)"/>
</svg>