<?xml version="1.0" encoding="utf-8"?>
<svg xmlns="http://www.w3.org/2000/svg" viewBox="420.853 128.83 41.191 42.675" width="41.191px" height="42.675px">
  <path d="M 440.521 128.83 C 441.354 129.016 442.17 129.267 442.964 129.579 C 443.784 129.908 444.487 130.29 445.073 130.724 C 446.195 131.496 446.961 132.685 447.2 134.025 C 446.888 134.999 446.555 136.051 446.202 137.182 C 445.914 138.108 445.628 139.034 445.345 139.962 C 446.162 139.722 446.978 139.478 447.793 139.23 C 452.12 137.913 454.52 137.044 454.993 136.623 C 459.694 139.282 462.044 141.014 462.044 141.818 C 462.044 142.17 461.799 142.889 461.309 143.976 C 461.186 144.248 461.06 144.518 460.931 144.787 C 460.37 146.674 459.797 148.557 459.211 150.436 C 457.427 156.154 455.93 160.456 454.72 163.341 C 454.358 164.226 453.954 165.093 453.509 165.939 C 452.048 168.679 450.789 170.407 449.732 171.124 C 449.429 171.353 449.065 171.486 448.685 171.505 C 448.679 171.505 448.672 171.504 448.666 171.502 C 448.439 171.429 447.456 170.193 445.716 167.794 C 445.036 166.867 442.438 164.517 437.923 160.744 L 438.294 160.001 C 441.325 161.138 443.631 161.839 445.211 162.106 C 445.623 162.181 446.04 162.221 446.458 162.228 C 446.819 162.226 447.173 162.132 447.487 161.956 C 448.068 161.639 448.618 161.047 449.137 160.179 C 449.383 159.762 449.604 159.331 449.798 158.888 C 450.912 155.919 452.164 151.977 453.555 147.06 C 454.048 145.316 454.527 143.569 454.993 141.818 L 454.251 140.705 C 452.578 141.092 450.908 141.494 449.241 141.911 C 447.444 142.361 445.65 142.824 443.86 143.302 C 439.181 153.978 431.43 163.021 421.595 169.279 L 420.853 168.908 C 422.661 167.133 424.399 165.289 426.063 163.379 C 431.468 157.158 435.174 151.084 437.181 145.158 C 435.712 145.467 434.388 145.776 433.209 146.085 C 432.55 146.257 431.895 146.443 431.243 146.642 C 429.732 146.109 428.54 145.575 427.667 145.042 C 427.359 144.857 427.066 144.647 426.79 144.416 L 427.161 143.673 C 427.631 143.611 428.101 143.547 428.57 143.48 C 430.004 143.275 431.516 143.038 433.104 142.767 C 434.838 142.47 436.568 142.154 438.294 141.818 C 438.671 140.832 439.019 139.835 439.34 138.83 C 439.808 137.373 440.202 135.893 440.521 134.396 C 440.521 133.507 440.202 132.554 439.562 131.537 C 439.291 131.11 439.727 129.574 440.521 128.83 Z" id="path-16" vector-effect="non-scaling-stroke" transform="matrix(0.9999999999999999, 0, 0, 0.9999999999999999, 0, 1.4210854715202004e-14)"/>
</svg>