<?xml version="1.0" encoding="utf-8"?>
<svg xmlns="http://www.w3.org/2000/svg" viewBox="186.278 157.587 54.4359 27.414" width="54.4359px" height="27.414px">
  <path d="M 196.225 163.524 C 197.652 163.34 199.077 163.142 200.5 162.929 C 206.426 162.049 212.306 160.886 218.12 159.442 C 218.754 159.284 219.388 158.973 220.022 158.51 C 220.401 158.23 220.758 157.921 221.089 157.587 C 226.779 158.391 229.624 159.751 229.624 161.669 C 229.639 162.094 229.469 162.505 229.158 162.796 C 228.793 163.136 228.214 163.357 227.419 163.459 C 227.042 163.504 226.663 163.526 226.284 163.524 C 224.955 163.523 223.626 163.548 222.298 163.597 C 219.536 163.694 216.78 163.918 214.038 164.267 C 214.152 164.388 214.261 164.513 214.365 164.643 C 215.06 165.48 215.466 166.519 215.522 167.606 C 215.409 168.229 215.302 168.853 215.201 169.478 C 214.597 173.157 214.086 173.546 213.915 177.272 C 216.186 176.976 218.459 176.698 220.734 176.437 C 222.788 176.201 223.811 175.85 225.869 175.653 C 226.208 175.483 226.547 175.316 226.888 175.152 C 228.345 174.447 229.363 174.017 229.94 173.863 C 230.064 173.825 230.192 173.804 230.322 173.798 C 237.249 175.096 240.713 176.952 240.713 179.364 C 240.725 179.721 240.618 180.073 240.408 180.363 C 240.096 180.776 239.544 181.04 238.753 181.154 C 238.419 181.2 238.081 181.222 237.744 181.22 C 233.047 180.972 228.347 180.849 223.643 180.849 C 221.278 180.852 219.948 181.061 217.587 181.207 C 209.534 181.695 201.701 182.917 191.473 185.001 C 189.37 184.135 187.639 183.145 186.278 182.032 L 186.649 181.29 C 190.574 180.685 194.501 180.098 198.431 179.527 C 202.17 178.983 204.604 178.522 208.348 178.014 L 208.471 167.977 C 208.471 167.95 208.471 167.923 208.471 167.897 C 208.466 167.496 208.425 167.123 208.347 166.777 C 208.239 166.273 208.029 165.798 207.729 165.38 C 207.215 165.456 206.701 165.538 206.189 165.628 C 205.3 165.782 204.354 165.965 203.351 166.177 C 202.333 166.392 201.319 166.621 200.307 166.864 C 200.287 166.856 200.266 166.849 200.246 166.842 C 198.966 166.372 197.907 165.853 197.07 165.285 C 196.628 164.991 196.221 164.65 195.854 164.267 L 196.225 163.524 Z" id="path-10" vector-effect="non-scaling-stroke"/>
</svg>