<?xml version="1.0" encoding="utf-8"?>
<svg xmlns="http://www.w3.org/2000/svg" viewBox="94.042 175.171 49.054 26.113" width="49.054px" height="26.113px">
  <path d="M 105.723 178.882 C 105.97 178.882 106.216 178.894 106.463 178.916 C 107.21 178.985 107.984 179.157 108.783 179.433 C 109.509 179.688 110.214 179.999 110.891 180.366 C 114.088 179.5 117.286 178.511 120.485 177.397 C 120.795 177.241 121.104 177.079 121.408 176.91 C 122.361 176.381 123.284 175.801 124.175 175.171 C 124.906 175.425 125.632 175.697 126.35 175.987 C 129.329 177.201 130.82 178.289 130.82 179.253 C 130.82 179.705 130.331 180.443 129.357 181.467 C 129.111 181.724 128.86 181.975 128.604 182.221 C 128.528 182.525 128.454 182.829 128.383 183.134 C 127.559 186.604 126.448 188.75 126.439 192.317 C 126.439 193.675 126.619 194.722 126.979 195.458 C 127.322 196.28 128.136 196.802 129.022 196.77 C 129.855 196.769 130.337 196.886 131.133 196.641 C 132.34 196.269 132.128 196.306 132.527 196.037 C 133.217 195.577 133.515 194.942 134.071 194.501 C 134.43 194.221 134.655 193.532 134.977 193.21 C 140.389 194.2 143.096 195.56 143.096 197.292 C 143.096 197.315 143.095 197.337 143.095 197.359 C 143.068 198.31 142.452 198.906 141.251 199.147 C 140.779 199.241 140.308 199.332 139.835 199.42 C 137.011 199.949 134.552 200.305 132.458 200.487 C 131.455 200.579 130.448 200.627 129.441 200.632 C 129.358 200.632 129.275 200.634 129.193 200.631 C 126.675 200.531 127.249 200.467 125.801 200.059 C 123.752 199.17 122.414 197.157 122.379 194.915 C 122.194 191.39 122.762 188.278 122.699 181.907 C 122.702 181.722 122.681 181.538 122.637 181.358 C 122.52 180.91 122.244 180.622 121.808 180.496 C 121.617 180.445 121.421 180.42 121.224 180.423 C 119.606 180.933 118.184 181.38 116.729 181.824 C 115.438 182.22 114.144 182.608 112.848 182.99 L 113.516 187.016 C 108.995 196.704 101.329 199.403 94.78 201.284 L 94.042 200.541 C 101.019 196.496 107.251 190.075 106.831 184.448 C 106.789 183.882 106.688 183.321 106.419 182.821 C 106.228 182.469 105.996 182.143 105.723 181.85 C 105.23 181.294 104.985 180.552 104.985 179.624 L 105.723 178.882 Z" id="path-13" vector-effect="non-scaling-stroke" style="transform-origin: -22.938px 189.504px;"/>
</svg>