<?xml version="1.0" encoding="utf-8"?>
<svg xmlns="http://www.w3.org/2000/svg" viewBox="104.88 521.207 51.329 26.901" width="51.329px" height="26.901px">
  <path d="M 124.666 522.131 C 124.932 522.313 125.2 522.493 125.47 522.669 C 127.203 523.795 128.419 524.358 129.119 524.358 C 129.263 524.355 129.405 524.337 129.545 524.306 C 130.106 524.19 130.956 523.881 132.096 523.378 C 132.467 523.214 132.835 523.046 133.201 522.874 L 133.572 523.616 L 132.088 527.327 C 132.089 528.573 132.213 529.816 132.459 531.038 C 132.434 531.088 132.407 531.139 132.379 531.188 C 132.273 531.377 132.158 531.538 132.032 531.672 C 131.765 531.977 131.379 532.151 130.974 532.151 C 130.967 532.151 130.96 532.151 130.952 532.151 C 130.328 532.142 129.518 531.765 128.524 531.018 C 128.219 530.788 127.923 530.546 127.635 530.295 C 126.974 529.313 126.391 528.281 125.891 527.208 C 125.243 525.809 124.709 524.359 124.295 522.874 L 124.666 522.131 Z M 112.302 526.91 C 112.302 528.487 112.163 530.551 111.885 533.102 C 111.786 534.008 111.677 534.912 111.56 535.816 C 111.12 539.339 110.492 541.607 109.675 542.622 C 109.43 542.986 109.029 543.214 108.591 543.238 C 106.179 543.238 104.942 540.764 104.88 535.816 C 107.329 532.76 109.561 529.536 111.56 526.168 L 112.302 526.91 Z M 140.924 521.207 C 143.136 521.363 145.302 521.916 147.318 522.838 C 148.996 523.602 150.585 524.548 152.056 525.66 C 152.273 526.029 152.478 526.404 152.672 526.785 C 153.746 528.894 154.283 530.87 154.283 532.711 C 154.283 534.443 153.789 535.309 152.799 535.309 C 151.133 535.309 148.106 532.341 143.719 526.405 C 142.638 524.938 141.583 523.453 140.552 521.95 L 140.924 521.207 Z M 114.062 526.177 C 116.678 529.558 119.187 532.415 121.999 534.546 C 124.46 536.452 124.665 536.463 127.264 538.101 C 127.889 538.495 128.683 538.876 129.396 539.071 C 131.496 539.643 133.497 540.094 135.398 540.423 C 137.248 540.751 139.117 540.962 140.994 541.057 C 141.017 541.057 141.039 541.057 141.061 541.057 C 142.434 541.053 143.32 540.927 143.718 540.68 C 143.86 540.612 143.954 540.472 143.963 540.315 C 143.963 539.666 143.111 537.217 141.406 532.968 C 141.147 532.324 140.886 531.68 140.623 531.038 L 141.365 530.667 C 142.56 532.089 143.79 533.481 145.055 534.841 C 147.584 537.551 149.941 539.747 152.127 541.428 C 154.849 542.789 156.209 544.149 156.209 545.51 C 156.209 546.084 155.913 546.51 155.321 546.788 C 155.129 546.876 154.929 546.945 154.724 546.995 C 154.276 547.117 153.825 547.222 153.369 547.312 C 151.779 547.629 149.813 547.853 147.473 547.982 C 146.181 548.051 144.887 548.093 143.592 548.108 C 142.5 548.106 141.409 548.046 140.323 547.929 C 137.959 547.677 135.482 547.157 132.894 546.368 C 130.467 545.618 128.192 544.589 126.035 543.246 C 122.029 540.752 120.648 539.068 117.829 535.249 C 115.935 532.704 114.558 529.84 113.32 526.919 L 114.062 526.177 Z" id="path-47" vector-effect="non-scaling-stroke" transform="matrix(0.9999999999999999, 0, 0, 0.9999999999999999, -1.4210854715202004e-14, 0)"/>
</svg>