<?xml version="1.0" encoding="utf-8"?>
<svg xmlns="http://www.w3.org/2000/svg" viewBox="298.279 315.943 49.8151 26.986" width="49.8151px" height="26.986px">
  <path d="M 315.131 341.067 C 313.701 341.316 312.467 341.565 311.428 341.815 L 308.83 342.929 C 307.668 342.526 306.829 341.704 306.313 340.462 C 306.103 339.942 305.951 339.4 305.861 338.847 C 305.955 338.409 306.039 337.969 306.111 337.528 C 306.276 336.528 306.399 335.456 306.481 334.312 C 306.565 333.103 306.951 330.398 306.948 329.187 C 306.781 328.912 306.607 328.642 306.427 328.376 C 305.915 327.614 305.345 326.893 304.722 326.219 C 303.995 326.332 303.946 326.319 302.823 326.599 C 300.225 326.227 299.145 325.078 298.279 323.965 L 298.65 323.594 C 302.736 322.873 302.499 323.271 306.577 322.508 C 310.416 321.788 322.942 319.143 323.909 319.048 C 325.591 318.883 327.386 318.662 329.295 318.384 C 331.237 318.099 333.174 317.78 335.105 317.427 C 335.333 317.369 335.56 317.307 335.786 317.241 C 336.434 317.051 337.228 316.789 338.167 316.453 C 338.632 316.286 339.096 316.116 339.558 315.943 C 340.118 316.058 340.676 316.184 341.231 316.321 C 344.137 317.041 346.12 317.901 347.18 318.903 C 347.736 319.366 348.068 320.044 348.094 320.767 C 348.097 320.997 348.013 321.22 347.86 321.393 C 347.477 321.836 346.621 322.108 345.294 322.208 C 344.867 322.238 344.44 322.253 344.012 322.252 C 340.76 322.251 337.508 322.312 334.259 322.437 C 324.967 322.774 318.349 323.589 309.175 325.105 C 309.229 325.158 309.281 325.213 309.333 325.269 C 309.694 325.657 310.025 326.106 310.324 326.617 C 310.596 327.084 310.832 327.571 311.031 328.074 C 311.093 328.761 311.147 329.449 311.193 330.138 C 311.334 332.292 311.059 335.945 311.057 338.104 C 322.866 336.194 327.908 334.727 331.469 333.471 C 332.101 333.269 332.707 332.994 333.276 332.653 C 333.803 332.79 334.326 332.938 334.847 333.096 C 337.544 333.917 339.365 334.822 340.308 335.81 C 340.772 336.243 341.045 336.842 341.069 337.477 C 341.071 337.707 340.988 337.93 340.835 338.102 C 340.452 338.545 339.596 338.817 338.269 338.918 C 337.842 338.948 337.415 338.963 336.987 338.962 L 329.565 338.962 C 327.895 338.962 326.108 339.079 324.203 339.314 C 322.641 339.509 315.874 340.938 315.131 341.067 Z" id="path-19" vector-effect="non-scaling-stroke" transform="matrix(1, 0, 0, 0.9999999999999999, 0, 2.842170943040401e-14)"/>
</svg>