<?xml version="1.0" encoding="utf-8"?>
<svg xmlns="http://www.w3.org/2000/svg" viewBox="320.394 1476.86 41.562 25.6" width="41.562px" height="25.6px">
  <path d="M 321.136 1481.31 C 321.439 1481.31 321.742 1481.32 322.044 1481.33 C 323.174 1481.39 324.107 1481.55 324.843 1481.82 C 325.246 1481.96 325.623 1482.16 325.96 1482.42 C 327.497 1482.23 329.031 1482.02 330.563 1481.8 C 338.525 1480.65 346.407 1479 354.163 1476.86 C 354.741 1477.09 355.315 1477.34 355.883 1477.59 C 358.606 1478.82 360.414 1480.01 361.305 1481.15 C 361.701 1481.61 361.93 1482.19 361.956 1482.8 C 361.956 1483.31 361.672 1483.86 361.104 1484.45 C 360.905 1484.65 360.694 1484.84 360.472 1485.02 C 358.493 1488.73 356.39 1492.69 354.164 1496.9 L 354.163 1498.75 C 354.164 1498.86 354.145 1498.96 354.105 1499.06 C 353.931 1499.48 353.368 1499.74 352.416 1499.83 C 352.133 1499.85 351.85 1499.87 351.566 1499.87 C 350.365 1499.79 349.163 1499.73 347.96 1499.67 C 346.813 1499.62 345.719 1499.58 344.68 1499.55 C 343.512 1499.51 342.344 1499.49 341.175 1499.49 C 338.172 1499.5 335.181 1499.87 332.269 1500.61 C 332.233 1500.7 332.196 1500.79 332.156 1500.88 C 331.913 1501.41 331.643 1501.82 331.346 1502.08 C 331.095 1502.32 330.762 1502.46 330.414 1502.46 C 328.935 1502.46 327.692 1501.36 326.685 1499.16 C 326.406 1498.55 326.164 1497.91 325.96 1497.27 C 325.369 1495.36 324.758 1493.27 324.127 1491 C 323.609 1489.13 323.107 1487.27 322.621 1485.39 C 322.401 1485.15 322.192 1484.9 321.996 1484.64 C 321.729 1484.29 321.461 1483.9 321.194 1483.47 C 320.91 1483.01 320.644 1482.53 320.394 1482.05 L 321.136 1481.31 Z M 350.824 1482.05 C 346.961 1482.66 343.095 1483.24 339.227 1483.82 C 335.55 1484.36 331.87 1484.88 328.187 1485.39 C 329.236 1489.53 330.475 1493.62 331.898 1497.64 C 337.341 1496.28 342.907 1495.16 348.597 1494.3 C 348.888 1493.35 349.178 1492.4 349.467 1491.45 C 350.303 1488.69 351.127 1485.93 351.937 1483.17 L 350.824 1482.05 Z" id="path-105" vector-effect="non-scaling-stroke"/>
</svg>