<?xml version="1.0" encoding="utf-8"?>
<svg xmlns="http://www.w3.org/2000/svg" viewBox="401.2224 293.9099 46.1716 28.3991" width="46.1716px" height="28.3991px">
  <path d="M 403.825 319.503 C 409.57 312.123 412.037 307.09 414.486 298.522 L 414.56 297.048 C 414.457 296.816 414.364 296.58 414.279 296.339 C 414.179 296.045 414.101 295.765 414.047 295.498 C 413.987 295.217 413.957 294.929 413.954 294.64 L 414.56 293.953 C 419.164 293.53 420.84 296.287 420.84 299.211 L 420.536 299.898 C 422.34 301.993 424.209 304.014 426.139 305.958 C 429.144 308.995 429.833 309.493 433.173 312.039 C 435.137 313.508 437.188 314.822 439.312 315.969 C 441.934 317.382 444.633 318.596 447.394 319.603 L 447.394 320.291 C 447.087 320.355 446.778 320.418 446.47 320.479 C 441.977 321.378 437.431 321.889 432.871 322.01 C 427.056 314.158 423.664 310.215 418.216 302.938 C 413.173 311.305 411.979 314.861 404.435 320.938 C 403.822 321.475 403.041 322.143 402.765 322.206 C 401.848 322.416 401.076 322.267 401.246 322.096 C 402.109 321.226 402.537 321.288 403.825 319.503 Z" id="path-21" vector-effect="non-scaling-stroke" style="" transform="matrix(0.9999999999999999, 0, 0, 0.9999999999999999, 0, 0)"/>
</svg>