<?xml version="1.0" encoding="utf-8"?>
<svg xmlns="http://www.w3.org/2000/svg" viewBox="224.295 478.845 49.1711 26.986" width="49.1711px" height="26.986px">
  <path d="M 241.598 504.098 C 240.168 504.347 238.483 504.467 237.444 504.717 L 234.846 505.831 C 233.684 505.428 232.845 504.606 232.329 503.364 C 232.119 502.844 231.967 502.302 231.877 501.749 C 231.971 501.311 232.055 500.871 232.127 500.43 C 232.292 499.43 232.415 498.358 232.497 497.214 C 232.581 496.005 232.967 493.3 232.964 492.089 C 232.797 491.814 232.623 491.544 232.443 491.278 C 231.931 490.516 231.361 489.795 230.738 489.121 C 230.011 489.234 229.962 489.221 228.839 489.501 C 226.241 489.129 225.161 487.98 224.295 486.867 L 224.666 486.496 C 228.752 485.775 228.515 486.173 232.593 485.41 C 236.432 484.69 248.958 482.045 249.925 481.95 C 251.607 481.785 253.402 481.564 255.311 481.286 C 257.253 481.001 259.19 480.682 261.121 480.329 C 261.349 480.271 261.576 480.209 261.802 480.143 C 262.45 479.953 263.244 479.691 264.183 479.355 C 264.648 479.188 265.112 479.018 265.574 478.845 C 266.134 478.96 266.692 479.086 267.247 479.223 C 270.153 479.943 271.726 482.323 272.552 483.383 C 273.108 483.963 273.44 484.524 273.466 485.247 C 273.469 485.477 273.385 485.7 273.232 485.873 C 272.849 486.316 271.993 486.588 270.666 486.688 C 270.239 486.718 269.812 486.733 269.384 486.732 C 266.132 486.731 263.7 486.161 260.451 486.286 C 251.159 486.623 245.885 487.944 236.711 489.46 C 236.765 489.513 236.725 489.476 236.777 489.532 C 237.138 489.92 237.469 490.369 237.768 490.88 C 238.04 491.347 238.276 491.834 238.475 492.337 C 238.537 493.024 238.591 493.712 238.637 494.401 C 238.778 496.555 238.015 497.526 238.013 499.685 C 249.822 497.775 253.526 496.913 257.087 495.657 C 257.719 495.455 258.325 495.18 258.894 494.839 C 259.421 494.976 259.944 495.124 260.465 495.282 C 263.162 496.103 265.381 497.724 266.324 498.712 C 266.788 499.145 267.061 499.744 267.085 500.379 C 267.087 500.609 267.004 500.832 266.851 501.004 C 266.468 501.447 265.612 501.719 264.285 501.82 C 263.858 501.85 263.431 501.865 263.003 501.864 L 255.71 501.864 C 254.04 501.864 252.639 502.11 250.734 502.345 C 249.172 502.54 242.341 503.969 241.598 504.098 Z" id="path-19" vector-effect="non-scaling-stroke" transform="matrix(1, 0, 0, 1, 0, -5.684341886080802e-14)"/>
</svg>