<?xml version="1.0" encoding="utf-8"?>
<svg xmlns="http://www.w3.org/2000/svg" viewBox="310.891 181.071 52.695 29.1021" width="52.695px" height="29.1021px">
  <path d="M 314.973 187.379 C 318.35 186.859 321.712 186.246 325.055 185.543 C 329.032 184.709 332.973 183.712 336.868 182.555 L 340.208 181.071 C 340.944 181.324 341.673 181.596 342.394 181.887 C 345.39 183.1 346.887 184.189 346.887 185.153 C 346.887 185.833 346.145 186.327 344.661 186.637 C 341.445 190.162 338.353 193.254 335.384 195.914 C 345.713 203.15 352.639 204.977 363.586 207.142 L 363.586 207.884 C 362.254 208.264 360.909 208.602 359.555 208.896 C 354.538 209.969 349.963 210.191 344.832 210.172 C 342.354 207.762 343.002 208.579 340.44 206.259 C 337.679 203.757 334.88 201.298 332.044 198.883 C 330.65 199.913 329.209 200.879 327.726 201.777 C 322.712 204.784 317.293 207.059 311.634 208.532 L 310.891 207.789 C 318.19 203.893 324.004 199.687 328.333 195.172 C 327.83 194.749 327.321 194.334 326.806 193.926 C 324.876 192.399 323.372 191.417 322.294 190.98 C 321.973 190.838 321.632 190.75 321.282 190.719 C 321.039 190.7 320.82 190.562 320.698 190.351 C 320.593 190.168 320.54 189.92 320.54 189.606 L 318.684 189.977 C 318.342 189.881 318.001 189.777 317.663 189.666 C 316.229 189.192 315.209 188.677 314.602 188.121 L 314.973 187.379 Z M 322.766 189.235 C 323.051 189.252 323.333 189.297 323.609 189.369 C 324.807 189.666 326.539 190.447 328.806 191.713 C 329.521 192.113 330.229 192.524 330.93 192.946 C 332.91 191.028 334.642 189.049 336.126 187.008 L 335.384 186.266 L 322.766 189.235 Z" id="path-15" vector-effect="non-scaling-stroke" transform="matrix(1, 0, 0, 0.9999999999999999, 2.842170943040401e-14, 0)"/>
</svg>