<?xml version="1.0" encoding="utf-8"?>
<svg xmlns="http://www.w3.org/2000/svg" viewBox="418.348 192.856 39.006 31.844" width="39.006px" height="31.844px">
  <path d="M 434.683 192.856 C 435.516 193.042 436.332 193.293 437.126 193.605 C 437.946 193.934 438.649 194.316 439.235 194.75 C 440.357 195.522 441.123 196.711 441.362 198.051 C 441.05 199.025 440.938 199.098 440.655 200.026 C 441.472 199.786 442.288 199.542 443.103 199.294 C 447.43 197.977 449.83 197.108 450.303 196.687 C 455.004 199.346 457.354 201.078 457.354 201.882 C 457.354 202.234 457.109 202.953 456.619 204.04 C 456.496 204.312 456.37 204.582 456.241 204.851 C 455.68 206.738 455.197 208.651 454.521 210.5 C 453.301 213.838 453.425 213.651 452.215 216.536 C 451.853 217.421 451.449 218.288 451.004 219.134 C 449.543 221.874 448.284 223.602 447.227 224.319 C 446.924 224.548 446.56 224.681 446.18 224.7 C 446.174 224.7 446.167 224.699 446.161 224.697 C 445.934 224.624 444.951 223.388 443.211 220.989 C 442.531 220.062 439.933 217.712 435.418 213.939 L 435.789 213.196 C 438.82 214.333 441.126 215.034 442.706 215.301 C 443.118 215.376 443.535 215.416 443.953 215.423 C 444.314 215.421 444.668 215.327 444.982 215.151 C 445.563 214.834 446.113 214.242 446.632 213.374 C 446.878 212.957 447.099 212.526 447.293 212.083 C 448.407 209.114 447.474 212.041 448.865 207.124 C 449.358 205.38 449.837 203.633 450.303 201.882 L 449.561 200.769 C 447.888 201.156 446.218 201.558 444.551 201.975 C 442.754 202.425 440.96 202.888 439.17 203.366 C 434.491 214.042 428.697 218.666 419.09 222.474 L 418.348 222.103 C 420.498 220.328 422.372 218.689 424.325 217.075 C 426.766 215.058 430.484 211.148 432.491 205.222 C 431.022 205.531 429.698 205.84 428.519 206.149 C 427.86 206.321 427.205 206.507 426.553 206.706 C 425.042 206.173 423.85 205.639 422.977 205.106 C 422.669 204.921 422.376 204.711 422.1 204.48 L 422.471 203.737 C 422.941 203.675 423.411 203.611 423.88 203.544 C 425.314 203.339 426.826 203.102 428.414 202.831 C 430.148 202.534 431.878 202.218 433.604 201.882 C 433.981 200.896 434.364 199.919 434.683 198.422 C 434.683 197.533 434.364 196.58 433.724 195.563 C 433.453 195.136 433.889 193.6 434.683 192.856 Z" id="path-17" vector-effect="non-scaling-stroke" transform="matrix(0.9999999999999999, 0, 0, 0.9999999999999999, 0, 1.4210854715202004e-14)"/>
</svg>